<?xml version="1.0" encoding="UTF-8" standalone="no"?>
<!-- Created with Inkscape (http://www.inkscape.org/) -->

<svg
   xmlns:dc="http://purl.org/dc/elements/1.1/"
   xmlns:cc="http://creativecommons.org/ns#"
   xmlns:rdf="http://www.w3.org/1999/02/22-rdf-syntax-ns#"
   xmlns:svg="http://www.w3.org/2000/svg"
   xmlns="http://www.w3.org/2000/svg"
   xmlns:sodipodi="http://sodipodi.sourceforge.net/DTD/sodipodi-0.dtd"
   xmlns:inkscape="http://www.inkscape.org/namespaces/inkscape"
   width="744.09448"
   height="1052.3622"
   id="svg3360"
   version="1.1"
   inkscape:version="0.91 r13725"
   viewBox="0 0 744.09448 1052.3622"
   sodipodi:docname="fdf_skjold.svg">
  <defs
     id="defs3362" />
  <sodipodi:namedview
     id="base"
     pagecolor="#ffffff"
     bordercolor="#ffffff"
     borderopacity="0.0"
     inkscape:pageopacity="0.0"
     inkscape:pageshadow="0"
     inkscape:zoom="0.7"
     inkscape:cx="199.35918"
     inkscape:cy="89.609883"
     inkscape:document-units="px"
     inkscape:current-layer="layer3"
     showgrid="false"
     inkscape:snap-bbox="true"
     inkscape:bbox-paths="true"
     inkscape:bbox-nodes="true"
     inkscape:snap-bbox-edge-midpoints="true"
     inkscape:snap-bbox-midpoints="true"
     inkscape:object-nodes="true"
     inkscape:snap-others="false" />
  <metadata
     id="metadata3365">
    <rdf:RDF>
      <cc:Work
         rdf:about="">
        <dc:format>image/svg+xml</dc:format>
        <dc:type
           rdf:resource="http://purl.org/dc/dcmitype/StillImage" />
        <dc:title></dc:title>
      </cc:Work>
    </rdf:RDF>
  </metadata>
  <g
     inkscape:groupmode="layer"
     id="layer3"
     inkscape:label="Layer 3"
     style="display:inline">
    <rect
       style="display:inline;fill:#6993b7;fill-opacity:1;stroke:none;stroke-width:1;stroke-linecap:round;stroke-linejoin:round;stroke-miterlimit:4;stroke-dasharray:none;stroke-dashoffset:0;stroke-opacity:1"
       id="rect4318"
       width="540.55627"
       height="277.70999"
       x="-42.655006"
       y="817.30719"
       inkscape:export-xdpi="96"
       inkscape:export-ydpi="96" />
  </g>
  <g
     inkscape:label="Classic"
     inkscape:groupmode="layer"
     id="layer1"
     style="display:inline">
    <path
       inkscape:connector-curvature="0"
       id="path4164"
       style="fill:#231f20;fill-opacity:1;fill-rule:nonzero;stroke:none"
       d="m 0,915.6497 61.582,0 0,18.10462 -41.252375,0 0,25.67138 37.98825,0 0,18.103 -37.98825,0 0,41.9946 -20.329625,0 0,-103.8736" />
    <path
       inkscape:connector-curvature="0"
       id="path4166"
       style="fill:#231f20;fill-opacity:1;fill-rule:nonzero;stroke:none"
       d="m 118.4155,932.26995 c -2.17725,0 -4.37738,0.0512 -6.6035,0.14787 -2.226,0.0996 -3.88325,0.24901 -4.97113,0.44538 l 0,69.5952 c 0.3945,0.1 1.062,0.1738 2.00338,0.2227 0.939,0.051 1.95212,0.099 3.042,0.1473 1.08737,0.051 2.1265,0.1012 3.11625,0.1501 0.98775,0.051 1.72938,0.074 2.226,0.074 5.73587,0 10.51025,-1.0123 14.319,-3.0411 3.8075,-2.02777 6.82625,-4.72415 9.0525,-8.0879 2.225,-3.36375 3.78375,-7.246 4.67375,-11.64888 0.89,-4.40087 1.33625,-8.92724 1.33625,-13.57812 0,-4.05525 -0.3975,-8.13575 -1.1875,-12.24225 -0.7925,-4.104 -2.25125,-7.791 -4.3775,-11.05463 -2.12875,-3.26412 -5.0225,-5.93512 -8.68125,-8.01275 -3.66125,-2.07812 -8.3095,-3.11662 -13.94825,-3.11662 z M 86.51125,915.6497 c 2.077625,-0.29625 4.42625,-0.54125 7.04875,-0.7425 2.61975,-0.19625 5.3165,-0.345 8.0875,-0.44375 2.7685,-0.0975 5.46475,-0.1725 8.08688,-0.22375 2.62062,-0.0487 4.97124,-0.0738 7.04837,-0.0738 9.201,0 17.066,1.2875 23.5935,3.85875 6.53,2.5725 11.82125,6.18375 15.87875,10.83213 4.05625,4.65087 7.02375,10.19037 8.9025,16.61962 1.87875,6.43213 2.82,13.50387 2.82,21.21975 0,7.02488 -0.89,13.79975 -2.67,20.32963 -1.78125,6.53025 -4.74875,12.31637 -8.90375,17.36272 -4.15625,5.0449 -9.6225,9.1025 -16.3975,12.1676 -6.7775,3.0648 -15.161,4.6001 -25.15225,4.6001 -1.584,0 -3.6865,-0.051 -6.30662,-0.149 -2.62213,-0.1001 -5.34176,-0.2227 -8.16163,-0.3701 -2.819375,-0.1499 -5.515625,-0.2975 -8.086875,-0.4463 -2.57425,-0.1485 -4.503,-0.3222 -5.787625,-0.5186 l 0,-104.02255" />
    <path
       inkscape:connector-curvature="0"
       id="path4168"
       style="fill:#231f20;fill-opacity:1;fill-rule:nonzero;stroke:none"
       d="m 193.6475,915.6497 61.5825,0 0,18.10462 -41.2525,0 0,25.67138 37.9875,0 0,18.103 -37.9875,0 0,41.9946 -20.33,0 0,-103.8736" />
    <path
       inkscape:connector-curvature="0"
       id="path4170"
       style="fill:#231f20;fill-opacity:1;fill-rule:nonzero;stroke:none"
       d="m 375.10375,1051.6107 c -11.20375,-5.7758 -17.055,-9.5337 -25.8325,-16.7011 -4.3375,1.5502 -8.6525,2.3364 -12.85125,2.3364 -12.77375,0 -24.14375,-7.4975 -29.6775,-19.5664 -5.2975,-11.5625 -4.04875,-24.3774 3.18375,-33.94978 -8.155,-18.23487 -11.80375,-35.68162 -11.80375,-56.27975 l -0.2375,-27.22412 0,-5.48125 15.79625,0 c 9.71,0 21.71125,-2.16875 29.21125,-4.41125 1.63875,-19.065 18.0425,-30.37125 33.67375,-30.37125 15.63125,0 32.035,11.30625 33.6725,30.37125 7.5,2.2425 19.50125,4.41125 29.21125,4.41125 l 15.79625,0 0,5.4525 -0.2375,27.27975 c 0,20.57125 -3.64875,38.018 -11.8025,56.25287 7.23,9.56988 8.48,22.38238 3.1825,33.94238 -5.5325,12.0714 -16.90375,19.5714 -29.675,19.5738 -10e-4,0 -0.004,0 -0.004,0 -4.1975,0 -8.51125,-0.7862 -12.85125,-2.3364 -8.775,7.1674 -14.62625,10.9253 -25.8325,16.7011 l -1.46,0.7515 -1.4625,-0.7515" />
    <path
       inkscape:connector-curvature="0"
       id="path4172"
       style="fill:#ffffff;fill-opacity:1;fill-rule:nonzero;stroke:none"
       d="m 376.56625,1048.7758 c -11.88125,-6.125 -17.51625,-9.9 -26.69875,-17.5073 -33.30125,13.5014 -54.9875,-25.2926 -36.225,-47.06742 -9.63,-20.83738 -12.3325,-39.019 -12.3325,-56.75101 l -0.23625,-27.25287 0,-2.26375 12.6075,0 c 10.64625,0 24.475,-2.57375 32.275,-5.23 0.425,-18.69625 16.2675,-29.5525 30.61,-29.5525 14.34125,0 30.185,10.85625 30.60875,29.5525 7.8,2.65625 21.6275,5.23 32.275,5.23 l 12.6075,0 0,2.26375 -0.23625,27.25288 c 0,17.732 -2.70375,35.91362 -12.3325,56.751 18.7625,21.77482 -2.925,60.56882 -36.225,47.06742 -9.1825,7.6073 -14.8175,11.3823 -26.6975,17.5073" />
    <path
       inkscape:connector-curvature="0"
       id="path4174"
       style="fill:#231f20;fill-opacity:1;fill-rule:nonzero;stroke:none"
       d="m 372.2475,893.34345 c -0.45,-0.89875 -0.6325,-1.35 -0.6325,-2.38625 0.045,-2.7 2.2075,-4.90625 4.95125,-4.90625 2.70125,0 4.9075,2.20625 4.9075,4.90625 0,0.99375 -0.1825,1.61875 -0.58875,2.34375 4.68125,2.65 9.13875,4.54375 14.0875,6.8375 l -6.975,-5.85 10.3925,-3.33125 -10.305,-2.51875 7.38125,-8.4625 -10.125,3.0625 2.2075,-10.9375 -7.47625,7.60625 -3.50625,-10.53125 -2.79375,10.305 -8.09875,-7.42375 2.47375,10.61875 -10.48125,-2.60625 7.42625,8.05625 -10.3525,2.7875 10.665,3.6 -7.47,5.58125 c 4.95,-2.34375 9.67375,-4.05125 14.3125,-6.75125" />
    <path
       inkscape:connector-curvature="0"
       id="path4176"
       style="fill:#231f20;fill-opacity:1;fill-rule:nonzero;stroke:none"
       d="m 333.8375,1000.5321 c -1.4425,1.7989 -1.0375,4.4551 0.0875,5.8926 1.12625,1.4462 3.375,2.5689 5.445,1.4873 3.59875,4.4141 7.87375,8.5527 11.83625,12.6441 l -8.775,-6.2549 -1.8875,10.7573 -4.325,-9.8999 -6.925,8.4175 0.9875,-10.894 -9.85625,4.0062 6.16875,-9.1811 -10.53125,-1.3061 9.9875,-4.8565 -8.59375,-6.2139 11.20625,0.72025 -3.69375,-9.98725 c 2.79375,5.08838 5.53875,9.98725 8.86875,14.6684" />
    <path
       inkscape:connector-curvature="0"
       id="path4178"
       style="fill:#231f20;fill-opacity:1;fill-rule:nonzero;stroke:none"
       d="m 419.3375,1000.5321 c 1.39375,1.7989 0.98875,4.4551 -0.0925,5.8926 -1.17,1.4462 -3.37625,2.5689 -5.4,1.4873 -3.6425,4.4141 -7.87375,8.5527 -11.875,12.6441 l 8.77375,-6.2549 1.93125,10.7573 4.31875,-9.8999 6.89,8.4175 -0.98875,-10.894 9.84875,4.0062 -6.20625,-9.1811 10.5325,-1.3061 -9.9925,-4.8565 8.59375,-6.2139 -11.20125,0.72025 3.73,-9.98725 c -2.83,5.08838 -5.53,9.98725 -8.8625,14.6684" />
    <path
       inkscape:connector-curvature="0"
       id="path4180"
       style="fill:#d91920;fill-opacity:1;fill-rule:nonzero;stroke:none"
       d="m 386.06625,964.26695 0,63.91165 0.0762,-0.059 c 13.16125,-10.0299 35.13625,-26.7901 47.34625,-63.85265 l -47.4225,0" />
    <path
       inkscape:connector-curvature="0"
       id="path4182"
       style="fill:#d91920;fill-opacity:1;fill-rule:nonzero;stroke:none"
       d="m 437.99,944.31632 c 1.1525,-10.84725 1.09625,-17.34037 1.02,-25.47662 -0.0188,-2.07 -0.0387,-4.235 -0.0387,-6.595 l 0,-1.22375 -1.2225,-0.0263 c -28.44,-0.6 -46.62625,-8.82 -51.6825,-11.42 l 0,44.74162 51.92375,0" />
    <path
       inkscape:connector-curvature="0"
       id="path4184"
       style="fill:#d91920;fill-opacity:1;fill-rule:nonzero;stroke:none"
       d="m 367.0675,899.5747 c -5.05375,2.5975 -23.24,10.82 -51.68375,11.42 l -1.22375,0.0263 0,1.22375 c 0,2.35875 -0.02,4.5225 -0.04,6.59125 -0.0738,8.1375 -0.13,14.63075 1.02375,25.48037 l 51.92375,0 0,-44.74162" />
    <path
       inkscape:connector-curvature="0"
       id="path4186"
       style="fill:#d91920;fill-opacity:1;fill-rule:nonzero;stroke:none"
       d="m 367.0675,964.26695 -47.4225,0 c 12.20875,37.06255 34.18375,53.82035 47.345,63.85265 l 0.0775,0.059 0,-63.91165" />
    <path
       inkscape:connector-curvature="0"
       id="path4188"
       style="fill:#231f20;fill-opacity:1;fill-rule:nonzero;stroke:none"
       d="m 333.195,960.5902 0,-12.72163 13.4125,0 0,3.51463 -8.66125,0 0,2.36675 5.88375,0 0,2.99063 -5.88375,0 0,3.84962 -4.75125,0" />
    <path
       inkscape:connector-curvature="0"
       id="path4190"
       style="fill:#231f20;fill-opacity:1;fill-rule:nonzero;stroke:none"
       d="m 404.51875,960.5902 0,-12.72163 13.41,0 0,3.51463 -8.65875,0 0,2.36675 5.88375,0 0,2.99063 -5.88375,0 0,3.84962 -4.75125,0" />
    <path
       inkscape:connector-curvature="0"
       id="path4192"
       style="fill:#231f20;fill-opacity:1;fill-rule:nonzero;stroke:none"
       d="m 373.00625,957.0937 3.02,0 c 2.6175,0 3.99875,-0.99025 3.99875,-2.86388 0,-1.87399 -1.38125,-2.86374 -3.99875,-2.86374 l -3.02,0 0,5.72762 z m -4.72125,3.4965 0,-12.72163 6.53625,0 c 3.75375,0 10.0375,0 10.0375,6.36125 0,2.78076 -1.1525,4.59288 -3.5225,5.53763 -2.05875,0.82275 -4.63125,0.82275 -6.51,0.82275 l -6.54125,0" />
  </g>
  <g
     style="display:none"
     id="g4389"
     inkscape:groupmode="layer"
     inkscape:label="Layer 1 copy">
    <path
       d="m 0,915.6497 61.582,0 0,18.10462 -41.252375,0 0,25.67138 37.98825,0 0,18.103 -37.98825,0 0,41.9946 -20.329625,0 0,-103.8736"
       style="fill:#ffffff;fill-opacity:1;fill-rule:nonzero;stroke:none"
       id="path4391"
       inkscape:connector-curvature="0" />
    <path
       d="m 118.4155,932.26995 c -2.17725,0 -4.37738,0.0512 -6.6035,0.14787 -2.226,0.0996 -3.88325,0.24901 -4.97113,0.44538 l 0,69.5952 c 0.3945,0.1 1.062,0.1738 2.00338,0.2227 0.939,0.051 1.95212,0.099 3.042,0.1473 1.08737,0.051 2.1265,0.1012 3.11625,0.1501 0.98775,0.051 1.72938,0.074 2.226,0.074 5.73587,0 10.51025,-1.0123 14.319,-3.0411 3.8075,-2.02777 6.82625,-4.72415 9.0525,-8.0879 2.225,-3.36375 3.78375,-7.246 4.67375,-11.64888 0.89,-4.40087 1.33625,-8.92724 1.33625,-13.57812 0,-4.05525 -0.3975,-8.13575 -1.1875,-12.24225 -0.7925,-4.104 -2.25125,-7.791 -4.3775,-11.05463 -2.12875,-3.26412 -5.0225,-5.93512 -8.68125,-8.01275 -3.66125,-2.07812 -8.3095,-3.11662 -13.94825,-3.11662 z M 86.51125,915.6497 c 2.077625,-0.29625 4.42625,-0.54125 7.04875,-0.7425 2.61975,-0.19625 5.3165,-0.345 8.0875,-0.44375 2.7685,-0.0975 5.46475,-0.1725 8.08688,-0.22375 2.62062,-0.0487 4.97124,-0.0738 7.04837,-0.0738 9.201,0 17.066,1.2875 23.5935,3.85875 6.53,2.5725 11.82125,6.18375 15.87875,10.83213 4.05625,4.65087 7.02375,10.19037 8.9025,16.61962 1.87875,6.43213 2.82,13.50387 2.82,21.21975 0,7.02488 -0.89,13.79975 -2.67,20.32963 -1.78125,6.53025 -4.74875,12.31637 -8.90375,17.36272 -4.15625,5.0449 -9.6225,9.1025 -16.3975,12.1676 -6.7775,3.0648 -15.161,4.6001 -25.15225,4.6001 -1.584,0 -3.6865,-0.051 -6.30662,-0.149 -2.62213,-0.1001 -5.34176,-0.2227 -8.16163,-0.3701 -2.819375,-0.1499 -5.515625,-0.2975 -8.086875,-0.4463 -2.57425,-0.1485 -4.503,-0.3222 -5.787625,-0.5186 l 0,-104.02255"
       style="fill:#ffffff;fill-opacity:1;fill-rule:nonzero;stroke:none"
       id="path4393"
       inkscape:connector-curvature="0" />
    <path
       d="m 193.6475,915.6497 61.5825,0 0,18.10462 -41.2525,0 0,25.67138 37.9875,0 0,18.103 -37.9875,0 0,41.9946 -20.33,0 0,-103.8736"
       style="fill:#ffffff;fill-opacity:1;fill-rule:nonzero;stroke:none"
       id="path4395"
       inkscape:connector-curvature="0" />
    <path
       style="fill:#ffffff;fill-opacity:1;fill-rule:nonzero;stroke:none"
       d="m 376.56641,863.15039 c -14.3425,0 -30.18438,10.85654 -30.60938,29.55273 -7.8,2.65626 -21.62914,5.23047 -32.27539,5.23047 l -12.60742,0 0,2.26368 0.23633,27.25195 c 0,17.73201 2.70203,35.91457 12.33203,56.75195 -18.7625,21.77483 2.92336,60.56783 36.22461,47.06643 9.1825,7.6073 14.81797,11.3828 26.69922,17.5078 11.88,-6.125 17.51476,-9.9005 26.69726,-17.5078 33.3,13.5014 54.98711,-25.2916 36.22461,-47.06643 9.62875,-20.83738 12.33203,-39.01995 12.33203,-56.75195 l 0.23633,-27.25195 0,-2.26368 -12.60742,0 c -10.6475,0 -24.47344,-2.5742 -32.27344,-5.23047 -0.42375,-18.69623 -16.26812,-29.55273 -30.60937,-29.55273 z m 0,6.02539 3.50586,10.53125 7.47656,-7.60547 -2.20703,10.9375 10.125,-3.0625 -7.38086,8.46094 10.30468,2.51953 -10.39257,3.33203 6.97461,5.84961 c -4.94875,-2.29375 -9.40664,-4.18789 -14.08789,-6.83789 0.40625,-0.725 0.58984,-1.35 0.58984,-2.34375 0,-2.7 -2.20695,-4.90625 -4.9082,-4.90625 -2.74375,0 -4.90618,2.20625 -4.95118,4.90625 0,1.03625 0.18282,1.48797 0.63282,2.38672 -4.63875,2.7 -9.3625,4.40625 -14.3125,6.75 l 7.46875,-5.58008 -10.66407,-3.59961 10.35157,-2.78906 -7.42578,-8.05469 10.48242,2.60547 -2.47461,-10.61914 8.09961,7.42383 2.79297,-10.30469 z m -9.49805,30.39844 0,44.74219 -51.92383,0 c -1.15375,-10.84962 -1.09919,-17.34297 -1.02539,-25.48047 0.02,-2.06875 0.041,-4.23305 0.041,-6.5918 l 0,-1.22266 1.22265,-0.0273 c 28.44375,-0.6 46.6318,-8.82242 51.68555,-11.41992 z m 18.99805,0 c 5.05625,2.6 23.24164,10.81992 51.68164,11.41992 l 1.22265,0.0273 0,1.22266 c 0,2.36 0.0203,4.5257 0.0391,6.5957 0.0763,8.13625 0.13296,14.62932 -1.01954,25.47657 l -51.92382,0 0,-44.74219 z m -52.8711,48.29492 13.41211,0 0,3.51367 -8.66211,0 0,2.36719 5.88477,0 0,2.99023 -5.88477,0 0,3.84961 -4.75,0 0,-12.7207 z m 35.08985,0 6.53515,0 c 3.75375,0 10.03903,8e-5 10.03907,6.36133 0,2.78076 -1.15344,4.59236 -3.52344,5.53711 -2.05875,0.82275 -4.63102,0.82226 -6.50977,0.82226 l -6.54101,0 0,-12.7207 z m 36.23437,0 13.41016,0 0,3.51367 -8.66016,0 0,2.36719 5.88477,0 0,2.99023 -5.88477,0 0,3.84961 -4.75,0 0,-12.7207 z m -31.51367,3.49609 0,5.72852 3.01953,0 c 2.6175,0 4,-0.98965 4,-2.86328 0,-1.87399 -1.3825,-2.86524 -4,-2.86524 l -3.01953,0 z m -53.36133,12.90235 47.42383,0 0,63.91012 -0.0781,-0.059 c -13.16125,-10.0323 -35.13695,-26.789 -47.3457,-63.85152 z m 66.42188,0 47.42187,0 c -12.21,37.06252 -34.18445,53.82162 -47.3457,63.85152 l -0.0762,0.059 0,-63.91012 z m -61.09766,21.5957 c 2.79375,5.08838 5.53914,9.98692 8.86914,14.66792 -1.4425,1.799 -1.03711,4.4551 0.0879,5.8926 1.12625,1.4462 3.37336,2.5699 5.44336,1.4883 3.59875,4.4141 7.87539,8.5531 11.83789,12.6445 l -8.77539,-6.2558 -1.88867,10.7578 -4.32422,-9.9004 -6.92578,8.418 0.98828,-10.8946 -9.85547,4.0059 6.16797,-9.1797 -10.53125,-1.3066 9.98828,-4.8574 -8.59375,-6.21294 11.20508,0.7207 -3.69336,-9.98828 z m 103.23047,0 -3.72852,9.98828 11.20118,-0.7207 -8.59376,6.21294 9.99219,4.8574 -10.5332,1.3066 6.20703,9.1797 -9.84961,-4.0059 0.98828,10.8946 -6.88867,-8.418 -4.31836,9.9004 -1.93164,-10.7578 -8.77344,6.2558 c 4.00125,-4.0914 8.2325,-8.2304 11.875,-12.6445 2.02375,1.0816 4.22844,-0.042 5.39844,-1.4883 1.08125,-1.4375 1.4875,-4.0936 0.0937,-5.8926 3.3325,-4.68105 6.03133,-9.57954 8.86133,-14.66792 z"
       id="path4399"
       inkscape:connector-curvature="0" />
  </g>
  <g
     inkscape:groupmode="layer"
     id="layer2"
     inkscape:label="Layer 2"
     style="display:none">
    <rect
       style="fill:#6993b7;fill-opacity:1;stroke:none;stroke-width:1;stroke-linecap:round;stroke-linejoin:round;stroke-miterlimit:4;stroke-dasharray:none;stroke-dashoffset:0;stroke-opacity:1"
       id="rect4211"
       width="42.655006"
       height="159.71436"
       x="255.23"
       y="878.77081" />
    <rect
       style="fill:#6993b7;fill-opacity:1;stroke:none;stroke-width:1;stroke-linecap:round;stroke-linejoin:round;stroke-miterlimit:4;stroke-dasharray:none;stroke-dashoffset:0;stroke-opacity:1"
       id="rect4211-3"
       width="42.655006"
       height="159.71436"
       x="455.24625"
       y="876.30499" />
    <rect
       style="fill:#6993b7;fill-opacity:1;stroke:none;stroke-width:1;stroke-linecap:round;stroke-linejoin:round;stroke-miterlimit:4;stroke-dasharray:none;stroke-dashoffset:0;stroke-opacity:1"
       id="rect4211-6"
       width="42.655006"
       height="159.71436"
       x="-42.655006"
       y="887.72931" />
    <rect
       style="fill:#6993b7;fill-opacity:1;stroke:none;stroke-width:1;stroke-linecap:round;stroke-linejoin:round;stroke-miterlimit:4;stroke-dasharray:none;stroke-dashoffset:0;stroke-opacity:1"
       id="rect4211-6-7"
       width="42.655006"
       height="159.71436"
       x="871.51086"
       y="-166.36842"
       transform="matrix(0,1,-1,0,0,0)" />
    <rect
       style="fill:#6993b7;fill-opacity:1;stroke:none;stroke-width:1;stroke-linecap:round;stroke-linejoin:round;stroke-miterlimit:4;stroke-dasharray:none;stroke-dashoffset:0;stroke-opacity:1"
       id="rect4211-6-7-5"
       width="42.655006"
       height="159.71436"
       x="1019.5233"
       y="-193.64751"
       transform="matrix(0,1,-1,0,0,0)" />
    <rect
       style="display:inline;fill:#6993b7;fill-opacity:1;stroke:none;stroke-width:1;stroke-linecap:round;stroke-linejoin:round;stroke-miterlimit:4;stroke-dasharray:none;stroke-dashoffset:0;stroke-opacity:1"
       id="rect4211-6-7-3"
       width="42.655006"
       height="341.54181"
       x="817.30719"
       y="-456.42279"
       transform="matrix(0,1,-1,0,0,0)" />
    <rect
       style="display:inline;fill:#6993b7;fill-opacity:1;stroke:none;stroke-width:1;stroke-linecap:round;stroke-linejoin:round;stroke-miterlimit:4;stroke-dasharray:none;stroke-dashoffset:0;stroke-opacity:1"
       id="rect4211-6-7-56"
       width="42.655006"
       height="388.00882"
       x="1052.3622"
       y="-456.42279"
       transform="matrix(0,1,-1,0,0,0)" />
  </g>
</svg>
