<?xml version="1.0" encoding="utf-8"?>
<!-- Generator: Adobe Illustrator 19.2.0, SVG Export Plug-In . SVG Version: 6.00 Build 0)  -->
<svg version="1.1" id="Lag_1" xmlns="http://www.w3.org/2000/svg" xmlns:xlink="http://www.w3.org/1999/xlink" x="0px" y="0px"
	 viewBox="0 0 67 69" style="enable-background:new 0 0 67 69;" xml:space="preserve">
<style type="text/css">
	.st0{fill:#FFFFFF;}
</style>
<g>
	<path class="st0" d="M5,55.8C5.5,55.9,5.9,56,6.2,56c1.3,0,2.6,0,3.9,0c16.3,0.2,32.5,0.4,48.8,0.6c0.9,0,1.6,0.2,1.5-3.9
		c-0.1-3.1-0.4-3.7-1.2-3.7c-6.6,0-13.3-0.1-19.9-0.3C31.1,48.4,23,48.1,15,47.8c-3-0.1-6-0.4-9.1-0.5c-0.2,0-0.6,1-0.7,1.7
		C5.1,51.1,5.1,53.2,5,55.8z"/>
	<path class="st0" d="M60.3,13.2c-0.3-0.1-0.7-0.3-1-0.3c-6.3-0.1-12.6-0.2-18.9-0.4C31.2,12.3,22,12,12.8,11.7
		c-2.2-0.1-4.3-0.2-6.5-0.7c-0.9-0.2-1.1,0.6-1.1,3.2c0,1.5-0.1,3-0.2,5c0.3,0.2,0.7,0.6,1.1,0.6c1.8,0.1,3.6,0.1,5.4,0.1
		c15.5,0.2,31,0.3,46.6,0.5C60.2,20.5,60.2,20.5,60.3,13.2z"/>
	<path class="st0" d="M5.2,38.9c0.4,0.1,0.8,0.2,1.2,0.2c15.6,0,31.3,0,46.9,0c2.1,0,4.1-0.1,6.2-0.1c0.8,0,1.1-0.7,0.9-3.5
		c-0.4-5.2-0.3-5.2-2-5.2c-4.8,0.1-9.5,0.2-14.3,0.3c-8.3,0.2-16.5,0.4-24.8,0.7c-4.3,0.1-8.5,0.4-12.8,0.5c-1.5,0.1-1.5,0-1.4,4.6
		C5.2,37.2,5.2,37.9,5.2,38.9z"/>
</g>
</svg>
