<?xml version="1.0" encoding="utf-8"?>
<!-- Generator: Adobe Illustrator 19.2.0, SVG Export Plug-In . SVG Version: 6.00 Build 0)  -->
<svg version="1.1" id="Lag_1" xmlns="http://www.w3.org/2000/svg" xmlns:xlink="http://www.w3.org/1999/xlink" x="0px" y="0px"
	 viewBox="0 0 42.5 42.5" style="enable-background:new 0 0 42.5 42.5;" xml:space="preserve">
<style type="text/css">
	.st0{fill:#CA4337;}
	.st1{fill-rule:evenodd;clip-rule:evenodd;fill:#FFFFFF;}
</style>
<circle class="st0" cx="21.3" cy="21.3" r="20.3"/>
<path class="st1" d="M33.7,21.4c0,3.5-0.6,6.9-1.8,7.8c-1.4,1-8.1,1-10.6,1c-2.6,0-8.9,0-10.4-0.9c-1.4-0.8-2.1-4.4-2.1-7.9
	c0,0,0,0,0,0v0c0.1-3.5,0.8-7.3,2.1-8.2c1.5-0.9,7.8-0.9,10.4-0.9c2.5,0,9.2,0,10.6,1C33.1,14.3,33.7,17.9,33.7,21.4L33.7,21.4
	L33.7,21.4C33.7,21.4,33.7,21.4,33.7,21.4L33.7,21.4L33.7,21.4z M18.9,16.5V26l7.1-4.7L18.9,16.5L18.9,16.5z"/>
</svg>
