<?xml version="1.0" encoding="utf-8"?>
<!-- Generator: Adobe Illustrator 15.0.0, SVG Export Plug-In . SVG Version: 6.00 Build 0)  -->
<!DOCTYPE svg PUBLIC "-//W3C//DTD SVG 1.1//EN" "http://www.w3.org/Graphics/SVG/1.1/DTD/svg11.dtd">
<svg version="1.1" id="Layer_1" xmlns="http://www.w3.org/2000/svg" xmlns:xlink="http://www.w3.org/1999/xlink" x="0px" y="0px"
	 width="300px" height="180px" viewBox="0 0 300 180" enable-background="new 0 0 300 180" xml:space="preserve">
<g>
	<defs>
		<rect id="SVGID_1_" width="300" height="180"/>
	</defs>
	<clipPath id="SVGID_2_">
		<use xlink:href="#SVGID_1_"  overflow="visible"/>
	</clipPath>
	<path clip-path="url(#SVGID_2_)" fill="#294573" d="M220.93,151.34c-4.026-7.221-12.415-11.105-20.478-11.098
		c-9.551,0.01-18.112,4.869-27.089,7.421c-5.847,1.66-13.488,3.033-17.602-2.706c-3.864-5.391-2.566-12.622-1.613-18.687
		c0.222-1.413-1.835-2.063-2.198-0.605c-1.953,7.827-3.521,17.607,3.294,23.646c6.329,5.608,15.957,2.868,23.046,0.456
		c8.918-3.036,18.524-7.946,28.15-5.166c10.516,3.037,17.754,15.449,9.916,24.943c-1.513,1.832,1.077,4.481,2.641,2.639
		C223.938,166.356,224.663,158.034,220.93,151.34"/>
</g>
<g>
	<defs>
		<path id="SVGID_3_" d="M151.951,125.664c-1.953,7.828-3.522,17.608,3.293,23.646c6.328,5.608,15.958,2.868,23.046,0.455
			c8.918-3.034,18.525-7.944,28.151-5.165c10.515,3.037,17.754,15.449,9.916,24.942c-1.515,1.833,1.076,4.483,2.639,2.64
			c4.943-5.826,5.666-14.148,1.934-20.844c-4.025-7.219-12.415-11.104-20.478-11.097c-9.55,0.009-18.112,4.869-27.089,7.421
			c-5.847,1.661-13.488,3.033-17.603-2.706c-3.862-5.39-2.564-12.623-1.612-18.688c0.134-0.854-0.564-1.429-1.218-1.429
			C152.503,124.841,152.094,125.088,151.951,125.664"/>
	</defs>
	<clipPath id="SVGID_4_">
		<use xlink:href="#SVGID_3_"  overflow="visible"/>
	</clipPath>
	<path clip-path="url(#SVGID_4_)" fill="#39608C" d="M225.933,156.497c-1.351-7.333-6.485-13.389-13.094-16.665
		c-7.369-3.651-15.409-3.63-23.254-1.632c-4.706,1.199-9.24,2.988-13.864,4.456c-2.427,0.771-16.161,5.216-15.251-0.595
		c0.589-3.766-4.747-4.536-5.188-0.702c-0.882,7.664,7.518,9.423,13.335,8.349c8.84-1.632,16.89-6.105,25.753-7.642
		c8.589-1.489,17.992,0.672,23.587,7.777c2.573,3.267,3.864,7.264,3.774,11.419c-0.094,4.417-2.036,7.69-4.068,11.446
		c-0.74,1.367,0.804,3.165,2.233,2.234C225.699,171.161,227.11,162.886,225.933,156.497"/>
	<path clip-path="url(#SVGID_4_)" fill="#202E4C" d="M157.104,141.739c-0.435,0.061-0.869,0.115-1.303,0.163
		c0.128-0.833,0.016-1.705-0.413-2.491c-0.297-0.544-0.754-0.997-1.288-1.314c-0.413-0.88-0.969-1.686-1.684-2.383
		c-2.251-2.197-5.708,1.254-3.453,3.453c0.312,0.305,0.537,0.596,0.708,0.915c-0.004,0.095-0.001,0.188,0.008,0.279
		c-0.165-0.052-0.333-0.103-0.485-0.161c-1.603-0.614-3.353,1.25-2.814,2.814c0.768,2.229,3.087,2.642,5.205,2.865
		c2.307,0.242,4.702-0.108,6.746-1.229C160.048,143.709,158.764,141.51,157.104,141.739"/>
</g>
<g>
	<defs>
		<rect id="SVGID_5_" width="300" height="180"/>
	</defs>
	<clipPath id="SVGID_6_">
		<use xlink:href="#SVGID_5_"  overflow="visible"/>
	</clipPath>
	<path clip-path="url(#SVGID_6_)" fill="#A80415" d="M161.833,132.333c1.748-0.129,1.548-1.715,2.598-2.868
		c0.143-0.157,0.281-0.345,0.236-0.537c-0.051-0.222-0.316-0.357-0.556-0.468c-5.533-2.556-5.345-3.59-8.826-7.943
		c-0.381-0.478-0.792-0.994-1.445-1.195c-1.376-0.424-2.114,0.092-2.436,1.316C150,126,150.333,127,148,129.666
		c-1.218,1.393-2.866,3.126-1.167,4.334c0.763,0.542,3.539,2.167,4.497,2.429c2.09,0.57,4.691,1.054,6.251-0.221
		c0.513-0.418,0.828-0.979,1.36-1.38C160.461,133.681,159.774,132.485,161.833,132.333"/>
</g>
<g>
	<defs>
		<path id="SVGID_7_" d="M151.404,120.638C150,126,150.333,127,148,129.667c-1.218,1.392-2.865,3.125-1.167,4.333
			c0.763,0.543,3.54,2.167,4.497,2.428c2.09,0.571,4.691,1.056,6.251-0.219c0.512-0.419,0.829-0.98,1.36-1.381
			c1.521-1.147,0.833-2.343,2.892-2.495c1.748-0.128,1.549-1.714,2.597-2.868c0.144-0.158,0.282-0.345,0.238-0.538
			c-0.052-0.221-0.317-0.356-0.557-0.467c-5.533-2.556-5.346-3.59-8.825-7.944c-0.382-0.477-0.793-0.992-1.445-1.194
			c-0.319-0.099-0.604-0.146-0.858-0.146C152.144,119.175,151.651,119.697,151.404,120.638"/>
	</defs>
	<clipPath id="SVGID_8_">
		<use xlink:href="#SVGID_7_"  overflow="visible"/>
	</clipPath>
	<path clip-path="url(#SVGID_8_)" fill="#7B1214" d="M159.363,124.867c0.229,0.017,0.11,0.383-0.067,0.529
		c-1.511,1.244-3.236,2.228-5.077,2.894c-2.547,0.922-5.658,1.134-7.728-0.613c-0.155-0.131-0.309-0.282-0.361-0.479
		c-0.095-0.36,0.183-0.707,0.463-0.952c0.969-0.848,2.231-1.353,3.517-1.407c0.933-0.039,1.922,0.14,2.762-0.268"/>
</g>
<g>
	<defs>
		<rect id="SVGID_9_" width="300" height="180"/>
	</defs>
	<clipPath id="SVGID_10_">
		<use xlink:href="#SVGID_9_"  overflow="visible"/>
	</clipPath>
	<path clip-path="url(#SVGID_10_)" fill="#202E4C" d="M157.271,120.647c-0.441,1.104-2.681,1.621-3.908,1.834
		c-1.687,0.292-3.211,0.141-4.757-0.479c-2.441-0.98-4.19,2.159-1.758,3.137c2.57,1.031,5.348,1.165,8.103,0.564
		c2.318-0.505,5.341-1.595,6.149-3.614C161.937,119.997,158.116,118.539,157.271,120.647"/>
	<path clip-path="url(#SVGID_10_)" fill="#294573" d="M157.905,118.979c-2.768,2.157-6.495,2.227-9.502,0.22
		c-2.216-1.479-4.784,1.352-2.592,2.814c4.429,2.956,11.008,2.774,15.063-0.386C162.889,120.057,159.938,117.395,157.905,118.979"/>
	<path clip-path="url(#SVGID_10_)" fill="#39608C" d="M157.126,116.481c-1.14,2.461-5.353,2.888-7.819,1.403
		c-2.171-1.306-4.961,1.281-2.772,2.599c4.448,2.675,12.195,2.217,14.362-2.463C161.852,115.959,158.089,114.405,157.126,116.481"/>
</g>
<g>
	<defs>
		<path id="SVGID_11_" d="M112.615,15.355c-32.516,23.883-32.056,77.719,37.888,103.514c2.872,1.468,5.833-0.193,5.833-0.193
			s29.932-25.533,26.834-71.616c-1.998-29.695-20.717-41.631-40.223-41.63C132.184,5.43,121.18,9.065,112.615,15.355"/>
	</defs>
	<clipPath id="SVGID_12_">
		<use xlink:href="#SVGID_11_"  overflow="visible"/>
	</clipPath>
	
		<radialGradient id="SVGID_13_" cx="0" cy="180" r="1" gradientTransform="matrix(75.1301 0 0 -75.1301 153.2332 13562.9023)" gradientUnits="userSpaceOnUse">
		<stop  offset="0" style="stop-color:#CF7237"/>
		<stop  offset="0.1698" style="stop-color:#CF7237"/>
		<stop  offset="0.7867" style="stop-color:#B32E14"/>
		<stop  offset="1" style="stop-color:#B32E14"/>
	</radialGradient>
	<rect x="80.099" y="5.429" clip-path="url(#SVGID_12_)" fill="url(#SVGID_13_)" width="106.168" height="114.908"/>
</g>
<g>
	<defs>
		<rect id="SVGID_14_" width="300" height="180"/>
	</defs>
	<clipPath id="SVGID_15_">
		<use xlink:href="#SVGID_14_"  overflow="visible"/>
	</clipPath>
	
		<radialGradient id="SVGID_16_" cx="0" cy="180" r="1" gradientTransform="matrix(52.2216 0 0 -52.2216 137.5726 9462.3535)" gradientUnits="userSpaceOnUse">
		<stop  offset="0" style="stop-color:#D69667"/>
		<stop  offset="0.0877" style="stop-color:#D69667"/>
		<stop  offset="0.6937" style="stop-color:#B22314"/>
		<stop  offset="1" style="stop-color:#B22314"/>
	</radialGradient>
	<path clip-path="url(#SVGID_15_)" fill="url(#SVGID_16_)" d="M150.503,118.87L150.503,118.87
		c-41.75-15.398-58.743-40.787-58.743-63.833c0-15.562,7.749-30.056,20.855-39.683c8.565-6.291,19.568-9.925,30.332-9.925
		c19.506,0,38.225,11.936,40.222,41.63c0.153,2.269,0.226,4.487,0.226,6.655c0,41.88-27.059,64.961-27.059,64.961
		s-1.425,0.799-3.256,0.799C152.271,119.475,151.383,119.319,150.503,118.87L150.503,118.87L150.503,118.87
		c0.88,0.449,1.769,0.604,2.577,0.604c1.831,0,3.256-0.799,3.256-0.799s27.059-23.081,27.059-64.961
		c0-2.168-0.072-4.386-0.226-6.655c-1.997-29.695-20.716-41.63-40.222-41.63c-10.764,0-21.767,3.635-30.332,9.925
		C99.509,24.981,91.76,39.475,91.76,55.037C91.76,78.083,108.752,103.472,150.503,118.87L150.503,118.87z"/>
</g>
</svg>
