<?xml version="1.0" encoding="UTF-8"?>
<!DOCTYPE svg PUBLIC "-//W3C//DTD SVG 1.1//EN" "http://www.w3.org/Graphics/SVG/1.1/DTD/svg11.dtd">
<svg version="1.1" xmlns="http://www.w3.org/2000/svg" xmlns:xlink="http://www.w3.org/1999/xlink" x="0" y="0" width="67" height="69" viewBox="0, 0, 67, 69">
  <g id="Layer_1">
    <path d="M15.409,26.023 Q11.875,23.537 11.287,19.677 Q10.698,15.816 13.184,12.152 Q13.969,10.975 14.493,10.32 Q14.624,10.189 14.754,10.059 Q18.549,7.18 22.737,7.18 Q25.877,7.18 28.887,8.75 Q29.149,8.881 29.28,9.012 Q29.672,9.273 30.85,10.713 Q35.43,16.078 31.897,22.752 Q31.766,23.014 31.635,23.145 Q31.112,23.799 30.196,24.715 Q26.532,28.248 21.952,28.248 Q18.418,28.248 15.409,26.023 z M16.717,12.676 Q13.184,16.471 14.885,20.396 Q15.67,22.359 17.764,23.603 Q19.858,24.846 22.344,24.846 Q26.401,24.846 29.018,21.443 Q29.411,20.92 29.934,19.48 Q31.112,15.686 28.233,12.545 Q26.924,10.975 25.092,10.582 Q21.69,9.666 18.68,11.105 Q17.372,11.891 16.848,12.545 Q16.848,12.676 16.717,12.676 z M45.114,14.508 Q42.497,12.676 42.039,9.797 Q41.581,6.918 43.543,4.17 Q44.067,3.254 44.459,2.73 Q44.59,2.73 44.721,2.6 Q47.6,0.375 50.741,0.375 Q52.965,0.375 55.321,1.553 Q55.452,1.684 55.583,1.814 Q55.844,2.076 56.76,3.123 Q60.163,7.049 57.545,12.152 Q57.415,12.283 57.284,12.414 Q57.022,12.807 56.237,13.592 Q53.489,16.209 50.086,16.209 Q47.469,16.209 45.114,14.508 z M46.422,4.693 Q43.805,7.441 44.983,10.189 Q45.637,11.629 47.142,12.545 Q48.647,13.461 50.348,13.461 Q53.227,13.461 55.19,10.975 Q55.452,10.582 55.713,9.535 Q56.499,6.787 54.536,4.562 Q53.62,3.516 52.311,3.254 Q49.956,2.6 47.731,3.646 Q46.815,4.17 46.553,4.562 Q46.422,4.693 46.422,4.693 z M66.051,21.051 Q66.313,21.443 66.313,21.836 Q66.967,29.426 66.967,38.062 Q66.967,38.717 66.575,39.109 Q66.182,39.502 65.528,39.502 Q65.528,39.502 65.397,39.502 Q65.135,39.633 64.743,39.633 Q61.995,39.633 60.293,39.764 L60.293,40.025 Q60.686,40.68 60.293,41.334 Q59.901,41.988 59.116,41.988 Q56.368,41.988 50.741,41.857 Q50.348,41.857 46.161,41.857 Q46.161,41.465 46.161,41.465 Q46.161,41.465 46.161,41.203 Q46.161,40.418 46.161,39.895 Q46.03,39.895 46.03,39.764 Q46.03,39.633 46.03,39.502 Q46.03,39.371 46.03,39.24 Q49.432,39.24 50.741,39.24 Q56.891,39.24 57.415,39.24 Q57.415,33.613 57.022,27.594 Q57.022,27.07 57.415,26.678 Q57.807,26.285 58.461,26.285 Q59.77,26.285 59.901,27.594 Q60.163,31.781 60.293,37.016 Q61.864,37.016 64.088,37.016 Q64.088,29.164 63.565,22.098 Q63.434,21.967 63.434,21.967 Q62.649,20.658 61.079,20.658 Q60.817,20.658 60.555,20.789 Q60.293,20.789 60.163,20.789 Q58.2,20.789 55.125,20.724 Q52.049,20.658 49.956,20.658 Q43.151,20.658 38.44,21.182 Q37.262,21.574 36.608,22.752 Q36.608,23.145 36.608,23.93 Q36.608,24.715 36.608,25.107 Q36.477,27.07 36.477,29.164 Q36.346,29.164 36.084,29.033 Q35.823,29.033 35.823,29.033 Q35.038,29.033 34.383,29.033 Q34.252,29.033 33.991,29.033 Q33.86,29.033 33.729,29.033 Q33.729,26.939 33.729,25.238 Q33.729,24.061 33.86,22.49 Q33.86,22.229 33.991,21.967 Q33.991,21.705 34.122,21.574 Q35.168,19.219 37.786,18.434 Q38.047,18.303 38.309,18.303 Q43.02,17.779 49.956,17.779 Q51.657,17.779 55.059,17.91 Q58.331,17.91 60.293,17.91 Q60.293,17.91 60.424,17.91 Q64.088,17.518 65.92,20.527 Q66.051,20.789 66.051,21.051 z M41.581,30.342 Q41.45,30.08 41.319,30.08 Q41.057,29.818 40.926,29.818 Q40.926,28.379 40.926,27.725 Q40.926,27.201 41.319,26.809 Q41.842,26.154 42.758,26.481 Q43.674,26.809 43.674,27.725 Q43.674,29.033 43.805,32.305 Q43.413,31.912 43.347,31.847 Q43.282,31.781 43.02,31.389 Q42.366,30.734 41.581,30.342 z M44.067,42.773 Q44.067,44.213 44.067,44.867 Q44.459,55.074 44.459,58.215 Q44.459,59 43.936,59.327 Q43.413,59.654 42.758,59.654 Q42.497,59.916 41.973,59.916 Q37.786,59.916 35.43,60.047 Q35.43,60.57 35.43,60.963 Q35.823,61.617 35.496,62.337 Q35.168,63.057 34.383,63.057 Q30.458,63.057 22.868,62.991 Q15.278,62.926 11.483,62.926 Q10.567,62.926 10.174,62.01 Q10.043,61.748 10.043,61.355 Q10.043,60.309 10.043,59 Q7.165,59.131 1.93,59.131 Q1.407,59.131 1.145,58.738 Q0.36,58.346 0.36,57.561 Q-0.033,52.588 0.36,37.146 Q0.36,36.754 0.491,36.492 Q0.491,36.23 0.622,35.838 Q1.93,32.959 5.333,31.912 Q5.594,31.781 5.856,31.912 Q9.127,31.52 12.922,31.389 Q17.895,31.127 25.485,31.127 Q27.055,31.127 28.625,31.258 Q29.803,31.258 31.897,31.258 Q32.551,31.258 33.598,31.258 L33.991,31.258 L34.383,31.258 Q34.907,31.258 35.823,31.127 Q35.823,31.127 35.954,31.127 Q36.084,31.127 36.15,31.127 Q36.215,31.127 36.346,31.127 Q36.477,31.127 36.477,31.127 Q37.262,31.258 37.786,31.258 Q38.178,31.258 38.702,31.389 Q39.356,31.52 40.141,31.912 Q40.534,32.043 40.926,32.305 Q41.188,32.436 41.319,32.566 Q41.45,32.697 41.711,32.828 Q42.104,33.221 42.235,33.482 Q42.758,34.006 43.02,34.66 Q43.282,35.184 43.413,35.707 Q43.543,36.1 43.543,36.1 Q43.674,36.885 43.805,37.932 Q43.805,37.932 43.805,38.062 Q43.805,38.193 43.805,38.193 Q43.805,38.455 43.936,39.24 Q43.936,39.24 43.936,39.371 Q43.936,39.502 43.936,39.567 Q43.936,39.633 43.936,39.764 Q43.936,39.895 43.936,39.895 Q43.936,40.287 44.067,41.203 Q44.067,41.203 44.067,41.334 Q44.067,41.465 44.067,41.53 Q44.067,41.596 44.067,41.727 Q44.067,41.857 44.067,41.857 Q44.067,41.988 44.067,42.315 Q44.067,42.643 44.067,42.773 z M35.299,57.43 Q37.786,57.299 41.581,57.299 Q41.581,54.158 41.45,51.934 Q41.319,46.699 41.188,42.643 Q41.188,42.512 41.057,40.941 Q41.057,40.68 41.057,40.353 Q41.057,40.025 40.992,39.698 Q40.926,39.371 40.926,39.109 Q40.926,39.109 40.926,38.979 Q40.926,38.848 40.926,38.586 Q40.926,38.586 40.926,38.455 Q40.926,38.324 40.926,38.193 Q40.926,38.062 40.926,38.062 Q40.926,37.539 40.795,37.016 Q40.795,36.885 40.73,36.688 Q40.665,36.492 40.534,36.361 Q40.534,36.1 40.403,35.838 Q40.141,35.445 39.749,35.053 Q39.094,34.398 38.178,34.268 Q37.524,34.137 36.477,34.006 L36.215,34.006 L35.823,34.006 L35.561,34.006 Q35.43,34.006 35.038,34.071 Q34.645,34.137 34.383,34.137 L33.991,34.137 L33.729,34.137 Q31.766,34.137 30.327,34.137 Q29.672,34.137 28.167,34.071 Q26.663,34.006 25.877,34.006 Q21.036,34.006 18.157,34.006 Q11.352,34.137 5.987,34.66 Q4.024,35.314 3.108,37.146 Q2.846,51.672 3.108,56.383 Q7.295,56.383 10.043,56.252 Q9.913,44.867 9.913,44.213 Q9.913,43.297 10.632,42.97 Q11.352,42.643 12.072,42.97 Q12.792,43.297 12.792,44.213 Q12.792,46.438 12.857,52.326 Q12.922,58.215 12.922,60.309 Q16.325,60.309 22.868,60.374 Q29.411,60.439 32.551,60.439 Q32.42,52.719 31.897,43.951 Q31.897,43.166 32.617,42.773 Q33.336,42.381 34.056,42.773 Q34.776,43.166 34.776,43.951 Q35.168,50.102 35.299,57.43 z" fill="#333333"/>
  </g>
</svg>
