<?xml version="1.0" encoding="UTF-8"?>
<!DOCTYPE svg PUBLIC "-//W3C//DTD SVG 1.1//EN" "http://www.w3.org/Graphics/SVG/1.1/DTD/svg11.dtd">
<svg version="1.1" xmlns="http://www.w3.org/2000/svg" xmlns:xlink="http://www.w3.org/1999/xlink" x="0" y="0" width="67" height="69" viewBox="0, 0, 67, 69">
  <g id="Layer_1">
    <path d="M35.471,1.322 Q42.799,2.761 46.594,7.93 Q50.389,13.099 50.389,19.642 Q50.389,26.185 48.295,32.859 Q46.201,39.533 42.537,44.505 Q42.537,44.505 42.406,44.636 Q43.322,46.861 43.584,49.871 Q43.715,50.525 43.191,51.048 Q42.668,51.572 42.014,51.572 Q41.883,51.572 41.883,51.572 Q41.883,51.572 41.752,51.572 Q41.621,51.572 41.621,51.572 Q40.312,51.441 38.742,51.31 Q39.527,53.011 42.406,54.909 Q45.285,56.806 45.678,57.068 Q49.734,60.601 46.332,66.359 Q45.678,67.275 44.827,67.209 Q43.976,67.144 43.388,66.359 Q42.799,65.574 43.322,64.658 Q44.238,63.218 44.434,62.237 Q44.631,61.255 43.846,60.339 Q43.06,59.423 42.537,59.031 Q42.014,58.638 40.312,57.591 Q35.863,54.712 35.078,51.048 Q33.115,50.917 31.807,50.917 Q30.76,50.787 30.367,49.74 Q29.974,49.085 30.367,48.169 Q30.89,46.861 31.414,45.16 Q31.152,45.029 31.021,44.767 Q30.76,44.636 30.76,44.636 Q30.498,44.374 28.404,42.739 Q26.31,41.103 25.787,40.645 Q25.264,40.187 23.301,38.486 Q21.338,36.785 20.618,36.065 Q19.898,35.345 18.328,33.644 Q16.758,31.943 16.103,30.896 Q15.449,29.849 14.402,28.148 Q13.355,26.447 12.963,25.073 Q12.57,23.699 12.243,22.063 Q11.916,20.427 12.047,18.726 Q12.308,14.539 14.271,10.613 Q16.234,6.687 19.506,4.332 Q25.656,-0.249 34.816,1.322 Q35.078,1.322 35.471,1.322 z M34.162,47.646 Q34.947,47.646 36.91,47.842 Q38.873,48.039 40.051,48.039 Q39.789,46.73 39.265,45.552 Q37.172,45.552 34.816,45.421 Q34.816,45.552 34.816,45.552 Q34.555,46.599 34.162,47.646 z M40.051,42.281 Q43.06,37.962 44.958,32.27 Q46.855,26.578 47.117,20.951 Q47.379,15.324 44.434,10.744 Q41.49,6.164 35.34,4.724 Q35.078,4.855 34.816,4.724 Q25.264,2.761 20.16,8.126 Q17.412,11.136 16.103,14.931 Q14.795,18.726 15.842,22.39 Q16.234,23.96 17.019,25.531 Q17.805,27.101 18.524,28.279 Q19.244,29.457 20.683,31.027 Q22.123,32.597 22.777,33.382 Q23.432,34.167 25.329,35.803 Q27.226,37.439 27.75,37.897 Q28.273,38.355 30.498,40.122 Q32.723,41.888 32.984,42.15 Q37.303,42.15 40.051,42.281 z M30.498,6.294 Q36.779,6.949 40.64,11.463 Q44.5,15.978 44.238,22.39 Q44.107,23.437 43.257,23.83 Q42.406,24.222 41.556,23.83 Q40.705,23.437 40.705,22.39 Q40.967,17.417 38.153,13.819 Q35.34,10.22 30.498,9.828 Q29.451,9.697 28.993,8.781 Q28.535,7.865 28.993,7.014 Q29.451,6.164 30.498,6.294 z" fill="#333333"/>
  </g>
</svg>
