<?xml version="1.0" encoding="utf-8"?>
<!-- Generator: Adobe Illustrator 15.0.0, SVG Export Plug-In . SVG Version: 6.00 Build 0)  -->
<!DOCTYPE svg PUBLIC "-//W3C//DTD SVG 1.1//EN" "http://www.w3.org/Graphics/SVG/1.1/DTD/svg11.dtd">
<svg version="1.1" id="Layer_1" xmlns="http://www.w3.org/2000/svg" xmlns:xlink="http://www.w3.org/1999/xlink" x="0px" y="0px"
	 width="300px" height="180px" viewBox="0 0 300 180" enable-background="new 0 0 300 180" xml:space="preserve">
<g>
	<defs>
		<rect id="SVGID_1_" width="300" height="180"/>
	</defs>
	<clipPath id="SVGID_2_">
		<use xlink:href="#SVGID_1_"  overflow="visible"/>
	</clipPath>
	<path clip-path="url(#SVGID_2_)" fill="#3F5BA3" d="M71.6,63.065L74.976,50.1c-1.262-0.536-2.499-0.96-3.476-1.279l-4.285,15.301
		C68.677,63.77,70.138,63.417,71.6,63.065"/>
	<path clip-path="url(#SVGID_2_)" fill="#3F5BA3" d="M81.04,96.516c-1.218,0.683-2.42,1.398-3.609,2.139
		c1.456,2.846,3.097,5.725,4.96,8.576c0,0,1.285,1.648,2.326,5.122c1.211-0.213,2.424-0.409,3.638-0.595L81.04,96.516z"/>
	<path clip-path="url(#SVGID_2_)" fill="#3F5BA3" d="M75.692,39.994c0.745,0.841,1.511,1.653,2.291,2.448l9.434-8.013
		c-0.891-0.949-1.793-1.886-2.708-2.81l-9.614,7.638C75.298,39.524,75.497,39.773,75.692,39.994"/>
	<path clip-path="url(#SVGID_2_)" fill="#3F5BA3" d="M67.825,71.321c0.844,4.048,2.331,9.897,4.825,16.512
		c1.32-0.707,2.683-1.323,4.07-1.898l-4.827-14.138c-0.797-0.117-1.589-0.259-2.377-0.418C68.953,71.359,68.389,71.34,67.825,71.321
		"/>
	<path clip-path="url(#SVGID_2_)" fill="#3F5BA3" d="M89.638,122.37c-1.265,0.296-2.494,0.64-3.633,0.955
		c-0.06,2.059-0.266,4.326-0.673,6.809l-0.454,5.373c1.402,0.65,3.21,1.012,4.964,1.229l0.333-0.271L89.638,122.37z"/>
	<path clip-path="url(#SVGID_2_)" fill="#3F5BA3" d="M139.814,64.029l0.381,10.881c0.358,0.085,0.716,0.17,1.073,0.255
		c0.97-0.222,1.932-0.475,2.889-0.748l0.154-10.202l-1.511-6.627c-1.391,0.148-2.778,0.316-4.159,0.522L139.814,64.029z"/>
	<path clip-path="url(#SVGID_2_)" fill="#3F5BA3" d="M120.443,30.139l4.494,1.935c0.628-0.968,1.193-1.972,1.639-3.034l-9.765-3.743
		l-0.67,0.02c-0.428,1.614-0.844,3.228-1.16,4.858L120.443,30.139z"/>
	<path clip-path="url(#SVGID_2_)" fill="#3F5BA3" d="M91.81,26.04c0.033,0.535,0.06,1.072,0.112,1.602
		c0.229,0.898,0.471,1.791,0.724,2.681l16.724-0.111c-0.112-1.551-0.153-3.113-0.128-4.69L91.81,26.04z"/>
	<path clip-path="url(#SVGID_2_)" fill="#3F5BA3" d="M134.263,36.09l0.017,0.007l2.642,13.333c1.271-0.336,2.556-0.78,3.703-1.383
		l-3.189-13.982c-0.572,0.117-1.148,0.217-1.729,0.297C135.197,34.903,134.724,35.49,134.263,36.09"/>
	<path clip-path="url(#SVGID_2_)" fill="#3F5BA3" d="M124.806,124.912c-1.514,0.293-3.019,0.627-4.519,0.994l5.614,11.316
		c1.109-0.796,2.198-1.621,3.255-2.49L124.806,124.912z"/>
	<path clip-path="url(#SVGID_2_)" fill="#3F5BA3" d="M75.018,143.262l-14.186,10.113c0.607,1.416,1.302,2.781,2.081,4.101
		l2.009-0.527l12.669-10.276C76.734,145.535,75.876,144.398,75.018,143.262"/>
	<path clip-path="url(#SVGID_2_)" fill="#3F5BA3" d="M8.468,39.81l9.807,3.226c1.303-0.561,2.614-1.101,3.933-1.616l-3.294-3.274
		L7.617,35.642C7.771,37.057,8.07,38.445,8.468,39.81"/>
	<path clip-path="url(#SVGID_2_)" fill="#3F5BA3" d="M122.214,118.44c1.408,0.028,2.815,0.062,4.222,0.096l6.389-10.929
		c-0.94-0.498-1.887-0.983-2.833-1.47L122.214,118.44z"/>
	<path clip-path="url(#SVGID_2_)" fill="#3F5BA3" d="M24.229,148.352l-1.337-0.713l-7.415-10.645
		c-1.321,0.341-2.631,0.73-3.925,1.177l0.27,1.646l10.328,13.214C22.979,151.535,23.672,149.971,24.229,148.352"/>
	<path clip-path="url(#SVGID_2_)" fill="#3F5BA3" d="M133.723,137.932c-0.543,1.063-1.113,2.109-1.69,3.151l12.971,3.39l0.865-3.724
		l-11.03-3.835C134.469,137.257,134.102,137.604,133.723,137.932"/>
	<path clip-path="url(#SVGID_2_)" fill="#3F5BA3" d="M49.195,155.939l-8.488,1.196l-7.153-3.813
		c-1.108,1.281-2.151,2.612-3.135,3.997l11.672,3.912l2.94,0.931l3.814-0.999C49.089,159.444,49.194,157.698,49.195,155.939"/>
	<path clip-path="url(#SVGID_2_)" fill="#3F5BA3" d="M11.13,109.278l0.093-1.35c-1.219-0.108-2.437-0.094-3.647,0.031l2.127,17.683
		c1.24-0.245,2.487-0.431,3.739-0.561L11.13,109.278z"/>
	<path clip-path="url(#SVGID_2_)" fill="#3F5BA3" d="M134.662,97.523c1,0.605,2.002,1.204,3.008,1.797l1.799-3.076l4.497-9.125
		l0.009-0.619c-1.185-0.842-2.371-1.683-3.557-2.525L134.662,97.523z"/>
	<path clip-path="url(#SVGID_2_)" fill="#3F5BA3" d="M17.594,70.288l2.185-8.121l2.96-7.649c-1.167,0.007-2.336-0.031-3.504-0.094
		l-5.518,15.014C15.022,69.663,16.317,69.937,17.594,70.288"/>
	<path clip-path="url(#SVGID_2_)" fill="#3F5BA3" d="M14.875,80.393c-1.535-0.51-3.049-1.098-4.549-1.728l-0.233,0.633L8.094,96.39
		c1.234,0.327,2.485,0.56,3.753,0.653c0.042-0.002,0.084-0.006,0.126-0.009l0.541-7.866L14.875,80.393z"/>
	<path clip-path="url(#SVGID_2_)" fill="#DB923C" d="M23.608,132.402c2.548-1.724,4.674-4.051,7.219-5.779
		c6.897-4.687,15.847-4.392,23.996-3.052c6.346,1.044,12.61,2.619,18.712,4.704c0.031,0.999,0.063,1.997,0.095,2.996
		c-5.051,2.851-9.795,6.283-14.113,10.215c-11.379-4.23-23.381-6.663-35.461-7.185L23.608,132.402z"/>
</g>
<g>
	<defs>
		<path id="SVGID_3_" d="M30.827,126.623c-2.545,1.729-4.671,4.055-7.219,5.78l0.447,1.898c12.081,0.522,24.083,2.953,35.462,7.185
			c4.318-3.933,9.061-7.364,14.113-10.214c-0.032-0.999-0.064-1.998-0.095-2.996c-6.102-2.085-12.366-3.66-18.712-4.704
			c-3.061-0.503-6.233-0.859-9.368-0.859C40.242,122.713,35.133,123.697,30.827,126.623"/>
	</defs>
	<clipPath id="SVGID_4_">
		<use xlink:href="#SVGID_3_"  overflow="visible"/>
	</clipPath>
	<path clip-path="url(#SVGID_4_)" fill="#CE7229" d="M77.61,139.068c-2.074,1.706-4.149,3.412-6.223,5.119
		c-2.582,2.123-5.361,4.333-8.643,4.677c-2.226,0.233-4.438-0.428-6.584-1.08c-10.431-3.175-20.862-6.35-31.293-9.524
		c-1.246-0.379-2.573-0.813-3.377-1.867c-0.804-1.054-0.706-2.928,0.495-3.437c12.576-0.198,25.043,2.452,37.159,5.945
		c3.257-2.77,6.64-5.381,10.134-7.82c2.759-1.929,5.704-3.794,9.006-4.235c0.851,2.561,1.337,5.25,1.439,7.956
		c0.026,0.683,0.024,1.387-0.211,2.027C79.167,137.77,78.372,138.441,77.61,139.068"/>
</g>
<g>
	<defs>
		<path id="SVGID_5_" d="M46.777,95.647c-0.499,0.125-1.01,0.298-1.374,0.673c-0.425,0.437-0.58,1.072-0.718,1.676
			c-0.859,3.76-1.719,7.52-2.578,11.279c-1.326,5.798-2.733,11.779-6.192,16.544c-0.206,0.282-0.429,0.601-0.385,0.95
			c0.025,0.206,0.142,0.387,0.259,0.556c2.418,3.484,6.464,5.501,10.571,6.096s8.329,0.323,12.344-0.75
			c1.219-0.326,4.511-1.102,4.901-2.339c0.197-0.625-0.628-1.43-1.131-2.73c-1.92-4.964-3.972-9.572-5.569-14.658
			c-1.596-5.086-2.721-10.51-1.772-15.766c-1.742-1.194-3.833-1.825-5.921-1.825C48.393,95.353,47.574,95.45,46.777,95.647"/>
	</defs>
	<clipPath id="SVGID_6_">
		<use xlink:href="#SVGID_5_"  overflow="visible"/>
	</clipPath>
	
		<linearGradient id="SVGID_7_" gradientUnits="userSpaceOnUse" x1="0" y1="179.9941" x2="1" y2="179.9941" gradientTransform="matrix(28.1106 0 0 -28.1106 36.8698 5174.4355)">
		<stop  offset="0" style="stop-color:#CE7129"/>
		<stop  offset="0.0294" style="stop-color:#CF762C"/>
		<stop  offset="0.1652" style="stop-color:#D58636"/>
		<stop  offset="0.3051" style="stop-color:#D9903D"/>
		<stop  offset="0.4548" style="stop-color:#DA933F"/>
		<stop  offset="1" style="stop-color:#CE7129"/>
	</linearGradient>
	<rect x="35.486" y="95.353" clip-path="url(#SVGID_6_)" fill="url(#SVGID_7_)" width="28.316" height="38.663"/>
	<path clip-path="url(#SVGID_6_)" fill="#CADBDE" d="M41.282,112.123c-0.478,1.104-0.392,2.447,0.22,3.477
		c0.879,1.475,2.618,2.131,4.266,2.44c2.956,0.556,6.048,0.318,8.892-0.682c0.967-0.34,1.938-0.789,2.617-1.579
		c0.679-0.789,0.995-1.992,0.526-2.93c1.88,1.765,3.331,4.014,4.187,6.485c0.166,0.482,0.313,0.987,0.271,1.497
		c-0.103,1.248-1.252,2.092-2.33,2.662c-5.8,3.068-12.922,3.322-18.913,0.676c-1.593-0.704-3.206-1.709-3.903-3.35
		c-1.05-2.472,0.346-5.264,1.701-7.573"/>
	<path clip-path="url(#SVGID_6_)" fill="#CADBDE" d="M43.333,99.396c0.097-0.12,0.307,0.005,0.32,0.16
		c0.012,0.156-0.092,0.294-0.19,0.413c0.165-0.129,0.422-0.105,0.562,0.051c-0.453,0.392-0.368,1.187,0.028,1.641
		c0.396,0.453,0.996,0.644,1.571,0.786c2.478,0.613,5.081,0.676,7.584,0.184c0.81-0.159,1.806-0.646,1.709-1.494
		c0.42,1.632,0.84,3.263,1.26,4.893c0.145,0.562,0.27,1.226-0.09,1.672c-0.2,0.247-0.508,0.366-0.804,0.467
		c-3.44,1.174-7.23,1.226-10.699,0.145c-1.36-0.425-2.831-1.2-3.18-2.624c-0.212-0.86,0.045-1.762,0.299-2.609"/>
</g>
<g>
	<defs>
		<rect id="SVGID_8_" width="300" height="180"/>
	</defs>
	<clipPath id="SVGID_9_">
		<use xlink:href="#SVGID_8_"  overflow="visible"/>
	</clipPath>
	<path clip-path="url(#SVGID_9_)" fill="#AC591B" d="M46.03,97.443c-0.138-0.396,0.381-0.67,0.78-0.745
		c2.309-0.441,4.831-0.83,6.892,0.333c0.268,0.15,0.561,0.444,0.431,0.729c-0.085,0.185-0.303,0.247-0.496,0.286
		c-2.336,0.468-4.774,0.385-7.075-0.24C46.348,97.748,46.105,97.659,46.03,97.443"/>
	<path clip-path="url(#SVGID_9_)" fill="#DB923C" d="M123.003,50.339c-0.245-0.417-0.499-0.843-0.873-1.149
		c-0.511-0.417-1.185-0.562-1.832-0.688c-9.657-1.868-19.636-2.061-29.358-0.568c-0.44,3.753-1.912,7.379-4.212,10.377
		c0.972,0.737,1.692,1.802,2.013,2.979c12.504-1.449,25.173-2.823,37.639-1.074c0.311-0.853,0.622-1.706,0.933-2.56
		C125.877,55.217,124.44,52.778,123.003,50.339"/>
</g>
<g>
	<defs>
		<path id="SVGID_10_" d="M90.94,47.935c-0.441,3.752-1.912,7.379-4.212,10.376c0.973,0.737,1.692,1.802,2.013,2.979
			c12.504-1.448,25.173-2.822,37.639-1.073c0.311-0.854,0.622-1.707,0.933-2.56c-1.436-2.439-2.874-4.878-4.31-7.317
			c-0.246-0.417-0.499-0.844-0.874-1.15c-0.51-0.416-1.184-0.562-1.831-0.687c-5.375-1.04-10.851-1.561-16.325-1.561
			C99.611,46.942,95.25,47.272,90.94,47.935"/>
	</defs>
	<clipPath id="SVGID_11_">
		<use xlink:href="#SVGID_10_"  overflow="visible"/>
	</clipPath>
	<path clip-path="url(#SVGID_11_)" fill="#CE7229" d="M84.21,62.368c1.068,1.229,1.979,2.761,3.519,3.289
		c0.883,0.303,1.847,0.22,2.777,0.134c11.033-1.021,22.066-2.043,33.099-3.065c0.837-0.077,1.696-0.161,2.445-0.54
		c1.466-0.741,2.179-2.425,2.576-4.02c-7.206-1.211-14.567-0.978-21.87-0.742c-4.016,0.13-8.032,0.26-12.047,0.39
		c-4.803,0.155-9.643,0.315-14.322,1.411C81.783,60.116,83.125,61.118,84.21,62.368"/>
</g>
<g>
	<defs>
		<path id="SVGID_12_" d="M104.194,17.795c-2.227,1.428-2.812,4.362-3.25,6.97c-1.462,8.712-2.886,13.528-5.444,21.984
			c-0.093,0.306-1.568,4.268-1.485,4.578c0.103,0.385,0.452,0.647,0.783,0.869c5.346,3.584,12.973,5.02,19.248,3.593
			c2.342-0.533,5.952-2.483,6.819-4.71c-4.772-6.612-7.76-13.454-8.819-21.539c-0.379-2.898-0.585-5.962,0.598-8.634
			c0.197-0.444,0.436-0.897,0.419-1.383c-0.04-1.079-1.243-1.682-2.279-1.987c-1.108-0.326-2.299-0.571-3.454-0.571
			C106.214,16.965,105.132,17.193,104.194,17.795"/>
	</defs>
	<clipPath id="SVGID_13_">
		<use xlink:href="#SVGID_12_"  overflow="visible"/>
	</clipPath>
	
		<linearGradient id="SVGID_14_" gradientUnits="userSpaceOnUse" x1="0" y1="179.9824" x2="1" y2="179.9824" gradientTransform="matrix(26.0605 0 0 -26.0605 95.38 4727.5356)">
		<stop  offset="0" style="stop-color:#CE7129"/>
		<stop  offset="0.0783" style="stop-color:#CE7129"/>
		<stop  offset="0.1027" style="stop-color:#CF762C"/>
		<stop  offset="0.215" style="stop-color:#D58636"/>
		<stop  offset="0.3309" style="stop-color:#D9903D"/>
		<stop  offset="0.4548" style="stop-color:#DA933F"/>
		<stop  offset="1" style="stop-color:#CE7129"/>
	</linearGradient>
	<rect x="93.932" y="16.965" clip-path="url(#SVGID_13_)" fill="url(#SVGID_14_)" width="26.933" height="40.251"/>
	<path clip-path="url(#SVGID_13_)" fill="#CADBDE" d="M101.152,21.88c-0.316,0.536-0.153,1.253,0.241,1.734
		c0.394,0.481,0.973,0.768,1.551,0.997c2.056,0.817,4.333,1.071,6.518,0.728c0.948-0.149,1.978-0.481,2.444-1.32l1.083,4.951
		c0.048,0.222,0.097,0.448,0.075,0.674c-0.026,0.271-0.152,0.523-0.304,0.749c-0.901,1.345-2.622,1.872-4.231,2.053
		c-2.028,0.23-4.1,0.06-6.064-0.494c-0.858-0.243-1.725-0.576-2.355-1.207c-0.73-0.73-1.059-1.786-1.108-2.817
		c-0.048-1.031,0.158-2.056,0.362-3.068"/>
	<path clip-path="url(#SVGID_13_)" fill="#CADBDE" d="M118.019,44.026c-0.451,2.404-3.18,3.478-5.55,4.084
		c-4.348,1.113-7.318,1.855-11.732,0.848c-2.252-0.513-4.266-2.119-5.373-4.146c-1.107-2.027,0.196-6.184,2.116-7.467
		c-0.495,1.732-0.495,3.217,2.154,4.04c4.079,1.269,8.554,1.176,12.626-0.116c0.746-0.237,1.509-0.533,2.042-1.107
		c0.533-0.574,0.765-1.498,0.337-2.155c1.439,0.89,1.706,2.182,2.514,3.668C117.859,42.977,118.292,42.572,118.019,44.026"/>
</g>
<g>
	<defs>
		<rect id="SVGID_15_" width="300" height="180"/>
	</defs>
	<clipPath id="SVGID_16_">
		<use xlink:href="#SVGID_15_"  overflow="visible"/>
	</clipPath>
	<path clip-path="url(#SVGID_16_)" fill="#AC591B" d="M107.225,21.518c-1.406,0.268-2.944-0.481-3.6-1.753
		c2.351-1.271,5.278-1.421,7.748-0.398c0.201,0.083,0.416,0.191,0.5,0.392c0.142,0.338-0.17,0.69-0.476,0.892
		c-1.603,1.056-3.68,0.932-5.593,0.769"/>
</g>
<g>
	<defs>
		<path id="SVGID_17_" d="M267.363,77.105c-0.33,2.292-0.432,3.325-1.47,5.367c-2.138,0.599-2.384-0.909-3.632-3.712
			c-0.276-0.623-0.875-1.207-1.519-1.11c-0.953,0.144-0.565,1.327-0.258,2.292c0.651,2.045,0.538,3.222,1.327,5.212
			c0.788,1.99,1.488,3.321,1.817,3.843c0.126,0.2-2.106,4.606-2.22,5.774c-0.112,1.167,0.642,2.569,1.745,2.455
			c1.603-0.166,1.988-3.724,3.389-4.566c0.571-0.344,1.322-0.28,2.055-0.217c0.394,0.033,0.78,0.066,1.133,0.038
			c1.477-0.12,2.129-0.467,3.523-0.993c1.194-0.451,2.495-0.446,3.735-0.721c1.241-0.277,2.534-0.959,2.985-2.212
			c-0.716-0.711-1.593-0.448-2.626-0.185c-0.91,0.232-1.941,0.465-3.09,0.028c-0.397-0.151-0.565-0.333-0.549-0.796
			c3.003-0.69,7.844-3.532,8.065-4.481c-0.032-1.115-3.114-0.247-4.548,0.563c-1.433,0.81-3.416,1.472-4.497,0.19
			c5.176-7.993,5.882-9.827,5.05-10.657c-1.388-0.291-3.09,3.147-3.961,4.328c-1.328,1.799-1.566,2.196-2.895,3.995
			c-0.522,0.708-1.402,0.944-2.175,0.571c0.477-5.232,1.861-9.094,1.146-10.265c-0.136-0.12-0.27-0.175-0.398-0.175
			C268.45,71.671,267.628,75.268,267.363,77.105"/>
	</defs>
	<clipPath id="SVGID_18_">
		<use xlink:href="#SVGID_17_"  overflow="visible"/>
	</clipPath>
	
		<linearGradient id="SVGID_19_" gradientUnits="userSpaceOnUse" x1="0" y1="179.9268" x2="1" y2="179.9268" gradientTransform="matrix(11.9705 -11.9705 -11.9705 -11.9705 2419.2898 2243.615)">
		<stop  offset="0" style="stop-color:#CF8954"/>
		<stop  offset="0.642" style="stop-color:#E5B47F"/>
		<stop  offset="1" style="stop-color:#E5B47F"/>
	</linearGradient>
	<polygon clip-path="url(#SVGID_18_)" fill="url(#SVGID_19_)" points="246.955,84.506 270.783,60.678 294.611,84.506 
		270.783,108.334 	"/>
</g>
<g>
	<defs>
		<path id="SVGID_20_" d="M171.702,128.356c-0.41,0.079-0.728,0.412-1.018,0.729c-1.072,1.173-2.146,2.345-3.218,3.517
			c-1.069,1.17-2.146,2.35-2.976,3.721c-2.822,4.674-2.318,10.783-0.83,16.101c0.323,1.155,0.963,2.521,2.101,2.51
			c1.32-0.012,1.842-1.795,1.967-3.187c0.269-2.999,0.496-6.137,1.991-8.701c0.381-0.653,0.875-1.285,1.559-1.544
			c0.969-0.368,2.079,0.132,2.776,0.933c0.697,0.802,1.071,1.852,1.43,2.873c1.461-3.289,3.302-6.389,5.469-9.206
			c-0.935,0.182-1.866-0.423-2.468-1.201c-0.603-0.778-0.969-1.727-1.466-2.584c-1.003-1.732-2.566-3.093-4.365-3.801
			c-0.241-0.095-0.495-0.179-0.75-0.179C171.837,128.337,171.769,128.343,171.702,128.356"/>
	</defs>
	<clipPath id="SVGID_21_">
		<use xlink:href="#SVGID_20_"  overflow="visible"/>
	</clipPath>
	
		<linearGradient id="SVGID_22_" gradientUnits="userSpaceOnUse" x1="0" y1="180" x2="1" y2="180" gradientTransform="matrix(18.4961 0 0 -18.4961 162.4505 3470.9226)">
		<stop  offset="0" style="stop-color:#2E4120"/>
		<stop  offset="0.003" style="stop-color:#2E4120"/>
		<stop  offset="1" style="stop-color:#597A5C"/>
	</linearGradient>
	<rect x="161.669" y="128.337" clip-path="url(#SVGID_21_)" fill="url(#SVGID_22_)" width="19.284" height="26.607"/>
	<path clip-path="url(#SVGID_21_)" fill="#496449" d="M182.867,137.995c-1.951-1.407-4.732-2.473-6.338-0.036
		c-1.508,2.287-1.272,5.714-0.135,8.088c0.825,1.72,3.509,0.499,3.027-1.276c-0.408-1.506-0.834-3.003-0.606-4.587
		c0.103-0.706,0.255-1.197,1.058-1.213c0.781-0.016,1.623,0.292,2.344,0.566C183.174,139.902,183.583,138.513,182.867,137.995"/>
	<path clip-path="url(#SVGID_21_)" fill="#FFFFFF" d="M172.837,137.28c-0.698,2.337-0.54,4.862,0.032,7.206
		c0.197,0.806,1.478,0.457,1.243-0.342c-0.664-2.264-0.668-4.431-0.469-6.756C173.683,136.916,172.965,136.851,172.837,137.28"/>
	<path clip-path="url(#SVGID_21_)" fill="#FFFFFF" d="M169.268,138.117c0.198,2.231,0.862,4.492,1.681,6.569
		c0.323,0.821,1.662,0.471,1.341-0.37c-0.798-2.086-1.396-4.206-2.085-6.326C170.047,137.508,169.218,137.556,169.268,138.117"/>
	<path clip-path="url(#SVGID_21_)" fill="#FFFFFF" d="M166.438,141.784c1.464,1.583,2.793,3.167,3.901,5.026
		c0.448,0.751,1.612,0.074,1.173-0.687c-1.129-1.959-2.622-3.801-4.464-5.131C166.567,140.646,166.064,141.382,166.438,141.784"/>
	<path clip-path="url(#SVGID_21_)" fill="#FAF1D7" d="M173.615,126.8c-13.503,6.064-14.604,21.735-6.646,32.594
		c0.842,1.146,2.767,0.091,1.95-1.141c-3.71-5.591-6.633-12.171-4.042-18.866c1.953-5.048,6.456-7.657,9.454-11.871
		C174.67,127.042,174.037,126.611,173.615,126.8"/>
	<path clip-path="url(#SVGID_21_)" fill="#FAF1D7" d="M176.218,135.447c1.039-0.769,0.492-2.255-0.421-2.871
		c-0.395-0.269-1.028-0.009-1.126,0.458c-0.226,1.077,0.323,1.983,1.313,2.401c0.39,0.164,0.905-0.18,0.992-0.563
		c0.286-1.27-0.567-2.415-1.852-2.54c-0.448-0.044-0.941,0.446-0.896,0.895c0.09,0.878,0.479,1.697,1.271,2.15
		c1.024,0.587,1.824-0.884,0.906-1.551c-0.193-0.142-0.358-0.352-0.387-0.6c-0.298,0.299-0.598,0.597-0.896,0.896
		c0.228,0.019,0.275,0.374,0.269,0.535c0.34-0.26,0.68-0.519,1.02-0.777c-0.266-0.082-0.264-0.425-0.235-0.645
		c-0.386,0.222-0.77,0.441-1.154,0.662c0.426,0.243,0.376,0.817,0.448,1.245C175.522,135.447,175.97,135.632,176.218,135.447"/>
	<path clip-path="url(#SVGID_21_)" fill="#C7BAA3" d="M174.285,126.326c-5.414,2.401-10.976,9.854-12.224,15.681
		c-1.191,5.56,0.621,11.201,4.432,15.316c0.95,1.026,2.494-0.518,1.535-1.535c-4.396-4.672-5.508-11.563-2.461-17.282
		c2.383-4.474,6.438-7.526,9.311-11.587C175.157,126.524,174.636,126.171,174.285,126.326"/>
</g>
<g>
	<defs>
		<path id="SVGID_23_" d="M207.24,110.102c-1.271,0.715-2.036,2.121-2.685,3.48c-3.963,8.303-6.106,17.579-10.956,25.337
			c-1.123,1.799-2.483,3.581-4.389,4.342c-4.33,1.731-8.6-2.44-11.563-6.204c-1.923,2.368-1.488,6.142,0.218,8.688
			c3.533,5.271,11.067,5.872,16.605,3.149c5.538-2.722,9.574-7.904,13.525-12.833c1.662-2.071,3.492-4.229,5.97-4.942
			c1.104-0.318,2.262-0.321,3.406-0.365c5.979-0.231,11.887-1.629,17.87-1.729c12.698-0.214,25.371,5.769,33.707,15.911
			c1.031,1.255,2.086,2.634,3.584,3.135c1.499,0.5,3.521-0.432,3.543-2.096c-4.567-8.43-10.765-16.068-18.72-20.918
			c-7.956-4.85-17.793-6.671-26.516-3.639c1.449-2.239,0.595-5.492-1.268-7.357c-1.864-1.864-4.456-2.644-6.967-3.193
			c-3.922-0.859-7.921-1.318-11.925-1.369c-0.116-0.001-0.233-0.002-0.351-0.002C209.265,109.497,208.176,109.576,207.24,110.102"/>
	</defs>
	<clipPath id="SVGID_24_">
		<use xlink:href="#SVGID_23_"  overflow="visible"/>
	</clipPath>
	
		<linearGradient id="SVGID_25_" gradientUnits="userSpaceOnUse" x1="0" y1="180.1816" x2="1" y2="180.1816" gradientTransform="matrix(9.7222 -24.7321 -24.7321 -9.7222 4677.1709 1895.1144)">
		<stop  offset="0" style="stop-color:#4F3A1E"/>
		<stop  offset="0.1189" style="stop-color:#4F3A1E"/>
		<stop  offset="0.9968" style="stop-color:#87663F"/>
		<stop  offset="1" style="stop-color:#87663F"/>
	</linearGradient>
	<polygon clip-path="url(#SVGID_24_)" fill="url(#SVGID_25_)" points="161.385,145.979 189.157,75.329 290.418,115.135 
		262.646,185.785 	"/>
</g>
<g>
	<defs>
		<path id="SVGID_26_" d="M204.556,113.582c-0.356,0.746-0.697,1.501-1.027,2.261c4.959,2.021,9.72,4.403,14.74,6.281
			c4.51,1.686,9.295,1.378,13.441-0.99c-0.29,0.09-0.58,0.186-0.868,0.285c0.791-1.222,0.896-2.745,0.525-4.181
			c-0.304-0.011-0.627,0.048-0.959,0.192c-6.52,2.857-10.864,0.535-16.893-2.007c-2.77-1.167-5.653-2.037-8.601-2.567
			C204.79,113.097,204.671,113.34,204.556,113.582"/>
	</defs>
	<clipPath id="SVGID_27_">
		<use xlink:href="#SVGID_26_"  overflow="visible"/>
	</clipPath>
	
		<linearGradient id="SVGID_28_" gradientUnits="userSpaceOnUse" x1="0" y1="179.6416" x2="1" y2="179.6416" gradientTransform="matrix(2.6087 -6.6363 -6.6363 -2.6087 1408.871 589.3)">
		<stop  offset="0" style="stop-color:#4F3A1E"/>
		<stop  offset="0.1189" style="stop-color:#4F3A1E"/>
		<stop  offset="0.9968" style="stop-color:#87663F"/>
		<stop  offset="1" style="stop-color:#87663F"/>
	</linearGradient>
	<polygon clip-path="url(#SVGID_27_)" fill="url(#SVGID_28_)" points="199.798,122.344 207.304,103.251 235.467,114.322 
		227.961,133.415 	"/>
</g>
<g>
	<defs>
		<path id="SVGID_29_" d="M173.773,71.155c13.138,6.165,27.869,11.067,41.718,7c-2.283,12.742-8.991,24.543-18.56,32.644
			c13.426,2.102,24.159,16.838,37.242,9.913c3.512-6.28,5.617-12.766,7.426-19.609c0.214,0.62,0.425,1.24,0.679,1.849
			c1.395,3.34,3.7,6.584,7.033,7.531c4.566,1.298,9.134-2.148,12.152-6c2.448-3.123,4.493-6.881,4.5-10.938
			c0.002-0.825-0.106-1.713-0.631-2.325c-0.409-0.477-1.025-0.715-1.634-0.76c-2.031-0.148-3.744,1.652-4.667,3.572
			c-0.925,1.921-1.375,4.095-2.518,5.879c-1.143,1.785-3.367,3.111-5.208,2.187c-1.761-0.885-2.247-3.266-2.389-5.324
			c-0.302-4.431-0.005-8.923-0.793-13.286c-2.245-12.41-14.004-14.93-24.182-13.6c-16.976,2.219-35.117,1.071-49.709-8.369
			C172.565,64.372,172.385,68.137,173.773,71.155"/>
	</defs>
	<clipPath id="SVGID_30_">
		<use xlink:href="#SVGID_29_"  overflow="visible"/>
	</clipPath>
	
		<linearGradient id="SVGID_31_" gradientUnits="userSpaceOnUse" x1="0" y1="179.9072" x2="1" y2="179.9072" gradientTransform="matrix(82.1076 -29.0381 -29.0381 -82.1076 5406.5234 14879.2686)">
		<stop  offset="0" style="stop-color:#4A6E8B"/>
		<stop  offset="3.786670e-004" style="stop-color:#4A6E8B"/>
		<stop  offset="0.3552" style="stop-color:#5B829D"/>
		<stop  offset="1" style="stop-color:#7299AE"/>
	</linearGradient>
	<polygon clip-path="url(#SVGID_30_)" fill="url(#SVGID_31_)" points="151.601,68.869 255.563,32.102 286.75,120.286 
		182.788,157.054 	"/>
	<path clip-path="url(#SVGID_30_)" fill="#548296" d="M265.464,105.599c-2.007,4.431-5.07,8.703-9.478,10.242
		c-4.402,1.537-9.529-0.114-12.7-3.693c-0.247-0.279-0.523-0.591-0.884-0.61c-0.32-0.018-0.604,0.203-0.854,0.417
		c-1.193,1.029-2.298,2.176-3.292,3.421c1.458-5.689,2.916-11.378,4.375-17.067c1.302-5.079,2.615-10.264,2.346-15.52
		c0.4,3.988,0.546,8.005,0.436,12.014c-0.074,2.669-0.257,5.378,0.317,7.979c0.574,2.599,2.063,5.136,4.4,6.136
		c2.467,1.055,5.378,0.164,7.472-1.573c2.094-1.736,3.521-4.202,4.831-6.652c1.31-2.452,2.572-4.984,4.445-6.984
		C268.284,97.54,267.144,101.892,265.464,105.599"/>
	<path clip-path="url(#SVGID_30_)" fill="#548296" d="M193.072,98.363c-9.068-5.682-15.585-14.909-21.594-24.072"/>
	<path clip-path="url(#SVGID_30_)" fill="#548296" d="M213.711,83.604c1.778-0.523,4.237-1.703,6.709-7.457
		c-8.445,1.46-16.654,3.383-25.054,1.652c-3.36-0.692-6.615-1.857-9.856-3.018c-4.608-1.65-13.562-7.334-14.064-5.736l6.373,8.522
		l24.656,9.055l4.359-3.373"/>
</g>
<g>
	<defs>
		<path id="SVGID_32_" d="M288.348,131.01c-1.36,0.217-2.684,1.243-3.856,2.842c-0.845,1.149-1.09,2.828-1.554,4.2
			c-0.879,2.593-4.987,5.209-6.665,4.145c-1.111-1.38-0.716-0.999-1.825-2.38c-0.357-0.443-0.793-0.926-1.342-0.899
			c-0.428,0.02-0.779,0.347-1.077,0.67c-2.189,2.359-3.648,5.464-4.104,8.736c1.901,0.104,3.736,1.175,4.834,2.824
			c0.487,0.732,0.839,1.571,1.423,2.22c0.805,0.892,1.952,1.319,3.054,1.717c1.172,0.423,2.521,0.832,3.592,0.172
			c1.258-0.774,1.453-2.572,2.117-3.942c0.831-1.716,2.449-2.803,3.784-4.111c2.636-2.582,4.27-6.277,4.453-10.074
			c0.071-1.432,0.88-4.175,0.188-5.408c-0.4-0.709-0.896-0.908-1.501-0.908C289.422,130.812,288.917,130.92,288.348,131.01"/>
	</defs>
	<clipPath id="SVGID_33_">
		<use xlink:href="#SVGID_32_"  overflow="visible"/>
	</clipPath>
	
		<linearGradient id="SVGID_34_" gradientUnits="userSpaceOnUse" x1="0" y1="180.0625" x2="1" y2="180.0625" gradientTransform="matrix(-6.0852 -14.4971 -14.4971 6.0852 2893.6582 -944.5481)">
		<stop  offset="0" style="stop-color:#2E4120"/>
		<stop  offset="0.003" style="stop-color:#2E4120"/>
		<stop  offset="1" style="stop-color:#597A5C"/>
	</linearGradient>
	<polygon clip-path="url(#SVGID_33_)" fill="url(#SVGID_34_)" points="271.54,164.53 258.965,134.572 288.445,122.198 
		301.02,152.155 	"/>
	<path clip-path="url(#SVGID_33_)" fill="#C7BAA3" d="M294.996,135.284c0.779-3.45-2.903-4.666-5.549-3.332
		c-1.659,0.837-1.07,3.208,0.486,3.724c1.349,0.447,2.402,0.469,3.669-0.187c1.735-0.898,1.075-3.264-0.503-3.843
		c-5.596-2.057-6.29,4.499-7.459,8.172c-1.581,4.971-8.597,10.701-6.743,16.515c1.77,5.545,6.28,0.377,7.8-2.118
		c3.589-5.896,9.389-12.723,10.3-19.72c0.349-2.688-4.258-3.32-4.758-0.645c-0.741,3.973-3.555,7.558-5.611,10.988
		c-0.921,1.536-1.842,3.072-2.763,4.609l-1.844,3.071c1.227,1.124,1.914,1.027,2.064-0.289c0.925-0.888,1.815-3.256,2.544-4.416
		c0.756-1.201,1.497-2.405,2.1-3.695c0.538-1.15,2.217-8.756,3.253-8.418c-0.168-1.281-0.335-2.563-0.503-3.844
		c-0.153-0.037-0.308-0.073-0.462-0.11c0.162,1.241,0.324,2.481,0.486,3.724c0.745-0.164,1.4-0.019,1.966,0.435
		C294.029,136.224,294.846,135.949,294.996,135.284"/>
	<path clip-path="url(#SVGID_33_)" fill="#C7BAA3" d="M283.889,146.813c-4.778-0.488-9.086,11.844-3.417,12.635
		c1.814,0.253,3.039-1.27,2.284-2.972c-0.287-0.652-0.558-0.86-0.562-1.576c-0.005-0.866,0.438-1.88,0.779-2.65
		c0.618-1.398,1.939-2.887,1.884-4.468C284.837,147.218,284.427,146.867,283.889,146.813"/>
	<path clip-path="url(#SVGID_33_)" fill="#FAF1D7" d="M295.919,137.388c0.558-2.278,0.897-3.191-0.063-5.382
		c-0.265-0.604-1.025-0.923-1.638-0.939c-6.22-0.177-5.64,4.998-7.379,9.555c-2.137,5.599-8.868,10-6.745,16.582
		c0.56,1.733,2.519,2.154,3.854,1.017c6.052-5.149,10.021-14.44,11.885-22.022c0.719-2.923-3.634-4.122-4.505-1.242
		c-2.035,6.735-5.223,15.226-10.642,20.004c1.285,0.339,2.57,0.678,3.854,1.019c-1.063-3.115,1.323-5.104,2.924-7.382
		c1.352-1.922,2.44-3.957,3.268-6.156c0.568-1.509,0.627-5.43,1.616-6.48c0.874-0.928,1.173,0.847,1.977,1.851
		C294.779,138.375,295.761,138.034,295.919,137.388"/>
	<path clip-path="url(#SVGID_33_)" fill="#FFFFFF" d="M273.757,144.354c-0.057,0.001-0.112,0.003-0.169,0.004
		c-0.416,0.011-0.418,0.64,0,0.648c0.057,0.002,0.112,0.003,0.169,0.004C274.179,145.02,274.18,144.344,273.757,144.354"/>
	<path clip-path="url(#SVGID_33_)" fill="#FFFFFF" d="M273.741,144.957c0.602-0.238,0.619-1.154,0.911-1.677
		c0.398-0.715,1.038-1.339,1.8-1.655c1.013-0.421,0.432-1.856-0.59-1.4c-1.087,0.486-1.899,1.39-2.352,2.483
		c-0.206,0.498-0.369,1.089-0.332,1.634C273.195,144.583,273.389,145.097,273.741,144.957"/>
	<path clip-path="url(#SVGID_33_)" fill="#FFFFFF" d="M277.758,146.451c-0.139-1.855,0.142-3.538,1.143-5.137
		c0.482-0.771-0.79-1.51-1.214-0.709c-0.967,1.821-1.333,3.946-0.811,5.965C276.999,147.049,277.797,146.966,277.758,146.451"/>
	<path clip-path="url(#SVGID_33_)" fill="#FFFFFF" d="M281.146,143.788c0.022-0.732-0.322-1.427-0.44-2.147
		c-0.15-0.919-0.152-1.873-0.003-2.791c0.158-0.97-1.339-1.364-1.469-0.405c-0.231,1.694-0.209,4.558,1.407,5.634
		C280.861,144.226,281.14,144.029,281.146,143.788"/>
	<path clip-path="url(#SVGID_33_)" fill="#FAF1D7" d="M272.904,150.018c0.344,0.725,1.382,0.579,1.799,0.014
		c0.631-0.854-0.024-2.119-0.663-2.782c-0.781-0.809-2.204-0.745-2.271,0.579c-0.048,0.956,0.508,1.947,1.424,2.275
		c0.366,0.13,0.795-0.118,0.932-0.457c0.158-0.395-0.001-0.74-0.323-0.986c-0.288-0.219-0.477-0.498-0.394-0.876
		c-0.188,0.189-0.378,0.378-0.566,0.567c0.169-0.051,0.157-0.071-0.037-0.062c0.067,0.028,0.122,0.072,0.166,0.131
		c0.131,0.125,0.225,0.284,0.317,0.438c0.097,0.161,0.135,0.354,0.223,0.509c0.027,0.041,0.022,0.075-0.009,0.101
		c0.021-0.042,0.066-0.047,0.134-0.015C273.259,149.04,272.69,149.565,272.904,150.018"/>
</g>
<g>
	<defs>
		<rect id="SVGID_35_" width="300" height="180"/>
	</defs>
	<clipPath id="SVGID_36_">
		<use xlink:href="#SVGID_35_"  overflow="visible"/>
	</clipPath>
	<path clip-path="url(#SVGID_36_)" fill="#2B4755" d="M173.593,71.149c1.184,1.057,3.211,0.59,4.138-0.708
		c0.926-1.298,0.888-3.119,0.269-4.595s-1.733-2.671-2.875-3.776c-0.258-0.248-0.534-0.504-0.88-0.584
		c-0.861-0.199-1.543,0.747-1.834,1.597c-0.743,2.163-0.641,4.615,0.278,6.706C172.911,70.292,173.186,70.786,173.593,71.149"/>
	<path clip-path="url(#SVGID_36_)" fill="#A5617C" d="M154.335,86.063c1.88,0.506,3.188-2.052,3.961-3.935
		c2.077-5.06,4.761-10.509,6.839-15.569c-1.214-0.906-1.868-3.355-3.082-4.261c-2.496,4.513-6.157,10.957-8.653,15.47
		c-0.801,1.448-2.254,3.641-2.039,5.303C151.549,84.536,152.617,85.601,154.335,86.063"/>
</g>
<g>
	<defs>
		<path id="SVGID_37_" d="M153.399,77.768c-0.801,1.448-2.253,3.641-2.039,5.303c0.188,1.465,1.258,2.531,2.975,2.992
			c1.879,0.505,3.188-2.052,3.961-3.934c2.078-5.061,4.76-10.51,6.839-15.57c-1.214-0.906-1.869-3.356-3.083-4.261
			C159.557,66.811,155.895,73.255,153.399,77.768"/>
	</defs>
	<clipPath id="SVGID_38_">
		<use xlink:href="#SVGID_37_"  overflow="visible"/>
	</clipPath>
	<path clip-path="url(#SVGID_38_)" fill="#903669" d="M153.125,74.016c-2.313,2.385-2.127,6.041,0.509,8.228
		c1.223,1.014,2.529,1.428,4.119,1.376c2.556-0.084,4.346-1.981,6.706-2.274c-0.519-0.298-1.039-0.596-1.558-0.894
		c2.03,2.977,1.052,7.603-2.031,9.343c-2.481,1.399-6.068,1.419-8.785,0.772c-8.566-2.04-5.2-11.039,0.004-14.545
		c2.188-1.475,0.22-4.963-2.09-3.575c-4.264,2.561-7.431,6.879-7.277,12.015c0.15,5.007,3.572,8.689,8.37,9.716
		c4.44,0.95,10.217,0.604,13.652-2.704c3.193-3.074,3.931-9.163,1.275-12.844c-0.525-0.727-1.171-0.96-2.039-0.829
		c-1.004,0.151-1.874,0.731-2.793,1.144c-0.906,0.438-1.833,0.826-2.782,1.163c-3.708-0.873-5.063-2.668-4.064-5.385
		C154.491,74.039,153.652,73.473,153.125,74.016"/>
</g>
<g>
	<defs>
		<path id="SVGID_39_" d="M163.418,51.072c-2.484,0.897-5.351,5.964-5.223,8.74c0.173,3.768,0.518,5.604,3.521,7.635
			c3.049,2.06,10.259,2.227,13.748,1.218c0.42-0.122,0.86-0.272,1.15-0.618c0.495-0.589,0.361-1.542-0.055-2.197
			c-0.417-0.654-1.051-1.108-1.6-1.642c-1.507-1.466-2.358-3.522-3.126-5.53c-0.768-2.009-1.524-4.085-2.908-5.682
			c-1.08-1.249-2.651-2.147-4.213-2.147C164.278,50.849,163.842,50.92,163.418,51.072"/>
	</defs>
	<clipPath id="SVGID_40_">
		<use xlink:href="#SVGID_39_"  overflow="visible"/>
	</clipPath>
	
		<linearGradient id="SVGID_41_" gradientUnits="userSpaceOnUse" x1="0" y1="179.8066" x2="1" y2="179.8066" gradientTransform="matrix(-4.946 -9.5663 -9.5663 4.946 1888.6271 -827.2017)">
		<stop  offset="0" style="stop-color:#CF8954"/>
		<stop  offset="0.2383" style="stop-color:#CF8954"/>
		<stop  offset="0.642" style="stop-color:#E5B47F"/>
		<stop  offset="1" style="stop-color:#E5B47F"/>
	</linearGradient>
	<polygon clip-path="url(#SVGID_40_)" fill="url(#SVGID_41_)" points="162.084,77.443 150.387,54.82 173.093,43.08 184.79,65.703 	
		"/>
	<path clip-path="url(#SVGID_40_)" fill="#CF915A" d="M166.319,57.601c-0.592-1.419-1.431-2.491-2.647-3.424
		c-0.2-0.153-0.468-0.013-0.593,0.155c-1.654,2.238-2.398,5.213-2.365,7.966c0.008,0.664,1.017,0.664,1.031,0
		c0.061-2.799,0.797-5.064,2.082-7.528c-0.197,0.051-0.396,0.103-0.592,0.155c1.135,0.742,2.015,1.678,2.737,2.822
		C166.081,57.918,166.405,57.808,166.319,57.601"/>
	<path clip-path="url(#SVGID_40_)" fill="#CF915A" d="M166.902,57.277c1.113-1.13-3.013-4.127-4.333-3.537
		c-1.212,0.541-1.539,2.434-1.773,3.55c-0.389,1.85-0.493,3.799-0.134,5.659c0.104,0.535,0.978,0.414,0.952-0.129
		c-0.095-1.986-0.152-3.887,0.302-5.843c0.246-1.056,0.511-2.481,1.982-2.142c0.289,0.067,2.869,1.853,2.685,2.196
		C166.475,57.23,166.736,57.446,166.902,57.277"/>
	<path clip-path="url(#SVGID_40_)" fill="#CF915A" d="M160.96,50.947c-1.42,0.448-1.983,2.4-2.157,3.719
		c-0.251,1.887,0.699,2.971,2.339,3.723c0.631,0.29,1.175-0.66,0.544-0.931c-1.4-0.602-2.164-1.392-1.903-3.025
		c0.167-1.04,0.462-2.378,1.386-2.993C161.411,51.278,161.267,50.851,160.96,50.947"/>
	<path clip-path="url(#SVGID_40_)" fill="#CF915A" d="M156.804,55.464l-0.067,0.013c0.095,0.054,0.188,0.108,0.283,0.161
		c-0.005,0.005-0.011,0.009-0.016,0.013c-0.099,0.04-0.198,0.08-0.297,0.121c0.267,0.06,0.591,0.633,0.78,0.824
		c0.27,0.274,0.562,0.523,0.868,0.757c0.619,0.474,1.295,0.851,2.017,1.145l-0.21-0.796c-0.049,0.06-2.1-2.273-2.302-2.491
		c-0.438-0.47-1.084,0.214-0.693,0.694c0.653,0.8,1.323,1.702,2.098,2.385c0.446,0.392,1.148,0.622,1.57,0.086
		c0.227-0.287,0.154-0.67-0.21-0.796c-0.836-0.29-1.604-0.681-2.308-1.221c-0.449-0.345-0.938-1.114-1.54-1.105
		c-0.111,0.002-0.23,0.08-0.254,0.194c-0.042,0.192-0.02,0.266,0.11,0.415c0.066,0.076,0.196,0.086,0.28,0.036
		c0.019-0.012,0.039-0.023,0.059-0.035C157.193,55.732,157.042,55.417,156.804,55.464"/>
	<path clip-path="url(#SVGID_40_)" fill="#B7733F" d="M157.876,59.53c-0.286-0.617-0.91-0.117-1.131,0.283
		c-0.579,1.048,0.165,2.423,0.941,3.127c1.029,0.934,2.562,1.352,3.904,0.96c0.626-0.182,1.178-0.539,1.619-1.015
		c0.165-0.178,0.874-1.794,0.894-1.801c-0.234-0.178-0.468-0.356-0.702-0.534c0.041,1.42,0.362,2.71,0.986,3.986l0.776-0.777
		c-0.863-0.625-1.723-1.258-2.6-1.864c-0.606-0.419-1.141,0.549-0.57,0.975c0.855,0.638,1.729,1.25,2.597,1.869
		c0.501,0.357,1.007-0.315,0.777-0.776c-0.547-1.099-0.813-2.189-0.857-3.413c-0.013-0.338-0.348-0.658-0.702-0.535
		c-1.067,0.371-0.932,1.756-1.822,2.411c-0.931,0.684-2.139,0.65-3.149,0.106c-0.393-0.211-0.829-0.546-1.066-0.93
		c-0.218-0.268-0.313-0.578-0.287-0.931c-0.151-0.32-0.132-0.614,0.059-0.883C157.721,59.971,157.974,59.74,157.876,59.53"/>
	<path clip-path="url(#SVGID_40_)" fill="#B7733F" d="M158.963,65.915c0.627,2.123,4.017,3.887,5.972,2.484
		c2.939-2.109-1.077-4.906-3.047-5.508c-0.704-0.215-0.973,0.843-0.3,1.089c0.826,0.301,1.697,0.667,2.367,1.258
		c0.931,0.823,1.141,2.215-0.303,2.548c-1.428,0.331-3.577-0.76-4.208-2.074C159.314,65.441,158.879,65.632,158.963,65.915"/>
	<path clip-path="url(#SVGID_40_)" fill="#B7733F" d="M163.675,64.419c1.093,2.951,3.359,5.304,6.396,6.241
		c0.044-0.326,0.088-0.653,0.132-0.979c-1.866-0.186-3.486-0.993-4.821-2.302c-0.21,0.273-0.42,0.545-0.632,0.818
		c0.469,0.233,0.936,0.467,1.403,0.7c0.453,0.226,1-0.244,0.719-0.719c-0.662-1.121-1.295-2.258-1.898-3.413
		c-0.304,0.178-0.609,0.357-0.914,0.535c1.514,2.298,3.537,4.761,6.554,4.688c0.662-0.016,0.66-1.002,0-1.028
		c-2.67-0.102-4.286-2.129-5.64-4.195c-0.373-0.569-1.229-0.072-0.914,0.535c0.602,1.156,1.236,2.29,1.905,3.408
		c0.239-0.239,0.479-0.479,0.719-0.719c-0.469-0.23-0.938-0.461-1.407-0.691c-0.509-0.251-1.078,0.386-0.631,0.818
		c1.546,1.493,3.417,2.366,5.558,2.562c0.57,0.053,0.662-0.834,0.134-0.979c-2.853-0.785-5.054-2.76-6.248-5.455
		C163.985,64.013,163.586,64.179,163.675,64.419"/>
	<path clip-path="url(#SVGID_40_)" fill="#CF915A" d="M160.565,60.436c-0.521,0.824-0.629,1.878-0.161,2.752
		c0.179,0.334,0.664,0.041,0.503-0.293c-0.357-0.741-0.438-1.545-0.072-2.301C160.922,60.414,160.674,60.264,160.565,60.436"/>
	<path clip-path="url(#SVGID_40_)" fill="#CF915A" d="M166.134,55.13c0.229,0.185,0.405,0.222,0.693,0.271
		c0.182,0.03,0.359-0.148,0.252-0.328c-0.5-0.827-1.473-1.275-2.426-1.219c-0.294,0.018-0.53,0.34-0.354,0.616
		c0.414,0.644,0.855,1.295,1.349,1.881c0.301,0.358,0.876-0.104,0.642-0.495c-0.395-0.656-0.873-1.281-1.348-1.882
		c-0.06,0.228-0.12,0.456-0.18,0.684c0.765-0.14,1.413,0.177,1.966,0.685c0.016-0.116,0.03-0.233,0.045-0.349
		c-0.172,0.023-0.316-0.02-0.434-0.131C166.185,54.75,165.982,55.009,166.134,55.13"/>
	<path clip-path="url(#SVGID_40_)" fill="#B7733F" d="M167.811,57.577c0.659,0.571,1.229,1.194,1.687,1.94
		c0.139-0.18,0.277-0.361,0.415-0.541c-0.202-0.041-0.334-0.122-0.446-0.302c-0.021,0.161-0.041,0.323-0.063,0.484
		c0.775-0.667,0.604-1.929-0.197-2.489c-0.298-0.208-0.755,0.141-0.63,0.485c0.167,0.457,0.178,0.882,0.024,1.344
		c-0.177,0.531,0.659,0.757,0.836,0.231c0.201-0.598,0.194-1.214-0.033-1.803c-0.21,0.161-0.42,0.322-0.63,0.484
		c0.392,0.263,0.374,0.869,0.066,1.184c-0.112,0.115-0.167,0.342-0.063,0.483c0.243,0.326,0.53,0.546,0.939,0.609
		c0.285,0.044,0.615-0.246,0.416-0.541c-0.535-0.788-1.197-1.471-2.026-1.951C167.873,57.058,167.596,57.391,167.811,57.577"/>
</g>
<g>
	<defs>
		<rect id="SVGID_42_" width="300" height="180"/>
	</defs>
	<clipPath id="SVGID_43_">
		<use xlink:href="#SVGID_42_"  overflow="visible"/>
	</clipPath>
	<path clip-path="url(#SVGID_43_)" fill="#A5617C" d="M175.316,33.967c0.825-0.433,1.6-0.394,2.669-0.166
		c1.874,0.398,3.365,1.381,4.361,3.107c0.923,1.598,0.065,3.244-1.048,4.816c-4.129,5.832-8.114,11.585-12.579,17.578
		c-0.81-0.692-2.399-2.276-3.209-2.968c-0.136-0.116-0.28-0.247-0.313-0.428c-0.028-0.155,0.032-0.311,0.092-0.455
		c2.743-6.709,5.803-13.057,8.788-19.649C174.388,35.116,174.673,34.305,175.316,33.967"/>
</g>
<g>
	<defs>
		<path id="SVGID_44_" d="M175.316,33.967c-0.645,0.338-0.929,1.148-1.239,1.835c-2.985,6.593-6.044,12.94-8.788,19.649
			c-0.061,0.144-0.12,0.3-0.092,0.455c0.033,0.181,0.178,0.312,0.313,0.428c0.811,0.692,2.399,2.276,3.209,2.968
			c4.466-5.993,8.45-11.746,12.58-17.578c1.113-1.572,1.971-3.218,1.048-4.816c-0.996-1.726-2.486-2.709-4.36-3.108
			c-0.482-0.102-0.905-0.166-1.298-0.166C176.207,33.634,175.769,33.729,175.316,33.967"/>
	</defs>
	<clipPath id="SVGID_45_">
		<use xlink:href="#SVGID_44_"  overflow="visible"/>
	</clipPath>
	<path clip-path="url(#SVGID_45_)" fill="#903669" d="M176.176,32.219c-2.075-1.995-4.338,1.703-4.39,3.504
		c-0.094,3.27,2.844,5.683,5.813,6.274c3.006,0.599,6.966-0.082,7.457-3.743c0.414-3.081-2.55-6.739-5.744-6.624
		c-3.639,0.132-4.787,4.194-3.029,6.944c1.703,2.666,6.57,3.137,7.019-0.709c0.362-3.111-2.522-6.131-5.599-6.175
		c-3.162-0.045-5.856,2.666-6.026,5.78c-0.202,3.698,2.714,6.916,6.389,7.141c3.639,0.222,8.154-2.673,6.028-6.712
		c-1.24-2.354-5.408-0.708-4.384,1.848c0.378-0.435,0.404-0.545,0.077-0.329c-0.225,0.136-0.469,0.222-0.733,0.256
		c-0.379,0.073-0.77,0.055-1.139-0.05c-0.736-0.209-1.368-0.851-1.475-1.637c-0.083-0.616,0.249-1.41,0.928-1.557
		c0.371-0.08,0.576,0.019,0.865,0.262c0.72,0.604-0.135,1.092,1.261,0.061c2.128-1.574-0.089-0.547-0.093-0.377
		c-0.004,0.151,0.647,0.649,0.734,0.857c0.176,0.421,0.363,0.162-0.004,0.394c-0.288,0.181-1.302,0.029-1.614-0.017
		c-0.819-0.122-1.778-0.427-2.322-1.096c-0.295-0.363-0.473-0.832-0.481-1.303c-0.008-0.4,0.572-1.115-0.071-0.968
		C176.528,34.041,176.814,32.833,176.176,32.219"/>
	<path clip-path="url(#SVGID_45_)" fill="#9A6B83" d="M179.137,32.574c1.418-0.524,0.929-2.193-0.239-2.723
		c-1.782-0.808-3.813,0.42-4.605,2.03c-2.202,4.474,2.967,8.623,7.091,8.428c2.052-0.096,4.478-0.911,4.896-3.187
		c0.422-2.289-1.468-4.517-3.252-5.704c-3.657-2.433-10.567-1.02-9.733,4.461c0.381,2.504,2.693,4.55,5.045,5.243
		c2.656,0.782,5.297-0.093,7.313-1.869c2.387-2.101-1.125-5.607-3.491-3.491c-0.639,0.571-1.438,0.868-2.286,0.694
		c-0.466-0.095-0.892-0.317-1.244-0.637c-0.162-0.147-0.493-0.728-0.556-0.512c0.179-0.612,1.396-0.275,1.822-0.091
		c0.788,0.341,1.54,1.067,1.723,1.906v-1.285c0.081-0.564,0.599-0.237-0.138-0.268c-0.337-0.014-0.666,0.065-1.01,0.026
		c-0.616-0.07-1.27-0.291-1.751-0.696c-0.387-0.326-0.764-0.823-0.794-1.349c-0.044-0.797,0.795-0.757,0.343-1.205
		C178.481,32.554,178.845,32.682,179.137,32.574"/>
	<path clip-path="url(#SVGID_45_)" fill="#A6627D" d="M174.585,33.102c-3.259,3.422,1.225,7.455,4.595,8.318
		c4.16,1.065,9.415-2.575,6.762-7.071c-1.583-2.681-8.808-6.592-10.745-2.47c-1.738,3.698,5.767,9.095,7.598,5.017
		c1.021-2.274-1.581-4.62-3.57-2.755c-0.063,0.059-0.125,0.118-0.188,0.177c0.548-0.227,1.096-0.454,1.645-0.681
		c0.367-0.045-0.265-0.177-0.452-0.321c-0.542-0.415-0.355-0.637-0.585,0.105c-0.363,0.471-0.726,0.943-1.088,1.415
		c-0.469,0.086-0.419,0.147,0.149,0.182c0.272,0.059,0.539,0.136,0.801,0.229c0.512,0.182,0.993,0.423,1.441,0.732
		c0.395,0.273,0.75,0.547,1.007,0.96c-0.241-0.387,0.332-0.369-0.542-0.03c-2.23,0.867-4.379-1.191-4.737-3.255
		C176.512,32.716,175.191,32.466,174.585,33.102"/>
	<path clip-path="url(#SVGID_45_)" fill="#602142" d="M183.655,33.256c-1.673-2.02-5.921-3.206-7.717-0.692
		c-2.076,2.905,1.972,6.19,4.557,6.728c1.541,0.321,3.339-0.02,4.476-1.174c1.374-1.395,0.944-3.169-0.223-4.502
		c-1.052-1.202-2.365-2.318-3.725-3.156c-0.634-0.39-1.323-0.68-2.07-0.742c-0.822-0.069-1.584,0.246-2.389,0.213
		c-2.646-0.106-2.992,3.721-0.605,4.481c1.071,0.342,2.097-0.272,2.862,0.19c0.513,0.31,0.979,0.721,1.418,1.122
		c0.205,0.187,1.008,0.777,1.058,1.046c0.077-0.598,0.155-1.196,0.233-1.794c0.161-0.263,0.146,0.019-0.032-0.095
		c-0.18-0.115-0.526-0.129-0.743-0.236c-0.271-0.134-0.523-0.313-0.764-0.494c-0.174-0.131-0.421-0.505-0.434-0.239
		c-0.094,0.346-0.188,0.692-0.281,1.037c0.282-0.568,2.671,0.002,3.292,0.174C183.717,35.442,184.332,34.073,183.655,33.256"/>
	<path clip-path="url(#SVGID_45_)" fill="#602142" d="M178.854,31.617c-2.146-0.528-4.479,0.911-4.004,3.337
		c0.34,1.739,1.827,3.259,3.347,4.082c1.548,0.837,3.565,1.252,5.274,0.698c2.349-0.762,2.865-3.743,1.17-5.41
		c-2.059-2.023-5.058,1.028-3.149,3.149c-0.094-0.38-0.187-0.76-0.281-1.14l0.795-0.795c-0.521,0.354-1.626-0.038-2.182-0.345
		c-0.33-0.182-0.823-0.855-1.111-0.929c-0.034-0.056-0.069-0.112-0.104-0.167c-0.054,0.198-0.107,0.395-0.161,0.593
		c0.066,0.055,0.95-0.682,1.023-0.739C180.312,33.294,179.79,31.847,178.854,31.617"/>
</g>
<g>
	<defs>
		<rect id="SVGID_46_" width="300" height="180"/>
	</defs>
	<clipPath id="SVGID_47_">
		<use xlink:href="#SVGID_46_"  overflow="visible"/>
	</clipPath>
	<path clip-path="url(#SVGID_47_)" fill="#87AB49" d="M239.844,72.804c0.248,0.412,0.436,0.878,0.461,1.366
		c0.064,1.27-0.931,2.281-1.79,3.171c-1.936,2.006-3.567,4.339-4.813,6.885c-0.65-2.525-1.838-4.893-3.448-6.878
		c-1.454-1.792-3.257-3.29-4.409-5.314c-0.51-0.897-0.809-2.222-0.026-2.863c0.477-0.388,1.143-0.327,1.738-0.247
		c1.873,0.252,3.746,0.504,5.619,0.756C235.672,70.016,238.49,70.559,239.844,72.804"/>
	<path clip-path="url(#SVGID_47_)" fill="#4F6C7D" d="M232.937,85.269c0.04,0.076,1.624-2.691,1.664-2.614
		c1.501-2.894,2.546-4.615,4.437-7.24c-0.439-1.624-1.669-3.01-3.081-3.795c-2.208-1.228-4.05-1.954-6.541-1.865
		c-0.911,0.033-2.063,0.032-2.391,0.933c-0.347,0.955,0.308,1.491,0.961,2.244c5.884,6.776,7.473,12.078,4.306,20.897
		c-3.178,8.845-7.579,17.194-13.022,24.7c2.08-3.748,4.071-7.551,5.969-11.405c2.771-5.626,5.368-11.425,6.642-17.624
		c0.482-2.354,0.763-4.86,0.01-7.134c-1.089-3.289-4.062-5.387-6.846-7.246c-0.604,1.254-1.205,2.509-1.809,3.763
		c-0.631-3.616-0.292-7.417,0.966-10.845c0.314-0.856,0.706-1.719,1.382-2.297c0.654-0.561,1.507-0.791,2.341-0.914
		c4.972-0.736,10.239,2.152,12.543,6.874c2.302,4.723,1.473,10.942-1.975,14.806c0.477-2.476,0.925-4.719,0.673-7.231
		c-2.938,2.375-4.944,5.071-5.913,8.389"/>
	<path clip-path="url(#SVGID_47_)" fill="#E5B47F" d="M248.408,20.747c-5.705-0.21-10.692,3.911-14.705,8.208
		c-4.594,4.919-8.704,10.415-11.612,16.609c-3.05,6.497-4.374,15.245,0.531,20.312c2.559,2.643,6.855,3.879,8.052,7.312
		c0.621,1.782,1.455,4.264,3.231,3.992c1.21-0.185,1.746-1.652,2.318-2.796c3.431-6.867,13.636-6.088,18.335-12.054
		c2.27,1.278,4.746,2.597,7.285,2.179c2.54-0.418,4.783-3.492,3.522-5.863c-1.45-2.727-5.321-1.809-8.019-0.53
		c4.648-5.196,6.33-12.839,5.523-19.944c-0.475-4.183-1.785-8.338-4.266-11.633C256.125,23.243,252.386,20.893,248.408,20.747"/>
</g>
<g>
	<defs>
		<path id="SVGID_48_" d="M233.703,28.955c-4.594,4.918-8.703,10.415-11.612,16.608c-3.05,6.498-4.374,15.245,0.531,20.312
			c2.559,2.643,6.854,3.88,8.052,7.312c0.622,1.782,1.456,4.264,3.232,3.993c1.209-0.185,1.746-1.653,2.316-2.797
			c3.432-6.867,13.637-6.087,18.336-12.054c2.27,1.278,4.745,2.597,7.285,2.179c2.541-0.417,4.784-3.492,3.523-5.863
			c-1.451-2.726-5.322-1.808-8.021-0.53c4.648-5.196,6.331-12.839,5.525-19.943c-0.475-4.183-1.786-8.339-4.267-11.634
			s-6.22-5.645-10.197-5.791c-0.141-0.005-0.279-0.008-0.418-0.008C242.459,20.739,237.618,24.762,233.703,28.955"/>
	</defs>
	<clipPath id="SVGID_49_">
		<use xlink:href="#SVGID_48_"  overflow="visible"/>
	</clipPath>
	<path clip-path="url(#SVGID_49_)" fill="#DCA36A" d="M219.491,50.041c-1.199,4.119-1.936,8.879-0.312,12.988
		c2.284,5.777,10.301,8.126,9.928,14.928c-0.119,2.18,3.506,2.733,3.867,0.524c0.764-4.648-1.512-8.097-4.931-11.09
		c-2.409-2.109-5.124-3.88-6.271-7.052c-1.162-3.22-0.752-6.734-0.595-10.07C221.225,49.284,219.757,49.127,219.491,50.041"/>
	<path clip-path="url(#SVGID_49_)" fill="#DCA36A" d="M254.524,63.042c-2.051,0.632-3.944,1.69-5.971,2.401
		c-1.942,0.68-3.983,0.931-5.931,1.565c-3.561,1.158-4.968,3.692-5.397,7.278c-0.249,2.079,3.171,2.501,3.637,0.492
		c0.53-2.283,1.191-3.745,3.562-4.52c1.525-0.498,3.046-0.834,4.535-1.455c2.481-1.033,4.851-2.407,6.465-4.59
		C255.846,63.645,255.149,62.85,254.524,63.042"/>
	<path clip-path="url(#SVGID_49_)" fill="#DCA36A" d="M234.458,28.695c9.709,3.328,19.739,3.689,25.451,13.512
		c1.344,2.312,4.818,0.263,3.575-2.089c-5.309-10.049-17.956-14.218-28.754-13.433C233.577,26.77,233.343,28.313,234.458,28.695"/>
	<path clip-path="url(#SVGID_49_)" fill="#DCA36A" d="M257.753,38.276c-4.162-7.897-16.473-11.665-24.752-11.862
		c-2.607-0.062-2.552,3.832,0,4.016c4.498,0.324,8.734,1.102,12.901,2.859c3.853,1.625,6.98,4.442,10.738,6.099
		C257.366,39.708,258.157,39.042,257.753,38.276"/>
	<path clip-path="url(#SVGID_49_)" fill="#DCA36A" d="M243.647,53.409c3.176-1.75,5.938-6.606,4.657-10.238
		c-1.517-4.306-6.121-3.262-8.863-0.873c-1.667,1.451,0.546,4.381,2.386,3.092c0.519-0.364,1.583-1.431,2.254-1.39
		c1.475,0.091,0.851,2.226,0.553,3.016c-0.681,1.81-1.816,3.41-2.501,5.228C241.8,53.129,242.918,53.811,243.647,53.409"/>
	<path clip-path="url(#SVGID_49_)" fill="#DCA36A" d="M230.578,47.47c1.788-1.101,2.97-2.869,3.829-4.756
		c0.757-1.663,1.621-3.954,0.903-5.766c-1.875-4.732-7.523-0.29-8.479,2.728c-0.677,2.136,2.668,3.616,3.669,1.547
		c0.381-0.783,0.728-1.348,1.354-1.935c0.261-0.082,0.283-0.207,0.065-0.376c-0.019,0.227-0.036,0.454-0.056,0.681
		c-0.153,0.503-0.2,1.055-0.327,1.568c-0.475,1.911-1.386,3.621-2.071,5.453C229.229,47.244,230.044,47.799,230.578,47.47"/>
	<path clip-path="url(#SVGID_49_)" fill="#DCA36A" d="M243.025,53.744c3.613-1.062,6.742-7.068,5.854-10.672
		c-1.198-4.862-6.413-3.846-9.005-0.852c-1.702,1.966,0.937,4.665,2.873,2.872c0.496-0.459,1.673-2.106,2.378-0.985
		c0.502,0.8-0.51,2.848-0.824,3.557c-0.744,1.679-1.946,3.263-2.266,5.09C241.935,53.332,242.391,53.93,243.025,53.744"/>
	<path clip-path="url(#SVGID_49_)" fill="#DCA36A" d="M230.927,53.079c-0.29,0.369-0.647,0.71-0.98,1.04
		c-0.188,0.187-0.383,0.378-0.595,0.538c0.105-0.079-0.11,0.069-0.131,0.083c-0.049,0.03-0.099,0.058-0.15,0.083
		c0.189-0.104,0.394-0.098,0.611,0.017c0.125,0.125,0.25,0.251,0.376,0.376c0.026,0.066,0.043,0.133,0.05,0.203
		c0.008-0.124,0.008-0.147-0.001-0.07c0.053-0.162,0.082-0.332,0.136-0.494c0.434-1.287-1.613-1.85-2.033-0.561
		c-0.204,0.627-0.339,1.391,0.038,1.981c0.441,0.695,1.353,0.715,1.979,0.275c0.897-0.627,1.665-1.67,2.032-2.696
		C232.518,53.13,231.419,52.454,230.927,53.079"/>
	<path clip-path="url(#SVGID_49_)" fill="#DCA36A" d="M255.391,64.725c0.724,0,0.725-1.125,0-1.125
		C254.667,63.6,254.666,64.725,255.391,64.725"/>
	<path clip-path="url(#SVGID_49_)" fill="#DCA36A" d="M255.578,64.128c0.132-0.249,0.263-0.498,0.393-0.747h-1.372
		c4.912,4.352,11.694,1.874,15.965-2.136c1.244-1.167-0.562-2.855-1.834-1.834c-3.848,3.088-8.327,6.001-12.955,2.446
		c-0.505-0.388-1.282,0.034-1.426,0.58c-0.239,0.904-0.229,0.942-0.013,1.859C254.506,65.02,255.535,64.814,255.578,64.128"/>
	<path clip-path="url(#SVGID_49_)" fill="#B87C4B" d="M257.403,61.898c0.747-0.007,1.298-1.014,0.932-1.703
		c-0.061-0.117-0.144-0.226-0.166-0.357c-0.056-0.338,1.128-1.144,1.433-1.26c1.309-0.496,2.78-0.499,4.092-0.009
		c0.358,0.134,0.754,0.932,0.503,1.731c-0.205,0.652-0.813,1.271-1.384,1.598c0.276-0.392,0.656-1.629,0.252-1.864
		c-0.405-0.236-1.64-0.069-2.096,0.012c-0.123,0.021-0.255,0.051-0.343,0.146c-0.101,0.111-0.114,0.278-0.139,0.43
		c-0.11,0.692-0.582,1.307-1.2,1.563S257.929,62.328,257.403,61.898"/>
</g>
<g>
	<defs>
		<rect id="SVGID_50_" width="300" height="180"/>
	</defs>
	<clipPath id="SVGID_51_">
		<use xlink:href="#SVGID_50_"  overflow="visible"/>
	</clipPath>
	<path clip-path="url(#SVGID_51_)" fill="#FFFFFF" d="M236.187,50.49c0.185,1.709,0.293,2.145,1.51,3.285
		c1.638,1.535,5.011,1.177,6.698-0.299c1.687-1.477,2.58-3.72,3.282-5.915c0.303-0.946,0.585-1.939,0.461-2.93
		c-0.234-1.876-1.971-3.278-3.752-3.429c-1.781-0.151-3.527,0.741-4.86,2.001c-2.049,1.938-3.293,4.799-3.352,7.707"/>
	<path clip-path="url(#SVGID_51_)" fill="#FFFFFF" d="M225.62,45.874c-0.361,1.535,1.269,2.247,2.748,2.468
		c1.479,0.221,2.956-0.668,3.881-1.911c0.924-1.243,1.388-2.793,1.761-4.324c0.287-1.175,0.525-2.457,0.071-3.571
		c-0.53-1.297-1.942-2.036-3.275-1.958c-1.333,0.079-2.563,0.859-3.482,1.883c-2.025,2.258-2.646,5.81-1.517,8.685"/>
	<path clip-path="url(#SVGID_51_)" fill="#E5B47F" d="M220.156,49.158c1.319,3.007,4.364,4.814,7.437,5.464
		c1.663,0.351,3.535,0.374,4.887-0.709c1.354-1.082,1.697-3.592,0.292-4.597c-1.475,0.946-3.346,1.063-4.999,0.541
		c-1.652-0.522-3.099-1.635-4.272-2.973c-0.64-0.729-1.375-1.606-2.309-1.498c-0.721,0.083-1.276,0.79-1.414,1.543
		C219.642,47.683,219.851,48.462,220.156,49.158"/>
</g>
<g>
	<defs>
		<path id="SVGID_52_" d="M221.191,45.386c-0.721,0.083-1.277,0.789-1.413,1.543c-0.137,0.754,0.071,1.533,0.378,2.229
			c1.319,3.007,4.365,4.814,7.437,5.464c1.662,0.351,3.535,0.373,4.888-0.708c1.353-1.083,1.696-3.593,0.291-4.598
			c-1.476,0.946-3.347,1.063-4.998,0.541c-1.653-0.522-3.101-1.635-4.273-2.973c-0.603-0.688-1.292-1.507-2.152-1.507
			C221.296,45.377,221.244,45.38,221.191,45.386"/>
	</defs>
	<clipPath id="SVGID_53_">
		<use xlink:href="#SVGID_52_"  overflow="visible"/>
	</clipPath>
	<path clip-path="url(#SVGID_53_)" fill="#CF935D" d="M219.799,43.531c-2.757,2.836-1.202,7.29,1.47,9.6
		c3.694,3.194,9.295,4.076,13.995,3.652c1.803-0.162,1.807-3.011,0-2.828c-5.873,0.596-17.292-1.22-14.264-9.725
		C221.246,43.541,220.279,43.038,219.799,43.531"/>
	<path clip-path="url(#SVGID_53_)" fill="#CF935D" d="M232,47.684c-4.617,3.141-7.344-4.643-10.438-6.923
		c-2.74-2.02-6.129-2.399-9.438-2.377c-2.41,0.016-2.307,3.435,0,3.672c3.517,0.362,6.392,0.745,9.124,3.179
		c1.499,1.335,2.643,2.97,4.387,4.035c2.376,1.451,5.235,1.675,7.103-0.629C233.138,48.148,232.619,47.262,232,47.684"/>
</g>
<g>
	<defs>
		<rect id="SVGID_54_" width="300" height="180"/>
	</defs>
	<clipPath id="SVGID_55_">
		<use xlink:href="#SVGID_54_"  overflow="visible"/>
	</clipPath>
	<path clip-path="url(#SVGID_55_)" d="M240.128,49.78c0.224-0.941,0.172-2.201-0.601-2.724c-0.63-0.427-1.521-0.047-1.945,0.604
		c-0.426,0.651-0.507,1.479-0.566,2.268c-0.049,0.662-0.078,1.384,0.279,1.93c0.415,0.634,1.336,0.813,1.937,0.378
		c0.602-0.436,0.645-1.213,0.813-2.19"/>
	<path clip-path="url(#SVGID_55_)" d="M227.01,46.555c0.37,0.725,1.456,0.662,2.01,0.084s0.716-1.444,0.852-2.255
		c0.146-0.872,0.169-2.009-0.594-2.374c-0.857-0.41-1.698,0.624-2.039,1.553c-0.292,0.795-0.169,1.023-0.276,1.868"/>
	<path clip-path="url(#SVGID_55_)" fill="#886336" d="M241.727,37.048c1.863-0.757,2.848-1.529,6.115-0.2
		c1.511,0.614,2.58,1.746,2.518,4.343c0.754-1.265,0.969-1.978,0.94-2.943c-0.016-0.577-0.227-1.182-0.768-1.681
		c-0.876-0.808-2.717-1.407-4.179-1.458C245.051,35.063,242.505,35.729,241.727,37.048"/>
	<path clip-path="url(#SVGID_55_)" fill="#886336" d="M230.314,33.153c1.32-1.32,3.565-0.971,4.622-0.337
		c1.055,0.633,1.532,1.766,1.905,2.836c0.595-1.316,0.194-2.98-1.101-3.83s-4.303-0.713-5.176,0.478"/>
	<path clip-path="url(#SVGID_55_)" fill="#886336" d="M266.071,30.218c-0.351-0.793-0.227-1.716-0.223-2.592
		c0.014-3.093-1.6-6.02-3.827-8.019c-2.229-1.999-5.019-3.172-7.839-3.975c-6.398-1.82-13.235-1.878-19.66-0.167
		c1.555,0.629,3.11,1.258,4.666,1.888c-5.914-0.013-11.771,2.99-15.427,7.91c4.012,0.367,8.089-0.091,11.938-1.342
		c-2.454,0.407-4.674,2.158-5.745,4.53c4.884,0.862,9.902,0.545,14.784,1.414c4.882,0.869,9.913,3.251,12.262,7.865
		c-4.229,6.267-4.354,15.321-0.3,21.716c6.439-3.579,9.571-11.438,11.367-18.899c0.704-2.927,1.173-6.38-0.691-8.667
		C266.931,31.332,266.361,30.874,266.071,30.218"/>
	<path clip-path="url(#SVGID_55_)" fill="#3B2C27" d="M232.231,67.323c-0.711,0.118-1.492,0.098-2.079-0.343
		c-1.191-0.895-0.915-2.86-1.627-4.211c-1.337-0.027-2.666-0.405-3.837-1.089c5.183,0.604,10.468,0.218,15.522-1.134
		C238.129,63.528,235.692,66.747,232.231,67.323"/>
</g>
<g>
	<defs>
		<path id="SVGID_56_" d="M162.15,54.66c-0.337,0.272-0.469,0.739-0.556,1.178c-0.376,1.91-0.549,4.684-1.219,6.46
			c-0.174,0.459,0.341,1.162,0.771,1.357c0.532,0.242,1.151-0.136,1.496-0.628c0.348-0.493,1.412-2.9,1.758-3.393
			c0.057,1.709,0.728,4.405,1.316,5.997c0.59,1.592,1.773,3.032,3.341,3.442c1.346,0.353,2.859-0.142,3.78-1.239
			s1.208-2.749,0.713-4.119c-0.896-2.48-3.739-3.393-5.464-5.319l-3.779-3.314c-0.442-0.329-1.002-0.643-1.512-0.643
			C162.565,54.439,162.345,54.503,162.15,54.66"/>
	</defs>
	<clipPath id="SVGID_57_">
		<use xlink:href="#SVGID_56_"  overflow="visible"/>
	</clipPath>
	
		<linearGradient id="SVGID_58_" gradientUnits="userSpaceOnUse" x1="0" y1="179.9258" x2="1" y2="179.9258" gradientTransform="matrix(-6.2699 -9.0565 -9.0565 6.2699 1799.6106 -1061.855)">
		<stop  offset="0" style="stop-color:#CF8954"/>
		<stop  offset="0.2334" style="stop-color:#CF8954"/>
		<stop  offset="0.642" style="stop-color:#E5B47F"/>
		<stop  offset="1" style="stop-color:#E5B47F"/>
	</linearGradient>
	<polygon clip-path="url(#SVGID_57_)" fill="url(#SVGID_58_)" points="164.688,75.905 153.188,59.295 169.561,47.96 181.06,64.57 	
		"/>
</g>
<g>
	<defs>
		<rect id="SVGID_59_" width="300" height="180"/>
	</defs>
	<clipPath id="SVGID_60_">
		<use xlink:href="#SVGID_59_"  overflow="visible"/>
	</clipPath>
	<path clip-path="url(#SVGID_60_)" fill="#E5DBC6" d="M233.784,163.9c9.792-0.557,19.791-1.592,28.655-5.788
		c-12.985-3.161-26.46-3.549-39.818-3.921c-17.115-0.478-35.21-0.724-50.095,7.736C192.833,164.399,213.36,165.06,233.784,163.9"/>
</g>
</svg>
