<?xml version="1.0" encoding="utf-8"?>
<!-- Generator: Adobe Illustrator 15.0.0, SVG Export Plug-In . SVG Version: 6.00 Build 0)  -->
<!DOCTYPE svg PUBLIC "-//W3C//DTD SVG 1.1//EN" "http://www.w3.org/Graphics/SVG/1.1/DTD/svg11.dtd">
<svg version="1.1" id="Layer_1" xmlns="http://www.w3.org/2000/svg" xmlns:xlink="http://www.w3.org/1999/xlink" x="0px" y="0px"
	 width="300px" height="180px" viewBox="0 0 300 180" enable-background="new 0 0 300 180" xml:space="preserve">
<g>
	<defs>
		<rect id="SVGID_1_" width="300" height="180"/>
	</defs>
	<clipPath id="SVGID_2_">
		<use xlink:href="#SVGID_1_"  overflow="visible"/>
	</clipPath>
	<path clip-path="url(#SVGID_2_)" fill="#E5DBC6" d="M69.671,144.737l1.289-0.735l59.608,18.941l-20.413,8.765l6.455,0.367
		c0,0,25.259-5.365,24.003-6.62c-1.255-1.256,136.863-35.157,136.863-35.157l-98.566-18.834L45.814,146.62l4.925,2.217"/>
</g>
<g>
	<defs>
		<path id="SVGID_3_" d="M77.298,46.651c-2.251,1.156-2.377,4.286-2.067,6.798c1.95,15.774,8.85,30.593,17.615,43.852
			c3.371,5.099,7.051,10.035,11.484,14.243c3.851,3.656,8.248,6.734,13.002,9.101l27.63-16.111
			c-6.754-14.551-10.365-30.552-10.515-46.595c-0.032-3.342-0.7-7.704-3.994-8.271c-1.988-0.343-3.929,1.137-4.791,2.961
			c-0.863,1.824-0.897,3.914-0.915,5.932c-0.126,14.506-0.222,29.245,3.723,43.206c-11.663-0.539-21.908-8.464-28.596-18.035
			c-6.689-9.57-10.525-20.78-15.024-31.554c-0.679-1.628-1.409-3.298-2.696-4.503c-0.888-0.831-2.114-1.386-3.305-1.386
			C78.314,46.288,77.785,46.401,77.298,46.651"/>
	</defs>
	<clipPath id="SVGID_4_">
		<use xlink:href="#SVGID_3_"  overflow="visible"/>
	</clipPath>
	
		<linearGradient id="SVGID_5_" gradientUnits="userSpaceOnUse" x1="0" y1="179.8066" x2="1" y2="179.8066" gradientTransform="matrix(18.3634 31.5474 31.5474 -18.3634 -5569.25 3373.7561)">
		<stop  offset="0" style="stop-color:#7D2855"/>
		<stop  offset="0.0665" style="stop-color:#7D2855"/>
		<stop  offset="1" style="stop-color:#A5627C"/>
	</linearGradient>
	<polygon clip-path="url(#SVGID_4_)" fill="url(#SVGID_5_)" points="127.236,15.836 177.291,101.827 92.647,151.097 42.592,65.106 	
		"/>
</g>
<g>
	<defs>
		<path id="SVGID_6_" d="M199.826,88.307c-3.694,0.052-7.22,1.443-10.649,2.813l0.667,0.028c-2.954,0.948-5.927,2.816-8.661,4.318
			c-11.608,6.373-26.559,6.165-37.984-0.531c-13.228,7.266-25.173,16.861-35.119,28.213c7.638,7.32,17.674,11.877,28.064,13.868
			c10.391,1.992,21.143,1.521,31.566-0.297c9.782-1.706,19.641-4.739,27.287-11.075c6.876-5.699,11.529-13.772,14.132-22.316
			c1.02-3.35,1.705-7.131,0.07-10.227c-1.699-3.212-5.554-4.795-9.195-4.795C199.944,88.306,199.885,88.306,199.826,88.307"/>
	</defs>
	<clipPath id="SVGID_7_">
		<use xlink:href="#SVGID_6_"  overflow="visible"/>
	</clipPath>
	
		<radialGradient id="SVGID_8_" cx="0" cy="180" r="1" gradientTransform="matrix(0.157 -43.0049 -43.0049 -0.157 7911.0034 135.0198)" gradientUnits="userSpaceOnUse">
		<stop  offset="0" style="stop-color:#4A6E8B"/>
		<stop  offset="3.786670e-004" style="stop-color:#4A6E8B"/>
		<stop  offset="0.3552" style="stop-color:#5B829D"/>
		<stop  offset="1" style="stop-color:#7299AE"/>
	</radialGradient>
	<polygon clip-path="url(#SVGID_7_)" fill="url(#SVGID_8_)" points="107.894,139.009 108.081,87.931 211.018,88.307 
		210.832,139.384 	"/>
	<path clip-path="url(#SVGID_7_)" fill="#658398" d="M101.772,122.282c-0.154-0.637-0.308-1.273-0.462-1.909h-2.308
		c2.374,4.517,6.683,7.146,11.064,9.493c4.798,2.569,9.687,5.127,14.919,6.698c11.373,3.42,24.171,3.659,35.888,2.375
		c21.81-2.388,44.204-11.881,55.063-32.028c1.43-2.652-2.528-4.983-4.048-2.365c-11.002,18.96-31.723,27.826-52.854,29.767
		c-10.512,0.967-21.708,0.714-31.925-2.143c-9.444-2.641-18.452-7.83-26.277-13.625c-0.927-0.688-2.337,0.456-1.964,1.509
		c0.474,1.338,0.945,2.186,1.988,3.146C101.478,123.771,102.303,122.916,101.772,122.282"/>
	<path clip-path="url(#SVGID_7_)" fill="#658398" d="M105.806,120.887c11.328,10.484,26.251,17.096,41.175,20.475
		c2.284,0.519,3.256-3.015,0.967-3.51c-15.125-3.275-28.145-10.021-40.883-18.597C106.087,118.596,104.943,120.088,105.806,120.887"
		/>
	<path clip-path="url(#SVGID_7_)" fill="#658398" d="M207.316,94.983c-0.048,0.38-0.447,0.548-0.761,0.642
		c-0.863,0.256-0.708,1.579,0.214,1.581c1.098,0.002,2.082-0.925,2.25-1.991C209.216,93.979,207.475,93.728,207.316,94.983"/>
	<path clip-path="url(#SVGID_7_)" fill="#658398" d="M204.143,87.018c1.04,9.83,1.843,18.718-0.908,28.417
		c-2.754,9.708-8.044,18.004-15.215,25.044c-1.996,1.959,0.991,4.887,3.05,3.049c14.582-13.013,23.445-38.353,15.082-57.054
		C205.724,85.516,204.032,85.975,204.143,87.018"/>
</g>
<g>
	<defs>
		<rect id="SVGID_9_" width="300" height="180"/>
	</defs>
	<clipPath id="SVGID_10_">
		<use xlink:href="#SVGID_9_"  overflow="visible"/>
	</clipPath>
	<path clip-path="url(#SVGID_10_)" fill="#392918" d="M33.482,53.455c3.68,32.141,7.78,64.234,12.296,96.27
		c1.631,0.719,3.681,0.353,4.961-0.888c-2.86-31.286-5.72-62.571-8.579-93.857"/>
	<path clip-path="url(#SVGID_10_)" fill="#392918" d="M105.394,78.568c1.129,31.068,2.717,62.119,4.761,93.141
		c1.974,1.014,4.379,1.15,6.455,0.366c-0.793-31.813-1.063-59.672-0.277-93.88"/>
	<path clip-path="url(#SVGID_10_)" fill="#392918" d="M243.348,30.594c-2.201,34.569-4.403,69.137-6.604,103.706
		c-0.283,1.604-2.78,1.794-3.892,0.606c-1.112-1.188-1.197-2.979-1.216-4.606c-0.378-33.526,0.824-67.073,3.602-100.488"/>
	<path clip-path="url(#SVGID_10_)" fill="#9F723B" d="M110.436,75.049c0,0-50.77-17.36-82.054-27.565
		c1.444,8.665,1.448,8.691,1.448,8.691s52.296,16.515,80.999,28.311c0,0,66.451-27.131,136.833-52.296l1.573-8.65
		C249.234,23.541,191.827,44.773,110.436,75.049"/>
	<path clip-path="url(#SVGID_10_)" fill="#DB9449" d="M249.234,23.541c0,0-54.261-8.65-74.314-14.548
		c0,0-108.916,28.31-146.663,37.747c0.044,0.264,0.082,0.495,0.124,0.745c31.284,10.205,82.054,27.565,82.054,27.565
		C191.827,44.773,249.234,23.541,249.234,23.541"/>
</g>
<g>
	<defs>
		<path id="SVGID_11_" d="M152.322,26.794c-0.48,0.107-1.059,0.338-1.095,0.83c1.583,0.427,3.199,0.734,4.828,0.917
			c-3.58-0.021-7.163,0.572-10.542,1.756c-0.625,0.218-1.358,0.619-1.331,1.28c0.033,0.86,1.213,1.055,2.07,0.986
			c4.19-0.338,8.38-0.677,12.571-1.015c-3.207,0.803-6.413,1.606-9.618,2.409c-1.567,0.392-3.382,1.01-3.848,2.556
			c6.475-0.61,12.95-1.22,19.425-1.831c-2.526,0.981-4.739,2.753-6.247,5.004c5.223-0.038,10.428-1.531,14.878-4.266
			c1.419-0.873,2.872-2.037,3.145-3.681c0.298-1.787-0.978-3.537-2.582-4.378c-1.604-0.841-3.473-0.975-5.279-1.091
			c-2.553-0.163-5.123-0.32-7.684-0.32C158.088,25.95,155.175,26.156,152.322,26.794"/>
	</defs>
	<clipPath id="SVGID_12_">
		<use xlink:href="#SVGID_11_"  overflow="visible"/>
	</clipPath>
	
		<linearGradient id="SVGID_13_" gradientUnits="userSpaceOnUse" x1="0" y1="180.0195" x2="1" y2="180.0195" gradientTransform="matrix(-8.7546 -6.8617 -6.8617 8.7546 1405.7026 -1535.3805)">
		<stop  offset="0" style="stop-color:#CF8954"/>
		<stop  offset="0.2334" style="stop-color:#CF8954"/>
		<stop  offset="0.642" style="stop-color:#E5B47F"/>
		<stop  offset="1" style="stop-color:#E5B47F"/>
	</linearGradient>
	<polygon clip-path="url(#SVGID_12_)" fill="url(#SVGID_13_)" points="164.412,55.563 137.487,34.459 156.6,10.073 183.525,31.177 	
		"/>
</g>
<g>
	<defs>
		<path id="SVGID_14_" d="M157.404,46.14c-0.565,0.323-0.928,1.094-0.584,1.646c3.977,0.834,8.022,1.333,12.083,1.492
			c-5.203-0.148-10.406-0.296-15.609-0.443c-1.221-0.035-2.762,0.139-3.147,1.299c3.633,0.527,7.266,1.054,10.898,1.581
			c-3.483-0.18-6.975-0.196-10.46-0.049c-1.118,0.048-2.64,0.624-2.349,1.704c3.256,0.22,6.513,0.441,9.769,0.661
			c-3.23-0.182-6.476-0.117-9.698,0.193c-1.007,0.096-2.365,0.868-1.828,1.725c0.243,0.388,0.763,0.473,1.219,0.519
			c3.333,0.336,6.665,0.673,9.999,1.011c1.462,3.124,4.131,5.943,4.012,9.392c-0.038,1.131-0.387,2.233-0.437,3.364
			c-0.052,1.13,0.288,2.392,1.257,2.977c0.824,0.499,1.868,0.377,2.821,0.24c1.25-0.18,2.499-0.361,3.748-0.541l3.936-9.06
			c1.619-3.728,3.271-7.652,2.922-11.702c-0.139-1.616-0.646-3.276-1.816-4.399c-1.678-1.613-4.246-1.745-6.573-1.783
			c-2.755-0.045-5.508-0.091-8.263-0.136c-0.103-0.002-0.207-0.004-0.311-0.004C158.44,45.827,157.878,45.869,157.404,46.14"/>
	</defs>
	<clipPath id="SVGID_15_">
		<use xlink:href="#SVGID_14_"  overflow="visible"/>
	</clipPath>
	
		<linearGradient id="SVGID_16_" gradientUnits="userSpaceOnUse" x1="0" y1="179.666" x2="1" y2="179.666" gradientTransform="matrix(9.0925 7.0054 7.0054 -9.0925 -1096.1838 1694.3894)">
		<stop  offset="0" style="stop-color:#E5B47E"/>
		<stop  offset="0.9977" style="stop-color:#D69352"/>
		<stop  offset="1" style="stop-color:#D69352"/>
	</linearGradient>
	<polygon clip-path="url(#SVGID_15_)" fill="url(#SVGID_16_)" points="157.253,31.147 189.787,56.214 164.995,88.391 
		132.461,63.324 	"/>
</g>
<g>
	<defs>
		<rect id="SVGID_17_" width="300" height="180"/>
	</defs>
	<clipPath id="SVGID_18_">
		<use xlink:href="#SVGID_17_"  overflow="visible"/>
	</clipPath>
	<path clip-path="url(#SVGID_18_)" fill="#9F723B" d="M66.111,35.75c0.277,0.203,0.634,0.253,0.975,0.297
		c8.246,1.056,10.426,2.553,18.673,3.61c2.547,0.327,11.351,0.181,13.62-1.021c0.505-0.268,1.007-0.654,1.14-1.209
		c0.297-1.241-1.294-2.014-2.545-2.262c-10.5-2.082-21.344-2.417-31.952-0.988C65.581,34.585,65.627,35.396,66.111,35.75"/>
	<path clip-path="url(#SVGID_18_)" fill="#9F723B" d="M149.403,23.624c-1.414-0.339-2.88-0.386-4.333-0.448
		c-7.02-0.3-14.023-1.006-20.961-2.114c5.771,3.595,12.437,5.74,19.221,6.187c2.336,0.153,4.826,0.07,6.798-1.191
		c0.378-0.242,0.759-0.573,0.808-1.02C151.019,24.28,150.145,23.802,149.403,23.624"/>
	<path clip-path="url(#SVGID_18_)" fill="#7299AE" d="M179.225,120.197c-11.035-1.531-21.861-4.556-32.091-8.967
		c-0.118-13.526,1.736-22.204,5.88-35.081c0.381-1.184,2.081-7.15,2.196-7.691c0,0,2.258-0.955,3.484-1.104
		c6.885-0.834,13.572-2.052,20.457-2.886c-5.589,14.505-12.692,28.426-21.156,41.463c10.791-0.892,21.581-1.783,32.372-2.675
		c2.611-0.216,5.282-0.427,7.815,0.241c2.532,0.67,4.944,2.398,5.697,4.908c1.04,3.47-1.396,7.118-4.412,9.124
		C193.67,121.388,186.121,121.154,179.225,120.197"/>
	<path clip-path="url(#SVGID_18_)" fill="#7299AE" d="M205.521,62.872c-1.422-8.428-4.21-16.623-8.222-24.17
		c-0.459-0.863-0.963-1.75-1.775-2.296c-0.916-0.616-2.077-0.7-3.179-0.765c-6.926-0.408-14.15-0.767-20.513,1.998
		c-1.536-4.562-3.072-9.124-4.609-13.687c10.943-0.367,21.92,0.253,32.753,1.851c2.494,0.368,5.086,0.832,7.103,2.343
		c1.821,1.364,2.963,3.43,3.99,5.46c6.824,13.498,10.931,28.362,12.004,43.448"/>
</g>
<g>
	<defs>
		<path id="SVGID_19_" d="M167.223,23.953c1.536,4.562,3.072,9.124,4.609,13.686c6.363-2.765,13.587-2.407,20.512-1.998
			c1.103,0.065,2.265,0.149,3.181,0.765c0.811,0.545,1.314,1.433,1.773,2.297c4.013,7.545,6.801,15.742,8.222,24.169l17.553,14.181
			c-1.073-15.085-5.18-29.95-12.003-43.446c-1.027-2.031-2.17-4.097-3.991-5.461c-2.018-1.511-4.609-1.975-7.104-2.343
			c-8.815-1.3-17.727-1.953-26.639-1.953C171.298,23.85,169.259,23.884,167.223,23.953"/>
	</defs>
	<clipPath id="SVGID_20_">
		<use xlink:href="#SVGID_19_"  overflow="visible"/>
	</clipPath>
	<path clip-path="url(#SVGID_20_)" fill="#658398" d="M165.023,39.471c5.03,0.99,10.724-1.164,15.695-2.063
		c6.807-1.23,13.463-1.407,20.314-1.938c0.95-0.074,1.331-1.626,0.243-1.796c-6.541-1.021-13.565-0.802-20.15-0.297
		c-5.382,0.413-12.337,0.75-16.558,4.37C163.998,38.237,164.287,39.326,165.023,39.471"/>
	<path clip-path="url(#SVGID_20_)" fill="#658398" d="M201.835,34.187c-2.009,0.213-4.102,0.801-6.085,0.922
		c0.172,1.271,0.344,2.543,0.517,3.814c0.394-0.218,0.816-0.338,1.266-0.359l-2.467-1.004c1.222,2.044,2.525,4.014,3.59,6.15
		c1.05,2.105,1.591,4.534,2.938,6.453c1.134,1.617,3.977,1.171,3.931-1.064c-0.1-4.877-3.909-10.617-7.025-14.187
		c-0.681-0.778-1.803-0.733-2.648-0.342c-0.689,0.319-0.968,0.541-1.473,1.107c-1.663,1.867,0.885,4.43,2.746,2.747
		c1.372-1.242,3.397-2.226,4.991-3.203C202.548,34.955,202.411,34.126,201.835,34.187"/>
</g>
<g>
	<defs>
		<rect id="SVGID_21_" width="300" height="180"/>
	</defs>
	<clipPath id="SVGID_22_">
		<use xlink:href="#SVGID_21_"  overflow="visible"/>
	</clipPath>
	<path clip-path="url(#SVGID_22_)" fill="#C7353C" d="M68.987,25.094c7.429-1.339,15.056-0.58,22.565,0.184
		c2.848,0.289,5.696,0.578,8.53,0.98c2.214,0.314,4.873,1.102,5.357,3.285c0.284,1.279-0.368,2.627-1.349,3.495
		c-0.982,0.868-2.247,1.338-3.5,1.722c-7.471,2.286-15.442,2.103-23.252,1.9c-2.657-0.069-5.334-0.146-7.981,0.094
		c-1.726,0.157-3.609,0.628-3.609,0.628c-0.822-1.096-1.064-6.294-1.218-7.614c-0.115-0.992,0.057-2.051,0.653-2.853
		C66.042,25.757,67.569,25.35,68.987,25.094"/>
</g>
<g>
	<defs>
		<path id="SVGID_23_" d="M68.987,25.094c-1.419,0.255-2.945,0.663-3.805,1.821c-0.595,0.802-0.767,1.861-0.652,2.853
			c0.154,1.32,0.397,6.518,1.218,7.614c0,0,1.883-0.471,3.61-0.628c2.646-0.24,5.323-0.163,7.98-0.094
			c7.81,0.203,15.781,0.386,23.252-1.9c1.253-0.384,2.519-0.853,3.5-1.722c0.981-0.867,1.633-2.216,1.349-3.495
			c-0.484-2.183-3.142-2.971-5.357-3.285c-2.833-0.402-5.682-0.691-8.529-0.981c-4.52-0.459-9.082-0.917-13.618-0.917
			C74.934,24.36,71.944,24.561,68.987,25.094"/>
	</defs>
	<clipPath id="SVGID_24_">
		<use xlink:href="#SVGID_23_"  overflow="visible"/>
	</clipPath>
	<path clip-path="url(#SVGID_24_)" fill="#C7BAA3" d="M105.96,30.415c0.321-1.165-0.139-2.426-0.864-3.39
		c-1.896-2.519-5.258-3.327-8.357-3.846c-8.957-1.499-18.231-1.989-27.05,0.181c-1.458,0.359-2.944,0.812-4.099,1.776
		c-1.155,0.965-1.907,2.559-1.483,4.007c0.626,2.139,3.235,2.849,5.432,3.152c7.396,1.02,14.866,1.392,22.33,1.589
		c3.252,0.086,6.533,0.136,9.727-0.485C103.419,33.044,105.465,32.213,105.96,30.415"/>
	<path clip-path="url(#SVGID_24_)" fill="#FAF1D7" d="M67.587,24.61c-1.024,0.329-2.167,0.93-2.246,1.935
		c-0.096,1.228,1.42,1.963,2.694,2.297c5.979,1.565,12.269,1.692,18.479,1.809c3.967,0.075,7.933,0.15,11.9,0.224
		c2.406,0.046,4.977,0.049,6.991-1.178c0.275-0.167,0.558-0.393,0.584-0.698c0.018-0.212-0.095-0.414-0.218-0.594
		c-1.317-1.929-3.891-2.704-6.28-3.234c-8.001-1.778-16.301-2.387-24.503-1.799C72.482,23.551,69.963,23.847,67.587,24.61"/>
</g>
<g>
	<defs>
		<rect id="SVGID_25_" width="300" height="180"/>
	</defs>
	<clipPath id="SVGID_26_">
		<use xlink:href="#SVGID_25_"  overflow="visible"/>
	</clipPath>
	<path clip-path="url(#SVGID_26_)" fill="#E5B47F" d="M217.771,42.907c-11.178,1.155-20.958,8.522-27.637,17.56
		c-3.911,5.292-7.051,11.67-6.318,18.21c0.342,3.045,1.515,5.955,3.085,8.588c6.707,11.253,21.327,17.114,33.951,13.608
		c12.624-3.505,22.129-16.066,22.073-29.167c-0.035-8.183-4.843-17.286-12.954-18.368"/>
</g>
<g>
	<defs>
		<path id="SVGID_27_" d="M190.134,60.466c-3.911,5.293-7.051,11.671-6.317,18.21c0.341,3.047,1.515,5.956,3.083,8.589
			c6.708,11.253,21.329,17.114,33.952,13.608c12.624-3.506,22.13-16.066,22.073-29.167c-0.035-8.183-4.844-17.286-12.954-18.368
			l-12.199-10.431C206.592,44.062,196.813,51.429,190.134,60.466"/>
	</defs>
	<clipPath id="SVGID_28_">
		<use xlink:href="#SVGID_27_"  overflow="visible"/>
	</clipPath>
	<path clip-path="url(#SVGID_28_)" fill="#DCA36A" d="M180.104,77.738c0.518,24.55,29.987,31.025,48.187,20.752
		c2.745-1.549,0.317-5.646-2.46-4.209c-8.815,4.562-19.275,6.325-28.569,1.955c-7.511-3.531-13.447-10.724-15.593-18.71
		C181.438,76.666,180.085,76.829,180.104,77.738"/>
	<path clip-path="url(#SVGID_28_)" fill="#DCA36A" d="M235.994,71.932c-2.913-9.145-14.102-12.438-16.443-21.991
		c-0.592-2.412-4.228-1.387-3.706,1.022c2.118,9.81,12.897,14.004,18.294,21.752C234.758,73.606,236.365,73.097,235.994,71.932"/>
	<path clip-path="url(#SVGID_28_)" fill="#DCA36A" d="M223.684,65.22c1.288,3.93,2.023,7.811,0.935,11.892
		c-0.843,3.158-2.523,6.016-3.711,9.043c-1.825,4.651-2.478,9.839,0.426,14.173c1.594,2.38,5.294,0.281,3.872-2.263
		c-3.621-6.48,1.688-12.798,2.99-19.126c1.039-5.049,0.178-10.212-2.869-14.411C224.771,63.762,223.343,64.178,223.684,65.22"/>
	<path clip-path="url(#SVGID_28_)" fill="#DCA36A" d="M181.131,75.892c0.063,13.707,12.18,22.487,23.68,27.178
		c2.162,0.882,3.091-2.618,0.964-3.495c-11.021-4.546-20.561-11.513-22.572-23.963C183.01,74.42,181.125,74.73,181.131,75.892"/>
	<path clip-path="url(#SVGID_28_)" fill="#DDAA7C" d="M217.123,71.352c1.712,0.069,2.662-1.656,2.78-3.186
		c0.164-2.133-1.052-4.03-2.807-5.165c-3.736-2.415-9.808-1.935-12.693,1.597c-1.706,2.088,0.827,4.532,2.917,2.917
		c1.815-1.403,4.008-2.094,6.285-1.474c0.947,0.258,1.973,0.764,2.449,1.674c0.465,0.889,0.134,1.87,0.232,2.801
		C216.338,70.979,216.631,71.332,217.123,71.352"/>
	<path clip-path="url(#SVGID_28_)" fill="#DCA36A" d="M221.999,93.911c-6.546,1.515-12.473,3.519-19.287,1.975
		c-6.115-1.386-10.934-4.974-14.993-9.606c-1.624-1.852-4.97,0.653-3.461,2.67c8.177,10.931,27.699,17.439,38.638,6.503
		C223.564,94.783,222.879,93.707,221.999,93.911"/>
	<path clip-path="url(#SVGID_28_)" fill="#DCA36A" d="M200.498,78.398c-0.79,2.005-0.332,5.111,1.731,6.214
		c1.124,0.6,2.371-0.875,1.396-1.81c-0.625-0.6-1.31-0.99-1.779-1.747c-0.499-0.806-0.685-1.618-0.643-2.561
		C201.223,78.059,200.637,78.046,200.498,78.398"/>
	<path clip-path="url(#SVGID_28_)" fill="#DCA36A" d="M209.84,51.325c5.005,0.389,5.482-6.676,0.768-7.67v2.013
		c1.793-0.271,3.325,0.205,4.752,1.281c0.36-0.618,0.722-1.236,1.082-1.853c-1.099-0.547-2.197-1.094-3.298-1.64
		c-0.182,0.673-0.364,1.347-0.547,2.02c0.722,0.024,5.85,0.188,5.82,1.274c-0.031,1.177,1.899,1.495,2.103,0.285
		c0.607-3.628-5.602-3.665-7.923-3.727c-1.039-0.028-1.524,1.541-0.547,2.02c1.104,0.54,2.206,1.081,3.31,1.621
		c1.262,0.618,2.18-1.036,1.082-1.853c-1.896-1.415-4.075-1.859-6.388-1.441c-0.997,0.18-0.997,1.832,0,2.013
		c3.043,0.55,2.449,4.228-0.352,4.636C209.088,50.394,209.296,51.283,209.84,51.325"/>
</g>
<g>
	<defs>
		<rect id="SVGID_29_" width="300" height="180"/>
	</defs>
	<clipPath id="SVGID_30_">
		<use xlink:href="#SVGID_29_"  overflow="visible"/>
	</clipPath>
	<path clip-path="url(#SVGID_30_)" fill="#E5B47F" d="M202.187,55.576c-0.588,1.758-2.801,2.63-4.569,2.078
		c-1.769-0.553-3.025-2.23-3.476-4.028c-0.343-1.368-0.287-2.821-0.722-4.163c-0.433-1.342-1.608-2.629-3.012-2.491
		c-1.605,0.159-2.456,1.99-2.676,3.588c-0.816,5.909,3.156,12.115,8.862,13.85"/>
</g>
<g>
	<defs>
		<path id="SVGID_31_" d="M201.444,56.749c0.331-0.326,0.59-0.72,0.741-1.173L201.444,56.749z M190.408,46.972
			c-1.605,0.158-2.456,1.99-2.676,3.587c-0.815,5.91,3.155,12.116,8.862,13.851l4.85-7.661c-0.956,0.939-2.514,1.314-3.827,0.904
			c-1.77-0.553-3.025-2.229-3.476-4.027c-0.343-1.368-0.286-2.821-0.721-4.163c-0.412-1.275-1.494-2.501-2.805-2.501
			C190.548,46.962,190.478,46.965,190.408,46.972"/>
	</defs>
	<clipPath id="SVGID_32_">
		<use xlink:href="#SVGID_31_"  overflow="visible"/>
	</clipPath>
	<path clip-path="url(#SVGID_32_)" fill="#DCA36A" d="M196.747,56.7c-1.105-2.644-1.05-4.924-1.433-7.672
		c-0.169-1.205-0.558-2.408-1.5-3.242c-2.531-2.238-6.037-0.48-7.369,2.112c-3.561,6.922,2.692,15.064,9.179,17.044
		c2.545,0.777,3.631-3.199,1.097-3.978c-4.061-1.248-7.311-5.154-7.076-9.55c0.109-2.033,2.541-3.912,3.402-1.187
		c0.306,0.966,0.393,1.976,0.625,2.957c0.391,1.641,0.871,2.867,1.952,4.17C196.038,57.853,197.004,57.316,196.747,56.7"/>
	<path clip-path="url(#SVGID_32_)" fill="#DCA36A" d="M189.508,47.266c3.265,2.048,3.252,5.926,5.085,8.996
		c1.152,1.93,3.755,0.24,2.928-1.712c-1.408-3.32-2.582-9.644-7.488-9.22C189.027,45.417,188.592,46.691,189.508,47.266"/>
	<path clip-path="url(#SVGID_32_)" fill="#DCA36A" d="M196.064,52.658c-1.529,1.357-1.117,3.699,0.178,5.086
		c1.885,2.018,4.792,1.523,7.009,0.434c2.24-1.101,0.254-4.585-1.971-3.373c-0.802,0.436-2.016,0.923-2.928,0.531
		c-0.69-0.297-1.006-1.104-0.786-1.804C197.848,52.627,196.7,52.094,196.064,52.658"/>
</g>
<g>
	<defs>
		<rect id="SVGID_33_" width="300" height="180"/>
	</defs>
	<clipPath id="SVGID_34_">
		<use xlink:href="#SVGID_33_"  overflow="visible"/>
	</clipPath>
	<path clip-path="url(#SVGID_34_)" fill="#FFFFFF" d="M212.19,63.249c1.163-0.032,2.351,0.03,3.44,0.437
		c2.879,1.076,4.436,4.78,3.19,7.59c-1.139,2.565-3.965,3.907-6.653,4.709c-3.108,0.927-6.947,1.235-9.142-1.153
		c-2.103-2.289-1.518-6.198,0.64-8.435S209.084,63.334,212.19,63.249"/>
	<path clip-path="url(#SVGID_34_)" fill="#FFFFFF" d="M205.572,54.573c-1.75,0.147-3.571,0.17-5.194-0.503
		c-1.622-0.673-3.002-2.198-3.013-3.955c-0.009-1.487,0.958-2.849,2.192-3.68c1.233-0.831,2.708-1.216,4.162-1.531
		c2.007-0.433,4.117-0.755,6.092-0.188c1.973,0.566,3.762,2.25,3.824,4.302c0.058,1.929-1.413,3.64-3.158,4.463
		c-1.746,0.824-3.729,0.942-5.655,1.046"/>
	<path clip-path="url(#SVGID_34_)" fill="#3B2C27" d="M190.963,84.818c-1.062-1.138-1.562-2.684-1.886-4.206
		c-0.53-2.478-0.677-5.038-0.433-7.56c0.571,3.257,2.64,6.15,5.334,8.065c2.695,1.916,5.974,2.907,9.268,3.203
		c-1.962,1.014-3.985,2.013-6.173,2.316C194.885,86.938,192.47,86.433,190.963,84.818"/>
	<path clip-path="url(#SVGID_34_)" fill="#D4D647" d="M214.688,44.375c1.974-0.394,4.137,0.38,5.413,1.937
		c-2.074-0.744-4.404-0.752-6.482-0.021c1.289,4.882,2.899,10.217,7.164,12.92c1.791,1.135,3.887,1.68,5.798,2.599
		c3.502,1.684,6.354,4.681,7.862,8.262c-2.926-3.983-7.615-6.62-12.54-7.051c4.78,3.126,7.315,9.337,6.089,14.915
		c-0.955,4.345-3.869,7.977-5.522,12.106c-1.09,2.721-1.623,5.662-1.559,8.592c0.013,0.57,0.073,1.199,0.488,1.593
		c0.424,0.402,1.074,0.42,1.659,0.405c7.346-0.185,15.107-1.907,20.3-7.107c4.658-4.666,6.552-11.448,7.128-18.016
		c0.905-10.334-1.173-21.167-7.192-29.615c-6.021-8.448-16.291-14.125-26.629-13.261c-0.291,1.664-0.582,3.328-0.873,4.992
		c3.229,0.254,6.375,1.48,8.924,3.478c-2.602-1.829-5.912-2.618-9.06-2.159C215.335,40.755,215.012,42.565,214.688,44.375"/>
</g>
<g>
	<defs>
		<path id="SVGID_35_" d="M216.664,32.634c-0.29,1.664-0.582,3.327-0.873,4.991c3.229,0.254,6.376,1.48,8.925,3.479
			c-2.601-1.83-5.913-2.619-9.059-2.159c-0.323,1.81-0.646,3.621-0.968,5.43c1.973-0.394,4.137,0.38,5.411,1.938
			c-2.072-0.745-4.402-0.752-6.481-0.021c1.29,4.881,2.899,10.217,7.164,12.92c1.791,1.135,3.887,1.679,5.797,2.598
			c3.503,1.684,6.354,4.681,7.864,8.263c-2.927-3.983-7.616-6.62-12.54-7.052c4.778,3.126,7.313,9.338,6.088,14.915
			c-0.954,4.345-3.87,7.977-5.523,12.106c-1.089,2.721-1.623,5.662-1.558,8.593c0.013,0.57,0.074,1.199,0.488,1.593
			c0.425,0.402,1.074,0.42,1.659,0.405c7.346-0.184,15.107-1.908,20.3-7.107c4.658-4.667,6.553-11.448,7.128-18.017
			c0.905-10.334-1.172-21.166-7.192-29.614c-5.614-7.879-14.927-13.347-24.543-13.348C218.056,32.547,217.361,32.576,216.664,32.634
			"/>
	</defs>
	<clipPath id="SVGID_36_">
		<use xlink:href="#SVGID_35_"  overflow="visible"/>
	</clipPath>
	<path clip-path="url(#SVGID_36_)" fill="#B8B530" d="M232.565,42.965c5.147,3.971,8.979,9.621,10.765,15.873
		c-2.885-4.759-7.77-8.261-13.203-9.465c6.947,3.537,12.114,10.384,13.61,18.035c-1.207-1.487-3.079-2.412-4.993-2.467
		c3.166,2.916,6.621,6.613,5.896,10.856c-0.474,2.762-2.638,4.89-3.86,7.412c2.457-1.486,4.682-3.357,6.568-5.523
		c-0.293,3.825-1.998,7.526-4.715,10.235c5.372-1.92,7.981-7.939,9.369-13.473c0.758-3.02,1.335-6.11,1.297-9.223
		c-0.099-8.101-4.698-16.002-11.694-20.089c2.781,3.224,4.391,7.436,4.471,11.692C242.656,51.196,238.773,45.172,232.565,42.965"/>
	<path clip-path="url(#SVGID_36_)" fill="#B8B530" d="M239.542,76.624c-0.145,2.963-1.563,5.842-3.822,7.763
		c1.159-2.853,1.86-5.891,2.066-8.963c-1.498,2.048-3.455,3.759-5.686,4.97c2.432-2.516,4.517-5.368,6.174-8.449
		c1.086,2.006,1.253,4.487,0.445,6.62"/>
	<path clip-path="url(#SVGID_36_)" fill="#B8B530" d="M217.521,98.279c0.349-5.661,9.103-24.171,10.516-26.525
		c-0.847,3.296,2.982,2.982-2.668,19.305c1.114-2.413,5.521-6.154,7.063-8.318l-4.648,10.733c2.629-1.793,5.104-3.815,7.383-6.035
		c-0.869,1.774-1.615,3.609-2.23,5.486c1.955-0.714,3.832-1.641,5.589-2.755l-3.642,5.716c3.479,0.101,10.075-5.592,13.088-7.338
		c-2.704,3.13-8.962,10.666-12.456,12.879c-1.044,0.662-2.147,1.289-3.365,1.504c-3.053,0.537-6.252-1.615-8.585-1.637
		c-0.757-0.008-1.522-0.124-2.165-0.526c-3.854-2.409-0.41-7.27,0.28-10.933"/>
	<path clip-path="url(#SVGID_36_)" fill="#B8B530" d="M232.176,65.987c-3.82-7.158-12.825-8.407-17.859-14.416
		c-1.702-2.033-4.484,0.864-2.883,2.884c5.001,6.306,13.875,7.072,19.711,12.327C231.696,67.279,232.533,66.657,232.176,65.987"/>
</g>
<g>
	<defs>
		<rect id="SVGID_37_" width="300" height="180"/>
	</defs>
	<clipPath id="SVGID_38_">
		<use xlink:href="#SVGID_37_"  overflow="visible"/>
	</clipPath>
	<path clip-path="url(#SVGID_38_)" fill="#D4D647" d="M249.332,76.242c-1.855-4.84,5.65-11.059,9.591-12.351
		c6.311-2.068,11.224-0.099,16.578,3.035c-2.877-1.684-6.995-0.73-8.837,2.048c2.558-0.517,5.286,0.564,7.095,2.445
		s2.767,4.466,3.04,7.061c0.6,5.718-2.158,11.665-6.912,14.899c-2.681,1.824-5.938,2.854-8.187,5.189s-2.779,6.848,0.066,8.402
		c-4.39-1.459-7.42-6.229-6.875-10.823c-1.031,3.871-1.56,8.014-0.45,11.863c1.111,3.851,4.154,7.334,8.102,8.025
		c-6.575,1.267-13.634-2.987-16.018-9.244c-2.384-6.258-0.183-13.838,4.878-18.223c1.348-1.167,2.979-2.297,3.326-4.045
		C255.516,80.574,250.496,79.278,249.332,76.242"/>
</g>
<g>
	<defs>
		<path id="SVGID_39_" d="M258.923,63.891c-3.938,1.291-11.446,7.511-9.592,12.351c1.164,3.036,6.184,4.332,5.399,8.282
			c-0.349,1.748-1.979,2.879-3.327,4.045c-5.061,4.385-7.262,11.965-4.878,18.222c2.384,6.258,9.441,10.512,16.018,9.245
			c-3.947-0.691-6.991-4.175-8.101-8.025c-1.11-3.85-0.581-7.991,0.449-11.863c-0.546,4.595,2.485,9.364,6.875,10.823
			c-2.846-1.555-2.316-6.066-0.066-8.402c2.249-2.336,5.506-3.365,8.187-5.189c4.753-3.234,7.513-9.181,6.912-14.899
			c-0.272-2.596-1.23-5.18-3.041-7.061c-1.809-1.881-4.536-2.962-7.094-2.445c1.842-2.777,5.96-3.732,8.837-2.048
			c-3.829-2.24-7.431-3.886-11.481-3.886C262.406,63.04,260.721,63.302,258.923,63.891"/>
	</defs>
	<clipPath id="SVGID_40_">
		<use xlink:href="#SVGID_39_"  overflow="visible"/>
	</clipPath>
	<path clip-path="url(#SVGID_40_)" fill="#B8B530" d="M261.41,70.242c-1.811-1.166-3.991-1.866-6.125-1.579
		c-2.134,0.287-4.173,1.683-4.886,3.715c-1.069,3.049,0.959,6.304,0.926,9.535c-0.042,4.048-2.961,7.411-5.047,10.879
		c-3.488,5.801-0.971,10.187-0.506,13.648c0.092-2.947,0.864-8.968,3.089-10.902c2.225-1.934,4.787-3.514,6.677-5.776
		c1.89-2.262,3.005-5.525,1.73-8.184c2.392,3.353,2.715,8.062,0.806,11.709c2.323-2.458,3.659-5.823,3.652-9.205
		c-0.006-3.381-1.353-6.742-3.684-9.192c3.128,0.733,5.855,3.011,7.131,5.96c-0.345-4.911-4.922-9.143-9.845-9.101
		C257.009,70.401,259.293,69.834,261.41,70.242"/>
</g>
<g>
	<defs>
		<rect id="SVGID_41_" width="300" height="180"/>
	</defs>
	<clipPath id="SVGID_42_">
		<use xlink:href="#SVGID_41_"  overflow="visible"/>
	</clipPath>
	<path clip-path="url(#SVGID_42_)" fill="#C7353C" d="M254.1,67.314c0.39-1.766-1.122-3.695-2.93-3.737
		c-2.436-0.058-3.979,2.616-4.492,4.997c-0.513,2.379-0.558,4.858-0.13,7.254c0.322,1.805,1.558,3.975,3.349,3.581
		c1.115-0.246,1.751-1.407,2.153-2.476C253.444,73.222,254.93,71.193,254.1,67.314"/>
	<path clip-path="url(#SVGID_42_)" fill="#E5B47F" d="M220.053,98.598c-0.676,2.699,0.304,5.743,2.426,7.542
		c2.123,1.798,5.286,2.265,7.837,1.154c0.902-0.393,1.747-0.986,2.27-1.82c0.447-0.716,0.634-1.572,0.646-2.416
		c0.03-2.287-1.197-4.461-2.89-6.001c-1.691-1.54-3.813-2.523-5.958-3.322"/>
</g>
<g>
	<defs>
		<path id="SVGID_43_" d="M220.054,98.598c-0.677,2.698,0.303,5.743,2.424,7.541c2.122,1.8,5.287,2.266,7.838,1.155
			c0.903-0.393,1.746-0.986,2.269-1.821c0.449-0.716,0.636-1.571,0.647-2.415c0.03-2.288-1.197-4.461-2.89-6.001
			c-1.691-1.54-3.813-2.523-5.958-3.322L220.054,98.598z"/>
	</defs>
	<clipPath id="SVGID_44_">
		<use xlink:href="#SVGID_43_"  overflow="visible"/>
	</clipPath>
	<path clip-path="url(#SVGID_44_)" fill="#DCA36A" d="M223.099,101.579c-0.128-2.068,1.971-3.88,4.037-3.717
		c2.067,0.163,3.782,2.003,4.104,4.05c0.182,1.159-0.063,2.445-0.905,3.261c-0.843,0.814-2.351,0.956-3.162,0.108
		c1.236,0.145,2.554-0.88,2.513-2.123c-0.041-1.244-1.699-2.165-2.681-1.399c-0.229,0.18-0.403,0.421-0.62,0.618
		c-1.073,0.98-3.123,0.349-3.458-1.066"/>
	<path clip-path="url(#SVGID_44_)" fill="#DCA36A" d="M218.624,96.452c-2.422,6.066,1.979,12.482,7.737,14.417
		c1.978,0.664,2.826-2.459,0.86-3.119c-5.083-1.708-6.954-6.007-7.001-11.082C220.211,95.696,218.949,95.638,218.624,96.452"/>
	<path clip-path="url(#SVGID_44_)" fill="#DCA36A" d="M217.577,101.614c2.646,8.62,13.496,10.619,19.805,4.672
		c1.747-1.646-0.786-3.99-2.574-2.574c-5.328,4.22-11.844,2.609-15.517-2.819C218.722,100.052,217.249,100.547,217.577,101.614"/>
	<path clip-path="url(#SVGID_44_)" fill="#DCA36A" d="M222.507,94.964c1.782,0.503,3.619,0.693,5.385,1.282
		c1.891,0.631,3.604,1.576,5.331,2.55c1.855,1.046,3.359-1.637,1.648-2.818c-3.33-2.304-8.323-3.883-12.364-2.987
		C221.496,93.214,221.569,94.699,222.507,94.964"/>
	<path clip-path="url(#SVGID_44_)" fill="#DCA36A" d="M234.933,99.916c-1.179-3.126-3.432-5.568-6.55-6.826
		c-2.847-1.147-6.446-0.83-7.68,2.333c-0.813,2.09,2.334,3.147,3.456,1.457c2.144-3.227,7.94,1.918,9.146,3.722
		C233.83,101.39,235.31,100.915,234.933,99.916"/>
	<path clip-path="url(#SVGID_44_)" fill="#DCA36A" d="M204.427,100.278c5.502,0.727,11.174,0.097,16.081-2.576
		c2.081-1.133,0.614-4.147-1.554-3.686c-6.464,1.379-18.619,4.807-23.703-1.177c-1.486-1.749-4.609,0.607-3.215,2.48
		c5.975,8.026,19.879,4.374,27.99,2.586c-0.518-1.229-1.036-2.458-1.554-3.686c-4.463,2.852-9.279,3.067-14.308,4.124
		C202.978,98.595,203.423,100.146,204.427,100.278"/>
</g>
<g>
	<defs>
		<rect id="SVGID_45_" width="300" height="180"/>
	</defs>
	<clipPath id="SVGID_46_">
		<use xlink:href="#SVGID_45_"  overflow="visible"/>
	</clipPath>
	<path clip-path="url(#SVGID_46_)" fill="#C7353C" d="M121.78,12.113c8.136-1.56,17.572,1.13,25.556,3.337
		c4.108,1.136,7.639,2.078,7.653,4.606c0.017,3.048-5.557,3.695-7.708,4.202c-5.415,1.277-9.653,1.157-15.003-0.288
		c-0.892-0.241-5.42-1.929-5.946-2.126c0,0-4.723,0.996-6.278,1.256c-0.942,0.157-0.725-5.974-0.579-6.74
		C119.613,15.64,119.639,12.524,121.78,12.113"/>
</g>
<g>
	<defs>
		<path id="SVGID_47_" d="M121.78,12.113c-2.141,0.41-2.168,3.526-2.305,4.247c-0.147,0.766-0.364,6.896,0.578,6.739
			c1.556-0.259,6.278-1.255,6.278-1.255c0.527,0.197,5.055,1.885,5.946,2.126c5.351,1.444,9.589,1.565,15.004,0.289
			c2.151-0.508,7.723-1.155,7.707-4.203c-0.014-2.529-3.544-3.47-7.653-4.606c-6.327-1.749-13.565-3.802-20.346-3.802
			C125.214,11.648,123.468,11.789,121.78,12.113"/>
	</defs>
	<clipPath id="SVGID_48_">
		<use xlink:href="#SVGID_47_"  overflow="visible"/>
	</clipPath>
	<path clip-path="url(#SVGID_48_)" fill="#C7BAA3" d="M117.752,11.084c0.717-0.806,1.902-0.956,2.979-1.029
		c11.845-0.798,23.887,1.534,34.578,6.696c0.596,0.287,1.257,0.674,1.364,1.326c0.138,0.836-0.71,1.479-1.47,1.852
		c-5.949,2.924-12.988,2.486-19.489,1.192c-4.905-0.977-9.721-2.403-14.367-4.255c-1.245-0.497-2.529-1.06-3.379-2.096
		C117.117,13.734,116.861,12.085,117.752,11.084"/>
	<path clip-path="url(#SVGID_48_)" fill="#FAF1D7" d="M120.286,11.931c0.352-0.532,0.999-0.773,1.608-0.962
		c10.208-3.169,21.329-0.883,31.365,2.798c0.826,0.303,1.678,0.635,2.282,1.272c0.605,0.638,0.886,1.674,0.407,2.412
		c-0.396,0.611-1.165,0.844-1.873,1.017c-10.431,2.538-21.698,1.493-31.483-2.922c-0.746-0.336-1.508-0.71-2.028-1.342
		C120.044,13.573,119.834,12.613,120.286,11.931"/>
</g>
<g>
	<defs>
		<rect id="SVGID_49_" width="300" height="180"/>
	</defs>
	<clipPath id="SVGID_50_">
		<use xlink:href="#SVGID_49_"  overflow="visible"/>
	</clipPath>
	<path clip-path="url(#SVGID_50_)" d="M212.537,73.5c0,1.138-1.521,2.06-3.396,2.06c-1.876,0-3.396-0.922-3.396-2.06
		c0-1.138,1.521-2.06,3.396-2.06C211.017,71.441,212.537,72.363,212.537,73.5"/>
	<path clip-path="url(#SVGID_50_)" d="M207.594,51.959c0,1.073-1.435,1.942-3.202,1.942c-1.77,0-3.202-0.869-3.202-1.942
		c0-1.073,1.433-1.942,3.202-1.942C206.159,50.017,207.594,50.886,207.594,51.959"/>
</g>
</svg>
