<?xml version="1.0" encoding="UTF-8"?>
<!DOCTYPE svg PUBLIC "-//W3C//DTD SVG 1.1//EN" "http://www.w3.org/Graphics/SVG/1.1/DTD/svg11.dtd">
<svg version="1.1" xmlns="http://www.w3.org/2000/svg" xmlns:xlink="http://www.w3.org/1999/xlink" x="0" y="0" width="67" height="69" viewBox="0, 0, 67, 69">
  <g id="Layer_1">
    <path d="M12.103,20.638 L13.138,20.752 L54.782,20.752 Q55.013,20.752 55.587,20.638 L56.508,20.638 Q57.543,20.638 58.118,20.982 Q58.924,21.557 58.693,22.363 Q58.463,22.938 57.658,23.629 L57.428,23.859 L57.198,24.088 Q56.968,24.434 57.083,24.664 Q57.198,25.124 57.888,25.239 L58.463,25.354 L58.924,25.354 L59.499,25.354 L60.189,25.354 Q60.994,25.354 61.455,25.469 Q62.835,25.699 62.95,27.08 Q62.95,27.655 62.835,28 Q62.49,29.381 60.649,29.381 L59.959,29.381 L59.268,29.265 Q58.349,29.265 57.773,29.265 Q56.047,29.381 55.472,30.416 L54.897,31.451 L54.322,32.602 Q53.631,33.982 53.056,34.787 Q49.951,39.504 44.429,42.15 L43.853,42.38 L43.278,42.61 Q42.703,43.07 42.473,43.531 Q42.473,43.875 42.588,44.68 L42.818,45.371 L42.933,45.946 Q43.278,47.672 42.013,48.132 Q41.322,48.362 40.057,48.362 L39.022,48.247 Q38.332,48.247 37.987,48.247 L29.243,48.247 Q29.013,48.247 28.208,48.247 L27.633,48.362 L27.058,48.362 Q25.678,48.362 25.102,47.901 Q24.412,47.327 24.527,46.291 Q24.527,45.946 24.642,45.486 L24.872,44.68 L24.987,44.221 L25.102,43.875 Q25.102,43.415 24.872,43.07 Q24.412,42.61 23.607,42.265 L22.801,41.92 L22.111,41.69 Q19.811,40.424 17.97,38.699 Q15.209,36.168 13.944,33.982 Q13.713,33.522 13.369,32.947 L12.908,31.911 Q12.333,30.531 11.872,29.955 Q11.528,29.611 10.838,29.381 L10.377,29.381 L9.802,29.381 L8.997,29.381 L8.307,29.381 Q7.271,29.496 6.581,29.381 Q4.625,29.265 4.165,28 Q4.05,27.54 4.05,27.08 Q4.28,25.699 5.891,25.354 Q6.466,25.239 7.271,25.354 L7.961,25.354 L8.651,25.354 L9.112,25.354 L9.572,25.239 Q10.148,25.124 10.377,24.894 Q10.607,24.549 10.492,24.204 L10.262,23.859 L10.032,23.513 L9.572,23.054 Q9.227,22.708 9.112,22.478 Q8.651,21.788 9.227,21.213 Q9.342,20.982 9.802,20.867 Q10.032,20.752 10.377,20.638 L10.953,20.638 z M40.862,37.203 Q39.367,37.548 39.597,38.928 Q39.942,40.424 41.437,40.194 Q42.473,39.964 42.588,38.928 Q42.703,37.779 41.898,37.318 Q41.668,37.203 41.322,37.088 Q40.978,37.088 40.862,37.203 z M26.253,37.203 Q25.678,37.318 25.332,37.894 Q25.102,38.354 25.217,38.928 Q25.332,39.619 25.792,39.964 Q26.253,40.31 26.943,40.079 Q27.403,39.964 27.633,39.734 Q28.094,39.274 28.094,38.469 Q27.978,37.663 27.403,37.318 Q27.173,37.203 26.828,37.088 Q26.483,37.088 26.253,37.203 z M33.615,37.203 Q32.925,37.318 32.58,37.894 Q32.349,38.354 32.464,38.928 Q32.58,39.619 33.04,39.964 Q33.5,40.31 34.19,40.079 Q34.651,39.964 34.88,39.734 Q35.456,39.274 35.341,38.469 Q35.226,37.663 34.651,37.318 Q34.42,37.203 34.075,37.088 Q33.73,37.088 33.615,37.203 z M44.199,32.142 Q42.818,32.602 43.393,33.982 Q43.853,35.363 45.119,34.902 Q46.384,34.442 46.155,33.177 Q45.924,32.027 44.774,32.027 Q44.429,32.027 44.199,32.142 z M36.951,32.142 Q36.376,32.371 36.146,32.947 Q35.916,33.407 36.146,33.982 Q36.376,34.558 36.836,34.787 Q37.411,35.133 37.987,34.787 Q39.137,34.327 38.906,33.177 Q38.677,32.027 37.411,32.027 Q37.182,32.027 36.951,32.142 z M22.457,32.142 Q21.766,32.371 21.651,32.947 Q21.421,33.407 21.651,33.982 Q21.881,34.558 22.342,34.787 Q22.916,35.133 23.491,34.787 Q24.642,34.327 24.412,33.177 Q24.182,32.027 22.916,32.027 Q22.571,32.027 22.457,32.142 z M29.704,32.142 Q29.128,32.371 28.899,32.947 Q28.668,33.407 28.899,33.982 Q29.128,34.558 29.589,34.787 Q30.164,35.133 30.739,34.787 Q31.889,34.327 31.659,33.177 Q31.43,32.027 30.164,32.027 Q29.818,32.027 29.704,32.142 z M47.65,26.965 Q46.384,27.54 46.96,28.92 Q47.65,30.301 48.8,29.726 Q49.261,29.496 49.49,29.265 Q49.951,28.69 49.835,28 Q49.605,27.309 49.03,26.965 Q48.8,26.85 48.455,26.734 Q47.879,26.85 47.65,26.965 z M40.517,26.965 Q39.252,27.425 39.712,28.806 Q40.288,30.301 41.553,29.726 Q42.818,29.265 42.588,28 Q42.358,26.85 41.093,26.85 Q40.747,26.85 40.517,26.965 z M18.775,26.965 Q17.395,27.425 17.97,28.806 Q18.43,30.186 19.811,29.726 Q21.076,29.265 20.845,28 Q20.616,26.85 19.235,26.85 Q18.89,26.85 18.775,26.965 z M33.27,26.965 Q31.889,27.425 32.464,28.806 Q33.04,30.186 34.305,29.726 Q35.57,29.265 35.341,28 Q35.111,26.85 33.73,26.85 Q33.385,26.85 33.27,26.965 z M26.022,26.965 Q25.332,27.195 25.102,27.77 Q24.987,28.23 25.217,28.806 Q25.447,29.381 26.022,29.611 Q26.597,29.955 27.173,29.726 Q28.438,29.15 28.094,28 Q27.748,26.85 26.483,26.85 Q26.138,26.85 26.022,26.965 z" fill="#333333"/>
  </g>
</svg>
