<?xml version="1.0" encoding="utf-8"?>
<!-- Generator: Adobe Illustrator 15.0.0, SVG Export Plug-In . SVG Version: 6.00 Build 0)  -->
<!DOCTYPE svg PUBLIC "-//W3C//DTD SVG 1.1//EN" "http://www.w3.org/Graphics/SVG/1.1/DTD/svg11.dtd">
<svg version="1.1" id="Layer_1" xmlns="http://www.w3.org/2000/svg" xmlns:xlink="http://www.w3.org/1999/xlink" x="0px" y="0px"
	 width="300px" height="180px" viewBox="0 0 300 180" enable-background="new 0 0 300 180" xml:space="preserve">
<g>
	<defs>
		<rect id="SVGID_1_" width="300" height="180"/>
	</defs>
	<clipPath id="SVGID_2_">
		<use xlink:href="#SVGID_1_"  overflow="visible"/>
	</clipPath>
	<g clip-path="url(#SVGID_2_)">
		<defs>
			<rect id="SVGID_3_" width="300" height="180"/>
		</defs>
		<clipPath id="SVGID_4_">
			<use xlink:href="#SVGID_3_"  overflow="visible"/>
		</clipPath>
		<path clip-path="url(#SVGID_4_)" fill="#E5DBC6" d="M126.125,156.012c-20.108-2.416-40.68-0.911-60.223,4.406
			c20.367,7.858,42.918,6.918,64.723,5.863c-4.174,1.149-8.079,3.262-11.326,6.124c17.784,2.388,35.936,2.023,53.61-1.077
			c-2.104-1.17-4.208-2.341-6.312-3.511c13.665,1.747,27.539,1.852,41.229,0.311c1.083-0.122,2.312-0.344,2.887-1.269
			c0.574-0.926-0.432-2.511-1.363-1.946c17.889,0.198,36.521,0.24,52.626-7.552c-26.203-3.976-52.715-5.915-79.218-5.795"/>
	</g>
	<g clip-path="url(#SVGID_2_)">
		<defs>
			<path id="SVGID_5_" d="M112.19,29.028c-4.077,0.172-7.917,2.156-10.993,4.838c-3.076,2.682-5.481,6.036-7.773,9.414
				c-0.309,0.456-0.628,0.941-0.671,1.491c-0.056,0.699,0.341,1.346,0.723,1.935c5.755,8.884,11.511,17.768,17.266,26.652
				c2.024,3.125,4.267,6.433,7.732,7.796c3.896,1.531,8.404,0.151,11.852-2.22c8.248-5.67,11.885-16.844,9.564-26.579
				c-2.322-9.735-10.007-17.76-19.266-21.562c-2.493-1.024-5.148-1.778-7.837-1.778C112.588,29.015,112.39,29.019,112.19,29.028"/>
		</defs>
		<clipPath id="SVGID_6_">
			<use xlink:href="#SVGID_5_"  overflow="visible"/>
		</clipPath>
		
			<linearGradient id="SVGID_7_" gradientUnits="userSpaceOnUse" x1="0" y1="180.0361" x2="1" y2="180.0361" gradientTransform="matrix(-9.6691 -29.7809 -29.7809 9.6691 5484.5996 -1668.0085)">
			<stop  offset="0" style="stop-color:#CF8954"/>
			<stop  offset="0.2334" style="stop-color:#CF8954"/>
			<stop  offset="0.642" style="stop-color:#E5B47F"/>
			<stop  offset="1" style="stop-color:#E5B47F"/>
		</linearGradient>
		<polygon clip-path="url(#SVGID_6_)" fill="url(#SVGID_7_)" points="97.419,97.228 76.934,34.133 137.489,14.472 157.975,77.567 		
			"/>
		<path clip-path="url(#SVGID_6_)" fill="#DCA36A" d="M120.362,49.099c0.161-4.534-4.86-10.28-9.751-8.785
			c-2.42,0.741-3.607,3.236-3.126,5.638c0.518,2.583,2.569,4.972,4.595,6.539c2.022,1.563,4.913-1.103,2.894-2.895
			c-0.811-0.72-5.633-6.031-2.188-5.566c1.294,0.175,2.502,1.491,3.413,2.333c1.007,0.93,2.157,1.885,2.795,3.107
			C119.345,50.144,120.336,49.792,120.362,49.099"/>
		<path clip-path="url(#SVGID_6_)" fill="#DCA36A" d="M128.107,33.942c-0.994-3.307-5.21-1.893-6.003,0.822
			c-0.94,3.213,1.711,6.649,4.213,8.329c1.882,1.263,4.016-1.57,2.405-3.117c-0.905-0.869-1.772-1.743-2.364-2.862
			c-0.261-0.492-0.765-2.187,0.442-1.865C127.567,35.455,128.343,34.729,128.107,33.942"/>
		<path clip-path="url(#SVGID_6_)" fill="#DCA36A" d="M127.916,33.367c0.998-0.832,0.007-2.096-0.847-2.518
			c-1.393-0.689-3.092-0.251-4.188,0.776c-2.891,2.709-1.13,7.107,1.428,9.274c2.066,1.75,5.025-1.087,3.017-3.016
			c-0.779-0.748-1.898-1.765-1.753-2.975c0.099-0.824,0.894-1.21,1.652-1.283l-1.072-1.072c0.001,0.028,0.002,0.057,0.003,0.085
			C126.185,33.582,127.239,33.932,127.916,33.367"/>
		<path clip-path="url(#SVGID_6_)" fill="#DCA36A" d="M126.792,33.276c0.145-3.838-5.39-3.832-6.258-0.401
			c-0.922,3.644,2.395,7.624,5.379,9.21c2.351,1.25,4.374-2.185,2.09-3.575c-1.108-0.674-2.046-1.484-2.743-2.588
			c-0.323-0.513-1.392-3.499-0.108-1.967C125.717,34.632,126.763,34.044,126.792,33.276"/>
		<path clip-path="url(#SVGID_6_)" fill="#DCA36A" d="M122.888,31.3c-2.419,0.43-3.638,3.053-3.295,5.281
			c0.352,2.29,1.709,4.285,3.58,5.609c1.731,1.225,3.778-1.491,2.253-2.92c-0.912-0.856-1.859-1.841-2.111-3.122
			c-0.284-1.439,0.943-2.429,0.888-3.846C124.176,31.581,123.564,31.18,122.888,31.3"/>
		<path clip-path="url(#SVGID_6_)" fill="#DCA36A" d="M125.247,31.063c-2.203-0.133-5.722,0.368-5.775,3.246
			c-0.042,2.288,1.373,4.816,3.456,5.788c1.775,0.827,3.691-1.288,2.178-2.822c-0.375-0.381-0.776-0.782-1.099-1.21
			c-0.175-0.231-0.342-0.486-0.462-0.753c-0.097-0.216-0.106-0.636-0.248-0.782c-0.02-0.298-0.105-0.256-0.256,0.126
			c-0.291,0.336-0.299,0.399-0.026,0.191c0.284-0.052,0.7-0.384,0.966-0.547c0.621-0.379,1.177-0.811,1.838-1.126
			C126.907,32.656,126.274,31.125,125.247,31.063"/>
		<path clip-path="url(#SVGID_6_)" fill="#DCA36A" d="M125.51,34.042c1.068-0.844-0.148-1.998-0.939-2.38
			c-1.222-0.589-2.666-0.721-3.858,0.01c-1.247,0.765-1.702,2.335-1.324,3.705c0.372,1.348,1.408,2.174,2.2,3.253
			c1.256,1.711,4.044,0.212,2.914-1.704c-0.291-0.493-0.635-0.943-1.016-1.371c-0.329-0.371-0.758-0.728-0.879-1.231
			c-0.049-0.203-0.007-0.218-0.096-0.107c0.106-0.132,0.372-0.134,0.522-0.153c0.414-0.05,1.178,0.009,1.572,0.172
			c-0.202-0.156-0.405-0.312-0.608-0.468l0.04,0.084C124.319,34.456,125.084,34.379,125.51,34.042"/>
		<path clip-path="url(#SVGID_6_)" fill="#DCA36A" d="M117.933,44.236c-1.885-2.698-6.035-5.741-9.312-3.523
			c-3.968,2.687-0.34,7.829,1.935,10.209c1.656,1.732,4.156-0.836,2.608-2.607c-0.7-0.801-4.203-4.538-1.992-5.228
			c1.63-0.509,4.261,1.571,5.575,2.335C117.458,45.837,118.446,44.972,117.933,44.236"/>
		<path clip-path="url(#SVGID_6_)" fill="#A37147" d="M117.925,61.364c-1.095-0.897-2.289-1.448-3.586-1.99
			c-0.403-0.168-0.943,0.261-0.899,0.685c0.23,2.194,1.066,4.351,2.871,5.72c1.855,1.408,4.294,1.759,6.487,2.338
			c1.205,0.318,1.698-1.494,0.513-1.861c-1.703-0.528-3.57-0.762-5.166-1.582c-1.989-1.022-2.586-2.84-3.309-4.804
			c-0.292,0.292-0.583,0.583-0.874,0.874c1.186,0.32,2.289,0.841,3.409,1.338C117.801,62.272,118.363,61.722,117.925,61.364"/>
	</g>
	<g clip-path="url(#SVGID_2_)">
		<defs>
			<rect id="SVGID_8_" width="300" height="180"/>
		</defs>
		<clipPath id="SVGID_9_">
			<use xlink:href="#SVGID_8_"  overflow="visible"/>
		</clipPath>
		<path clip-path="url(#SVGID_9_)" fill="#FAF1D7" d="M114.897,59.773c0.168,1.322,0.535,2.618,1.085,3.832
			c0.164,0.36,0.348,0.721,0.628,1.001c0.375,0.375,0.888,0.573,1.397,0.741c1.732,0.567,12.171,2.26,9.09-1.268
			C125.729,62.511,115.021,60.749,114.897,59.773"/>
		<path clip-path="url(#SVGID_9_)" fill="#556327" d="M95.624,160.174c-8.597-0.336-17.032-3.876-23.293-9.777
			c-1.83-1.726-3.51-4.673-1.81-6.525c1.228-1.337,3.408-1.042,5.098-0.381c-0.963-0.36-1.977-0.756-2.607-1.569
			c-0.63-0.812-0.662-2.178,0.205-2.73c0.339-0.216,0.754-0.275,1.155-0.305c1.132-0.079,2.277,0.046,3.365,0.367
			c-4.835-1.03-9.221-4.023-11.944-8.149c-0.793-1.202-1.471-2.621-1.202-4.036c0.448-2.357,3.408-3.496,5.727-2.879
			c2.318,0.618,4.098,2.426,5.755,4.161c-1.449-0.505-1.922-2.698-0.809-3.755c1.113-1.056,3.279-0.468,3.706,1.006
			c-1.027-2.006-2.024-4.092-2.233-6.334c-0.209-2.244,0.52-4.705,2.359-6.007c1.84-1.301,4.837-0.92,5.859,1.089
			c-3.319-1.259-6.638-2.64-9.486-4.758c-2.848-2.117-5.217-5.063-5.999-8.525c-0.824-3.643,0.912-8.267,4.597-8.871
			c3.377-0.554,6.24,2.391,8.223,5.18c-0.64-2.543-1.126-5.652,0.806-7.427c2.354-2.159,6.105-0.5,8.756,1.284
			c8.704,5.856,17.395,13.154,20.149,23.278c1.076,3.956,1.164,8.145,0.567,12.2c-1.368,9.281-6.421,17.967-13.814,23.743"/>
		<path clip-path="url(#SVGID_9_)" fill="#556327" d="M247.704,147.361c-1.399,0.201-2.797,0.409-4.194,0.623
			c2.4-1.077,4.867-2.2,6.671-4.112c1.805-1.914,2.801-4.84,1.721-7.237c-1.081-2.398-4.696-3.475-6.494-1.555
			c3.958-2.007,6.832-6.018,7.46-10.409c0.064-0.457,0.104-0.941-0.082-1.363c-0.473-1.068-2.039-1.078-3.066-0.525
			c-1.028,0.553-1.859,1.479-2.974,1.821c1.044-1.896,0.42-4.396-1.048-5.986c-1.47-1.59-3.608-2.4-5.735-2.801
			c-4.301-0.808-8.87-0.107-12.731,1.951c1.363-5.634,0.996-11.674-1.04-17.101c4.799-1.551,9.055-4.73,11.899-8.894
			c1.113-1.628,1.705-4.39-0.124-5.128c-0.74-0.3-1.578-0.075-2.344,0.152c-2.106,0.623-4.212,1.247-6.318,1.871
			c0.858-0.573,1.014-1.952,0.306-2.702c-0.707-0.75-2.093-0.674-2.714,0.149c3.785-3.328,5.782-8.583,5.163-13.586
			c-0.138-1.107-0.82-2.499-1.91-2.258c-0.468,0.103-0.807,0.497-1.103,0.874c-2.917,3.705-5.175,7.929-6.637,12.413
			c0.645-1.563-0.54-3.43-2.13-4.008c-1.589-0.577-3.375-0.159-4.912,0.541c-5.173,2.354-8.451,7.552-10.643,12.794
			c-4.273,10.221-5.447,22.126-1.178,32.348c1.882,4.508,4.804,8.743,5.207,13.611c0.299,3.624-0.845,7.195-1.263,10.808
			c-0.417,3.612,0.107,7.73,2.922,10.033c2.718,2.223,6.623,2.035,10.107,1.603c7.27-0.903,14.55-2.399,21.158-5.559
			c3.121-1.491,6.313-3.66,7.198-7.004c0.113-0.429,0.152-0.965-0.196-1.24C248.416,147.276,248.039,147.313,247.704,147.361"/>
	</g>
	<g clip-path="url(#SVGID_2_)">
		<defs>
			<path id="SVGID_10_" d="M176.814,31.544c-1.086-2.246-4.495-2.37-6.485-0.865c-1.989,1.506-2.906,4.004-3.723,6.362
				c-0.111-4.236-4.815-7.159-9.046-6.923c-4.23,0.237-7.975,2.694-11.445,5.124c-3.382,2.368-6.818,4.886-8.952,8.421
				c-1.992,3.299-2.579,7.728-0.628,10.986c-1.348-1.585-3.949-1.915-5.948-1.113c-2.256,0.907-3.902,2.856-5.403,4.769
				c-3.567,4.54-7.001,10.529-5.014,15.77c-2.287-5.118-5.195-10.347-10.243-12.676c-6.934-3.199-15.626,0.699-19.737,7.134
				c-4.111,6.435-4.469,14.613-3.329,22.163c1.181,7.824,4.34,16.046,11.058,20.143c-1.865-0.845-4.416,0.655-4.866,2.748
				c-0.489,2.279,0.952,4.622,2.896,5.908c1.944,1.286,4.304,1.741,6.594,2.171c-2.413-0.096-5.01,0.32-6.777,1.968
				c-1.766,1.648-2.231,4.81-0.44,6.431c-2.186-0.967-3.866-2.828-6.008-3.891c-2.142-1.061-5.292-0.928-6.306,1.237
				c-0.419,0.895-0.369,1.933-0.235,2.912c0.815,5.972,4.545,11.477,9.791,14.446c-1.547-0.398-3.209-0.338-4.721,0.175
				c0.259,1.707,1.82,3.124,3.544,3.218c-0.864,0.077-1.801,0.003-2.732-0.072c-2.122-0.169-4.211-0.339-5.333,1.292
				c-1.158,1.682-0.127,4.02,1.265,5.513c4.364,4.679,11.372,5.487,17.755,5.923c36.052,2.464,72.23,2.295,108.362,1.758
				c4.635-0.069,9.347-0.156,13.765-1.554c6.617-2.095,12.21-7.212,14.883-13.616c0.787-1.892,1.321-4.084,0.481-5.951
				c-0.741-1.647-2.961-2.635-4.461-1.846c1.235-0.975,2.288-2.18,3.085-3.536c-3.344-2.332-7.51-3.396-11.571-3.11
				c8.526-3.169,15.65-10.147,18.696-18.747c1.501-4.238,1.946-9.301-0.696-12.938c-2.337-3.219-7.735-4.053-10.387-1.44
				c1.075-2.198,0.261-5.275-1.713-6.901c-2.369-1.954-5.769-2.165-8.772-1.519c-3.768,0.81-7.264,2.844-9.829,5.72
				c2.65-4.285,5.515-8.539,6.937-13.373s1.166-10.478-2.013-14.387c-3.18-3.908-9.752-5.081-13.327-1.531
				c2.101-2.73,0.649-7.06-2.268-8.894s-6.688-1.672-10.007-0.745c-3.25,0.907-6.299,2.505-8.921,4.627
				c2.243-3.313,3.755-7.124,4.338-11.084c0.504-3.424-0.779-8.106-4.242-8.035c5.771-0.349,9.624-7.971,6.484-12.825
				c-1.488-2.3-4.186-3.423-6.9-3.423C181.258,27.466,178.227,28.85,176.814,31.544"/>
		</defs>
		<clipPath id="SVGID_11_">
			<use xlink:href="#SVGID_10_"  overflow="visible"/>
		</clipPath>
		
			<radialGradient id="SVGID_12_" cx="0" cy="180" r="1" gradientTransform="matrix(75.2303 0 0 -75.2303 146.9583 13665.2676)" gradientUnits="userSpaceOnUse">
			<stop  offset="0" style="stop-color:#4B5B25"/>
			<stop  offset="0.7738" style="stop-color:#6E7E35"/>
			<stop  offset="1" style="stop-color:#6E7E35"/>
		</radialGradient>
		<rect x="82.168" y="27.466" clip-path="url(#SVGID_11_)" fill="url(#SVGID_12_)" width="165.364" height="135.815"/>
	</g>
	<g clip-path="url(#SVGID_2_)">
		<defs>
			<path id="SVGID_13_" d="M176.814,31.544c-1.086-2.246-4.495-2.37-6.485-0.865c-1.989,1.506-2.906,4.004-3.723,6.362
				c-0.111-4.236-4.815-7.159-9.046-6.923c-4.23,0.237-7.975,2.694-11.445,5.124c-3.382,2.368-6.818,4.886-8.952,8.421
				c-1.992,3.299-2.579,7.728-0.628,10.986c-1.348-1.585-3.949-1.915-5.948-1.113c-2.256,0.907-3.902,2.856-5.403,4.769
				c-3.567,4.54-7.001,10.529-5.014,15.77c-2.287-5.118-5.195-10.347-10.243-12.676c-6.934-3.199-15.626,0.699-19.737,7.134
				c-4.111,6.435-4.469,14.613-3.329,22.163c1.181,7.824,4.34,16.046,11.058,20.143c-1.865-0.845-4.416,0.655-4.866,2.748
				c-0.489,2.279,0.952,4.622,2.896,5.908c1.944,1.286,4.304,1.741,6.594,2.171c-2.413-0.096-5.01,0.32-6.777,1.968
				c-1.766,1.648-2.231,4.81-0.44,6.431c-2.186-0.967-3.866-2.828-6.008-3.891c-2.142-1.061-5.292-0.928-6.306,1.237
				c-0.419,0.895-0.369,1.933-0.235,2.912c0.815,5.972,4.545,11.477,9.791,14.446c-1.547-0.398-3.209-0.338-4.721,0.175
				c0.259,1.707,1.82,3.124,3.544,3.218c-0.864,0.077-1.801,0.003-2.732-0.072c-2.122-0.169-4.211-0.339-5.333,1.292
				c-1.158,1.682-0.127,4.02,1.265,5.513c4.364,4.679,11.372,5.487,17.755,5.923c36.052,2.464,72.23,2.295,108.362,1.758
				c4.635-0.069,9.347-0.156,13.765-1.554c6.617-2.095,12.21-7.212,14.883-13.616c0.787-1.892,1.321-4.084,0.481-5.951
				c-0.741-1.647-2.961-2.635-4.461-1.846c1.235-0.975,2.288-2.18,3.085-3.536c-3.343-2.332-7.51-3.396-11.571-3.11
				c8.526-3.169,15.65-10.147,18.696-18.747c1.501-4.238,1.946-9.301-0.696-12.938c-2.337-3.219-7.735-4.053-10.387-1.44
				c1.075-2.198,0.261-5.275-1.713-6.901c-2.369-1.954-5.769-2.165-8.772-1.519c-3.768,0.81-7.264,2.844-9.829,5.72
				c2.65-4.285,5.515-8.539,6.937-13.373s1.166-10.478-2.013-14.387c-3.18-3.908-9.752-5.081-13.327-1.531
				c2.101-2.73,0.649-7.06-2.268-8.894s-6.688-1.672-10.007-0.745c-3.25,0.907-6.299,2.505-8.921,4.627
				c2.243-3.313,3.755-7.124,4.338-11.084c0.504-3.424-0.779-8.106-4.242-8.035c5.771-0.349,9.624-7.971,6.484-12.825
				c-1.488-2.3-4.186-3.423-6.9-3.423C181.258,27.466,178.227,28.85,176.814,31.544"/>
		</defs>
		<clipPath id="SVGID_14_">
			<use xlink:href="#SVGID_13_"  overflow="visible"/>
		</clipPath>
		<path clip-path="url(#SVGID_14_)" fill="#3D481E" d="M133.628,53.118c2.493,0.408,5.554,1.367,5.883,3.872
			c0.28,2.131-1.828,3.909-3.937,4.324c-2.189,0.432-4.555-0.149-6.295-1.545c-1.114-0.893-2.206-2.18-3.625-2.025
			c-0.266,0.029-0.539,0.11-0.796,0.034c-0.655-0.193-0.633-1.151-0.322-1.759c0.745-1.459,2.385-2.412,4.021-2.336"/>
		<path clip-path="url(#SVGID_14_)" fill="#3D481E" d="M136.996,43.054c0.972-1.677,2.475-3.04,4.237-3.846
			c0.389-0.177,0.798-0.33,1.225-0.351c2.541-0.122,3.585,4.101,6.128,4.05c1.667-0.033,2.633-1.937,2.833-3.593
			c0.731,1.184,2.708,0.878,3.523-0.249c0.815-1.128,0.774-2.648,0.588-4.027c0.372,0.503,1.115,0.646,1.697,0.413
			c0.581-0.233,0.999-0.778,1.191-1.374c0.36-1.109-0.001-2.358-0.7-3.291c-0.7-0.932-1.699-1.593-2.723-2.151
			c-2.589-1.413-5.589-2.293-8.495-1.792c-2.906,0.501-5.643,2.616-6.262,5.5"/>
		<path clip-path="url(#SVGID_14_)" fill="#3D481E" d="M85.322,78.681c1.029,1.56,2.754,2.643,4.606,2.891
			c-0.052-0.559-0.105-1.117-0.157-1.676c0.849,0.533,1.698,1.066,2.547,1.599c-0.557-0.887,0.495-2.1,1.538-2.018
			c1.044,0.082,1.841,0.983,2.304,1.922c-0.192-0.996-0.106-2.413,0.9-2.545c0.306-0.04,0.62,0.072,0.922,0.01
			c0.727-0.15,0.889-1.123,0.764-1.854c-0.124-0.731-0.345-1.574,0.131-2.144c0.528-0.149,1.056-0.297,1.584-0.446
			c-0.534-2.016-1.948-3.783-3.798-4.746c-0.931-0.486-2.179-1.168-1.897-2.18c0.58,0.111,1.194,0.027,1.723-0.235
			c-0.144-0.929,0.088-1.911,0.633-2.678c0.552,0.154,1.06,0.465,1.448,0.887c0.586-1.617,1.744-3.021,3.221-3.903
			c-3.576-3.64-9.734-4.382-14.073-1.696c-4.338,2.687-6.419,8.53-4.753,13.354"/>
		<path clip-path="url(#SVGID_14_)" fill="#3D481E" d="M146.949,41.229c-1.435-0.971-3.286-1.301-4.968-0.887
			c1.613,1.344,3.667,2.149,5.763,2.259c0.138,0.007,0.287,0.009,0.403-0.067c0.39-0.251-0.028-0.833-0.424-1.074"/>
		<path clip-path="url(#SVGID_14_)" fill="#3D481E" d="M222.518,76.313c-0.206-2.314-1.285-4.54-2.975-6.136
			c-1.207,1.77-2.414,3.54-3.621,5.311c0.473-1.847,0.174-3.877-0.807-5.51c-1.568,1.721-2.72,3.819-3.331,6.066
			c-0.145-1.794-0.297-3.619-0.968-5.288c-0.198-0.494-0.461-0.993-0.908-1.281c-0.448-0.288-1.123-0.28-1.444,0.144
			c0.589,0.847,0.842,1.924,0.69,2.945c-0.637-1.163-1.438-2.236-2.374-3.176c-0.271-0.272-0.578-0.546-0.958-0.603
			c-1.034-0.155-1.525,1.22-1.622,2.26c-0.063-1.722-0.192-3.488-0.919-5.051c-0.726-1.563-2.176-2.898-3.896-3.017
			c2.896-0.104,5.792-0.208,8.688-0.312c2.138-0.077,4.344-0.144,6.344,0.616c2.579,0.98,4.459,3.188,6.223,5.311"/>
		<path clip-path="url(#SVGID_14_)" fill="#606C2A" d="M120.532,74.264c-2.162-7.357-9.825-15.943-18.276-14.692
			c-1.091,0.162-0.828,1.655,0,1.958c3.636,1.334,6.854,2.728,9.664,5.495c2.607,2.569,4.599,5.53,7.36,7.968
			C119.816,75.467,120.754,75.021,120.532,74.264"/>
		<path clip-path="url(#SVGID_14_)" fill="#606C2A" d="M97.958,64.891c-0.821-0.44-1.623,0.594-0.989,1.281
			c1.604,1.739,3.503,3.332,2.788,5.917c-0.528,1.912,2.254,2.607,2.926,0.806C103.988,69.393,100.719,66.37,97.958,64.891"/>
		<path clip-path="url(#SVGID_14_)" fill="#525B22" d="M127.251,57.948c-0.22-0.22-0.502-0.35-0.797-0.397
			c-0.686-1.131-2.77-0.447-2.673,0.903c0.096,1.321-2.118,3.831-2.726,4.873c-0.863,1.482-1.783,2.82-2.113,4.522
			c-0.591,3.051,0.36,6.789,1.307,9.671c0.219,0.669,1.237,0.398,1.06-0.293c-0.997-3.899,0.236-9.955,2.771-13.226
			c1.007-1.299,2.114-2.248,2.598-3.405c0.189-0.198,0.377-0.397,0.573-0.588C127.815,59.46,127.802,58.499,127.251,57.948"/>
	</g>
	<g clip-path="url(#SVGID_2_)">
		<defs>
			<rect id="SVGID_15_" width="300" height="180"/>
		</defs>
		<clipPath id="SVGID_16_">
			<use xlink:href="#SVGID_15_"  overflow="visible"/>
		</clipPath>
		<g opacity="0.62" clip-path="url(#SVGID_16_)">
			<g>
				<defs>
					<rect id="SVGID_17_" x="101.274" y="57.797" width="115.96" height="91.026"/>
				</defs>
				<clipPath id="SVGID_18_">
					<use xlink:href="#SVGID_17_"  overflow="visible"/>
				</clipPath>
				<path clip-path="url(#SVGID_18_)" fill="#3D481E" d="M179.202,134.906c0.015-0.311,0.005-0.661-0.219-0.878
					c-0.315-0.306-0.835-0.162-1.244,0.001c-1.731,0.693-3.465,1.385-5.196,2.077c1.21-3.711,4.244-6.778,7.943-8.026
					c-2.992-1.442-6.555-1.656-9.697-0.583c1.396-3.024,4.736-5.038,8.064-4.858c-0.276-4.376-2.923-8.53-6.772-10.628
					c3.348,0.625,6.483,2.339,8.816,4.82c-0.274-2.612-0.301-5.252-0.078-7.87c1.286,0.735,2.485,1.62,3.566,2.632
					c1.674-3.636,4.625-6.667,8.213-8.44c0.052,3.048,0.103,6.095,0.155,9.142c2.918-3.559,8.246-4.9,12.502-3.146
					c0.357,0.146,0.732,0.336,0.911,0.68c0.332,0.641-0.179,1.377-0.658,1.916c-1.003,1.127-2.007,2.254-3.01,3.381
					c-0.456,0.512-0.932,1.267-0.523,1.816c0.306,0.412,0.914,0.407,1.424,0.35c2.564-0.289,5.132-0.874,7.699-0.606
					c2.568,0.268,5.233,1.626,6.136,4.044c-3.688,0.391-7.33,1.201-10.836,2.41c1.685,0.507,3.367,1.014,5.05,1.521
					c0.49,0.148,1.065,0.39,1.142,0.896c0.061,0.408-0.247,0.771-0.533,1.069l-3.794,3.961c1.44-0.07,3.087,0.229,3.866,1.443
					s-0.278,3.313-1.656,2.885c1.996,1.208,4.226,2.792,4.322,5.124c-3.393-2.527-7.562-3.996-11.788-4.15
					c1.689,1.037,3.123,2.49,4.135,4.194c-1.974-2.107-5.137-3.021-7.932-2.291c1.327,1.523,2.197,3.44,2.471,5.443
					c-2.03-2.905-4.979-5.158-8.313-6.354c0.892,2.479,1.381,5.102,1.443,7.733c-1.171-3.022-3.328-5.655-6.062-7.396
					c-0.304-0.193-0.66-0.383-1.005-0.28c-0.338,0.1-0.533,0.444-0.686,0.762c-1.082,2.279-1.616,4.816-1.544,7.338
					c-0.108-1.591-0.506-3.163-1.168-4.613c-0.335,2.801-0.671,5.601-1.006,8.401c-1.125-3.006-1.518-6.284-1.134-9.471
					c0.056-0.467,0.124-0.967-0.089-1.388c-0.344-0.685-1.31-0.841-2.012-0.535c-0.703,0.305-1.2,0.937-1.667,1.543
					C178.882,137.661,179.139,136.288,179.202,134.906"/>
				<path clip-path="url(#SVGID_18_)" fill="#3D481E" d="M169.704,74.347c0.64-0.782,1.683-1.091,2.5-1.687
					c0.815-0.596,1.383-1.856,0.679-2.581c-0.256-0.265-0.623-0.386-0.978-0.488c-2.198-0.636-4.507-0.889-6.789-0.745
					c-0.724-4.5-3.468-8.635-7.332-11.049c0.069,2.74,0.911,5.457,2.401,7.757c-1.012-2.152-2.94-3.854-5.201-4.59l1.517,6.752
					c-1.985-2.17-4.563-3.886-7.453-4.432c-2.89-0.546-6.092,0.202-8.157,2.296c-0.473,0.479-0.906,1.101-0.814,1.768
					c0.098,0.721,0.761,1.21,1.367,1.613c1.905,1.266,3.81,2.533,5.715,3.799c-2.099-1.375-4.714-1.939-7.193-1.551
					c-0.541,0.085-1.185,0.327-1.252,0.87c-0.044,0.356,0.192,0.68,0.415,0.961c0.665,0.838,1.33,1.676,1.995,2.514l-3.865-0.666
					c-0.696-0.12-1.597-0.143-1.903,0.495c-0.225,0.471,0.035,1.02,0.29,1.476c1.058,1.891,2.116,3.782,3.174,5.673
					c-0.887,0.743-2.2,0.475-3.352,0.585c-2.367,0.227-4.36,2.474-4.302,4.852c0.057,2.377,2.157,4.525,4.532,4.637
					c-2.732,0.682-5.039,2.864-5.872,5.554c-0.214,0.689-0.329,1.464-0.01,2.111c0.755,1.529,3.014,1.144,4.603,0.526
					c4.766-1.854,9.533-3.708,14.299-5.563c-1.557,1.652-2.562,3.816-2.819,6.071c4.008-1.291,7.506-4.102,9.63-7.737
					c-0.08,0.972-0.159,1.945-0.239,2.917c1.148-1.131,2.151-2.41,2.976-3.795c1.113,3.907,2.589,7.71,4.403,11.345
					c0.87-2.681,1.28-5.511,1.205-8.329c0.895,1.198,2.68,1.625,4.021,0.963c1.342-0.661,2.086-2.34,1.68-3.777
					c4.494,2.34,10.177,2.221,14.569-0.305c0.393-0.227,0.823-0.558,0.797-1.01c-0.016-0.286-0.217-0.522-0.411-0.733
					c-2.987-3.21-7.033-5.416-11.349-6.188c1.611,0.163,3.281,0.321,4.817-0.194s2.906-1.898,2.864-3.517
					c-0.021-0.768-0.35-1.499-0.775-2.139C177.921,75.557,173.603,74.606,169.704,74.347"/>
				<path clip-path="url(#SVGID_18_)" fill="#3D481E" d="M143.468,139.356c-4.915,0.727-10.101-0.593-14.072-3.58
					c0.993,3.005,2.075,5.98,3.247,8.919c-1.435-0.641-2.87-1.282-4.305-1.924c-0.769-0.344-1.644-0.69-2.424-0.376
					c-0.78,0.316-1.044,1.653-0.252,1.937c-2.725-1.464-6.583-0.031-7.693,2.855c0.146-1.743-1.079-3.376-2.614-4.214
					c-1.535-0.839-0.684-0.583-2.22-1.421c-2.836-1.547-5.93-2.063-11.861,0.516c3.764-4.746,3.073-5.04,8.941-6.541
					c-1.886-1.565-4.041-2.808-6.342-3.653c0.455-1.388,1.906-2.256,3.352-2.455c1.446-0.2,2.907,0.143,4.327,0.481
					c-1.571-0.408-2.579-2.284-2.052-3.818c0.526-1.534,2.474-2.397,3.964-1.756c-0.781-2.155-1.393-4.374-1.826-6.626
					c-0.17-0.884-0.312-1.807-0.079-2.677c0.733-2.741,4.82-3.188,7.033-1.413c2.213,1.776,2.994,4.747,3.648,7.508
					c0.052-1.018,0.158-2.154,0.928-2.822s2.359-0.215,2.227,0.796c3.78-4.095,10.553-5.004,15.279-2.051
					c-1.058,1.037-2.32,1.868-3.692,2.43c3.126-0.19,6.31,0.751,8.831,2.609c-1.787,1.364-3.926,2.264-6.151,2.587
					c2.863,0.817,5.765,1.849,7.97,3.85s3.567,5.189,2.649,8.021c-3.324-2.309-7.311-3.652-11.354-3.828
					c2.212,1.218,4.044,3.115,5.183,5.371c0.144,0.284,0.276,0.633,0.115,0.907C144.08,139.24,143.756,139.313,143.468,139.356"/>
			</g>
		</g>
		<path clip-path="url(#SVGID_16_)" fill="#FFFFFF" d="M136.341,124.793c-0.917-2.11-1.809-3.115-3.88-4.119
			c-1.185-0.574-2.67-0.88-3.771-0.155c-1.282,0.843-1.449,2.666-1.183,4.177c0.44,2.496,1.716,4.838,3.576,6.561
			c0.628,0.582,1.364,1.114,2.215,1.222c1.447,0.181,2.798-0.961,3.349-2.313c0.551-1.35,0.281-1.079,0.21-2.536"/>
		<path clip-path="url(#SVGID_16_)" fill="#FFFFFF" d="M125.21,133.727c-0.594-1.707-1.611-3.265-2.935-4.494
			c-0.799-0.743-1.742-1.381-2.813-1.59c-1.071-0.208-2.286,0.084-2.975,0.93c-0.573,0.705-0.709,1.668-0.704,2.577
			c0.013,2.147,0.713,4.287,1.973,6.027c1.191,1.646,3.219,3.002,5.168,2.431c2.088-0.613,3.03-3.306,2.301-5.355"/>
		<path clip-path="url(#SVGID_16_)" fill="#FFFFFF" d="M146.674,92.474c0.699,0.273,1.473,0.411,2.204,0.242
			c0.801-0.184,1.487-0.723,1.981-1.379c1.538-2.037,1.265-4.905,0.554-7.356c-0.427-1.471-1.015-2.951-2.105-4.028
			c-1.091-1.076-2.787-1.657-4.202-1.07c-1.491,0.618-2.25,2.287-2.578,3.867c-0.39,1.877-0.364,3.872,0.313,5.665
			C143.518,90.208,144.889,91.776,146.674,92.474"/>
		<path clip-path="url(#SVGID_16_)" fill="#FFFFFF" d="M169.163,87.593c1.685-3.875,0.314-8.838-3.119-11.3
			c-0.521-0.374-1.09-0.697-1.713-0.848c-1.954-0.472-3.999,0.937-4.812,2.776s-0.639,3.965-0.186,5.924
			c0.431,1.863,1.148,3.742,2.552,5.042c1.403,1.299,3.63,1.855,5.279,0.888C168.098,89.529,168.732,88.584,169.163,87.593"/>
		<path clip-path="url(#SVGID_16_)" fill="#FFFFFF" d="M183.48,130.764c0.752,1.666,2.793,2.531,4.589,2.192
			s3.291-1.707,4.091-3.351c0.801-1.643,0.976-3.531,0.839-5.354c-0.154-2.033-0.885-4.292-2.739-5.139
			c-1.966-0.898-4.386,0.29-5.566,2.101c-1.18,1.812-1.416,4.062-1.556,6.219C183.063,128.558,183.017,129.736,183.48,130.764"/>
		<path clip-path="url(#SVGID_16_)" fill="#FFFFFF" d="M204.78,127.5c0.103-1.326-0.005-2.701-0.57-3.906
			c-0.563-1.206-1.64-2.221-2.946-2.473c-1.66-0.32-3.367,0.646-4.365,2.012c-0.998,1.364-1.414,3.063-1.709,4.728
			c-0.289,1.629-0.479,3.333,0.005,4.916c0.483,1.582,1.793,3.015,3.44,3.169c2.045,0.19,3.763-1.56,4.706-3.384
			C204.151,130.993,204.645,129.261,204.78,127.5"/>
		<path clip-path="url(#SVGID_16_)" fill="#E5B47F" d="M127.772,46.946c0.909,1.643,2.564,2.854,4.405,3.224
			c1.242,0.249,2.53,0.131,3.786,0.301s2.579,0.725,3.138,1.863c0.788,1.601-0.314,3.545-1.754,4.6
			c-2.067,1.514-4.894,1.928-7.307,1.07c-2.414-0.858-4.346-2.963-4.994-5.442"/>
	</g>
	<g clip-path="url(#SVGID_2_)">
		<defs>
			<path id="SVGID_19_" d="M125.046,52.562c0.648,2.478,2.579,4.584,4.993,5.442s5.241,0.444,7.308-1.07
				c1.439-1.055,2.542-2.999,1.754-4.6c-0.56-1.137-1.883-1.693-3.138-1.863c-1.256-0.17-2.544-0.052-3.786-0.301
				c-1.842-0.37-3.496-1.581-4.405-3.224L125.046,52.562z"/>
		</defs>
		<clipPath id="SVGID_20_">
			<use xlink:href="#SVGID_19_"  overflow="visible"/>
		</clipPath>
		<path clip-path="url(#SVGID_20_)" fill="#DCA36A" d="M124.466,54.672c2.541,4.599,7.496,7.06,12.541,4.851
			c2.209-0.967,4.071-2.739,4.843-5.063c1.039-3.129-0.433-4.937-2.232-7.281c-1.747-2.275-5.595-0.27-3.98,2.327
			c0.762,1.226,1.744,1.904,1.529,3.355c-0.253,1.703-1.868,2.725-3.453,3.103c-2.897,0.691-5.997-0.558-8.297-2.243
			C124.825,53.288,124.155,54.109,124.466,54.672"/>
		<path clip-path="url(#SVGID_20_)" fill="#DCA36A" d="M128.846,56.857c-1.651-1.363-3-2.957-3.992-4.856
			c-0.71-1.359-2.86-0.121-2.064,1.206c1.239,2.067,2.928,3.793,5.024,4.987C128.624,58.656,129.615,57.491,128.846,56.857"/>
		<path clip-path="url(#SVGID_20_)" fill="#DCA36A" d="M130.259,57.914c-2.524-2.048-4.551-4.441-6.002-7.358
			c-0.705-1.416-2.873-0.165-2.132,1.246c1.637,3.117,3.929,5.799,6.809,7.83C129.938,60.34,131.226,58.698,130.259,57.914"/>
		<path clip-path="url(#SVGID_20_)" fill="#DCA36A" d="M128.871,52.586c-0.752-1.047-3.023-2.749-3.883-0.92
			c-0.779,1.655-0.067,3.72,1.155,4.939c0.553,0.551,1.419-0.315,0.856-0.856c-0.759-0.73-1.225-1.726-1.213-2.791
			c0.007-0.622,0.065-1.133,0.795-1.012c0.619,0.101,1.283,0.677,1.701,1.094C128.572,53.331,129.125,52.941,128.871,52.586"/>
		<path clip-path="url(#SVGID_20_)" fill="#DCA36A" d="M139.037,52.618c-0.718-2.023-2.537-2.465-4.397-3.135
			c-3.04-1.094-5.493-2.913-7.305-5.601c-0.641-0.951-2.181-0.075-1.552,0.907c1.195,1.865,2.707,3.45,4.593,4.632
			c0.873,0.547,1.82,1.001,2.797,1.331c1.789,0.606,3.904,0.445,5.114,2.182C138.535,53.289,139.203,53.086,139.037,52.618"/>
		<path clip-path="url(#SVGID_20_)" fill="#DCA36A" d="M137.758,50.929c-3.68-0.412-6.897-1.751-9.64-4.29
			c-0.722-0.669-1.778,0.377-1.083,1.082c2.793,2.836,6.724,4.391,10.723,3.903C138.202,51.57,138.208,50.979,137.758,50.929"/>
	</g>
	<g clip-path="url(#SVGID_2_)">
		<defs>
			<rect id="SVGID_21_" width="300" height="180"/>
		</defs>
		<clipPath id="SVGID_22_">
			<use xlink:href="#SVGID_21_"  overflow="visible"/>
		</clipPath>
		<path clip-path="url(#SVGID_22_)" fill="#FFFFFF" d="M120.615,52.96c0.503-0.864,0.572-1.919,0.446-2.911
			c-0.147-1.156-0.542-2.279-1.151-3.272c-0.815-1.327-1.989-2.396-3.234-3.331c-1.252-0.94-2.731-1.798-4.287-1.619
			c-2.283,0.262-3.787,2.812-3.552,5.097c0.235,2.285,1.778,4.238,3.543,5.709c1.205,1.004,2.598,1.872,4.154,2.076
			C118.089,54.913,119.826,54.316,120.615,52.96"/>
		<path clip-path="url(#SVGID_22_)" fill="#FFFFFF" d="M122.372,33.877c-1.646,1.873-1.535,4.86-0.216,6.976
			c1.32,2.116,3.604,3.463,5.963,4.271c0.795,0.272,1.634,0.494,2.468,0.395c1.572-0.187,2.84-1.535,3.271-3.057
			c0.432-1.523,0.148-3.17-0.422-4.646c-0.848-2.194-2.41-4.202-4.571-5.133C126.705,31.752,123.926,32.11,122.372,33.877"/>
		<path clip-path="url(#SVGID_22_)" fill="#E5B47F" d="M91.32,78.878c-0.449,0.019-0.896-0.084-1.316-0.246
			c-2.109-0.815-3.383-3.051-3.765-5.28c-0.586-3.425,0.646-7.109,3.175-9.492c2.53-2.383,6.28-3.394,9.665-2.604
			c-0.861,0.566-1.664,1.279-2.105,2.21c-0.44,0.932-0.453,2.114,0.171,2.935c0.68,0.895,1.911,1.168,2.747,1.92
			c1.046,0.94,1.293,2.65,0.556,3.848c-0.736,1.199-2.374,1.75-3.685,1.241c1.124,0.267,1.694,1.724,1.226,2.781
			c-0.468,1.056-1.717,1.627-2.868,1.523c-1.151-0.103-2.19-0.775-2.977-1.621c0.718,0.09,1.144,0.987,0.894,1.667
			S92.044,78.848,91.32,78.878"/>
	</g>
	<g clip-path="url(#SVGID_2_)">
		<defs>
			<path id="SVGID_23_" d="M89.415,63.86c-2.529,2.384-3.762,6.067-3.175,9.493c0.381,2.229,1.655,4.465,3.765,5.279
				c0.419,0.162,0.866,0.265,1.315,0.246c0.724-0.03,1.468-0.438,1.718-1.118c0.103-0.28,0.092-0.597-0.008-0.879
				c0.622,0.45,1.332,0.765,2.091,0.833c1.151,0.104,2.4-0.466,2.868-1.524c0.431-0.973-0.018-2.285-0.97-2.695
				c1.262,0.351,2.74-0.204,3.43-1.326c0.737-1.198,0.49-2.908-0.556-3.848c-0.836-0.752-2.067-1.025-2.748-1.92
				c-0.624-0.821-0.61-2.003-0.17-2.935c0.44-0.931,1.243-1.644,2.104-2.21c-0.762-0.178-1.543-0.264-2.325-0.264
				C94.067,60.992,91.374,62.014,89.415,63.86"/>
		</defs>
		<clipPath id="SVGID_24_">
			<use xlink:href="#SVGID_23_"  overflow="visible"/>
		</clipPath>
		<path clip-path="url(#SVGID_24_)" fill="#D98D4F" d="M83.986,70.398c0.184,2.778,1.462,5.409,3.374,7.415
			c1.688,1.772,4.639,2.9,6.543,0.78c1.019-1.134-0.496-2.579-1.646-1.646c-2.956,2.398-6.39-4.785-7.166-6.699
			C84.875,69.713,83.94,69.707,83.986,70.398"/>
		<path clip-path="url(#SVGID_24_)" fill="#D98D4F" d="M88.681,71.548c1.17,2.342,2.782,5.774,5.403,6.787
			c2.537,0.98,5.2-0.411,5.418-3.179c0.09-1.144-1.861-1.429-2.026-0.274c-0.394,2.755-3.727,1.644-5.104,0.429
			c-1.257-1.11-2.208-2.701-3.219-4.039C88.943,70.996,88.52,71.226,88.681,71.548"/>
		<path clip-path="url(#SVGID_24_)" fill="#D98D4F" d="M91.313,66.424c0.328,3.355,2.516,7.316,6.073,8.078
			c3.795,0.813,5.93-3.268,4.784-6.456c-0.479-1.335-2.544-0.812-2.154,0.594c0.807,2.912-1.518,4.876-4.17,3.253
			c-1.993-1.22-3.091-3.415-3.727-5.578C91.994,65.89,91.266,65.947,91.313,66.424"/>
		<path clip-path="url(#SVGID_24_)" fill="#D98D4F" d="M100.858,61.252c-2.132-0.255-5.489-0.725-5.592,2.371
			c-0.085,2.55,2.82,4.188,4.949,4.711c1.361,0.334,1.932-1.72,0.579-2.102c-0.958-0.271-3.465-1.272-3.316-2.609
			c0.081-0.717,1.218-0.649,1.748-0.746c0.689-0.125,1.275-0.342,1.886-0.686C101.588,61.923,101.319,61.307,100.858,61.252"/>
		<path clip-path="url(#SVGID_24_)" fill="#D98D4F" d="M95.634,73.603c0.995,0.736,1.53,1.929,1.098,3.135
			c-0.338,0.945,1.236,1.397,1.514,0.417c0.5-1.757-0.374-3.927-2.248-4.416C95.45,72.596,95.22,73.297,95.634,73.603"/>
	</g>
	<g clip-path="url(#SVGID_2_)">
		<defs>
			<rect id="SVGID_25_" width="300" height="180"/>
		</defs>
		<clipPath id="SVGID_26_">
			<use xlink:href="#SVGID_25_"  overflow="visible"/>
		</clipPath>
		<path clip-path="url(#SVGID_26_)" fill="#E5B47F" d="M141.62,37.555c-0.161-3.651,1.651-7.378,4.742-9.328
			c3.09-1.951,7.365-1.936,10.326,0.206c1.226,0.887,2.27,2.269,2.128,3.775c-0.141,1.506-1.987,2.766-3.24,1.918
			c0.615,1.087,0.652,2.552-0.129,3.526c-0.782,0.973-2.438,1.189-3.295,0.282c0.339,1.503-0.263,3.177-1.48,4.121
			c-0.258,0.2-0.55,0.373-0.873,0.423c-0.896,0.14-1.663-0.689-1.99-1.535c-0.327-0.847-0.411-1.794-0.896-2.561
			c-1.027-1.625-3.706-1.062-5.059,0.195"/>
	</g>
	<g clip-path="url(#SVGID_2_)">
		<defs>
			<path id="SVGID_27_" d="M146.362,28.227c-3.091,1.95-4.903,5.677-4.743,9.328l0.234,1.022c1.353-1.258,4.032-1.82,5.059-0.195
				c0.485,0.767,0.569,1.715,0.896,2.561c0.327,0.846,1.094,1.675,1.99,1.535c0.323-0.05,0.614-0.223,0.873-0.423
				c1.217-0.944,1.819-2.619,1.48-4.121c0.856,0.907,2.513,0.691,3.294-0.282c0.781-0.974,0.745-2.439,0.13-3.526
				c1.253,0.848,3.099-0.412,3.241-1.918c0.141-1.505-0.903-2.889-2.13-3.775c-1.52-1.1-3.386-1.639-5.261-1.639
				C149.649,26.794,147.865,27.278,146.362,28.227"/>
		</defs>
		<clipPath id="SVGID_28_">
			<use xlink:href="#SVGID_27_"  overflow="visible"/>
		</clipPath>
		<path clip-path="url(#SVGID_28_)" fill="#D98D4F" d="M142.634,40.754c0.646-0.437,1.601-1.324,2.253-0.819
			c0.62,0.48,0.827,2.134,1.162,2.834c1.044,2.178,3.132,3.405,5.538,2.799c2.254-0.568,1.858-4.398-0.563-4.159
			c-0.792,0.079-0.959-0.058-1.314-0.78c-0.322-0.656-0.5-1.381-0.828-2.039c-0.584-1.172-1.508-2.275-2.789-2.701
			c-2.747-0.911-5.572,1.532-4.778,4.328C141.464,40.745,142.145,41.085,142.634,40.754"/>
		<path clip-path="url(#SVGID_28_)" fill="#D98D4F" d="M146.02,32.143c1.829,0.013,3.393,0.903,4.272,2.521
			c0.572,1.052,0.798,2.272,1.529,3.242c0.985,1.306,2.652,1.942,4.093,0.957c0.982-0.673,0.044-2.291-0.939-1.606
			c-1.519,1.058-2.374-1.841-2.856-2.632c-0.49-0.803-1.12-1.549-1.835-2.16c-1.295-1.108-2.713-1.533-4.361-1.043
			C145.528,31.539,145.6,32.14,146.02,32.143"/>
		<path clip-path="url(#SVGID_28_)" fill="#D98D4F" d="M148.605,29.232c1.783-0.167,3.518,0.274,4.733,1.675
			c0.845,0.975,1.155,2.277,2.01,3.233c1.48,1.654,3.33,0.996,4.826-0.26c1.058-0.888-0.479-2.44-1.525-1.525
			c-1.975,1.73-2.683-0.504-3.53-1.55c-0.529-0.652-1.16-1.249-1.88-1.691c-1.5-0.922-3.062-0.926-4.713-0.473
			C148.209,28.728,148.258,29.264,148.605,29.232"/>
	</g>
	<g clip-path="url(#SVGID_2_)">
		<defs>
			<rect id="SVGID_29_" width="300" height="180"/>
		</defs>
		<clipPath id="SVGID_30_">
			<use xlink:href="#SVGID_29_"  overflow="visible"/>
		</clipPath>
		<path clip-path="url(#SVGID_30_)" d="M119.517,48.923c0,1.068-0.693,1.934-1.547,1.934s-1.547-0.866-1.547-1.934
			c0-1.068,0.693-1.934,1.547-1.934S119.517,47.854,119.517,48.923"/>
		<path clip-path="url(#SVGID_30_)" d="M132.667,39.834c0,1.068-0.693,1.934-1.547,1.934s-1.547-0.866-1.547-1.934
			c0-1.068,0.693-1.934,1.547-1.934S132.667,38.766,132.667,39.834"/>
		<path clip-path="url(#SVGID_30_)" d="M119.13,131.304c0,0.961-0.476,1.74-1.064,1.74c-0.587,0-1.063-0.779-1.063-1.74
			s0.476-1.74,1.063-1.74C118.654,129.563,119.13,130.343,119.13,131.304"/>
		<path clip-path="url(#SVGID_30_)" d="M130.926,124.632c0,0.908-0.519,1.645-1.16,1.645s-1.161-0.736-1.161-1.645
			s0.52-1.644,1.161-1.644S130.926,123.724,130.926,124.632"/>
		<path clip-path="url(#SVGID_30_)" d="M168.83,83.828c0,1.121-0.52,2.031-1.16,2.031c-0.642,0-1.161-0.91-1.161-2.031
			c0-1.121,0.52-2.031,1.161-2.031C168.311,81.797,168.83,82.708,168.83,83.828"/>
		<path clip-path="url(#SVGID_30_)" d="M151.425,85.956c0,1.121-0.519,2.031-1.159,2.031c-0.642,0-1.162-0.91-1.162-2.031
			s0.52-2.031,1.162-2.031C150.906,83.924,151.425,84.834,151.425,85.956"/>
		<path clip-path="url(#SVGID_30_)" d="M202.284,123.762c0,0.961-0.519,1.74-1.159,1.74c-0.642,0-1.161-0.779-1.161-1.74
			s0.52-1.74,1.161-1.74C201.766,122.021,202.284,122.801,202.284,123.762"/>
		<path clip-path="url(#SVGID_30_)" d="M190.682,122.021c0,1.068-0.476,1.934-1.064,1.934c-0.587,0-1.063-0.865-1.063-1.934
			s0.476-1.934,1.063-1.934C190.206,120.088,190.682,120.953,190.682,122.021"/>
		<path clip-path="url(#SVGID_30_)" fill="#DB923C" d="M214.168,68.077c1.342,1.392,1.559,3.732,0.496,5.347
			c1.132-0.716,1.889-1.993,1.976-3.33c0.966,1.149,1.36,2.754,1.039,4.22c0.627-1.096,1.255-2.191,1.882-3.286
			c0.799,1.053,0.932,2.568,0.329,3.744c1.505-0.958,1.333-3.412,0.047-4.648c-1.285-1.236-3.219-1.505-5.002-1.448
			c0.922-0.002,1.843-0.003,2.764-0.004c-1.511,0.476-3.267,0.062-4.405-1.038"/>
		<path clip-path="url(#SVGID_30_)" fill="#DB923C" d="M210.246,65.857c-1.199-0.802-2.475-1.63-3.914-1.715
			c-1.44-0.085-3.049,0.891-3.104,2.332c-0.026,0.693,0.296,1.345,0.611,1.962c0.068-0.899,0.519-1.763,1.218-2.333
			c-0.404,1.362,0.039,2.94,1.098,3.889c-0.127-1.26,0.222-2.562,0.964-3.588c-0.019,1.769,0.598,3.538,1.711,4.914
			c-0.133-1.068-0.263-2.178,0.07-3.202c0.335-1.023,1.271-1.935,2.347-1.871l-3.05-1.212"/>
		<path clip-path="url(#SVGID_30_)" fill="#00467C" d="M204.162,48.812c0.092,1.955,0.58,3.891,1.425,5.657
			c-0.024-1.123,0.021-2.248,0.137-3.365c-0.04,2.088,1.266,3.958,2.706,5.468c1.442,1.511,3.105,2.871,4.099,4.708
			c0.994,1.836,1.111,4.376-0.41,5.805c-4.155-0.048-7.98-2.913-9.789-6.654c-1.809-3.741-1.784-8.189-0.58-12.166
			c0.04,2.197,0.745,4.378,1.998,6.184C203.469,52.57,203.612,50.63,204.162,48.812"/>
		<path clip-path="url(#SVGID_30_)" fill="#4A80A5" d="M208.74,51.413c-1.356,2.263-2.73,4.572-3.336,7.139
			c-0.437,1.848-0.432,3.889,0.504,5.542c1.382,2.439,4.34,3.415,7.034,4.189c3.103,0.893,6.568,1.757,9.439,0.279
			c2.303-1.184,3.703-3.718,4.02-6.287c0.315-2.569-0.323-5.17-1.271-7.579c-1.29-3.278-3.164-6.326-5.507-8.956
			c-1.299-1.456-3.16-2.895-5.019-2.303c-1.275,0.407-2.069,1.642-2.757,2.789C210.813,47.955,209.776,49.684,208.74,51.413"/>
		<path clip-path="url(#SVGID_30_)" fill="#7299AE" d="M211.813,45.992c0.286,0.857,0.619,1.718,1.217,2.427
			c1.671,1.978,5.099,2.2,7.584,1.017c2.487-1.184,4.149-3.44,5.266-5.765c0.6-1.252,1.08-2.646,0.691-3.945
			c-0.253-0.845-0.854-1.566-1.519-2.196c-2.416-2.29-5.888-3.643-9.429-3.674c-1.345-0.012-2.783,0.195-3.803,1.005
			c-1.541,1.224-1.597,3.336-1.369,5.152C210.707,42.041,211.162,44.044,211.813,45.992"/>
		<path clip-path="url(#SVGID_30_)" fill="#FAF1D7" d="M221.264,47.062c0.982,0.677,2.415,1.324,3.241,0.463
			c0.542-0.565,0.452-1.476,0.228-2.227c-0.334-1.115-0.89-2.164-1.622-3.068c-0.509-0.627-1.177-1.219-1.984-1.263
			c-1.333-0.073-2.293,1.459-2.148,2.786c0.144,1.327,1.024,2.441,1.871,3.474c0.197,0.243,0.415,0.497,0.714,0.588
			c0.3,0.09,0.695-0.074,0.725-0.386"/>
		<path clip-path="url(#SVGID_30_)" fill="#FAF1D7" d="M215.77,33.94c-1.176-0.941-2.857-1.904-4.055-0.992
			c-1.161,0.883-0.744,2.734,0.007,3.985c0.706,1.174,1.699,2.288,3.03,2.615c1.33,0.327,2.98-0.473,3.132-1.835
			c0.066-0.607-0.16-1.208-0.441-1.751c-0.665-1.281-1.659-2.389-2.86-3.187"/>
		<path clip-path="url(#SVGID_30_)" fill="#DB923C" d="M211.789,41.709c0.095,0.063,0.178-0.134,0.087-0.203
			c-0.09-0.068-0.219-0.028-0.324,0.015c-2.683,1.08-5.367,2.16-8.05,3.24c3.421,1.165,7.055,1.7,10.667,1.569
			c1.02-1.482,0.247-3.845-1.451-4.438c-0.518-0.181-1.257-0.513-1.032-1.014"/>
		<path clip-path="url(#SVGID_30_)" fill="#00709F" d="M225.459,36.902c2.198,0.476,3.83,2.79,3.541,5.021
			c-0.793-0.917-1.616-1.857-2.7-2.399c-1.635-0.816-3.632-0.61-5.281-1.397c-2.817-1.345-3.597-5.296-2.283-8.128
			c1.313-2.832,4.128-4.674,7.002-5.896c-1.206,1.275-2.429,2.572-3.23,4.133c-0.802,1.56-1.143,3.448-0.501,5.081
			c-0.127-1.686,1.334-3.16,2.955-3.64s3.356-0.205,5.024,0.073c-2.4,0.659-4.53,2.253-5.843,4.37
			c2.669-0.226,5.406,0.46,7.652,1.919C229.692,35.387,227.31,35.711,225.459,36.902"/>
		<path clip-path="url(#SVGID_30_)" d="M220.851,43.407c-0.375-0.589-1.468-0.214-1.51,0.483c-0.044,0.746,1.029,1.259,1.582,0.755
			c0.552-0.503,0.139-1.62-0.607-1.644"/>
		<path clip-path="url(#SVGID_30_)" d="M213.743,35.832c0.031-0.327-0.358-0.549-0.687-0.532c-0.709,0.036-1.247,0.876-0.983,1.535
			c0.264,0.659,1.231,0.897,1.771,0.435s0.451-1.455-0.16-1.816"/>
		<path clip-path="url(#SVGID_30_)" fill="#7B5D43" d="M116.357,28.98c0.7-1.028,2.029-1.207,3.155-1.005
			c1.33,0.239,2.592,0.89,3.608,1.861c-0.873-0.229-1.759-0.459-2.66-0.416c-0.901,0.043-1.835,0.396-2.437,1.158
			c-0.584,0.74-0.787,1.774-0.734,2.746c0.052,0.971,0.333,1.901,0.612,2.817c-0.964-1.179-1.634-2.656-1.918-4.232
			C115.804,30.919,115.801,29.797,116.357,28.98"/>
		<path clip-path="url(#SVGID_30_)" fill="#7B5D43" d="M102.864,37.641c0.245-1.121,1.15-1.949,2.135-2.256
			c0.984-0.308,1.532-0.82,2.526-0.553c1.287,0.345,2.53,0.903,3.676,1.649c-0.901-0.193-1.822-0.271-2.739-0.23
			c-0.908,0.04-1.888,0.345-2.547,1.004c-0.644,0.645-1.124,1.502-1.425,2.471c-0.485,1.561-0.619,2.222,0.007,3.717
			c-1.294-1.016-1.116-1.794-1.495-3.524C102.839,39.173,102.701,38.388,102.864,37.641"/>
		<path clip-path="url(#SVGID_30_)" fill="#D3C55A" d="M100.758,61.106c3.081,0,3.868,0.129,6.446,0.902
			c1.087,0.326-2.802-5.893-3.379-6.869c-1.275-2.157-2.073-4.556-2.862-6.934c-0.489-1.475-1.921-4.699-1.752-6.244
			c0.143-1.304,0.759-2.525,1.587-3.543c1.942-2.387,4.929-3.659,7.88-4.534c2.951-0.874,6.023-1.454,8.762-2.858
			c2.739-1.403,5.179-3.854,5.566-6.908c0.387-3.053-1.096-4.764-4.168-4.58c2.037-0.236,4.128-0.403,6.114,0.107
			c1.986,0.51,3.875,1.817,4.571,3.746c-1.125-3.988-3.214-7.874-6.635-10.212c-3.421-2.338-8.341-2.757-11.626-0.231
			c0.009-1.6,1.158-3.017,2.552-3.802c1.393-0.786,3.009-1.057,4.588-1.315c-6.363-0.565-12.839,1.675-17.812,5.685
			c-4.972,4.01-8.474,9.695-10.301,15.816c-1.403-1.406-2.625-2.993-3.625-4.709c0.047,1.785,0.773,3.543,2,4.841
			c-2.05-1.067-4.615-1.077-6.673-0.027c2.017-0.131,4.068,0.309,5.854,1.255c-6.047,2.42-10.013,9.215-9.147,15.67
			c1.17-1.992,2.653-3.799,4.377-5.337c-1.974,5.395-1.021,11.763,2.444,16.345c-0.294-1.945,0.001-3.974,0.836-5.754
			c1.536,3.516,5.322,7.899,8.344,10.264l2.059,0.149C96.758,62.029,100.113,61.106,100.758,61.106"/>
	</g>
	<g clip-path="url(#SVGID_2_)">
		<defs>
			<path id="SVGID_31_" d="M100.591,13.516c-4.972,4.01-8.474,9.695-10.302,15.816c-1.402-1.407-2.624-2.993-3.625-4.709
				c0.047,1.785,0.774,3.543,2,4.841c-2.049-1.067-4.615-1.077-6.672-0.027c2.017-0.13,4.068,0.309,5.854,1.255
				c-6.047,2.42-10.013,9.215-9.147,15.67c1.17-1.992,2.652-3.799,4.376-5.337c-1.973,5.395-1.021,11.764,2.445,16.345
				c-0.294-1.944,0.001-3.974,0.836-5.754c1.535,3.516,5.322,7.899,8.343,10.264l2.059,0.15c0,0,3.356-0.924,4.001-0.924
				c3.081,0,3.867,0.129,6.445,0.902c1.087,0.327-2.801-5.893-3.379-6.869c-1.274-2.157-2.073-4.555-2.861-6.934
				c-0.489-1.475-1.922-4.699-1.752-6.243c0.143-1.305,0.759-2.526,1.586-3.544c1.942-2.387,4.93-3.659,7.881-4.534
				c2.951-0.874,6.022-1.453,8.762-2.857c2.739-1.404,5.178-3.855,5.566-6.909c0.387-3.053-1.097-4.763-4.169-4.58
				c2.037-0.236,4.129-0.403,6.114,0.106c1.987,0.511,3.876,1.818,4.571,3.747c-1.125-3.988-3.213-7.874-6.634-10.212
				c-3.421-2.339-8.341-2.757-11.627-0.231c0.009-1.6,1.159-3.017,2.552-3.802c1.394-0.786,3.01-1.057,4.588-1.315
				c-0.652-0.058-1.306-0.086-1.959-0.086C110.727,7.745,105.054,9.918,100.591,13.516"/>
		</defs>
		<clipPath id="SVGID_32_">
			<use xlink:href="#SVGID_31_"  overflow="visible"/>
		</clipPath>
		<path clip-path="url(#SVGID_32_)" fill="#A89B4B" d="M115.189,64.218c0.911-4.268,0.308-8.689,0.039-13.045
			s-0.141-8.956,2.034-12.739c1.119-1.946,2.724-3.569,3.934-5.46c1.174-1.834,1.975-3.999,1.754-6.166
			c-0.22-2.166-1.636-4.29-3.727-4.899c-1.59-0.463-3.295-0.027-4.855,0.529c-2.36,0.84-4.622,1.956-6.726,3.316
			c0.961-0.663,2.34-0.448,3.264,0.266c0.925,0.714,1.461,1.824,1.79,2.945c-0.512-0.872-1.524-1.357-2.529-1.471
			c-1.005-0.113-2.017,0.093-3.002,0.322c-5.237,1.212-10.651,3.3-13.772,7.677c1.568-0.68,3.402-0.725,5-0.12
			c-1.863,0.57-3.028,2.553-3.158,4.497c-0.131,1.944,0.583,3.846,1.447,5.592c0.792,1.6,1.722,3.133,2.774,4.574
			c-3.482-2.683-5.735-6.618-7.897-10.446c-0.624,1.865-0.265,3.947,0.56,5.731c0.826,1.785,2.083,3.329,3.328,4.851
			c-4.233-1.019-7.103-4.853-9.506-8.485c-1.334,2.844-0.923,6.299,0.559,9.069c1.481,2.769,3.92,4.922,6.569,6.61
			c-3.068-0.07-6.013-2.046-7.241-4.858c-0.324,2.336,0.753,4.63,1.988,6.639c0.555,0.904,1.153,1.79,1.883,2.561
			c1.773,1.871,4.218,2.953,6.674,3.732c4.889,1.551,10.099,2.079,15.199,1.54c1.14-0.12,2.401-0.367,3.066-1.3
			C114.942,65.252,115.079,64.731,115.189,64.218"/>
	</g>
</g>
</svg>
