<?xml version="1.0" encoding="utf-8"?>
<!-- Generator: Adobe Illustrator 15.0.0, SVG Export Plug-In . SVG Version: 6.00 Build 0)  -->
<!DOCTYPE svg PUBLIC "-//W3C//DTD SVG 1.1//EN" "http://www.w3.org/Graphics/SVG/1.1/DTD/svg11.dtd">
<svg version="1.1" id="Layer_1" xmlns="http://www.w3.org/2000/svg" xmlns:xlink="http://www.w3.org/1999/xlink" x="0px" y="0px"
	 width="335.556px" height="201.333px" viewBox="0 0 335.556 201.333" enable-background="new 0 0 335.556 201.333"
	 xml:space="preserve">
<g>
	<defs>
		<rect id="SVGID_1_" width="335.556" height="201.333"/>
	</defs>
	<clipPath id="SVGID_2_">
		<use xlink:href="#SVGID_1_"  overflow="visible"/>
	</clipPath>
	<g clip-path="url(#SVGID_2_)">
		<defs>
			<path id="SVGID_3_" d="M130.259,57.336c-1.697,31.113,22.151,57.711,53.265,59.408c31.113,1.696,57.712-22.151,59.408-53.265
				c1.697-31.113-22.09-58.82-53.204-60.517c-1.004-0.055-2-0.082-2.994-0.082C156.923,2.883,131.901,27.226,130.259,57.336"/>
		</defs>
		<clipPath id="SVGID_4_">
			<use xlink:href="#SVGID_3_"  overflow="visible"/>
		</clipPath>
		<defs>
			<filter id="Adobe_OpacityMaskFilter" filterUnits="userSpaceOnUse" x="122.279" y="-3.431" width="128.633" height="128.181">
				<feColorMatrix  type="matrix" values="1 0 0 0 0  0 1 0 0 0  0 0 1 0 0  0 0 0 1 0"/>
			</filter>
		</defs>
		<mask maskUnits="userSpaceOnUse" x="122.279" y="-3.431" width="128.633" height="128.181" id="SVGID_5_">
			<g filter="url(#Adobe_OpacityMaskFilter)">
				
					<radialGradient id="SVGID_6_" cx="0" cy="201.333" r="1" gradientTransform="matrix(86.8375 4.7353 4.7353 -86.8375 -766.7313 17543.1133)" gradientUnits="userSpaceOnUse">
					<stop  offset="0" style="stop-color:#FFFFFF"/>
					<stop  offset="0.0816" style="stop-color:#CBCBCB"/>
					<stop  offset="0.1684" style="stop-color:#9C9C9C"/>
					<stop  offset="0.2605" style="stop-color:#727272"/>
					<stop  offset="0.3564" style="stop-color:#4F4F4F"/>
					<stop  offset="0.4571" style="stop-color:#323232"/>
					<stop  offset="0.5642" style="stop-color:#1C1C1C"/>
					<stop  offset="0.6808" style="stop-color:#0C0C0C"/>
					<stop  offset="0.8139" style="stop-color:#030303"/>
					<stop  offset="1" style="stop-color:#000000"/>
				</radialGradient>
				<polygon clip-path="url(#SVGID_4_)" fill="url(#SVGID_6_)" points="128.906,-3.431 250.912,3.223 244.285,124.75 
					122.279,118.098 				"/>
			</g>
		</mask>
		
			<radialGradient id="SVGID_7_" cx="0" cy="201.333" r="1" gradientTransform="matrix(86.8375 4.7353 4.7353 -86.8375 -766.7339 17543.1055)" gradientUnits="userSpaceOnUse">
			<stop  offset="0" style="stop-color:#EDC33C"/>
			<stop  offset="0.09" style="stop-color:#EDC334"/>
			<stop  offset="0.3328" style="stop-color:#EDC419"/>
			<stop  offset="0.611" style="stop-color:#EEC500"/>
			<stop  offset="1" style="stop-color:#EEC500"/>
		</radialGradient>
		<polygon clip-path="url(#SVGID_4_)" mask="url(#SVGID_5_)" fill="url(#SVGID_7_)" points="128.906,-3.431 250.912,3.223 
			244.285,124.75 122.279,118.098 		"/>
	</g>
	<g clip-path="url(#SVGID_2_)">
		<defs>
			<rect id="SVGID_8_" width="335.556" height="201.333"/>
		</defs>
		<clipPath id="SVGID_9_">
			<use xlink:href="#SVGID_8_"  overflow="visible"/>
		</clipPath>
		<path clip-path="url(#SVGID_9_)" fill="#67666B" d="M167.168,68.925c-0.725,0.764-0.973,1.947-0.615,2.938
			c0.358,0.99,1.305,1.741,2.351,1.865c0.468,0.055,0.952-0.009,1.38-0.207c1.306-0.605,1.748-2.466,0.991-3.69
			c-0.757-1.224-2.446-1.698-3.803-1.218"/>
		<path clip-path="url(#SVGID_9_)" fill="#FFFFFF" d="M183.809,67.673c-1.417,0.805-5.196,3.533-6.81,3.761
			c-1.094,0.155-2.199-0.316-3.058-1.009c-2.649-2.138-3.006-6.565-0.734-9.099c1.185-1.322,2.918-2.136,3.845-3.649
			c1.029-1.679,0.828-3.808,1.269-5.728c0.681-2.979,2.991-5.445,5.783-6.689c2.791-1.244,6.003-1.348,8.986-0.689
			c5.992,1.323,11.492,5.189,11.9,11.311c0.217,3.259-1.021,6.588-3.313,8.914s-5.603,3.611-8.863,3.441
			C188.868,68.032,187.244,65.722,183.809,67.673"/>
		<path clip-path="url(#SVGID_9_)" fill="none" stroke="#000000" stroke-miterlimit="10" d="M177.288,64.426
			c3.52-2.644,6.661-6.536,6.403-10.93c-0.024-0.429-0.082-0.862-0.013-1.285c0.27-1.658,2.564-2.409,3.982-1.508
			c0.999,0.635,1.566,1.886,1.388,3.056s-1.095,2.194-2.238,2.502c-0.309-0.566-0.098-1.315,0.37-1.759
			c0.467-0.444,1.132-0.624,1.776-0.654c1.428-0.065,2.871,0.571,3.787,1.668c0.67,0.802,1.096,0.921,0.481,1.767
			c-0.586,0.806-1.802,1.991-2.798,1.954c-0.376-0.014-0.789-0.049-1.051-0.319c-0.354-0.363-0.239-1.009,0.126-1.361
			c0.365-0.351,0.896-0.466,1.401-0.499c1.891-0.124,3.88-0.361,5.034,1.141c0.51,0.662,0.881,1.483,0.791,2.314
			c-0.121,1.11-1.086,2.015-2.175,2.265c-1.088,0.25-2.309,1.038-3.255,0.445c-0.881-0.553-1.782-1.377-2.8-1.16
			c-0.387,0.082-0.726,0.312-1.042,0.549c-1.704,1.274-3.757,3.021-5.64,4.015c-2.773,1.466-3.732,1.916-5.857,2.016"/>
		<path clip-path="url(#SVGID_9_)" fill="#96969A" d="M169.706,64.215c0.624-0.513,1.299-1.118,1.355-1.924
			c0.031-0.431-0.126-0.866-0.054-1.292c0.13-0.758,0.977-1.227,1.743-1.178c0.767,0.05,1.451,0.488,2.054,0.965
			c2.412,1.911,4.069,4.591,5.677,7.214c0.6,0.977,1.178,2.312,0.414,3.167c-0.554,0.62-1.507,0.597-2.312,0.807
			c-1.009,0.264-1.89,0.982-2.35,1.917c0.382,0.542,0.358,1.335-0.056,1.854c-0.413,0.518-1.182,0.717-1.795,0.465
			c-0.5-0.206-0.854-0.653-1.184-1.082c-2.177-2.831-4.354-5.662-6.529-8.493c-0.337-0.438-0.683-0.895-0.798-1.435
			c-0.114-0.54,0.074-1.187,0.573-1.424c0.746-0.633,1.669,0.993,2.629,0.803C169.315,64.532,169.516,64.371,169.706,64.215"/>
		<path clip-path="url(#SVGID_9_)" fill="#67666B" d="M178.964,74.669c0.979-0.81,0.432-2.388-0.239-3.468
			c-2.004-3.225-4.488-6.151-7.348-8.65c-0.285-0.249-0.584-0.5-0.945-0.612c-0.868-0.271-1.83,0.411-2.093,1.282
			c-0.262,0.872,0.036,1.829,0.537,2.59c0.5,0.761,1.187,1.376,1.806,2.043c1.858,2.001,3.156,4.518,5.259,6.261
			C176.798,74.826,178.105,75.379,178.964,74.669"/>
	</g>
	<g clip-path="url(#SVGID_2_)">
		<defs>
			<path id="SVGID_10_" d="M280.555,118.949c-0.292,0.005-0.572,0.11-0.843,0.222c-3.894,1.605-7.195,5.211-7.373,9.419
				c-0.063,1.497,0.259,2.981,0.58,4.446c0.753,3.438,1.506,6.88,2.26,10.32c0.154,0.709,0.347,1.478,0.919,1.924
				c0.444,0.347,1.049,0.429,1.608,0.36c1.419-0.174,2.666-1.319,2.957-2.721c0.173-0.831,0.034-1.694,0.087-2.542
				c0.257-4.15,4.845-6.866,5.634-10.949c0.679-3.507-1.633-6.862-4.087-9.46c-0.471-0.497-1.034-1.02-1.716-1.02
				C280.573,118.949,280.564,118.949,280.555,118.949"/>
		</defs>
		<clipPath id="SVGID_11_">
			<use xlink:href="#SVGID_10_"  overflow="visible"/>
		</clipPath>
		
			<linearGradient id="SVGID_12_" gradientUnits="userSpaceOnUse" x1="0" y1="201.3389" x2="1" y2="201.3389" gradientTransform="matrix(4.0421 9.2382 9.2382 -4.0421 -1579.8577 947.2746)">
			<stop  offset="0" style="stop-color:#E9C296"/>
			<stop  offset="0.9977" style="stop-color:#D69352"/>
			<stop  offset="1" style="stop-color:#D69352"/>
		</linearGradient>
		<polygon clip-path="url(#SVGID_11_)" fill="url(#SVGID_12_)" points="284.687,113.52 296.889,141.409 274.651,151.139 
			262.449,123.249 		"/>
	</g>
	<g clip-path="url(#SVGID_2_)">
		<defs>
			<path id="SVGID_13_" d="M241.86,181.421c-0.302-0.393-0.411-0.537-0.411-0.537C241.448,180.884,241.654,181.153,241.86,181.421
				 M256.185,138.76c-7.618,1.163-14.294,7.037-16.504,14.421c-1.827,6.104-0.756,12.701,1.026,18.817
				c1.488,5.112,0.964,4.985,1.153,9.423c-2.204,6.165-4.555,13.209-6.185,19.549l44.759,0.273
				c1.027-11.933,1.056-24.745,0.081-36.683c-0.477-5.833-1.268-11.869-4.408-16.809c-3.623-5.697-10.34-9.207-17.071-9.207
				C258.083,138.545,257.13,138.615,256.185,138.76"/>
		</defs>
		<clipPath id="SVGID_14_">
			<use xlink:href="#SVGID_13_"  overflow="visible"/>
		</clipPath>
		
			<linearGradient id="SVGID_15_" gradientUnits="userSpaceOnUse" x1="0" y1="201.4814" x2="1" y2="201.4814" gradientTransform="matrix(18.3834 -27.0913 -27.0913 -18.3834 5702.4282 3895.2834)">
			<stop  offset="0" style="stop-color:#658298"/>
			<stop  offset="0.9992" style="stop-color:#7B9FB3"/>
			<stop  offset="1" style="stop-color:#7B9FB3"/>
		</linearGradient>
		<polygon clip-path="url(#SVGID_14_)" fill="url(#SVGID_15_)" points="206.545,181.476 250.12,117.259 310.621,158.313 
			267.046,222.529 		"/>
		<path clip-path="url(#SVGID_14_)" fill="#658398" d="M235.426,153.443l1.922,24.98l-1.922,15.613l-5.765,18.976l10.568-0.721
			l6.245-19.216l4.084,6.005l-6.246-30.505c0,0-1.921-7.206,0-13.932C246.234,147.918,235.426,153.443,235.426,153.443"/>
	</g>
	<g clip-path="url(#SVGID_2_)">
		<defs>
			<rect id="SVGID_16_" width="335.556" height="201.333"/>
		</defs>
		<clipPath id="SVGID_17_">
			<use xlink:href="#SVGID_16_"  overflow="visible"/>
		</clipPath>
		<path clip-path="url(#SVGID_17_)" fill="#D3C55A" d="M254.479,137.894c0.88,2.423,2.826,4.278,4.709,6.039
			c2.45,2.29,4.9,4.581,7.351,6.872c0.25-1.548,0.381-3.115,0.394-4.682c0.009-1.117-0.048-2.259-0.455-3.298
			c-0.765-1.957-2.628-3.24-4.444-4.299c0.544,0.96-0.62,2.148-1.722,2.095c-1.101-0.055-2.007-0.839-2.859-1.536
			C256.598,138.387,255.565,137.701,254.479,137.894"/>
	</g>
	<g clip-path="url(#SVGID_2_)">
		<defs>
			<path id="SVGID_18_" d="M275.905,145.016c-0.718,0.306-1.207,0.993-1.519,1.709c-0.989,2.274-0.503,4.959,0.601,7.183
				c1.102,2.222,2.762,4.107,4.243,6.098c2.58,3.466,5.514,9.438,6.997,13.495c-3.006-1.212-7.176-1.998-9.728,0
				c-2.553,1.998-4.246,4.572-3.793,7.781c0.08,0.563,0.217,1.133,0.519,1.617c0.833,1.339,2.615,1.653,4.187,1.781
				c5.507,0.45,11.071,0.186,16.51-0.786c0.337-0.061,0.695-0.134,0.941-0.371c0.343-0.331,0.36-0.866,0.351-1.344
				c-0.303-13.194-5.867-26.195-15.202-35.525c-0.894-0.895-2.077-1.809-3.258-1.809
				C276.469,144.845,276.185,144.898,275.905,145.016"/>
		</defs>
		<clipPath id="SVGID_19_">
			<use xlink:href="#SVGID_18_"  overflow="visible"/>
		</clipPath>
		
			<linearGradient id="SVGID_20_" gradientUnits="userSpaceOnUse" x1="0" y1="201.3252" x2="1" y2="201.3252" gradientTransform="matrix(14.7309 -4.9103 -4.9103 -14.7309 1266.2986 3132.7029)">
			<stop  offset="0" style="stop-color:#4A6E8B"/>
			<stop  offset="3.786670e-004" style="stop-color:#4A6E8B"/>
			<stop  offset="0.3552" style="stop-color:#5B829D"/>
			<stop  offset="1" style="stop-color:#7299AE"/>
		</linearGradient>
		<polygon clip-path="url(#SVGID_19_)" fill="url(#SVGID_20_)" points="260.169,148.873 292.927,137.954 307.31,181.102 
			274.551,192.021 		"/>
		<path clip-path="url(#SVGID_19_)" fill="#5A818E" d="M301.279,181.111c-9.188,2.491-22.221,6.391-31.27,1.73
			c-2.856-1.472-5.39,2.842-2.524,4.317c10.445,5.379,24.449,1.667,35.123-1.227C305.711,185.092,304.395,180.268,301.279,181.111"
			/>
		<path clip-path="url(#SVGID_19_)" fill="#5A818E" d="M269.553,181.236c0.434,2.691,3.719,4.029,6.104,3.162
			c2.911-1.061,3.86-4.427,3.103-7.202c-0.847-3.102-5.672-1.785-4.821,1.329c0.047,0.154,0.085,0.312,0.115,0.471
			c-0.034-0.26-0.039-0.238-0.018,0.066c-0.005,0.1-0.123,0.737-0.008,0.302c-0.036,0.156-0.081,0.308-0.137,0.458
			c0.079-0.2,0.077-0.224-0.006-0.069c-0.094,0.148-0.081,0.134,0.036-0.04c-0.222,0.209-0.228,0.218-0.017,0.027
			c0.304-0.109,0.321-0.122,0.052-0.039c0.091-0.011,0.184-0.022,0.275-0.032c-0.289-0.008-0.264,0.011,0.073,0.057
			c-0.129-0.023-0.257-0.056-0.38-0.099c0.08,0.033,0.16,0.066,0.241,0.1c-0.235-0.148-0.22-0.129,0.049,0.06
			c0.185,0.278,0.205,0.3,0.063,0.065c0.127,0.313,0.159,0.332,0.094,0.056c-0.215-1.334-1.875-2.076-3.075-1.746
			C269.879,178.551,269.336,179.898,269.553,181.236"/>
		<path clip-path="url(#SVGID_19_)" fill="#5A818E" d="M279.289,163.087c1.929,2.705,3.398,5.604,4.396,8.775
			c0.576,1.835,3.474,1.052,2.893-0.798c-1.069-3.404-2.625-6.585-4.698-9.491C280.768,160.014,278.165,161.511,279.289,163.087"/>
		<path clip-path="url(#SVGID_19_)" fill="#5A818E" d="M283.493,170.035c0.337,0.674,0.764,1.252,1.245,1.832
			c0.447,0.538,0.937,1.213,1.582,1.518c0.559,0.265,1.107-0.271,0.834-0.833c-0.298-0.613-0.892-1.096-1.327-1.615
			c-0.461-0.549-0.889-1.114-1.365-1.649C283.976,168.738,283.193,169.436,283.493,170.035"/>
		<path clip-path="url(#SVGID_19_)" fill="#5A818E" d="M287.97,172.871c-1.766-1.147-3.887-1.873-5.918-2.386
			c-1.361-0.345-1.905,1.668-0.577,2.094c1.934,0.622,3.913,1.304,5.911,1.677C288.219,174.412,288.715,173.355,287.97,172.871"/>
		<path clip-path="url(#SVGID_19_)" fill="#2B4755" d="M279.18,172.355c-0.359,0.101-0.578,0.453-0.767,0.776
			c-1.818,3.112-4.087,5.96-6.714,8.429c0.874,1.699,2.58,2.981,4.477,3.208c1.898,0.229,3.921-0.67,4.911-2.305
			c1.201-1.981,0.777-4.503,0.315-6.774c-0.204-0.996-0.429-2.038-1.08-2.818C280.038,172.532,279.606,172.238,279.18,172.355"/>
	</g>
	<g clip-path="url(#SVGID_2_)">
		<defs>
			<path id="SVGID_21_" d="M272.533,137.888c-1.049,7.183-2.099,14.364-3.148,21.547c-6.95-6.176-14.14-12.08-21.548-17.696
				c-1.413-1.07-3.1-2.19-4.817-1.757c-1.715,0.432-2.67,2.212-3.409,3.817c-1.016,2.199-2.035,4.522-1.866,6.938
				c0.313,4.493,4.47,7.602,8.234,10.076c9.588,6.297,19.237,12.63,29.795,17.115c3-2.938,4.394-7.106,5.564-11.139
				c2.846-9.797,4.982-19.802,6.387-29.907c-1.511-0.147-3.027-0.222-4.545-0.222C279.6,136.661,276.02,137.072,272.533,137.888"/>
		</defs>
		<clipPath id="SVGID_22_">
			<use xlink:href="#SVGID_21_"  overflow="visible"/>
		</clipPath>
		
			<linearGradient id="SVGID_23_" gradientUnits="userSpaceOnUse" x1="0" y1="201.333" x2="1" y2="201.333" gradientTransform="matrix(49.9988 0 0 -49.9988 237.7318 10223.7061)">
			<stop  offset="0" style="stop-color:#4A6E8B"/>
			<stop  offset="3.786670e-004" style="stop-color:#4A6E8B"/>
			<stop  offset="0.3552" style="stop-color:#5B829D"/>
			<stop  offset="1" style="stop-color:#7299AE"/>
		</linearGradient>
		<rect x="237.575" y="136.661" clip-path="url(#SVGID_22_)" fill="url(#SVGID_23_)" width="50.149" height="41.268"/>
		<path clip-path="url(#SVGID_22_)" fill="#5A818E" d="M232.072,149.614c1.022,6.277,6.275,11.168,10.485,15.581
			c5.069,5.313,10.564,10.165,16.438,14.568c1.609,1.207,3.76-1.547,2.168-2.81c-10.019-7.945-20.715-16.976-27.32-28.085
			C233.25,147.871,231.903,148.575,232.072,149.614"/>
		<path clip-path="url(#SVGID_22_)" fill="#5A818E" d="M231.689,149.595c3.049,7.316,10.66,12.471,16.643,17.29
			c7.146,5.758,14.571,11.155,22.188,16.27c2.053,1.379,3.959-1.929,1.932-3.306c-7.326-4.974-14.489-10.169-21.48-15.604
			c-6.195-4.815-12.753-9.448-17.78-15.524C232.637,148.052,231.346,148.772,231.689,149.595"/>
		<path clip-path="url(#SVGID_22_)" fill="#5A818E" d="M240.44,159.707c9.729,7.927,21.465,13.967,32.847,19.135
			c1.897,0.861,3.574-1.91,1.656-2.833c-11.394-5.485-22.043-12.092-33.178-18.02C240.726,157.435,239.435,158.887,240.44,159.707"
			/>
		<path clip-path="url(#SVGID_22_)" fill="#5A818E" d="M289.852,129.809c-1.703,8.403-4.345,16.595-5.777,25.052
			c-1.447,8.539-2.011,16.902-6.277,24.644c-1.192,2.164,1.998,4.021,3.306,1.933c4.667-7.455,5.175-16.258,6.524-24.725
			c1.416-8.883,4.226-17.551,4.512-26.595C292.179,128.827,290.115,128.507,289.852,129.809"/>
		<path clip-path="url(#SVGID_22_)" fill="#5A818E" d="M285.225,161.079c-2.574,5.741-5.204,11.365-8.341,16.827
			c-0.968,1.686,1.637,3.206,2.604,1.521c3.175-5.525,5.926-11.383,7.75-17.5C287.586,160.762,285.745,159.92,285.225,161.079"/>
		<path clip-path="url(#SVGID_22_)" fill="#5A818E" d="M284.235,158.532c-0.624,8.595-7.528,13.481-15.781,11.957
			c-6.967-1.288-13.685-4.108-19.872-7.481c-2.579-1.406-4.885,2.534-2.302,3.939c8.16,4.44,20.005,10.308,29.573,7.991
			c7.58-1.836,12.234-9.155,10.561-16.701C286.131,156.954,284.321,157.343,284.235,158.532"/>
	</g>
	<g clip-path="url(#SVGID_2_)">
		<defs>
			<path id="SVGID_24_" d="M270.874,166.373c-0.464,0.242-0.624,0.819-0.699,1.335c-0.339,2.298,0.083,4.7,1.184,6.744
				c-3.36-1.325-6.027-1.313-8.91-3.114c-0.201,3.518,0.705,4.498,3.051,7.125s5.976,4.143,9.466,3.669
				c1.271-0.172,2.542-0.615,3.482-1.485c0.941-0.871,1.498-2.221,1.203-3.468c-0.456-1.926-2.563-2.882-3.918-4.323
				c-1.343-1.429-1.948-3.371-2.795-5.141c-0.328-0.687-0.968-1.449-1.642-1.449C271.156,166.266,271.014,166.299,270.874,166.373"
				/>
		</defs>
		<clipPath id="SVGID_25_">
			<use xlink:href="#SVGID_24_"  overflow="visible"/>
		</clipPath>
		
			<radialGradient id="SVGID_26_" cx="0" cy="201.333" r="1" gradientTransform="matrix(-4.2123 -10.0045 -10.0045 4.2123 2288.1875 -666.6342)" gradientUnits="userSpaceOnUse">
			<stop  offset="0" style="stop-color:#D69352"/>
			<stop  offset="0.0023" style="stop-color:#D69352"/>
			<stop  offset="1" style="stop-color:#E5B47E"/>
		</radialGradient>
		<polygon clip-path="url(#SVGID_25_)" fill="url(#SVGID_26_)" points="264.912,188.935 256.403,168.727 277.28,159.937 
			285.788,180.145 		"/>
	</g>
	<g clip-path="url(#SVGID_2_)">
		<defs>
			<rect id="SVGID_27_" width="335.556" height="201.333"/>
		</defs>
		<clipPath id="SVGID_28_">
			<use xlink:href="#SVGID_27_"  overflow="visible"/>
		</clipPath>
		<path clip-path="url(#SVGID_28_)" fill="#4F6C7D" d="M255.721,145.847c-0.081-0.41-0.096-0.878,0.168-1.203
			c0.542-0.666,1.608-0.183,2.29,0.34c2.762,2.11,5.458,4.309,8.082,6.589c0.44-0.573-0.058-1.376-0.542-1.914
			c-2.597-2.887-5.297-5.682-8.094-8.376c-0.874-0.842-1.835-1.888-1.633-3.084c3.309,0.008,7.262,0.381,8.832,3.293
			c0.506,0.939,0.671,2.021,0.827,3.077c0.343,2.3,0.685,4.601,1.027,6.9c0.297-2.453,0.835-4.878,1.604-7.226
			c1.042,0.938,1.816,2.169,2.212,3.514c0-1.276,0-2.553,0-3.83c0-0.998-0.005-2.021-0.351-2.958
			c-0.548-1.483-1.859-2.528-3.111-3.495c-1.758-1.354-3.537-2.724-5.57-3.611c-4.215-1.84-9.367-1.337-13.147,1.284
			c-0.451,0.313-0.923,0.721-0.969,1.27c-0.03,0.354,0.126,0.694,0.285,1.011c2.181,4.378,5.479,8.193,9.497,10.982
			C256.412,147.727,255.914,146.818,255.721,145.847"/>
		<path clip-path="url(#SVGID_28_)" fill="#E5B47F" d="M283.504,93.271c1.524,6.863,1.052,13.566-0.519,20.419
			c-1.569,6.854-5.25,12.463-11.89,14.772c-8.287,2.882-7.952,5.321-8.351,9.496c-0.128,1.348,0.297,2.883-0.539,3.949
			c-1.095,1.395-3.497,0.692-4.499-0.77c-1.001-1.462-2.353-4.123-2.825-5.831c-1.531-5.527-6.527-8.52-11.169-11.89
			c-9.146-6.638-17.277-15.113-18.204-26.376c-0.598-7.257,2.583-14.557,7.743-19.695c5.159-5.138,12.132-8.226,19.305-9.48
			c4.793-0.839,9.857-0.877,14.384,0.909C276.495,72.544,281.275,83.244,283.504,93.271"/>
	</g>
	<g clip-path="url(#SVGID_2_)">
		<defs>
			<path id="SVGID_29_" d="M252.557,67.867c-7.173,1.254-14.145,4.341-19.305,9.48c-5.16,5.138-8.34,12.438-7.744,19.696
				c0.928,11.262,9.06,19.737,18.205,26.375c4.643,3.37,9.638,6.362,11.169,11.89c0.474,1.708,1.823,4.37,2.825,5.831
				c1.002,1.463,3.405,2.164,4.498,0.77c0.836-1.066,0.412-2.601,0.541-3.949c0.397-4.175,0.062-6.614,8.349-9.496
				c6.642-2.311,10.321-7.919,11.891-14.772s2.043-13.557,0.519-20.419c-2.228-10.027-7.009-20.727-16.563-24.495
				c-2.652-1.046-5.489-1.466-8.348-1.466C256.573,67.31,254.541,67.52,252.557,67.867"/>
		</defs>
		<clipPath id="SVGID_30_">
			<use xlink:href="#SVGID_29_"  overflow="visible"/>
		</clipPath>
		<path clip-path="url(#SVGID_30_)" fill="#CE9862" d="M233.45,112.905c-0.938-1.499-2.888-1.678-4.407-0.896
			c-2.134,1.1-2.978,3.624-2.363,5.866c0.653,2.383,2.526,4.164,4.619,5.36c1.195,0.684,2.487,1.191,3.868,1.312
			c1.206,0.104,3.153-0.677,4.147,0.07c1.799,1.351,4.208-1.736,2.424-3.142c-2.64-2.078-5.362,0.037-8.183-1.357
			c-1.206-0.596-2.562-1.517-3.114-2.787c-0.899-2.066,0.314-3.52,2.456-3.462C233.375,113.882,233.705,113.313,233.45,112.905"/>
		<path clip-path="url(#SVGID_30_)" fill="#DFB07C" d="M256.559,134.836c-2.895-5.726-6.845-10.717-11.733-14.869
			c-1.409-1.197-7.59,1.729-6.424,2.718c4.733,4.021,8.5,8.825,11.3,14.366C250.55,138.729,257.191,136.088,256.559,134.836"/>
		<path clip-path="url(#SVGID_30_)" fill="#DAAC7A" d="M242.535,119.737c-0.628-0.354-2.521-1.356-2.797-0.271
			c-0.016,0.058,0.017,0.125,0.023,0.188c-0.001-0.001-0.003-0.002-0.005-0.003c-3.427-1.59-0.172,4.47,1.552,5.271
			c5.273,2.445,8.845,7.479,10.837,12.818c0.139,0.463,0.272,0.918,0.4,1.356c0.163,0.553,0.576,1.048,1.081,1.484
			c0.516,0.677,1.134,1.253,1.838,1.55c0.419,0.177,0.826,0.252,1.142,0.199c0.908,0.348,2.354,0.782,2.12-0.012
			C255.884,132.638,251.507,124.814,242.535,119.737"/>
		<path clip-path="url(#SVGID_30_)" fill="#D7A972" d="M246.261,120.952c-3.276-2.608-8.125,2.269-4.527,5.134
			c6.751,5.375,10.694,12.974,11.497,21.532c0.394,4.192,7.551,3.359,7.157-0.841C259.417,136.44,254.357,127.399,246.261,120.952"
			/>
		<path clip-path="url(#SVGID_30_)" fill="#D7A972" d="M238.728,118.954c0.059-0.08,0.107-0.169,0.143-0.268
			c0.271-0.782-0.713-1.246-1.331-1.292c-0.16-0.013-0.316-0.033-0.476-0.052c-0.138-0.098-0.271-0.202-0.412-0.293
			c0.025-0.123,0.029-0.271,0-0.45c-0.017-0.1-0.073-0.207-0.112-0.313c0.131-0.382,0.021-0.796-0.467-1.026
			c-0.108-0.051-0.221-0.086-0.33-0.133c-0.226-0.22-0.459-0.413-0.68-0.521c-1.345-0.652-3.643-1.908-5.17-1.433
			c-1.187,0.369-1.007,1.618-0.588,2.611c-0.045,0.194-0.057,0.402,0.014,0.645c0.19,0.651,0.794,1.112,1.459,1.467
			c2.056,2.104,5.22,3.131,8.092,2.677C239.553,120.466,239.152,119.602,238.728,118.954"/>
		<path clip-path="url(#SVGID_30_)" fill="#D7A972" d="M270.259,73.515c-5.989-0.829-13.182-1.868-18.621,1.525
			c-5.462,3.407-8.245,10.914-10.498,17.461l-0.434-1.542c-0.19-0.678-3.37-1.228-3.516-0.433c-0.684,3.744-1.001,7.37-0.973,11.025
			c-0.853-0.495-3.206-0.87-3.222-0.18c-0.096,4.075,0.245,7.931,1.05,11.921c0.209,1.04,3.649,1.077,3.553,0.594
			c-0.295-1.465-0.507-2.911-0.678-4.355c0.572,0.593,3.501,0.966,3.414,0.336c-0.535-3.883-0.692-7.623-0.477-11.384
			c0.94,0.415,2.724,0.554,2.948-0.034c2.05-5.364,3.993-10.923,6.729-15.985c4.511-8.352,11.433-9.072,20.533-7.812
			C272.127,74.936,272.372,73.808,270.259,73.515"/>
		<path clip-path="url(#SVGID_30_)" fill="#DCA776" d="M262.169,89.414c0.939-1.428,1.492-3.4,3.568-3.118
			c1.45,0.198,2.976,1.36,3.997,2.325c2.422,2.291,3.266,5.208,3.41,8.448c0.12,2.673,3.721,2.521,4.048,0
			c0.705-5.443-2.875-11.301-7.698-13.708c-2.146-1.071-4.983-1.739-7.111-0.256c-1.964,1.368-2.791,4.264-1.455,6.309
			C261.231,89.878,261.866,89.875,262.169,89.414"/>
		<path clip-path="url(#SVGID_30_)" fill="#DCA776" d="M280.484,91.617c-2.813-3.431-7.265-5.584-10.451-8.765
			c-2.417-2.413-4.511-5.015-8.187-5c-2.366,0.01-2.34,3.535,0,3.657c3.512,0.182,7,5.213,9.667,7.251
			c2.468,1.886,5.241,3.917,8.391,4.257C280.688,93.103,280.882,92.101,280.484,91.617"/>
		<path clip-path="url(#SVGID_30_)" fill="#DCA776" d="M275.35,89.872c-0.674,2.716,0.579,6.161,3.064,7.559
			c1.895,1.066,3.368-1.632,1.672-2.86c-1.6-1.159-2.397-2.377-2.434-4.387C277.628,88.887,275.676,88.559,275.35,89.872"/>
		<path clip-path="url(#SVGID_30_)" fill="#DCA776" d="M279.958,81.985c-6.776-8.359-18.861-17.57-28.81-7.954
			c-4.353,4.207-6.712,10.596-9.415,15.896c-3.014,5.904-5.862,11.633-6.373,18.34h4.759c-0.486-6.093,0.138-12.087,0.865-18.134
			c0.332-2.754-3.888-3.065-4.66-0.631c-2.454,7.73-3,15.423-1.708,23.427c0.473,2.936,4.86,1.663,4.439-1.224
			c-0.065-0.969-0.276-1.905-0.632-2.808c-0.683-2.217-4.001-1.811-4.051,0.549c-0.095,0.965-0.041,1.922,0.161,2.871
			c1.507-0.204,3.014-0.408,4.521-0.612c-1.203-7.142-0.563-14.116,1.845-20.941c-1.555-0.211-3.107-0.421-4.661-0.631
			c-0.771,6.052-1.395,12.032-0.879,18.134c0.258,3.045,4.539,3.075,4.759,0c0.66-9.23,6.729-19.114,11.228-27.056
			c7.236-12.772,19.117-5.184,27.717,1.668C279.701,83.388,280.475,82.623,279.958,81.985"/>
		<path clip-path="url(#SVGID_30_)" fill="#DCA776" d="M241.753,127.008c1.385-1.011,2.126-2.276,3.333-3.458
			c-0.682,0.181-1.363,0.361-2.047,0.541c1.44,0.201,3.44,2.957,4.425,3.949c1.429,1.44,2.799,2.944,4.086,4.516
			c2.767,3.375,4.93,7.06,7.184,10.778c1.468,2.42,4.948,0.304,3.751-2.192c-3.252-6.783-8.385-12.985-13.914-18.037
			c-1.322-1.208-3.405-3.716-5.531-3.069c-2.241,0.683-2.822,4.07-2.932,6.028C240.064,126.844,241.09,127.493,241.753,127.008"/>
		<path clip-path="url(#SVGID_30_)" fill="#DCA776" d="M266.321,131.466c-4.344,0.811-6.631,1.706-10.709-0.908
			c-2.802-1.795-5.205-4.132-7.17-6.812c-1.108,0.855-2.216,1.71-3.325,2.565c5.081,5.803,10.896,10.741,17.536,14.672
			c0.162-1.243,0.325-2.486,0.486-3.729c-2.101,0.481-3.499-0.678-4.518,1.983c-0.836,2.186,2.613,3.55,3.73,1.572
			c0.626-1.108,0.363-2.033,0.823-3.118c0.715-1.689,3.585-3.445,4.938-4.661c1.537-1.382-0.073-4.313-2.077-3.567
			c-6.974,2.592-12.954-0.701-17.704-5.732c-1.888-2-4.665,0.924-2.972,2.972c5.304,6.415,13.729,9.912,21.811,6.877
			c-0.692-1.188-1.385-2.379-2.077-3.567c-1.751,1.604-4.058,3.187-5.428,5.135c-0.855,1.218-0.245,2.504-0.839,3.604
			c1.243,0.523,2.486,1.048,3.729,1.571c0.061-0.158,0.119-0.314,0.18-0.473c-0.476,0.475-0.95,0.95-1.425,1.424
			c0.593-0.229,2.156,0.088,2.913-0.085c1.746-0.4,1.947-2.864,0.488-3.729c-6.352-3.768-11.911-8.438-16.602-14.144
			c-1.51-1.836-4.758,0.629-3.325,2.566c4.692,6.341,15.319,15.479,22.432,7.123C267.828,132.289,267.243,131.294,266.321,131.466"
			/>
		<path clip-path="url(#SVGID_30_)" fill="#DCA776" d="M290.617,105.956c-1.964-1.358-3.83-1.84-6.22-1.698
			c-1.146,0.068-1.907,0.865-1.999,1.999c-1.54,19.015-20.514,27.871-36.673,18.785c-2.697-1.516-4.806,2.33-2.382,4.075
			c17.771,12.786,43.146-1.551,43.053-22.86c-0.489,0.644-0.979,1.286-1.469,1.929c1.582-0.688,3.181-0.722,4.792-0.102
			C291.043,108.438,291.675,106.688,290.617,105.956"/>
		<path clip-path="url(#SVGID_30_)" fill="#DCA776" d="M283.676,106.876c-0.48,9.142-6.823,16.111-15.472,18.729
			c-8.845,2.678-15.714,0.622-23.168-4.273c-2.374-1.558-4.498,2.19-2.208,3.778c9.007,6.247,19.007,7.997,29.307,3.451
			c8.526-3.762,14.434-12.36,12.83-21.859C284.837,105.94,283.713,106.174,283.676,106.876"/>
	</g>
	<g clip-path="url(#SVGID_2_)">
		<defs>
			<rect id="SVGID_31_" width="335.556" height="201.333"/>
		</defs>
		<clipPath id="SVGID_32_">
			<use xlink:href="#SVGID_31_"  overflow="visible"/>
		</clipPath>
		<path clip-path="url(#SVGID_32_)" fill="#FFFFFF" d="M273.649,90.268c-1.192-2.103-3.532-3.235-5.744-4.212
			c-1.866-0.824-4.146-1.598-5.83-0.444c-1.117,0.767-1.607,2.235-1.479,3.585c0.128,1.35,0.786,2.595,1.571,3.701
			c1.682,2.37,4.015,4.272,6.674,5.444c1.699,0.748,3.812,1.154,5.311,0.06c1.621-1.184,1.764-3.601,1.149-5.512
			c-0.615-1.914-1.834-3.628-3.439-4.838"/>
		<path clip-path="url(#SVGID_32_)" fill="#FFFFFF" d="M284.241,93.178c-0.202-2.147-3.325-3.153-4.954-1.739
			c-1.629,1.414-1.384,4.293,0.253,5.699c0.778,0.669,1.88,1.053,2.854,0.728c1.225-0.407,1.857-1.726,2.356-2.917
			c-0.474-1.198-0.945-2.395-1.417-3.592"/>
		<path clip-path="url(#SVGID_32_)" fill="#5B4626" d="M286.226,88.633c-0.227,1.854-2.366,2.971-4.224,2.77
			c-1.857-0.201-3.463-1.333-4.976-2.429c-3.249-2.353-6.498-4.705-9.747-7.058c-1.037-0.751-2.099-1.514-3.319-1.899
			c-1.221-0.386-2.653-0.336-3.667,0.446c-0.4-1.197,0.514-2.554,1.717-2.936c1.203-0.383,2.54,0.026,3.581,0.74
			s1.853,1.706,2.699,2.642c2.103,2.323,4.507,4.372,7.134,6.081C278.651,89.088,282.946,90.646,286.226,88.633"/>
		<path clip-path="url(#SVGID_32_)" fill="#3B2C27" d="M271.562,118.224c-2.043-2.019-5.47-2.457-7.955-1.015
			c2.15,1.21,4.753,1.595,7.161,1.058"/>
		<path clip-path="url(#SVGID_32_)" fill="#E5B47F" d="M279.783,105.914c4.314-0.771,8.133-3.889,9.753-7.961
			c0.285-0.717,0.494-1.57,0.088-2.226c-0.579-0.935-2.03-0.829-2.943-0.214c-0.912,0.615-1.545,1.577-2.449,2.205
			c-1.709,1.185-3.975,0.954-6.052,1.059c-2.077,0.105-4.512,0.952-4.974,2.979c-0.357,1.567,0.734,3.187,2.167,3.914
			c1.434,0.729,3.115,0.749,4.719,0.635"/>
		<path clip-path="url(#SVGID_32_)" fill="#8A7543" d="M221.734,83.094c1.001-1.959,2.384-3.693,3.759-5.411
			c3.013-3.767,6.093-7.588,10.076-10.311c5.242-3.586,12.243-8.261,18.452-9.595c8.435-1.813,17.212-3.624,25.601-1.614
			c8.39,2.01,15.631,12.309,15.591,20.936c-1.261-6.107-7.889-10.557-14.018-9.41c4.951,2.845,8.35,8.23,8.787,13.925
			c-1.009-4.268-4.46-7.867-8.683-9.053c4.228,3.447,6.216,9.417,4.901,14.71c-1.319-5.752-5.962-10.614-11.646-12.198
			c3.193,2.323,5.292,6.089,5.59,10.026c-2.267-5.222-6.766-9.476-12.177-11.247c-5.41-1.77-11.647-0.959-16.311,2.309
			c-5.759,4.036-8.928,15.617-11.188,22.277c-0.243-2.159-0.957-5.288-1.2-7.446c-2.896,5.868-0.624,11.722-0.24,18.255
			c-2.202-2.787-3.656-6.159-4.17-9.674c0.097,3.159,0.538,6.308,1.311,9.373c-1.154-0.666-2.119-1.652-2.759-2.819
			c1.308,4.134,0.351,5.265,2.614,8.964c-6.029-3.855-10.4-10.214-11.84-17.223"/>
		<path clip-path="url(#SVGID_32_)" fill="#E5B47F" d="M242.735,120.375c-0.809,0.976-2.097,1.411-3.345,1.631
			c-3.588,0.629-7.412-0.222-10.396-2.311c-1.111-0.778-2.17-1.834-2.351-3.179c-0.26-1.931,1.472-3.674,3.365-4.138
			c1.892-0.465,3.873,0.014,5.762,0.49c1.414,0.357,2.827,0.715,4.24,1.071"/>
	</g>
	<g clip-path="url(#SVGID_2_)">
		<defs>
			<path id="SVGID_33_" d="M266.832,124.155c-0.683,0.903-0.346,2.253,0.374,3.127c0.721,0.875,1.743,1.436,2.621,2.152
				c1.584,1.291,2.713,3.13,3.148,5.126c0.241,1.104,0.121,0.754,0.882,1.589c0.948,1.04,2.855,0.938,3.688-0.196l-2.459-6.78
				c-1.219-2.984-4.372-5.048-7.584-5.048C267.279,124.125,267.056,124.135,266.832,124.155"/>
		</defs>
		<clipPath id="SVGID_34_">
			<use xlink:href="#SVGID_33_"  overflow="visible"/>
		</clipPath>
		
			<linearGradient id="SVGID_35_" gradientUnits="userSpaceOnUse" x1="0" y1="201.376" x2="1" y2="201.376" gradientTransform="matrix(-5.7157 2.7309 2.7309 5.7157 -276.8159 -1020.9602)">
			<stop  offset="0" style="stop-color:#E9C194"/>
			<stop  offset="0.9977" style="stop-color:#D69352"/>
			<stop  offset="1" style="stop-color:#D69352"/>
		</linearGradient>
		<polygon clip-path="url(#SVGID_34_)" fill="url(#SVGID_35_)" points="282.628,134.761 268.268,141.622 261.067,126.553 
			275.428,119.691 		"/>
	</g>
	<g clip-path="url(#SVGID_2_)">
		<defs>
			<rect id="SVGID_36_" width="335.556" height="201.333"/>
		</defs>
		<clipPath id="SVGID_37_">
			<use xlink:href="#SVGID_36_"  overflow="visible"/>
		</clipPath>
		<path clip-path="url(#SVGID_37_)" d="M267.872,87.644c-0.725,1.074-0.861,2.52-0.352,3.711c0.151,0.352,0.366,0.694,0.695,0.889
			c0.629,0.374,1.495,0.066,1.938-0.516c0.444-0.582,0.549-1.355,0.536-2.087c-0.013-0.753-0.166-1.57-0.729-2.07
			c-0.564-0.5-1.634-0.434-1.907,0.269"/>
		<path clip-path="url(#SVGID_37_)" d="M280.763,91.683c-0.989,1.012-0.276,3.057,1.127,3.236c0.7-1.173,0.751-2.707,0.129-3.923"/>
		<path clip-path="url(#SVGID_37_)" fill="#C88E5B" d="M237.185,117.152c0.144-0.368,0.419-0.703,0.413-1.098
			c-0.009-0.602-0.642-0.979-1.206-1.185c-1.396-0.512-2.903-0.722-4.388-0.613c-1.324,0.098-2.833,0.632-3.223,1.9
			c0.729,0.798,1.63,1.439,2.622,1.868c-0.357-0.646-0.143-1.545,0.468-1.958c0.61-0.414,1.526-0.28,1.992,0.29
			c0.405,0.497,0.451,1.192,0.731,1.77c0.553,1.134,2.12,1.63,3.225,1.021"/>
	</g>
	<g clip-path="url(#SVGID_2_)">
		<defs>
			<path id="SVGID_38_" d="M59.434,53.262c-0.426,0.416-0.557,1.041-0.654,1.628c-0.887,5.381-0.534,10.961,1.022,16.186
				c-0.839-1.022-1.097-2.414-1.861-3.494c-0.765-1.08-2.542-1.697-3.345-0.646c-0.24,0.314-0.335,0.712-0.392,1.103
				c-0.188,1.291-0.006,2.634,0.518,3.829c-1.044-0.245-2.221,0.309-2.698,1.269c-0.477,0.96-0.206,2.233,0.62,2.916
				c-0.942,0.605-1.205,1.923-0.904,3.001c0.302,1.077,1.044,1.968,1.779,2.812c2.257,2.592,4.629,5.084,7.106,7.466
				c2.722-11.428-0.297-23.411,0.48-35.134c0.02-0.306,0.038-0.633-0.119-0.896c-0.152-0.253-0.43-0.367-0.723-0.367
				C59.964,52.935,59.649,53.053,59.434,53.262"/>
		</defs>
		<clipPath id="SVGID_39_">
			<use xlink:href="#SVGID_38_"  overflow="visible"/>
		</clipPath>
		
			<linearGradient id="SVGID_40_" gradientUnits="userSpaceOnUse" x1="0" y1="201.2598" x2="1" y2="201.2598" gradientTransform="matrix(13.9641 5.2249 5.2249 -13.9641 -999.2567 2879.6208)">
			<stop  offset="0" style="stop-color:#E5B47F"/>
			<stop  offset="0.358" style="stop-color:#E5B47F"/>
			<stop  offset="0.7666" style="stop-color:#B7754A"/>
			<stop  offset="1" style="stop-color:#B7754A"/>
		</linearGradient>
		<polygon clip-path="url(#SVGID_39_)" fill="url(#SVGID_40_)" points="52.901,49.027 75.293,57.405 61.885,93.24 39.493,84.862 		
			"/>
	</g>
	<g clip-path="url(#SVGID_2_)">
		<defs>
			<rect id="SVGID_41_" width="335.556" height="201.333"/>
		</defs>
		<clipPath id="SVGID_42_">
			<use xlink:href="#SVGID_41_"  overflow="visible"/>
		</clipPath>
		<path clip-path="url(#SVGID_42_)" fill="#E5B47F" d="M54.417,77.142C54.275,76.4,54.8,75.68,55.42,75.248
			c0.621-0.432,1.355-0.683,1.963-1.132c0.608-0.448,1.061-1.07,1.6-1.599c0.54-0.528,1.23-0.984,1.984-0.955
			c1.084,0.042,1.898,1.089,2.119,2.151c0.221,1.062-0.287,2.565-0.686,3.573c-0.795,2.005-0.329,2.886-0.168,4.853
			c0.048,0.59,1.236,1.917,1.054,2.479c-0.182,0.563-0.622,1.079-1.204,1.183c-0.54,0.098-1.075-0.165-1.544-0.45
			c-1.251-0.76-2.406-1.781-2.984-3.126c-0.579-1.345,0.881-4.416,1.898-5.469c-0.692,0.2-2.755,1.764-3.469,1.668
			C55.269,78.327,54.554,77.849,54.417,77.142"/>
	</g>
	<g clip-path="url(#SVGID_2_)">
		<defs>
			<path id="SVGID_43_" d="M170.213,179.649c-0.649,0.762-0.251,1.914,0.096,2.853c1.682,4.57,1.917,7.351-0.474,11.591
				c-0.24,0.425-0.506,0.868-0.505,1.357c0.002,0.488,0.405,1.01,0.888,0.934c0.258-0.041,0.462-0.233,0.644-0.422
				c2.162-2.261,2.874-2.744,3.173-5.857c2.526,3.03,5.353,6.246,9.217,7.052c0.387,0.08,0.838,0.119,1.13-0.147
				c0.538-0.49,0.021-1.359-0.493-1.877c-2.069-2.081-4.621-3.476-6.689-5.557c2.527,1.516,5.929,1.688,8.875,1.781
				c0.504,0.017,1.039,0.003,1.466-0.265c0.429-0.267,0.682-0.875,0.403-1.296c-0.183-0.276-0.524-0.391-0.843-0.488
				c-2.608-0.795-5.116-0.945-7.726-1.74c1.602,0.075,3.144-0.499,4.67-0.995c1.525-0.495,2.932-1.687,3.207-3.268
				c-1.956,0.108-3.629,1.43-5.528,1.911c-2.654,0.674-5.679-0.518-7.159-2.824c-0.549-0.853-0.91-1.845-1.643-2.547
				c-0.422-0.404-1.036-0.664-1.607-0.664C170.891,179.181,170.493,179.322,170.213,179.649"/>
		</defs>
		<clipPath id="SVGID_44_">
			<use xlink:href="#SVGID_43_"  overflow="visible"/>
		</clipPath>
		
			<linearGradient id="SVGID_45_" gradientUnits="userSpaceOnUse" x1="0" y1="201.4668" x2="1" y2="201.4668" gradientTransform="matrix(5.9718 7.0171 7.0171 -5.9718 -1238.9662 1386.6163)">
			<stop  offset="0" style="stop-color:#CF8954"/>
			<stop  offset="0.2334" style="stop-color:#CF8954"/>
			<stop  offset="0.642" style="stop-color:#E5B47F"/>
			<stop  offset="1" style="stop-color:#E5B47F"/>
		</linearGradient>
		<polygon clip-path="url(#SVGID_44_)" fill="url(#SVGID_45_)" points="180.285,169.856 197.151,189.675 177.265,206.6 
			160.398,186.781 		"/>
	</g>
	<g clip-path="url(#SVGID_2_)">
		<defs>
			<rect id="SVGID_46_" width="335.556" height="201.333"/>
		</defs>
		<clipPath id="SVGID_47_">
			<use xlink:href="#SVGID_46_"  overflow="visible"/>
		</clipPath>
		<path clip-path="url(#SVGID_47_)" fill="#861E6C" d="M136.497,201.333c-9.466-21.508-12.938-45.233-20.246-67.621
			c0.156,1.38,0.609,2.727,1.319,3.92c-2.531-3.782-7.862-5.052-12.18-3.618c-4.319,1.436-7.619,5.11-9.528,9.241
			c-1.909,4.131-2.591,8.713-3.045,13.241c-1.514,15.072-0.224,30.581,4.699,44.837"/>
		<path clip-path="url(#SVGID_47_)" fill="#D071A5" d="M97.502,133.905c-1.79,0.374-3.819,1.037-4.474,2.743
			c3.399,6.04,8.234,11.264,13.992,15.12c4.907-5.366,9.309-11.742,9.879-18.99C110.425,132.194,103.866,132.575,97.502,133.905"/>
		<path clip-path="url(#SVGID_47_)" fill="#D071A5" d="M92.243,155.157v-0.446c11.161,2.69,22.789,1.684,34.203,0.443
			c0.599,1.387-0.183,3.063-1.403,3.955c-1.22,0.893-2.767,1.182-4.259,1.42c-6.631,1.057-13.341,1.572-20.053,1.731
			c-2.806,0.065-5.757,0.036-8.211-1.326c-0.392-0.218-0.279-1.095-0.015-0.732"/>
		<path clip-path="url(#SVGID_47_)" fill="#D071A5" d="M92.32,171.355c0.846-1.019,2.357-1.072,3.68-1.09
			c5.505-0.07,10.972-0.923,16.366-2.023c3.498-0.714,6.979-1.535,10.375-2.635c1.443-0.469,3.107-0.966,4.396-0.164
			c1.562,0.971,1.553,3.413,0.445,4.881c-1.107,1.469-2.926,2.187-4.668,2.778c-8.169,2.778-16.847,4.315-25.448,3.633
			c-1.536-0.122-3.155-0.35-4.361-1.308C91.898,174.469,91.335,172.54,92.32,171.355"/>
		<path clip-path="url(#SVGID_47_)" fill="#D071A5" d="M132.09,184.012c-0.626,1.623-2.629,2.133-4.345,2.42
			c-9.5,1.591-19.054,3.185-28.686,3.161c-1.558-0.004-3.153-0.057-4.603-0.627c-1.45-0.569-2.748-1.758-3.04-3.288
			c-0.062-0.328-0.071-0.688,0.11-0.968c0.285-0.437,0.892-0.49,1.413-0.501c12.358-0.258,24.683-2.074,36.59-5.389
			C131.099,180.162,132.833,182.085,132.09,184.012"/>
		<path clip-path="url(#SVGID_47_)" fill="#D071A5" d="M134.503,196.853c-0.113,0.339-0.476,0.518-0.807,0.653
			c-5.103,2.089-10.752,2.34-16.265,2.352c-3.604,0.007-7.209-0.077-10.809-0.25c-3.188-0.154-6.399-0.385-9.472-1.248
			c-0.73-0.206-1.56-0.56-1.733-1.298c-0.159-0.675,0.356-1.36,0.991-1.64c0.634-0.277,1.355-0.251,2.048-0.226
			c9.635,0.348,19.317-0.607,28.699-2.832c1.73-0.41,3.695-0.826,5.172,0.165c1.158,0.775,1.661,2.199,2.093,3.523
			C134.505,196.313,134.589,196.594,134.503,196.853"/>
		<g clip-path="url(#SVGID_47_)">
			<g>
				<defs>
					<rect id="SVGID_48_" x="93.039" y="139.904" width="10.919" height="61.313"/>
				</defs>
				<clipPath id="SVGID_49_">
					<use xlink:href="#SVGID_48_"  overflow="visible"/>
				</clipPath>
				<path clip-path="url(#SVGID_49_)" fill="#ACB0D6" d="M98.518,201.217c-0.804-2.519-1.431-5.105-2.018-7.683
					c-2.051-9.007-3.695-18.188-3.434-27.421c0.261-9.234,2.532-18.59,7.754-26.209c-1.535,10.704-2.067,21.551-1.586,32.353
					c0.433,9.737,1.732,19.565,4.724,28.804"/>
			</g>
		</g>
		<path clip-path="url(#SVGID_47_)" fill="#E5B47F" d="M97.148,135.186c1.941,4.445,4.609,8.573,7.864,12.169
			c0.346,0.384,0.737,0.781,1.245,0.872c0.923,0.164,1.662-0.724,2.171-1.51c2.503-3.866,4.29-6.997,6.518-11.027
			c-0.775-1.389-2.509-1.655-3.626-2.788c-0.74-0.749-0.682-1.948-0.575-2.995c-1.781-0.17-3.58-0.137-5.354,0.098
			c-0.298,0.039-0.622,0.099-0.817,0.328c-0.272,0.319-0.164,0.799-0.137,1.219c0.099,1.552-1.196,2.918-2.666,3.428
			C100.302,135.489,98.696,135.341,97.148,135.186"/>
	</g>
	<g clip-path="url(#SVGID_2_)">
		<defs>
			<path id="SVGID_50_" d="M105.392,130.004c-0.299,0.039-0.623,0.099-0.818,0.328c-0.272,0.32-0.164,0.798-0.137,1.219
				c0.099,1.552-1.196,2.917-2.666,3.429c-1.47,0.51-3.075,0.36-4.623,0.206c1.941,4.445,4.609,8.572,7.863,12.17
				c0.348,0.383,0.737,0.78,1.247,0.871c0.922,0.163,1.661-0.724,2.17-1.511c2.503-3.865,4.29-6.996,6.517-11.025
				c-0.774-1.39-2.509-1.656-3.625-2.788c-0.74-0.749-0.682-1.949-0.575-2.997c-0.745-0.07-1.493-0.105-2.241-0.105
				C107.464,129.8,106.423,129.868,105.392,130.004"/>
		</defs>
		<clipPath id="SVGID_51_">
			<use xlink:href="#SVGID_50_"  overflow="visible"/>
		</clipPath>
		<path clip-path="url(#SVGID_51_)" fill="#D59A69" d="M110.456,131.389c-8.756,0.553-13.403,9.344-14.134,17.051
			c-0.247,2.604,4.036,3.176,4.573,0.619c0.799-3.798,1.318-7.244,4.163-10.133c2.021-2.053,4.662-3.583,6.288-5.985
			C111.774,132.31,111.213,131.34,110.456,131.389"/>
		<path clip-path="url(#SVGID_51_)" fill="#D59A69" d="M110.863,132.96c0.17,0.767-0.503,1.611-0.613,2.365
			c-0.134,0.919,0.151,1.797,0.732,2.516c1.276,1.576,3.489,2.908,5.166,4.023c2.272,1.511,4.144-2.003,2.09-3.575
			c-1.397-1.07-3.076-1.869-4.414-2.995c-0.859-0.724-0.693-2.085-1.262-3.051C112.016,131.315,110.637,131.942,110.863,132.96"/>
		<path clip-path="url(#SVGID_51_)" fill="#D59A69" d="M98.671,140.967c1.731,4.036,3.848,7.802,6.46,11.336
			c0.925,1.251,3.046,0.021,2.104-1.231c-2.62-3.482-4.994-7.145-7.039-10.995C99.649,139.048,98.236,139.952,98.671,140.967"/>
		<path clip-path="url(#SVGID_51_)" fill="#D59A69" d="M99.13,138.791c0.736,6.082,5.233,12.074,9.163,16.569
			c1.644,1.883,5.034-0.658,3.509-2.707c-1.888-2.535-3.765-5.06-5.581-7.647c-1.661-2.369-3.17-4.978-5.291-6.961
			C100.333,137.485,99.013,137.823,99.13,138.791"/>
	</g>
	<g clip-path="url(#SVGID_2_)">
		<defs>
			<path id="SVGID_52_" d="M122.611,138.488c1.638,4.26,3.277,8.52,4.915,12.779c-3.269-1.451-4.559-5.329-5.499-8.781
				c-2.232,2.056-2.815,5.323-2.99,8.353c-0.383,6.616-1.06,9.276,1.19,15.509c-0.31-0.493-0.199,0.007-0.077,0.504
				c0.122,0.505,0.257,1.008-0.02,0.492c2.911,11.536,6.711,23.098,11.494,33.989h19.227
				c-11.982-11.053-18.967-26.988-18.769-43.288c3.839,1.275,7.617,2.733,11.318,4.367c11.56,5.104,22.978,12.636,27.956,24.251
				c1.794-0.176,3.011-2.097,3.02-3.9c0.009-1.802-0.875-3.477-1.794-5.027c-11.376-19.193-30.873-31.748-51.018-41.783
				C121.939,136.797,122.288,137.651,122.611,138.488"/>
		</defs>
		<clipPath id="SVGID_53_">
			<use xlink:href="#SVGID_52_"  overflow="visible"/>
		</clipPath>
		
			<linearGradient id="SVGID_54_" gradientUnits="userSpaceOnUse" x1="0" y1="201.1826" x2="1" y2="201.1826" gradientTransform="matrix(13.6522 -19.113 -19.113 -13.6522 3976.5256 2936.0017)">
			<stop  offset="0" style="stop-color:#4A6E8B"/>
			<stop  offset="3.786670e-004" style="stop-color:#4A6E8B"/>
			<stop  offset="0.3552" style="stop-color:#5B829D"/>
			<stop  offset="1" style="stop-color:#7299AE"/>
		</linearGradient>
		<polygon clip-path="url(#SVGID_53_)" fill="url(#SVGID_54_)" points="87.054,179.245 137.033,109.273 205.308,158.04 
			155.328,228.012 		"/>
		<path clip-path="url(#SVGID_53_)" fill="#5A818E" d="M169.484,184.911c-6.8-14.794-20.699-23.445-35.528-28.8
			c-1.964-0.709-3.369,1.374-3.075,3.075l1.303,7.563l4.822-1.33c-0.342-1.837-0.773-3.514-1.36-5.288
			c-0.847-2.563-5.039-2.28-4.91,0.665c0.738,16.86,8.602,32.611,21.864,43.105c2.497,1.975,6.059-1.54,3.536-3.536
			c-12.242-9.687-19.716-23.938-20.4-39.569c-1.637,0.222-3.274,0.443-4.911,0.664c0.587,1.775,1.018,3.452,1.359,5.289
			c0.59,3.172,5.363,1.813,4.822-1.33l-1.304-7.563c-1.025,1.024-2.05,2.05-3.075,3.074c13.678,4.94,26.279,12.884,32.54,26.504
			C166.509,190.355,170.82,187.817,169.484,184.911"/>
	</g>
	<g clip-path="url(#SVGID_2_)">
		<defs>
			<rect id="SVGID_55_" width="335.556" height="201.333"/>
		</defs>
		<clipPath id="SVGID_56_">
			<use xlink:href="#SVGID_55_"  overflow="visible"/>
		</clipPath>
		<path clip-path="url(#SVGID_56_)" fill="#4F6C7D" d="M114.276,136.359c2.41,1.133,4.882-1.605,7.287-0.407
			c-1.414-3.175-3.307-4.839-6.491-5.954c-1.259-0.442-3.005-0.324-3.496,0.917c-0.171,0.43-0.508,4.481-0.48,4.942"/>
		<path clip-path="url(#SVGID_56_)" fill="#4F6C7D" d="M119.037,150.839c0.175-3.028,0.759-6.297,2.99-8.354
			c0.94,3.453,2.23,7.331,5.5,8.782c-1.639-4.26-3.277-8.52-4.916-12.779c-0.322-0.837-0.672-1.692-1.047-2.536
			c-2.405-1.198-4.817-2.367-7.228-3.5c0.951,11.766,2.356,22.709,5.244,34.155c0.551,1.025,1.836,7.026,2.457,8.02
			C121.003,165.572,118.654,157.455,119.037,150.839"/>
	</g>
	<g clip-path="url(#SVGID_2_)">
		<defs>
			<path id="SVGID_57_" d="M58.059,85.069c-0.519,1.981-0.141,4.075,0.277,6.079c4.57,21.867,14.497,43.564,32.261,57.111
				c-0.466,17.671-0.575,35.968,3.363,53.074h7.243c-3.866-11.677-5.493-24.347-4.889-36.769c-0.628-7.873-0.41-15.814,0.671-23.638
				c-1.412,2.412-2.647,4.929-3.691,7.521c-0.562-5.634,1.041-11.429,4.295-16.054c-5.847-1.971-11.255-5.248-15.653-9.577
				c-9.594-9.445-13.884-22.877-17.842-35.746c-0.596-1.94-1.192-3.88-1.789-5.82C60.258,81.262,58.578,83.089,58.059,85.069"/>
		</defs>
		<clipPath id="SVGID_58_">
			<use xlink:href="#SVGID_57_"  overflow="visible"/>
		</clipPath>
		
			<linearGradient id="SVGID_59_" gradientUnits="userSpaceOnUse" x1="0" y1="201.4063" x2="1" y2="201.4063" gradientTransform="matrix(-14.7834 -66.5254 -66.5254 14.7834 13491.0518 -2777.45)">
			<stop  offset="0" style="stop-color:#4A6E8B"/>
			<stop  offset="3.786670e-004" style="stop-color:#4A6E8B"/>
			<stop  offset="0.3552" style="stop-color:#5B829D"/>
			<stop  offset="1" style="stop-color:#7299AE"/>
		</linearGradient>
		<polygon clip-path="url(#SVGID_58_)" fill="url(#SVGID_59_)" points="59.595,210.579 32.111,86.903 99.148,72.006 
			126.632,195.683 		"/>
	</g>
	<g clip-path="url(#SVGID_2_)">
		<defs>
			<path id="SVGID_60_" d="M58.059,85.069c-0.519,1.981-0.141,4.075,0.277,6.079c4.57,21.867,14.497,43.564,32.261,57.111
				c-0.466,17.671-0.575,35.968,3.363,53.074h7.243c-3.866-11.677-5.493-24.347-4.889-36.769c-0.628-7.873-0.41-15.814,0.671-23.638
				c-1.412,2.412-2.647,4.929-3.691,7.521c-0.562-5.634,1.041-11.429,4.295-16.054c-5.847-1.971-11.255-5.247-15.653-9.577
				c-9.594-9.445-13.884-22.877-17.842-35.746c-0.596-1.94-1.192-3.88-1.789-5.82C60.258,81.262,58.578,83.089,58.059,85.069"/>
		</defs>
		<clipPath id="SVGID_61_">
			<use xlink:href="#SVGID_60_"  overflow="visible"/>
		</clipPath>
		<path clip-path="url(#SVGID_61_)" fill="#7299AE" d="M79.415,128.938c-6.435-10.847-11.768-22.125-15.946-34.028
			c-2.835-8.076-15.774-4.6-12.91,3.559c4.551,12.965,10.284,25.408,17.296,37.228C72.248,143.1,83.826,136.373,79.415,128.938"/>
		<path clip-path="url(#SVGID_61_)" fill="#5A818E" d="M89.439,160.656c0.047-3.157-0.82-6.329-0.582-9.896
			c0.021-2.384,3.775-2.606,2.005-4.074c-0.647-0.647-1.615-1.37-2.486-2.074c-9.16-7.378-15.724-15.823-20.507-26.586
			c-4.837-10.883-9.186-22.419-9.162-34.469c-0.001,0.272-6.153,1.246-6.156,2.631c-0.023,11.69,4.088,22.816,8.696,33.417
			c4.862,11.184,11.478,19.988,20.974,27.637c0.871,0.704,1.749,1.399,2.635,2.085c1.887,0.693,2.434,2.002,1.641,3.925
			c0.547,3.088-0.261,7.059-0.308,10.215"/>
		<path clip-path="url(#SVGID_61_)" fill="#5A818E" d="M140.75,215.063c-8.721-19.266-17.323-38.643-21.483-59.491
			c-0.375-1.882-6.817-1.827-6.633-0.901c4.2,21.044,12.84,40.622,21.645,60.075C134.981,216.299,141.314,216.313,140.75,215.063"/>
	</g>
	<g clip-path="url(#SVGID_2_)">
		<defs>
			<rect id="SVGID_62_" width="335.556" height="201.333"/>
		</defs>
		<clipPath id="SVGID_63_">
			<use xlink:href="#SVGID_62_"  overflow="visible"/>
		</clipPath>
		<path clip-path="url(#SVGID_63_)" fill="#4F6C7D" d="M105.072,135.857c0.502-3.515,1.171-6.192-7.484-3.463
			c1.325,0.447,1.434,4.16,2.798,4.467"/>
		<path clip-path="url(#SVGID_63_)" fill="#4F6C7D" d="M93.294,148.448c1.044-2.593,2.279-5.109,3.691-7.521
			c-1.081,7.824-1.298,15.765-0.672,23.639c0.509-10.486,2.988-20.675,5.914-30.717c-1.364-0.307-3.314-1.007-4.639-1.454
			C94.336,137.02,92.733,142.814,93.294,148.448"/>
	</g>
	<g clip-path="url(#SVGID_2_)">
		<defs>
			<path id="SVGID_64_" d="M93.928,59.664c-0.973,0.493-2.005,1.263-2.039,2.354l-3.193,7.244c-2.054,4.625-3.75,9.408-5.07,14.293
				c-1.279,4.737-2.207,9.602-2.204,14.508c0.007,14.491,8.87,28.621,21.912,34.936c1.431,0.693,2.962,1.308,4.553,1.261
				c1.825-0.055,3.498-0.972,5.09-1.866c6.447-3.619,13.144-7.467,17.194-13.651c2.977-4.544,4.259-9.98,5.073-15.353
				c0.951-6.282,1.331-12.66,0.987-19.006c-0.308-5.675-1.331-11.634-4.975-15.996c-3.648-4.367-9.309-6.424-14.746-8.098
				c-4.423-1.361-9.175-2.57-13.755-2.57C99.686,57.72,96.694,58.262,93.928,59.664"/>
		</defs>
		<clipPath id="SVGID_65_">
			<use xlink:href="#SVGID_64_"  overflow="visible"/>
		</clipPath>
		
			<radialGradient id="SVGID_66_" cx="0" cy="201.333" r="1" gradientTransform="matrix(44.4345 0 0 -44.4345 95.1529 9055.0186)" gradientUnits="userSpaceOnUse">
			<stop  offset="0" style="stop-color:#E5B47F"/>
			<stop  offset="0.5537" style="stop-color:#E5B47F"/>
			<stop  offset="0.7638" style="stop-color:#D29056"/>
			<stop  offset="1" style="stop-color:#D29056"/>
		</radialGradient>
		<rect x="81.419" y="57.72" clip-path="url(#SVGID_65_)" fill="url(#SVGID_66_)" width="55.156" height="76.586"/>
		<path clip-path="url(#SVGID_65_)" fill="#D59A69" d="M120.975,89.573c-1.463-2.545-4.478-4.183-7.322-2.945
			c-3.444,1.498-4.245,5.523-5.105,8.778c-0.546,2.067,2.362,2.746,3.122,0.861c0.589-1.461,0.726-3.41,1.647-4.688
			c0.234-0.86,0.868-1.266,1.9-1.221c0.969-0.872,1.719-0.82,2.25,0.158c0.984,0.802,1.406,2.209,1.481,3.434
			c0.148,2.412-1.504,8.68-4.092,9.67c-0.772,0.295-0.677,1.42,0.198,1.465c2.989,0.152,4.876-3.671,5.899-5.983
			C122.273,96.12,122.666,92.513,120.975,89.573"/>
		<path clip-path="url(#SVGID_65_)" fill="#D59A69" d="M93.048,86.181c-1.372-1.907-3.729-2.54-5.658-1.031
			c-2.363,1.85-3.228,5.29-3.525,8.114c-0.235,2.233,3.169,2.156,3.456,0c0.116-0.87,0.657-4.464,1.652-4.793
			c2.53-0.836,2.512,2.846,2.504,4.078c-0.018,2.714-0.995,5.431-1.519,8.089c-0.128,0.214-0.128,0.392-0.059,0.656
			c0.092,0.355,0.491,0.583,0.845,0.48c2.179-0.634,3.186-4.993,3.564-6.926C94.856,92.038,94.787,88.597,93.048,86.181"/>
		<path clip-path="url(#SVGID_65_)" fill="#D59A69" d="M122.354,127.336c-5.369,1.549-11.205,4.91-16.915,4.146
			c-1.18-0.157-2.316-0.45-3.42-0.836c-8.03-4.758-13.418-12.944-19.277-20.328c-0.484-0.61-1.321,0.166-1.019,0.785
			c2.2,4.525,4.826,9.071,8.019,13.09c-0.091,0.243-0.071,0.528,0.137,0.743c1.712,1.767,3.491,3.533,5.411,5.093
			c2.161,1.864,4.532,3.458,7.126,4.698c-0.365,0.591-0.174,1.556,0.634,1.813c0.328,0.105,0.656,0.21,0.984,0.313
			c-1.374-0.169-2.749-0.337-4.123-0.508c-1.672-0.209-1.776,2.276-0.375,2.776c0.036,0.013,0.072,0.025,0.108,0.039
			c-1.071,0.496-1.251,2.366,0.203,2.835c0.112,0.036,0.224,0.066,0.336,0.103c-0.629,0.77-0.543,2.1,0.718,2.471
			c0.953,0.279,1.887,0.594,2.813,0.924c-0.308,0.369-0.452,0.866-0.294,1.384c0.421,1.382,1.017,2.288,2.041,3.125
			c-0.344,0.741-0.702,1.483-1.095,2.228c-0.836,1.588,1.412,3.603,2.629,2.028c0.375-0.486,0.718-0.989,1.041-1.504
			c0.363-0.018,0.738-0.158,1.083-0.476c2.222-2.047,3.518-4.702,4.248-7.555c0.159,0.015,0.317,0.032,0.475,0.046
			c1.275,0.106,1.933-1.678,1.04-2.509c-0.294-0.272-0.604-0.508-0.92-0.726c0.033-0.25,0.063-0.515,0.091-0.787
			c0.22,0.023,0.441,0.049,0.661,0.073c1.243,0.139,1.77-1.748,0.799-2.389c0.119-0.481,0.03-0.999-0.411-1.367
			c-0.143-0.118-0.281-0.225-0.42-0.334c-0.07-0.14-0.164-0.269-0.277-0.386c0.425-0.369,0.364-1.2-0.295-1.4
			c-0.457-0.14-0.913-0.262-1.369-0.384c-0.015-0.052-0.019-0.106-0.039-0.156c3.67-0.865,7.28-2.442,10.568-3.748
			C125.276,129.86,124.537,126.706,122.354,127.336"/>
	</g>
	<g clip-path="url(#SVGID_2_)">
		<defs>
			<rect id="SVGID_67_" width="335.556" height="201.333"/>
		</defs>
		<clipPath id="SVGID_68_">
			<use xlink:href="#SVGID_67_"  overflow="visible"/>
		</clipPath>
		<g clip-path="url(#SVGID_68_)">
			<g>
				<defs>
					<rect id="SVGID_69_" x="84.81" y="103.402" width="12.612" height="10.773"/>
				</defs>
				<clipPath id="SVGID_70_">
					<use xlink:href="#SVGID_69_"  overflow="visible"/>
				</clipPath>
				<path clip-path="url(#SVGID_70_)" fill="#E5B47F" d="M97.402,103.402c0.205,1.797-1.181,3.523-2.9,4.087
					c-1.718,0.564-3.638,0.142-5.221-0.733c-0.72-0.397-1.444-0.901-2.266-0.894c-1.411,0.013-2.384,1.637-2.178,3.032
					s1.236,2.523,2.332,3.412c1.74,1.408,4.161,2.466,6.176,1.492"/>
			</g>
		</g>
	</g>
	<g clip-path="url(#SVGID_2_)">
		<defs>
			<path id="SVGID_71_" d="M87.015,105.863c-1.411,0.012-2.384,1.636-2.178,3.031c0.207,1.396,1.236,2.523,2.332,3.411
				c1.74,1.408,4.161,2.467,6.176,1.492l2.875-7.367c-0.483,0.478-1.077,0.85-1.717,1.06c-1.718,0.563-3.639,0.139-5.222-0.734
				c-0.713-0.395-1.432-0.893-2.247-0.893C87.028,105.863,87.021,105.863,87.015,105.863 M96.22,106.431
				c0.813-0.802,1.311-1.901,1.182-3.028L96.22,106.431z"/>
		</defs>
		<clipPath id="SVGID_72_">
			<use xlink:href="#SVGID_71_"  overflow="visible"/>
		</clipPath>
		<g clip-path="url(#SVGID_72_)">
			<g>
				<defs>
					<rect id="SVGID_73_" x="83.072" y="103.776" width="11.881" height="11.48"/>
				</defs>
				<clipPath id="SVGID_74_">
					<use xlink:href="#SVGID_73_"  overflow="visible"/>
				</clipPath>
				<path clip-path="url(#SVGID_74_)" fill="#DCA36A" d="M86.962,106.834c0.35-0.096,1.189,0.441,1.449,0.548
					c2.388,0.986,5.994,1.375,6.532-1.913c0.114-0.699-0.733-1.097-1.153-0.484c-1.642,2.391-5.508-1.476-7.72-1.193
					c-2.217,0.283-3.199,2.462-2.964,4.478c0.531,4.552,5.459,7.878,9.845,6.776c1.721-0.433,1.344-3.07-0.416-3.073
					c-1.776-0.004-3.481-0.193-4.822-1.485c-0.573-0.553-1.052-1.257-1.318-2.011C86.192,107.897,86.182,107.048,86.962,106.834"/>
			</g>
		</g>
		<path clip-path="url(#SVGID_72_)" fill="#DCA36A" d="M91.675,108.198c1.226,0.921,2.949,0.344,3.937-0.663
			c1.179-1.202,1.425-3.014,0.659-4.498c-0.922-1.789-3.958-0.553-3.284,1.385c-0.004-0.011,0.202,0.521,0.133,0.313
			c0.01,0.03-0.003,0.32,0.021,0.139c-0.025,0.19-0.022,0.17-0.139,0.304c0.164-0.189-0.201,0.101-0.055,0.015
			c0.105-0.061-0.292,0.153-0.289,0.15c-0.13,0.079-0.257,0.171-0.383,0.258c-0.309,0.216-0.718,0.605-0.838,0.753
			C90.921,106.989,91.026,107.712,91.675,108.198"/>
		<g clip-path="url(#SVGID_72_)">
			<g>
				<defs>
					<rect id="SVGID_75_" x="84.81" y="103.402" width="12.612" height="10.773"/>
				</defs>
				<clipPath id="SVGID_76_">
					<use xlink:href="#SVGID_75_"  overflow="visible"/>
				</clipPath>
			</g>
		</g>
	</g>
	<g clip-path="url(#SVGID_2_)">
		<defs>
			<rect id="SVGID_77_" width="335.556" height="201.333"/>
		</defs>
		<clipPath id="SVGID_78_">
			<use xlink:href="#SVGID_77_"  overflow="visible"/>
		</clipPath>
		<g clip-path="url(#SVGID_78_)">
			<g>
				<defs>
					<rect id="SVGID_79_" x="84.81" y="103.402" width="12.612" height="10.773"/>
				</defs>
				<clipPath id="SVGID_80_">
					<use xlink:href="#SVGID_79_"  overflow="visible"/>
				</clipPath>
			</g>
		</g>
		<path clip-path="url(#SVGID_78_)" fill="#FFFFFF" d="M113.418,87.853c-2.809,0.786-4.524,3.634-5.408,6.414
			c-0.397,1.251-0.686,2.536-0.861,3.837c-0.146,1.083-0.213,2.192,0,3.263c0.402,2.02,1.849,3.799,3.743,4.604
			c1.894,0.805,4.18,0.611,5.912-0.5c1.224-0.785,2.143-1.969,2.89-3.215c1.734-2.893,2.66-6.478,1.579-9.671
			S116.665,86.943,113.418,87.853"/>
		<path clip-path="url(#SVGID_78_)" fill="#FFFFFF" d="M87.835,103.91c1.319-0.062,2.462-0.896,3.365-1.821
			c3.195-3.274,4.397-8.225,3.038-12.518c-0.526-1.662-1.584-3.362-3.323-3.844c-2.08-0.576-4.213,0.828-5.539,2.47
			c-2.62,3.243-3.448,7.747-2.143,11.655C83.918,101.902,85.593,104.017,87.835,103.91"/>
		<path clip-path="url(#SVGID_78_)" d="M117.091,94.966c0.815,0.632,2.424,0.524,2.771-0.651c0.346-1.174-0.277-2.393-0.879-3.458
			c-0.283-0.502-0.596-1.031-1.112-1.287c-1.221-0.605-2.632,0.876-2.513,2.234c0.119,1.358,0.178,1.76,1.15,2.717"/>
		<path clip-path="url(#SVGID_78_)" d="M90.787,93.192c0.788,0.665,2.4,0.625,2.796-0.534c0.395-1.158-0.176-2.402-0.733-3.492
			c-0.262-0.513-0.552-1.055-1.057-1.332c-1.195-0.656-2.666,0.764-2.605,2.126c0.062,1.362,0.105,1.766,1.035,2.762"/>
		<path clip-path="url(#SVGID_78_)" fill="#B25A10" d="M120.544,87.31c-0.46-1.788-1.401-3.58-3.037-4.437
			c-1.635-0.856-4.031-0.361-4.73,1.348c0.182-1.694,0.749-3.708,2.393-4.158c1.948-0.534,3.537,1.54,4.494,3.319l2.385,4.43"/>
		<path clip-path="url(#SVGID_78_)" fill="#B25A10" d="M94.852,83.698c-0.522-1.757-2.683-2.626-4.471-2.224
			c-1.789,0.403-3.214,1.755-4.311,3.224c0.059-2.378,1.461-4.678,3.547-5.821c0.536-0.293,1.126-0.517,1.737-0.521
			c1.248-0.006,2.333,0.911,2.986,1.974c0.653,1.063,0.988,2.286,1.51,3.42"/>
		<path clip-path="url(#SVGID_78_)" fill="#3B2C27" d="M101.564,127.119c-0.727-0.85-0.602-2.111-0.436-3.218
			c0.353-2.348,0.706-4.696,1.059-7.045c-2.023,0.441-4.151,0.394-6.153-0.138c6.916-0.176,13.787-1.942,19.93-5.124
			c-0.819,6.17-4.474,11.905-9.721,15.252C104.801,127.767,102.676,128.419,101.564,127.119"/>
		<path clip-path="url(#SVGID_78_)" fill="#B25A10" d="M132.816,72.987c-2.241,2.124-4.187,4.559-5.764,7.213
			c-4.995-3.516-10.82-5.845-16.862-6.74c1.323-3.326,3.755-6.2,6.815-8.055c-3.612,2.072-6.783,4.908-9.243,8.268
			c-4.197-0.716-8.527-0.645-12.699,0.208c0.307-3.837,2.774-7.429,6.246-9.091c-5.198,1.001-9.906,4.311-12.607,8.862
			c-3.723-1.918-7.795-3.159-11.955-3.644c6.108-11.228,19.531-16.498,32.246-17.812c5.94-0.614,12.03-0.55,17.771,1.095
			c5.74,1.646,11.13,4.987,14.464,9.941c0.096-2.152,0.643-4.283,1.596-6.215c-0.273,2.477-0.342,4.976-0.207,7.464
			c2.624-1.423,5.864-1.656,8.663-0.622c-2.803,0.54-5.48,1.73-7.759,3.449c3.568,5.033,4.611,11.404,5.072,17.556
			c0.46,6.151,0.451,12.427,2.286,18.317c1.835,5.889,5.959,11.502,11.901,13.158c-1.342,3.077-5.535,3.991-8.68,2.818
			c-3.144-1.173-5.465-3.824-7.64-6.38c4.021,5.621,9.018,10.542,14.7,14.477c-1.519,1.031-3.039,2.063-4.559,3.096
			c-2.976-2.37-5.609-5.169-7.791-8.284c1.351,3.073,3.01,6.011,4.944,8.755c-1.804-1.472-3.608-2.943-5.411-4.415
			c1.132,2.273,2.51,4.423,4.102,6.401c-3.561,1.902-7.506,3.081-11.528,3.443c-1.478-5.159-2.497-10.45-3.042-15.789
			c-0.11,5.789,0.168,11.585,0.832,17.336c-1.177,0.37-2.353,0.739-3.53,1.109c-5.826-6.435-7.038-15.732-7.386-24.406
			C127.229,100.492,128.246,86.242,132.816,72.987"/>
	</g>
</g>
</svg>
