<?xml version="1.0" encoding="UTF-8"?>
<!DOCTYPE svg PUBLIC "-//W3C//DTD SVG 1.1//EN" "http://www.w3.org/Graphics/SVG/1.1/DTD/svg11.dtd">
<svg version="1.1" xmlns="http://www.w3.org/2000/svg" xmlns:xlink="http://www.w3.org/1999/xlink" x="0" y="0" width="44.177" height="44.167" viewBox="0, 0, 44.177, 44.167">
  <defs>
    <radialGradient id="Gradient_1" gradientUnits="userSpaceOnUse" cx="30.189" cy="-14.763" r="26.229" gradientTransform="matrix(1, 0, 0, -1, 0, 0)">
      <stop offset="0" stop-color="#FA2222"/>
      <stop offset="0.355" stop-color="#ED2713"/>
      <stop offset="1" stop-color="#C80000"/>
    </radialGradient>
    <clipPath id="Clip_1">
      <path d="M22.168,44.167 C30.975,44.12 39.472,38.277 42.67,30.071 C44.079,26.455 44.513,22.465 43.916,18.63 C43.285,14.58 41.502,10.715 38.83,7.607 C36.78,5.223 34.215,3.283 31.363,1.96 C23.374,-1.747 13.198,-0.079 6.811,5.985 C0.423,12.048 -1.772,22.123 1.515,30.294 C4.801,38.465 13.361,44.215 22.168,44.167 z"/>
    </clipPath>
  </defs>
  <g id="Layer_1">
    <g clip-path="url(#Clip_1)" opacity="0.9">
      <path d="M38.83,7.607 C36.78,5.223 34.215,3.283 31.363,1.96 C23.374,-1.747 13.198,-0.079 6.811,5.985 C0.423,12.048 -1.772,22.123 1.515,30.294 C4.801,38.465 13.361,44.215 22.168,44.167 C30.975,44.12 39.472,38.277 42.67,30.071 C44.079,26.455 44.513,22.465 43.916,18.63 C43.285,14.58 41.502,10.715 38.83,7.607 z" fill="url(#Gradient_1)"/>
    </g>
  </g>
</svg>
