<?xml version="1.0" encoding="UTF-8"?>
<!DOCTYPE svg PUBLIC "-//W3C//DTD SVG 1.1//EN" "http://www.w3.org/Graphics/SVG/1.1/DTD/svg11.dtd">
<svg version="1.1" xmlns="http://www.w3.org/2000/svg" xmlns:xlink="http://www.w3.org/1999/xlink" x="0" y="0" width="56.084" height="63.358" viewBox="0, 0, 56.084, 63.358">
  <g id="Layer_1">
    <path d="M14.764,0 C14.981,0.007 15.189,0.063 15.388,0.146 C15.771,0.324 16.107,0.598 16.45,0.839 C16.806,1.09 17.101,1.422 17.409,1.729 C17.683,2.004 17.97,2.277 18.208,2.585 C18.649,3.161 18.984,3.795 19.323,4.434 C19.733,5.214 20.08,6.044 20.299,6.9 C20.367,7.174 20.383,7.451 20.44,7.722 C20.51,8.051 20.65,8.382 20.69,8.715 C20.72,8.961 20.697,9.222 20.697,9.469 C20.697,9.792 20.731,10.142 20.69,10.462 C20.641,10.805 20.514,11.196 20.405,11.524 C20.129,12.355 19.651,13.07 19.019,13.681 C18.807,13.887 18.593,14.039 18.334,14.174 C18.254,14.215 18.094,14.291 18.094,14.401 C18.094,14.51 18.291,14.58 18.368,14.632 C18.632,14.812 18.902,14.818 19.155,15.133 C19.872,16.03 19.936,18.154 19.943,19.024 L19.943,24.401 C19.941,24.54 19.943,24.462 19.938,24.637 L19.959,24.637 C19.957,24.722 19.952,24.792 19.947,24.881 C19.978,25.064 19.956,24.985 20.002,25.121 C20.103,25.381 20.32,25.36 20.56,25.36 L20.944,25.39 C22.299,25.39 21.6,25.39 23.041,25.391 C23.287,25.392 23.775,25.567 23.906,25.254 C23.985,25.063 23.931,24.774 23.931,24.569 L24.04,17.141 C24.04,16.825 24.026,16.517 24.141,16.216 C24.468,15.361 25.204,14.778 26.026,14.435 C25.83,14.264 25.581,14.196 25.376,14.036 C24.938,13.716 24.504,13.28 24.159,12.86 C23.732,12.346 23.491,11.714 23.329,11.079 C23.2,10.576 23.063,10.091 23.149,9.572 C23.301,8.664 23.339,8.566 23.373,8.408 C23.482,7.894 23.723,7.38 23.948,6.901 C24.269,6.225 24.843,5.702 25.067,4.983 C25.132,4.793 25.228,4.597 25.262,4.4 C25.296,4.202 25.273,3.989 25.273,3.784 C25.273,3.559 25.294,3.322 25.267,3.099 C25.239,2.888 25.129,2.691 25.085,2.482 C25.043,2.285 25.067,2.071 25.067,1.866 C25.067,1.665 25.043,1.447 25.085,1.25 C25.286,0.411 26.032,0.038 26.84,0.035 C27.058,0.042 27.266,0.097 27.465,0.181 C27.848,0.359 28.184,0.633 28.527,0.874 C28.883,1.125 29.177,1.457 29.486,1.763 C29.76,2.039 30.047,2.311 30.284,2.619 C30.725,3.195 31.061,3.83 31.4,4.469 C31.81,5.248 32.157,6.079 32.376,6.935 C32.444,7.209 32.46,7.486 32.517,7.757 C32.587,8.086 32.727,8.417 32.767,8.75 C32.797,8.996 32.773,9.256 32.773,9.504 C32.773,9.826 32.808,10.177 32.766,10.497 C32.717,10.839 32.59,11.231 32.482,11.558 C32.206,12.39 31.728,13.105 31.095,13.716 C30.884,13.922 30.67,14.074 30.41,14.208 C30.331,14.25 30.171,14.326 30.171,14.435 C30.171,14.545 30.368,14.615 30.445,14.667 C30.709,14.846 30.979,14.852 31.231,15.168 C31.949,16.065 32.012,18.189 32.02,19.059 L32.02,24.436 C32.02,24.676 31.986,24.929 32.079,25.155 C32.175,25.398 32.382,25.396 32.613,25.395 C32.687,25.391 32.647,25.393 32.734,25.39 L35.473,25.39 C35.63,25.39 35.848,25.428 35.982,25.331 C36.193,25.179 36.124,24.793 36.124,24.569 L36.124,17.136 C36.124,16.821 36.11,16.513 36.225,16.212 C36.552,15.356 37.289,14.773 38.111,14.431 C37.914,14.26 37.665,14.191 37.46,14.031 C37.022,13.712 36.588,13.275 36.243,12.855 C35.816,12.342 35.576,11.709 35.413,11.074 C35.285,10.572 35.147,10.086 35.234,9.567 C35.385,8.659 35.423,8.561 35.457,8.403 C35.567,7.889 35.807,7.375 36.032,6.896 C36.353,6.22 36.928,5.697 37.152,4.978 C37.216,4.788 37.312,4.592 37.346,4.396 C37.38,4.198 37.357,3.985 37.357,3.779 C37.357,3.555 37.379,3.318 37.351,3.094 C37.323,2.883 37.213,2.686 37.169,2.478 C37.128,2.281 37.152,2.067 37.152,1.861 C37.152,1.661 37.128,1.442 37.169,1.245 C37.37,0.407 38.116,0.033 38.925,0.03 L38.925,0.03 C39.142,0.037 39.35,0.093 39.549,0.176 C39.932,0.354 40.268,0.628 40.611,0.87 C40.967,1.12 41.262,1.452 41.57,1.759 C41.844,2.034 42.131,2.307 42.368,2.615 C42.81,3.191 43.145,3.825 43.484,4.464 C43.894,5.244 44.241,6.074 44.46,6.93 C44.528,7.204 44.544,7.482 44.601,7.752 C44.671,8.081 44.811,8.412 44.851,8.745 C44.881,8.991 44.858,9.252 44.858,9.499 C44.858,9.822 44.892,10.172 44.85,10.492 C44.802,10.835 44.675,11.226 44.566,11.554 C44.29,12.385 43.812,13.1 43.179,13.712 C42.968,13.917 42.754,14.069 42.494,14.204 C42.415,14.245 42.255,14.321 42.255,14.431 C42.255,14.54 42.452,14.61 42.529,14.662 C42.793,14.842 43.063,14.848 43.316,15.163 C44.033,16.06 44.097,18.184 44.104,19.054 L44.104,24.432 C44.104,24.671 44.07,24.925 44.163,25.151 C44.264,25.411 44.481,25.39 44.721,25.39 L48.557,25.39 C48.964,25.39 49.377,25.383 49.79,25.394 C50.422,25.409 50.587,25.418 50.851,25.5 C51.214,25.614 51.559,25.668 51.879,25.774 C52.348,25.93 52.735,26.161 53.146,26.428 C54.251,27.152 55.03,28.336 55.386,29.603 C55.493,29.992 55.53,30.374 55.588,30.768 C55.709,33.759 55.817,34.111 55.848,34.467 C56.098,38.683 56.057,39.255 56.057,39.809 C56.057,40.186 56.107,40.602 56.046,40.974 C55.996,41.282 55.851,41.599 55.643,41.83 C55.463,42.029 55.198,42.207 55.074,42.447 C54.989,42.618 54.993,42.812 54.995,42.995 C55.449,47.569 55.368,48.146 55.406,48.714 C56.091,56.406 56.03,56.9 56.057,57.482 C56.091,58.21 56.091,58.42 56.063,58.681 C56.023,59.025 56.049,59.335 55.947,59.674 C55.695,60.513 55.145,61.276 54.54,61.9 C54.37,62.071 54.132,62.189 53.934,62.33 C53.298,62.783 52.598,63.03 51.844,63.19 C51.651,63.236 51.459,63.304 51.262,63.331 C50.865,63.387 50.43,63.339 50.029,63.339 L5.54,63.338 C5.294,63.339 5.026,63.365 4.786,63.331 C3.922,63.211 3.072,62.911 2.32,62.47 C1.86,62.201 1.505,61.866 1.174,61.455 C1.053,61.318 0.916,61.191 0.811,61.044 C0.433,60.534 -0.022,59.865 0.004,59.229 C0.327,51.464 1.082,43.359 1.05,42.96 C1.025,42.652 0.769,42.435 0.584,42.207 C0.348,41.915 0.009,41.493 0.003,41.111 C-0.056,37.654 0.918,28.912 1.104,28.404 C1.669,26.864 2.697,26.477 3.142,26.22 C4.745,25.297 6.598,25.39 8.382,25.39 C9.216,25.39 10.049,25.39 10.883,25.391 C11.157,25.392 11.564,25.551 11.792,25.311 C11.943,25.154 11.876,24.808 11.876,24.603 L11.963,17.106 C11.963,16.791 11.949,16.483 12.064,16.182 C12.391,15.326 13.128,14.743 13.95,14.401 C13.753,14.229 13.504,14.161 13.299,14.001 C12.861,13.681 12.427,13.245 12.082,12.825 C11.655,12.311 11.415,11.679 11.252,11.044 C11.124,10.542 10.986,10.056 11.073,9.537 C11.224,8.629 11.262,8.531 11.296,8.373 C11.406,7.859 11.646,7.345 11.871,6.866 C12.192,6.19 12.767,5.667 12.991,4.948 C13.055,4.758 13.151,4.562 13.185,4.366 C13.219,4.167 13.196,3.955 13.196,3.749 C13.196,3.525 13.218,3.287 13.19,3.064 C13.162,2.853 13.053,2.656 13.008,2.448 C12.967,2.251 12.991,2.037 12.991,1.831 C12.991,1.631 12.967,1.412 13.008,1.215 C13.209,0.377 13.955,0.003 14.764,0 z M31.472,42.541 C28.854,42.654 27.347,42.937 26.98,42.985 C25.074,43.234 24.465,43.288 23.863,43.379 C21.995,43.795 21.651,43.8 21.329,43.864 C16.671,44.718 16.532,44.691 16.397,44.718 C15.452,44.905 13.126,45.191 12.39,45.186 C7.963,45.156 8.959,45.141 7.74,45.064 C7.079,45.022 6.426,44.906 5.764,44.905 C5.468,44.905 5.163,44.786 4.951,45.056 C4.273,57.083 4.008,58.432 4.998,58.911 C5.32,59.068 5.706,58.989 6.053,58.989 L46.986,58.938 C47.411,58.938 50.171,59.024 50.601,59.024 C51.892,59.024 51.978,58.422 51.892,57.26 C51.86,56.829 51.698,54.981 51.677,54.549 C51.156,48.327 51.097,45.862 51.121,45.562 C51.206,44.509 50.566,44.659 50.187,44.661 C50,44.662 49.728,44.56 48.248,44.895 C45.396,45.539 45.108,45.354 44.815,45.352 C43.152,45.342 42.675,45.175 42.558,45.158 C42.275,45.116 41.954,45.051 41.673,45.004 C41,44.892 40.315,44.741 39.652,44.579 C38.83,44.379 38.028,44.112 37.22,43.872 C37.006,43.809 36.782,43.782 36.569,43.714 C36.259,43.614 35.953,43.482 35.645,43.393 C32.057,42.451 32.152,42.61 31.472,42.541 L31.472,42.541 z M49.687,29.774 C6.197,29.774 6.163,29.722 5.642,29.916 C4.62,30.297 4.786,30.959 4.758,31.179 C4.659,32.664 4.575,33.006 4.547,33.371 C4.273,38.419 4.249,38.121 4.309,39.026 C4.377,40.037 4.337,39.921 5.051,40.476 C5.658,40.948 8.095,41.042 8.314,41.069 C8.841,41.145 9.425,41.077 9.958,41.077 C16.02,40.574 16.119,40.52 16.225,40.501 C18.613,40.162 18.836,40.073 19.068,40.031 C25.233,38.909 25.469,38.919 25.712,38.877 C29.25,38.487 30.086,38.508 30.918,38.508 C31.413,38.508 32.363,38.499 32.845,38.606 C39.074,39.911 38.908,39.984 39.583,40.2 C43.347,41.311 43.573,41.37 46.022,41.069 C48.596,40.753 48.788,40.478 49.139,40.379 C49.64,40.236 50.149,40.004 50.612,39.765 C51.723,39.189 51.52,37.211 51.502,36.864 C51.457,35.907 51.548,34.946 51.501,33.987 C51.336,30.666 51.369,29.621 49.687,29.774 L49.687,29.774 z M28.253,16.929 L28.182,16.93 C28.136,16.931 28.09,16.933 28.044,16.935 L27.979,16.936 C27.823,16.936 27.65,16.915 27.499,16.957 C26.456,17.246 26.574,18.465 26.574,19.299 L26.574,24.333 C26.574,24.533 26.579,24.743 26.591,24.947 C26.62,25.421 27.098,25.486 27.71,25.509 C28.027,25.521 28.65,25.515 28.761,25.498 C29.014,25.459 29.469,25.336 29.462,24.91 C29.458,24.704 29.451,24.499 29.451,24.299 L29.451,18.58 C29.451,18.392 29.479,18.179 29.43,17.997 C29.306,17.543 29.004,17.09 28.527,16.957 C28.416,16.933 28.483,16.945 28.323,16.93 L28.253,16.929 z M40.337,16.925 L40.266,16.925 C40.22,16.926 40.174,16.928 40.128,16.93 L40.063,16.931 C39.907,16.931 39.735,16.911 39.583,16.953 C38.54,17.242 38.659,18.461 38.659,19.294 L38.659,24.329 C38.659,24.528 38.663,24.738 38.675,24.942 C38.704,25.417 39.183,25.481 39.794,25.505 C40.112,25.517 40.734,25.511 40.845,25.494 C41.099,25.454 41.553,25.331 41.546,24.906 C41.542,24.699 41.536,24.494 41.536,24.295 L41.536,18.575 C41.536,18.388 41.563,18.175 41.514,17.993 C41.39,17.538 41.089,17.085 40.611,16.953 C40.5,16.928 40.567,16.94 40.407,16.925 L40.337,16.925 z M16.176,16.895 L16.105,16.895 C16.059,16.896 16.013,16.898 15.968,16.9 L15.902,16.901 C15.746,16.901 15.574,16.881 15.422,16.923 C14.38,17.212 14.498,18.431 14.498,19.264 L14.498,24.299 C14.498,24.498 14.502,24.708 14.514,24.912 C14.544,25.386 15.022,25.451 15.633,25.474 C15.951,25.487 16.573,25.481 16.684,25.463 C16.938,25.424 17.392,25.301 17.385,24.875 C17.382,24.669 17.375,24.464 17.375,24.264 L17.375,18.545 C17.375,18.358 17.402,18.145 17.353,17.963 C17.229,17.508 16.928,17.055 16.45,16.923 C16.339,16.898 16.406,16.91 16.246,16.895 L16.176,16.895 z M28.103,4.021 C28.055,4.023 28.007,4.022 27.959,4.026 C27.62,4.083 27.732,4.021 27.568,4.259 C27.296,4.651 27.549,5.211 27.499,5.496 C27.357,6.307 27.098,6.423 27.019,6.558 C26.829,6.884 26.617,7.195 26.422,7.517 C26.033,8.16 25.65,8.871 25.615,9.641 C25.547,11.132 26.835,12.486 28.355,12.346 C29.477,12.237 30.121,11.13 30.296,10.12 C30.342,9.847 30.308,9.541 30.308,9.264 C30.308,9.029 30.334,8.777 30.3,8.545 C30.262,8.279 30.166,8.018 30.102,7.757 C29.996,7.283 29.787,6.859 29.581,6.421 C28.912,5.024 29.024,5.058 28.835,4.709 C28.66,4.386 28.584,4.272 28.422,4.137 C28.327,4.067 28.223,4.024 28.103,4.021 z M40.188,4.017 C40.139,4.018 40.091,4.018 40.043,4.021 C39.704,4.079 39.816,4.016 39.652,4.254 C39.38,4.647 39.633,5.206 39.583,5.492 C39.441,6.302 39.183,6.418 39.103,6.553 C38.913,6.879 38.701,7.19 38.506,7.512 C38.118,8.155 37.734,8.866 37.7,9.636 C37.631,11.128 38.919,12.482 40.44,12.342 C41.561,12.232 42.205,11.126 42.38,10.115 C42.426,9.842 42.392,9.536 42.392,9.259 C42.392,9.025 42.418,8.772 42.385,8.54 C42.346,8.275 42.251,8.013 42.186,7.752 C42.081,7.278 41.872,6.854 41.665,6.416 C40.996,5.019 41.108,5.053 40.919,4.704 C40.744,4.381 40.668,4.267 40.506,4.133 C40.411,4.062 40.307,4.02 40.188,4.017 L40.188,4.017 z M16.027,3.987 C15.979,3.988 15.93,3.987 15.882,3.991 C15.543,4.049 15.656,3.986 15.491,4.224 C15.219,4.617 15.472,5.176 15.422,5.462 C15.28,6.272 15.022,6.388 14.942,6.523 C14.752,6.849 14.54,7.16 14.345,7.482 C13.957,8.125 13.573,8.836 13.539,9.606 C13.47,11.097 14.758,12.452 16.279,12.311 C17.4,12.202 18.044,11.096 18.22,10.085 C18.265,9.812 18.231,9.506 18.231,9.229 C18.231,8.995 18.257,8.742 18.224,8.51 C18.185,8.244 18.09,7.983 18.025,7.722 C17.92,7.248 17.711,6.824 17.504,6.386 C16.835,4.989 16.947,5.023 16.758,4.674 C16.584,4.351 16.507,4.237 16.345,4.103 C16.25,4.032 16.146,3.989 16.027,3.987 z" fill="#000000"/>
  </g>
</svg>
