<?xml version="1.0" encoding="UTF-8"?>
<!DOCTYPE svg PUBLIC "-//W3C//DTD SVG 1.1//EN" "http://www.w3.org/Graphics/SVG/1.1/DTD/svg11.dtd">
<svg version="1.1" xmlns="http://www.w3.org/2000/svg" xmlns:xlink="http://www.w3.org/1999/xlink" x="0" y="0" width="67" height="69" viewBox="0, 0, 67, 69">
  <g id="Layer_1">
    <path d="M0.637,46.699 Q0.637,43.689 0.375,37.67 Q-0.148,16.602 0.637,6.133 Q0.899,4.039 2.992,3.646 Q3.516,3.254 4.301,3.254 Q12.938,2.992 24.715,7.18 Q24.584,7.311 24.584,7.572 Q24.584,7.703 24.584,7.769 Q24.584,7.834 24.584,7.834 Q24.453,8.357 24.322,8.619 Q24.192,9.797 24.192,10.844 Q24.061,11.236 24.061,11.629 Q24.061,11.76 24.061,12.545 Q13.723,8.75 5.871,8.619 Q5.348,18.303 5.871,37.801 Q6.002,42.643 6.002,45.129 Q14.377,45.914 30.604,50.232 Q37.277,52.064 40.942,52.915 Q44.606,53.766 50.429,54.682 Q56.252,55.598 61.094,55.598 L61.356,55.598 Q61.356,52.195 61.356,45.391 Q61.617,29.164 61.356,20.92 Q57.822,21.312 54.158,21.051 Q54.289,20.527 54.42,20.266 Q54.42,20.004 54.551,19.48 Q54.813,18.434 55.074,17.387 Q55.074,16.732 55.205,16.471 Q55.205,16.471 55.205,16.34 Q55.205,16.078 55.074,15.686 Q55.99,15.816 56.906,15.816 Q60.047,15.816 63.188,15.293 Q64.365,15.031 65.412,15.816 Q66.721,16.602 66.721,18.041 Q66.983,27.07 66.852,45.26 Q66.721,53.504 66.721,57.822 Q66.721,59.262 65.543,60.047 Q64.758,60.963 63.58,60.963 Q62.141,61.094 61.094,61.094 Q56.121,61.094 50.233,60.178 Q44.344,59.262 40.614,58.346 Q36.885,57.43 30.211,55.598 Q12.545,50.756 3.254,50.232 Q2.076,50.232 1.357,49.316 Q0.637,48.4 0.768,47.223 Q0.637,46.961 0.637,46.699 z M41.596,18.957 Q41.596,18.826 41.596,18.826 Q41.596,18.826 41.596,18.695 Q41.596,18.826 41.596,18.957 z M31.781,15.293 Q31.781,15.424 31.716,15.424 Q31.651,15.424 31.716,15.358 Q31.781,15.293 31.781,15.293 z M26.678,13.461 Q26.678,12.938 26.612,12.545 Q26.547,12.152 26.547,11.76 Q26.547,10.582 26.678,9.535 Q26.809,9.012 26.809,8.75 Q26.94,8.357 27.07,7.965 Q27.201,7.311 27.463,6.656 Q27.856,6.002 28.248,5.348 Q31.127,0.637 37.016,0.506 Q37.277,0.375 37.539,0.375 L38.193,0.375 Q38.979,0.375 39.895,0.375 Q47.092,0.375 50.102,4.301 Q53.111,8.096 52.588,13.854 Q52.588,13.854 52.588,14.181 Q52.588,14.508 52.588,14.639 Q52.588,14.77 52.523,15.097 Q52.457,15.424 52.457,15.555 Q52.326,16.078 52.326,16.34 Q52.326,16.471 52.195,17.125 Q51.934,18.303 51.672,19.35 Q51.672,19.35 51.41,20.135 Q51.41,20.135 51.345,20.396 Q51.279,20.658 51.279,20.92 Q50.756,22.49 49.971,24.191 Q46.961,31.65 41.858,36.623 Q41.596,36.885 41.203,37.016 Q41.072,37.016 41.072,37.146 Q40.549,37.539 39.895,37.539 Q39.24,37.539 38.717,37.016 Q30.08,27.594 27.332,16.994 Q27.332,16.994 27.332,16.798 Q27.332,16.602 27.201,16.471 Q26.809,14.9 26.678,13.461 z M29.949,10.713 Q29.949,11.76 30.08,13.068 Q30.08,13.592 30.08,13.854 Q30.211,14.246 30.342,14.9 Q30.342,15.162 30.342,15.162 Q30.735,16.994 31.52,18.957 Q34.66,27.07 40.156,33.613 Q42.643,30.996 44.606,27.594 Q46.699,24.061 47.877,20.396 Q48.008,20.135 48.139,19.611 Q48.27,19.088 48.401,18.826 Q48.662,17.648 48.924,16.602 Q48.924,16.471 49.055,15.816 Q49.055,15.816 49.055,15.62 Q49.055,15.424 49.055,15.358 Q49.055,15.293 49.12,15.162 Q49.186,15.031 49.186,15.031 Q49.186,14.9 49.186,14.508 Q49.84,9.143 47.615,6.525 Q45.26,3.777 39.895,3.777 Q39.371,3.777 38.848,3.777 Q38.717,3.777 38.586,3.777 L38.193,3.777 Q37.932,3.908 37.539,3.908 L37.277,3.908 Q32.697,3.908 30.735,7.572 Q30.342,8.357 30.211,9.143 Q30.08,9.404 30.08,9.666 Q30.08,9.797 30.08,9.862 Q30.08,9.928 30.08,9.928 Q29.949,10.32 29.949,10.713 z M33.483,15.162 Q33.09,14.77 32.828,14.115 Q32.174,12.807 32.174,11.498 Q32.174,11.105 32.174,10.844 Q32.174,10.713 32.174,10.713 Q32.174,10.32 32.305,9.928 Q32.305,9.535 32.436,9.273 Q33.09,6.918 34.987,5.675 Q36.885,4.432 39.502,4.432 L39.633,4.432 Q44.344,4.432 46.961,7.441 Q48.662,9.535 48.27,12.283 Q48.27,12.414 48.27,12.676 Q48.008,13.723 47.485,14.639 Q47.223,15.031 46.961,15.424 Q46.699,15.686 46.438,16.078 Q45.391,17.256 43.951,17.91 Q43.428,18.172 42.774,18.434 Q41.988,18.695 41.072,18.826 Q40.68,18.826 40.287,18.826 Q40.026,18.826 39.764,18.826 Q36.885,18.564 34.66,16.602 Q33.875,15.947 33.483,15.162 z M35.969,12.021 Q36.1,12.676 36.361,13.068 Q37.408,15.293 39.895,15.293 Q40.811,15.293 41.858,14.9 Q42.512,14.639 43.035,14.377 Q43.428,14.115 43.82,13.723 Q43.951,13.592 44.213,13.33 Q44.736,12.676 44.867,11.891 Q44.998,10.582 44.213,9.666 Q42.774,7.965 39.633,7.965 L39.371,7.965 L39.24,7.965 Q36.492,7.965 35.969,10.451 Q35.838,10.844 35.838,11.105 L35.838,11.236 Q35.838,11.629 35.969,12.021 z" fill="#333333"/>
  </g>
</svg>
