<?xml version="1.0" encoding="utf-8"?>
<!-- Generator: Adobe Illustrator 15.0.0, SVG Export Plug-In . SVG Version: 6.00 Build 0)  -->
<!DOCTYPE svg PUBLIC "-//W3C//DTD SVG 1.1//EN" "http://www.w3.org/Graphics/SVG/1.1/DTD/svg11.dtd">
<svg version="1.1" id="Layer_1" xmlns="http://www.w3.org/2000/svg" xmlns:xlink="http://www.w3.org/1999/xlink" x="0px" y="0px"
	 width="300px" height="180px" viewBox="0 0 300 180" enable-background="new 0 0 300 180" xml:space="preserve">
<g>
	<defs>
		<rect id="SVGID_1_" width="300" height="180"/>
	</defs>
	<clipPath id="SVGID_2_">
		<use xlink:href="#SVGID_1_"  overflow="visible"/>
	</clipPath>
	<path clip-path="url(#SVGID_2_)" fill="#E5DBC6" d="M267.849,167.352c1.297-2.177,2.751-5.769,2.604-8.314
		c-0.117-2.044-0.772-4.13-2.195-5.566c-1.388-1.403-3.335-2.04-5.231-2.497c-8.427-2.028-17.312-1.368-25.714,0.763
		c-3.163,0.802-6.372,1.863-8.85,4.033c-2.477,2.171-4.071,5.695-3.182,8.91c1,3.614,4.642,5.702,8.088,6.974
		c6.191,2.286,12.856,3.209,19.417,2.691C258.896,173.861,264.651,172.717,267.849,167.352"/>
	<path clip-path="url(#SVGID_2_)" fill="#E5DBC6" d="M32.005,167.804c7.138,2.549,17.704,4.379,25.124,1.695
		c7.34-2.655,5.298-10.346,1.254-15.085c-6.28-7.36-22.554-5.614-30.933-2.567C16.644,155.776,24.846,165.247,32.005,167.804"/>
	<path clip-path="url(#SVGID_2_)" fill="#E5DBC6" d="M107.493,119.938c-0.32-1.653,1.315-2.618,2.556-2.843
		c8.209-1.485,16.791-2.785,24.578,1.061c1.834,0.906,3.666,2.167,4.823,4.313c1.157,2.145,1.434,5.36,0.19,7.411
		c-0.552,0.911-1.33,1.502-2.101,2.04c-12.419,8.673-27.96,8.406-40.216-0.689"/>
	<path clip-path="url(#SVGID_2_)" fill="#E5DBC6" d="M208.327,137.529c-5.229,1.04-10.576,1.569-15.768,0.203
		c-5.189-1.366-10.25-4.787-13.605-10.553c-1.561-2.681-2.753-6.347-1.834-9.565c0.606-2.127,2.012-3.581,3.449-4.64
		c6.708-4.943,14.782-3.502,22.238-1.709c4.024,0.968,8.234,2.125,11.382,5.8c3.148,3.674,4.726,10.713,2.3,15.356
		C214.671,135.902,211.355,136.928,208.327,137.529"/>
</g>
<g>
	<defs>
		<path id="SVGID_3_" d="M45.914,93.333c-0.419,0.709-0.144,1.664,0.421,2.264c0.565,0.601,1.355,0.925,2.122,1.226
			c5.528,2.166,11.191,3.985,16.946,5.443c3.596,0.912,7.322,1.687,10.992,1.157c1.121-0.161,2.305-0.492,3.026-1.366
			c0.72-0.874,0.682-2.425-0.325-2.945c-0.443-0.229-0.966-0.221-1.466-0.209c-4.319,0.087-8.656-0.199-12.894-1.038
			c-3.861-0.764-7.631-1.984-11.207-3.629c-1.715-0.789-3.448-1.692-5.333-1.794c-0.078-0.005-0.156-0.008-0.235-0.008
			C47.164,92.434,46.312,92.66,45.914,93.333"/>
	</defs>
	<clipPath id="SVGID_4_">
		<use xlink:href="#SVGID_3_"  overflow="visible"/>
	</clipPath>
	
		<linearGradient id="SVGID_5_" gradientUnits="userSpaceOnUse" x1="0" y1="179.9668" x2="1" y2="179.9668" gradientTransform="matrix(1.2129 -5.2557 -5.2557 -1.2129 1007.8531 320.0122)">
		<stop  offset="0" style="stop-color:#4A6E8B"/>
		<stop  offset="3.786670e-004" style="stop-color:#4A6E8B"/>
		<stop  offset="0.3552" style="stop-color:#5B829D"/>
		<stop  offset="1" style="stop-color:#7299AE"/>
	</linearGradient>
	<polygon clip-path="url(#SVGID_4_)" fill="url(#SVGID_5_)" points="42.971,103.37 47.247,84.843 82.665,93.017 78.389,111.543 	"/>
</g>
<g>
	<defs>
		<rect id="SVGID_6_" width="300" height="180"/>
	</defs>
	<clipPath id="SVGID_7_">
		<use xlink:href="#SVGID_6_"  overflow="visible"/>
	</clipPath>
	<path clip-path="url(#SVGID_7_)" fill="#CD5F65" d="M134.975,125.163c0.07,0.375,0.095,0.792-0.117,1.11
		c-0.38,0.567-1.236,0.478-1.883,0.258c-3.18-1.081-5.62-3.607-7.928-6.047c-0.851-0.9-1.769-2.026-1.484-3.232
		c0.195-0.823,0.941-1.432,1.749-1.688s1.676-0.219,2.521-0.153c0.395,0.03,0.806,0.072,1.138,0.288
		c0.256,0.166,0.439,0.421,0.617,0.67c1.031,1.446,2.063,2.892,3.095,4.337C133.66,122.078,134.665,123.507,134.975,125.163"/>
	<path clip-path="url(#SVGID_7_)" fill="#99BDBE" d="M131.214,102.01c-0.433,4.137-0.867,8.272-1.3,12.41
		c-0.084,0.802-0.175,1.627-0.556,2.338c-0.38,0.711-1.126,1.289-1.93,1.222c-1.288-0.106-1.888-1.617-2.204-2.871
		c-0.675-2.686-1.351-5.372-2.027-8.058c-0.165-0.655-0.355-1.354-0.867-1.794c-0.784-0.674-2.052-0.45-2.835,0.223
		c-0.784,0.673-1.195,1.672-1.556,2.64c-1.209,3.243-2.18,6.614-3.982,9.57c-0.739,0.129-1.604,0.221-2.141-0.304
		c-0.307-0.3-0.428-0.739-0.529-1.157c-1.145-4.707-1.476-9.61-0.977-14.428c0.06-0.575,0.163-1.208,0.612-1.571
		c0.411-0.331,0.989-0.335,1.516-0.312c6.363,0.285,13.009,2.237,18.91-0.16c0.047,2.305-0.125,4.614-0.512,6.887"/>
</g>
<g>
	<defs>
		<path id="SVGID_8_" d="M112.438,99.918c-0.527-0.023-1.105-0.02-1.517,0.313c-0.449,0.362-0.551,0.995-0.611,1.569
			c-0.5,4.818-0.168,9.723,0.977,14.429c0.101,0.418,0.221,0.856,0.529,1.157c0.536,0.525,1.402,0.433,2.141,0.304
			c1.802-2.955,2.772-6.327,3.982-9.569c0.361-0.969,0.772-1.968,1.556-2.642c0.783-0.672,2.051-0.896,2.834-0.223
			c0.512,0.441,0.703,1.139,0.868,1.794c0.675,2.688,1.351,5.373,2.027,8.06c0.315,1.254,0.915,2.764,2.203,2.871
			c0.804,0.066,1.55-0.512,1.931-1.223s0.471-1.536,0.555-2.338c0.434-4.137,0.867-8.273,1.301-12.41l-0.378,4.635
			c0.387-2.272,0.559-4.583,0.512-6.888C125.447,102.155,118.8,100.204,112.438,99.918"/>
	</defs>
	<clipPath id="SVGID_9_">
		<use xlink:href="#SVGID_8_"  overflow="visible"/>
	</clipPath>
	<path clip-path="url(#SVGID_9_)" fill="#7B9E9E" d="M127.873,118.463c-0.867-3.711-1.828-7.996-3.402-11.473
		c-0.778-1.719-3.197-3.333-4.405-1.04c-0.164,0.311-0.11,0.816,0.256,0.976c1.582,0.696,1.775,4.361,2.158,5.809
		c0.592,2.237,1.138,4.505,1.86,6.703C125.073,121.672,128.412,120.771,127.873,118.463"/>
	<path clip-path="url(#SVGID_9_)" fill="#7B9E9E" d="M131.677,99.637c-0.03,0.108-0.111,0.202-0.214,0.289
		c-4.588,0.422-9.138,0.902-13.733,0.185c-1.996-0.313-2.89,2.708-0.849,3.082c4.218,0.771,8.446,1.007,12.711,0.471
		c2.372-0.298,5.228-0.619,5.162-3.61C134.716,98.306,132.152,97.902,131.677,99.637"/>
</g>
<g>
	<defs>
		<path id="SVGID_10_" d="M114.269,66.156c-2.107,0.44-4.224,1.062-5.993,2.291c-1.669,1.159-2.938,2.793-4.249,4.346
			c-3.98,4.718-8.577,8.913-13.638,12.447c0.132,1.504,1.758,2.523,3.268,2.501c1.509-0.022,2.892-0.806,4.162-1.624
			c2.733-1.758,5.299-3.776,7.654-6.016c-0.825,5.903-1.072,11.887-0.736,17.839c0.02,0.367,0.047,0.749,0.218,1.074
			c0.259,0.493,0.791,0.768,1.296,0.999c8.607,3.958,18.778,4.377,27.682,1.144c-0.823-9.608-1.064-19.265-0.722-28.902
			c6.977,3.899,14.187,7.385,21.578,10.43c0.463,0.191,0.989,0.38,1.448,0.18c0.388-0.169,0.613-0.572,0.793-0.955
			c0.647-1.383,1.063-2.876,1.221-4.396c-8.569-0.947-15.017-8.317-23.214-10.986c-3.255-1.06-6.714-1.349-10.138-1.363
			c-0.087,0-0.174,0-0.261,0C121.16,65.165,117.674,65.447,114.269,66.156"/>
	</defs>
	<clipPath id="SVGID_11_">
		<use xlink:href="#SVGID_10_"  overflow="visible"/>
	</clipPath>
	
		<radialGradient id="SVGID_12_" cx="0" cy="180" r="1" gradientTransform="matrix(-3.6386 -45.6844 -45.6844 3.6386 8344.0811 -554.7684)" gradientUnits="userSpaceOnUse">
		<stop  offset="0" style="stop-color:#4A6E8B"/>
		<stop  offset="3.786670e-004" style="stop-color:#4A6E8B"/>
		<stop  offset="0.3552" style="stop-color:#5B829D"/>
		<stop  offset="1" style="stop-color:#7299AE"/>
	</radialGradient>
	<polygon clip-path="url(#SVGID_11_)" fill="url(#SVGID_12_)" points="90.817,109.762 87.285,65.412 157.823,59.794 
		161.355,104.144 	"/>
</g>
<g>
	<defs>
		<rect id="SVGID_13_" width="300" height="180"/>
	</defs>
	<clipPath id="SVGID_14_">
		<use xlink:href="#SVGID_13_"  overflow="visible"/>
	</clipPath>
	<path clip-path="url(#SVGID_14_)" fill="#4F6C7D" d="M120.715,81.12c0.025-1.192,0.053-2.401,0.398-3.542
		c0.346-1.141,1.055-2.225,2.123-2.753c0.363-0.18,0.825-0.281,1.153-0.046c0.195,0.14,0.301,0.369,0.384,0.593
		c0.273,0.731,0.399,1.516,0.368,2.294c1.371-2.032,4.735-8.177,2.168-10.154c-1.831-1.41-12.024-0.294-13.848,0.446
		c-1.419,0.575-1.347,4.11-1.347,4.784c0,0.186,0.202,3.234,0.202,3.234c2.83-4.177,4.61-1.462,5.575-0.462
		C118.98,76.642,120.75,79.516,120.715,81.12"/>
	<path clip-path="url(#SVGID_14_)" fill="#DDC747" d="M84.35,55.519c0.918-3.438-0.258-7.075-1.715-10.322
		c-1.457-3.246-3.236-6.455-3.596-9.996c-0.204-2.003,0.167-4.245,1.702-5.547c1.291-1.094,3.152-1.287,4.811-0.954
		c1.659,0.334,3.182,1.127,4.72,1.832c0.325,0.149,0.67,0.298,1.025,0.26c0.716-0.076,1.14-0.866,1.208-1.582
		c0.249-2.638-2.428-4.541-4.844-5.629c-3.716-1.673-7.799-2.878-11.838-2.338c-4.04,0.54-7.996,3.159-9.145,7.07
		c-1.089,3.705,0.46,7.656,2.35,11.025c1.89,3.368,4.198,6.654,4.79,10.471c0.592,3.817-1.281,8.394-5.057,9.208
		c2.115,2.498,5.661,3.688,8.854,2.971C80.808,61.272,83.506,58.68,84.35,55.519"/>
</g>
<g>
	<defs>
		<path id="SVGID_15_" d="M75.823,21.243c-4.04,0.54-7.996,3.16-9.145,7.069c-1.089,3.706,0.46,7.657,2.35,11.025
			c1.89,3.369,4.199,6.656,4.79,10.473c0.592,3.816-1.281,8.393-5.056,9.208c2.114,2.497,5.661,3.687,8.853,2.97
			c3.193-0.716,5.891-3.308,6.735-6.469c0.919-3.439-0.258-7.075-1.715-10.322c-1.457-3.246-3.236-6.456-3.596-9.996
			c-0.204-2.003,0.167-4.245,1.703-5.547c1.29-1.094,3.152-1.288,4.81-0.954c1.659,0.334,3.182,1.127,4.72,1.833
			c0.325,0.148,0.67,0.296,1.026,0.259c0.715-0.076,1.139-0.866,1.208-1.582c0.248-2.638-2.429-4.541-4.845-5.628
			c-3.104-1.399-6.465-2.47-9.841-2.47C77.154,21.112,76.488,21.154,75.823,21.243"/>
	</defs>
	<clipPath id="SVGID_16_">
		<use xlink:href="#SVGID_15_"  overflow="visible"/>
	</clipPath>
	<path clip-path="url(#SVGID_16_)" fill="#C3AE43" d="M66.974,62.505c0.983,1.903,3.202,2.749,5.231,3.434
		c2.513,0.848,5.3,1.687,7.745,0.66c1.521-0.638,2.681-1.927,3.572-3.316c2.431-3.79,3.161-8.628,1.956-12.967
		c-0.931-3.349-2.913-6.291-4.435-9.416c-1.521-3.126-2.601-6.735-1.573-10.056c-1.997,2.615-1.401,6.356-0.269,9.445
		c1.133,3.089,2.734,6.186,2.461,9.465c-1.041-4.736-6.76-7.764-6.752-12.613c-0.489,3.082,1.14,6.042,2.215,8.972
		c1.076,2.929,1.412,6.706-0.974,8.717c0.497-2.803-0.766-5.633-2.401-7.963c-1.635-2.331-3.671-4.384-5.066-6.866
		c1.85,5.363-0.13,11.186-1.641,16.654C66.511,58.581,66.057,60.729,66.974,62.505"/>
	<path clip-path="url(#SVGID_16_)" fill="#C3AE43" d="M89.324,30.191c-2.191-1.14-4.777-1.5-7.196-1.003
		c1.108-1.156,2.778-1.745,4.366-1.542c-3.227-0.957-6.92-1.135-9.77,0.656c1.195-1.666,3.323-2.357,5.338-2.734
		c1.681-0.314,3.432-0.479,5.089-0.055c1.657,0.423,3.216,1.524,3.822,3.124c0.358,0.945,0.303,2.148-0.465,2.806
		C90.409,30.855,89.853,30.466,89.324,30.191"/>
</g>
<g>
	<defs>
		<rect id="SVGID_17_" width="300" height="180"/>
	</defs>
	<clipPath id="SVGID_18_">
		<use xlink:href="#SVGID_17_"  overflow="visible"/>
	</clipPath>
	<path clip-path="url(#SVGID_18_)" fill="#CD5F65" d="M90.957,33.953c4.328,5.332,9.511-4.278,5.825-8.239
		c-1.542-1.659-4.771-2.026-6.508-0.437C87.919,27.431,89.245,31.844,90.957,33.953"/>
</g>
<g>
	<defs>
		<path id="SVGID_19_" d="M101.562,23.818c-2.191,2.024-3.474,4.871-4.159,7.776c-2.204,9.347,1.35,19.135,6.274,27.381
			c-1.633-1.929-3.71-3.484-6.023-4.506c-0.551,1.908,1.121,3.675,2.634,4.961c2.956,2.513,5.913,5.027,8.869,7.541
			c1.736,1.475,3.478,2.955,5.409,4.16c2.173,1.354,4.66,2.362,7.217,2.267c3.727-0.14,7.057-2.647,9.063-5.792
			c2.005-3.144,2.881-6.865,3.524-10.539c0.877-5.01,1.38-10.159,0.531-15.175c-0.916-5.419-3.455-10.585-7.34-14.473
			c-3.887-3.887-9.124-6.447-14.6-6.915c-0.548-0.047-1.101-0.071-1.655-0.071C107.754,20.433,104.151,21.426,101.562,23.818"/>
	</defs>
	<clipPath id="SVGID_20_">
		<use xlink:href="#SVGID_19_"  overflow="visible"/>
	</clipPath>
	
		<radialGradient id="SVGID_21_" cx="0" cy="180" r="1" gradientTransform="matrix(-19.2624 -30.8925 -30.8925 19.2624 5684.0815 -3411.1238)" gradientUnits="userSpaceOnUse">
		<stop  offset="0" style="stop-color:#E5B47E"/>
		<stop  offset="0.9977" style="stop-color:#D69352"/>
		<stop  offset="1" style="stop-color:#D69352"/>
	</radialGradient>
	<polygon clip-path="url(#SVGID_20_)" fill="url(#SVGID_21_)" points="106.551,91.699 71.376,35.287 124.398,2.227 159.572,58.639 	
		"/>
	<path clip-path="url(#SVGID_20_)" fill="#D7A36D" d="M107.859,47.423c-3.287,1.268-2.503,6.289-0.923,8.565
		c0.507,0.731,1.357,1.083,2.208,0.724c0.729-0.307,1.364-1.272,1.024-2.087c-0.416-0.998-1.433-2.766-0.851-3.875
		c0.013-0.025,0.046-0.139,0.02-0.178c0.191-0.012,0.575,0.284,0.684,0.368c0.543,0.421,0.775,0.999,1.152,1.55
		c0.283,0.412,1.001,0.528,1.255,0C113.75,49.744,110.76,46.304,107.859,47.423"/>
	<path clip-path="url(#SVGID_20_)" fill="#D19D6C" d="M111.301,47.729c-1.309-0.949-3.046-0.861-4.363,0.036
		c-3.175,2.161-1.826,6.395,0.428,8.635c1.644,1.634,4.061-0.826,2.528-2.528c-0.642-0.714-1.757-2.078-1.076-3.101
		c0.762-1.144,1.961,0.882,2.361,1.407c0.358,0.469,1.316,0.561,1.443-0.189C112.885,50.432,112.663,48.716,111.301,47.729"/>
	<path clip-path="url(#SVGID_20_)" fill="#D19D6C" d="M134.09,43.742c-0.652-1.686-1.972-3.174-3.695-3.796
		c-1.624-0.586-3.49-0.276-4.607,1.105c-1.23,1.521-0.962,3.481-0.458,5.229c0.626,2.17,3.819,1.486,3.791-0.447
		c0.162-0.181,0.287-0.394,0.349-0.647c0.074-0.307,0.142-0.63,0.18-0.944c0.006-0.052,0.012-0.091,0.019-0.124
		c0.33,0.048,0.691,0.372,0.931,0.605c0.456,0.443,0.821,0.958,1.143,1.501c0.262,0.834,0.488,1.684,1.035,2.384
		c0.236,0.302,0.784,0.26,1.027,0C134.957,47.37,134.653,45.197,134.09,43.742"/>
	<path clip-path="url(#SVGID_20_)" fill="#D79A63" d="M110.658,27.417c-1.841,0.435-2.53,1.028-2.798,2.99
		c-0.523,3.837-0.137,6.871-2.761,10.166c-1.805,2.266-4.518,3.58-5.615,6.388c-0.985,2.521-0.588,5.36,0.351,7.828
		c0.413,1.085,1.341,1.446,2.16,1.276c0.083,0.449,0.166,0.898,0.261,1.346c0.203,0.949,1.702,0.548,1.462-0.403
		c-0.159-0.634-0.306-1.271-0.441-1.91c0.185-0.358,0.271-0.797,0.188-1.31c-0.553-3.43-0.532-5.604,2.115-8.016
		c1.499-1.366,2.845-2.69,3.904-4.441c0.927-1.532,1.612-3.233,1.974-4.987c0.355-1.718,0.106-3.562,0.291-5.284
		c4.138-1.206,9.628-0.729,13.477,0.525c4.803,1.564,7.906,4.91,10.216,9.262c0.327,0.617,1.485,0.373,1.389-0.376
		C135.321,28.78,120.361,25.124,110.658,27.417"/>
	<path clip-path="url(#SVGID_20_)" fill="#D79A63" d="M124.571,77.157c-4.837-3.563-9.89-6.79-14.566-10.578
		c-4.417-3.58-8.374-7.596-12.555-11.431c-0.654-0.6-1.633,0.151-1.221,0.941c5.403,10.361,16.725,18.306,26.55,24.133
		C124.79,81.415,126.369,78.481,124.571,77.157"/>
</g>
<g>
	<defs>
		<rect id="SVGID_22_" width="300" height="180"/>
	</defs>
	<clipPath id="SVGID_23_">
		<use xlink:href="#SVGID_22_"  overflow="visible"/>
	</clipPath>
	<path clip-path="url(#SVGID_23_)" fill="#E5B47F" d="M124.609,56.769c1.133-0.291,2.312-0.584,3.459-0.355
		c1.147,0.229,2.248,1.143,2.282,2.312c0.036,1.257-1.114,2.233-2.276,2.713c-1.515,0.625-3.232,0.75-4.821,0.35
		c-0.443-0.112-0.924-0.306-1.102-0.727c-0.285-0.677,0.446-1.39,1.17-1.517c0.724-0.128,1.475,0.074,2.199-0.05"/>
</g>
<g>
	<defs>
		<path id="SVGID_24_" d="M124.609,56.768l0.911,2.726c-0.361,0.063-0.727,0.044-1.094,0.025c-0.37-0.019-0.741-0.038-1.104,0.026
			c-0.724,0.127-1.456,0.84-1.17,1.517c0.177,0.421,0.658,0.615,1.101,0.727c1.59,0.399,3.307,0.275,4.821-0.351
			c1.162-0.479,2.313-1.456,2.276-2.712c-0.034-1.169-1.134-2.084-2.281-2.312c-0.288-0.058-0.578-0.082-0.868-0.082
			C126.333,56.332,125.458,56.551,124.609,56.768"/>
	</defs>
	<clipPath id="SVGID_25_">
		<use xlink:href="#SVGID_24_"  overflow="visible"/>
	</clipPath>
	<path clip-path="url(#SVGID_25_)" fill="#DCA36A" d="M120.123,60.868c1.527,3.164,5.61,3.789,8.567,2.498
		c1.602-0.699,3.301-1.634,3.895-3.395c0.649-1.923-0.094-4.011-1.253-5.565c-1.402-1.879-4.306-0.3-3.198,1.869
		c0.436,0.853,1.347,1.934,0.796,2.956c-0.306,0.567-1.626,1.161-2.19,1.428c-2.044,0.967-3.573,0.551-5.267-0.832
		C120.718,59.21,119.685,59.961,120.123,60.868"/>
	<path clip-path="url(#SVGID_25_)" fill="#DCA36A" d="M120.516,61.22c2.923,2.521,7.398,2.329,10.492,0.16
		c1.525-1.07,0.135-3.563-1.483-2.537c-2.609,1.655-5.261,1.702-8.203,0.993C120.568,59.654,119.857,60.651,120.516,61.22"/>
</g>
<g>
	<defs>
		<rect id="SVGID_26_" width="300" height="180"/>
	</defs>
	<clipPath id="SVGID_27_">
		<use xlink:href="#SVGID_26_"  overflow="visible"/>
	</clipPath>
	<path clip-path="url(#SVGID_27_)" fill="#3B2C27" d="M113.005,62.968c1.543,2.576,3.454,4.931,5.657,6.971
		c0.336,0.311,0.679,0.616,1.039,0.899c0.155,0.123,0.326,0.246,0.523,0.26c0.295,0.022,0.545-0.202,0.745-0.42
		c0.527-0.571,0.985-1.206,1.361-1.886c0.314-0.568,0.579-1.178,1.032-1.642s1.165-0.753,1.761-0.495
		c-4.255-0.729-8.36-2.322-11.992-4.655C112.736,62.016,112.802,62.629,113.005,62.968"/>
	<path clip-path="url(#SVGID_27_)" fill="#FFFFFF" d="M126.15,42.318c0.864-0.942,2.265-1.289,3.517-1.034
		c1.253,0.256,2.35,1.056,3.139,2.062c0.719,0.918,1.206,2.017,1.403,3.167c0.225,1.31,0.056,2.722-0.664,3.84
		c-0.72,1.117-2.039,1.881-3.362,1.75c-1.157-0.115-2.162-0.868-2.923-1.747c-0.921-1.064-1.578-2.354-1.898-3.723
		C125.016,45.151,125.121,43.439,126.15,42.318"/>
	<path clip-path="url(#SVGID_27_)" fill="#FFFFFF" d="M106.25,54.39c0.373,1.495,1.462,2.855,2.936,3.301
		c1.474,0.447,3.275-0.198,3.927-1.594c0.403-0.862,0.349-1.861,0.253-2.807c-0.124-1.209-0.317-2.452-0.96-3.483
		c-0.643-1.031-1.843-1.803-3.041-1.598c-0.724,0.123-1.353,0.58-1.846,1.124C106.304,50.674,105.812,52.634,106.25,54.39"/>
	<path clip-path="url(#SVGID_27_)" fill="#E3C859" d="M95.71,27.743c0.88-2.848,1.956-5.726,3.944-7.948
		c2.534-2.832,6.329-4.298,10.11-4.678c3.782-0.379,7.59,0.229,11.315,0.982c4.472,0.904,8.96,2.043,12.956,4.245
		c2.138,1.177,4.217,2.784,5.044,5.08c0.72,1.998,0.383,4.217-0.171,6.267c-0.898,3.326-2.347,6.503-4.269,9.362
		c-0.56-4.984-4.795-8.934-9.501-10.667c-4.706-1.733-9.854-1.675-14.869-1.595c0.38,4.897-1.407,9.923-4.792,13.482
		c-2.532,2.661-4.975,3.76-5.222,7.425c-0.163,2.403,2.052,7.296,3.422,9.277c-4.037-3.919-10.1-9.902-10.724-15.493
		c-0.249-2.235,0.085-4.493,0.506-6.702C94.042,33.729,94.793,30.711,95.71,27.743"/>
</g>
<g>
	<defs>
		<path id="SVGID_28_" d="M109.765,15.117c-3.782,0.38-7.576,1.846-10.111,4.679c-1.988,2.222-3.064,5.099-3.944,7.947
			c-0.917,2.968-1.668,5.986-2.25,9.037c-0.422,2.21-0.756,4.467-0.506,6.702c0.623,5.591,6.686,11.575,10.723,15.493
			c-1.37-1.981-3.584-6.874-3.421-9.277c0.247-3.665,2.69-4.764,5.221-7.425c3.385-3.559,5.173-8.584,4.793-13.482
			c5.014-0.079,10.163-0.138,14.869,1.596c4.706,1.732,8.941,5.682,9.501,10.666c1.921-2.859,3.37-6.036,4.269-9.361
			c0.553-2.05,0.891-4.27,0.171-6.268c-0.828-2.296-2.907-3.903-5.045-5.08c-3.996-2.202-8.484-3.34-12.956-4.245
			c-2.938-0.594-5.928-1.098-8.916-1.098C111.363,15.001,110.563,15.037,109.765,15.117"/>
	</defs>
	<clipPath id="SVGID_29_">
		<use xlink:href="#SVGID_28_"  overflow="visible"/>
	</clipPath>
	<path clip-path="url(#SVGID_29_)" fill="#C3AE43" d="M91.553,50.508c1.254,1.993,3.219,3.414,5.134,4.784
		c1.865,1.334,3.73,2.667,5.594,4.001c0.577,0.413,1.179,0.836,1.877,0.961c0.35-2.737-2.037-5.099-2.354-7.841
		c-0.375-3.237,2.135-6.014,4.459-8.299c2.897-2.847,5.985-5.805,9.917-6.824c2.261-0.585,4.659-0.476,6.945,0.002
		c2.604,0.545,5.108,1.566,7.351,2.996c1.181,0.753,2.305,1.626,3.615,2.122s2.891,0.552,4.018-0.279
		c1.184-0.872,1.564-2.444,1.862-3.884c0.422-2.03,0.843-4.06,1.264-6.091c0.282-1.358,0.565-2.741,0.429-4.121
		c-0.287-2.916-2.411-5.353-4.831-7.005c-2.772-1.893-6.058-3.025-9.408-3.241c2.831,1.094,5.309,3.078,6.996,5.6
		c-3.404-2.805-7.76-4.433-12.169-4.547c4.474,1.223,8.52,3.956,11.327,7.649c-2.253-1.573-4.91-2.561-7.642-2.842
		c4.118,1.897,7.408,5.517,8.904,9.798c-5.7-5.218-13.81-7.685-21.449-6.527c-0.864,0.131-1.754,0.319-2.452,0.845
		c-0.797,0.601-1.231,1.551-1.714,2.425c-1.623,2.933-4.07,5.31-6.481,7.64c1.026-2.505,1.738-5.139,2.114-7.819
		c-1.443,1.8-2.653,3.787-3.591,5.895c-0.596-4.004,1.008-8.268,4.096-10.886c-4.03,0.366-6.546,4.416-8.365,8.031
		c-0.514-2.059-0.418-4.266,0.272-6.272c-1.78,2.706-3.361,5.544-4.727,8.481C90.301,40.083,88.72,46.007,91.553,50.508"/>
</g>
<g>
	<defs>
		<rect id="SVGID_30_" width="300" height="180"/>
	</defs>
	<clipPath id="SVGID_31_">
		<use xlink:href="#SVGID_30_"  overflow="visible"/>
	</clipPath>
	<path clip-path="url(#SVGID_31_)" fill="#E5B47F" d="M160.771,82.388c-0.516,0.389-1.064,0.755-1.688,0.924
		c-1.342,0.365-2.757-0.243-3.911-1.018c-1.39-0.932-2.683-2.3-2.753-3.972c-0.046-1.098,0.447-2.143,0.976-3.107
		c0.394-0.72,0.854-1.464,1.591-1.823c0.373-0.182,0.79-0.251,1.203-0.289c1.967-0.18,4.06,0.359,5.469,1.742
		c1.41,1.383,1.971,3.675,1.065,5.429C162.279,81.134,161.541,81.804,160.771,82.388"/>
	<path clip-path="url(#SVGID_31_)" fill="#6E7E35" d="M204.453,111.445c0.351-0.175,0.753-0.22,1.144-0.189
		c1.895,0.151,3.214,1.933,4.027,3.65c0.901,1.901,1.517,3.938,1.819,6.021c0.087,0.602,0.146,1.231-0.055,1.806
		s-0.731,1.075-1.339,1.053c-0.586-0.021-1.046-0.491-1.429-0.936c-1.364-1.589-2.607-3.283-3.712-5.063
		c-0.688-1.108-1.335-2.285-1.521-3.577C203.235,113.164,203.509,111.917,204.453,111.445"/>
	<path clip-path="url(#SVGID_31_)" fill="#373538" d="M206.938,90.87c0.251,7.117,0.501,14.234,0.752,21.352
		c0.031,0.884-0.009,1.92-0.729,2.433c-0.718,0.51-1.778,0.177-2.355-0.487c-0.576-0.665-0.79-1.56-0.985-2.418
		c-0.816-3.598-1.635-7.195-2.451-10.794c-0.334-1.468-0.74-3.054-1.929-3.979c-1.497-1.167-3.717-0.822-5.358,0.131
		s-2.93,2.406-4.461,3.525c-1.001-3.487-1.197-7.204-0.568-10.778c0.146-0.826,0.848-1.887,1.553-1.431"/>
</g>
<g>
	<defs>
		<path id="SVGID_32_" d="M181.822,64.93c-1.67,0.625-3.34,1.249-5.012,1.873c-5.496,2.055-10.994,4.11-16.491,6.164
			c-0.333,0.125-0.682,0.259-0.916,0.525c-0.271,0.305-0.347,0.729-0.402,1.132c-0.326,2.327-0.319,4.699,0.017,7.025
			c8.387-2.627,16.402-6.43,23.743-11.259c1.024-0.674,2.08-1.419,2.599-2.53c0.519-1.11,0.255-2.679-0.858-3.189
			c-0.273-0.125-0.561-0.175-0.854-0.175C183.039,64.496,182.405,64.713,181.822,64.93"/>
	</defs>
	<clipPath id="SVGID_33_">
		<use xlink:href="#SVGID_32_"  overflow="visible"/>
	</clipPath>
	
		<linearGradient id="SVGID_34_" gradientUnits="userSpaceOnUse" x1="0" y1="179.9619" x2="1" y2="179.9619" gradientTransform="matrix(-2.4257 -6.4686 -6.4686 2.4257 1337.6565 -360.069)">
		<stop  offset="0" style="stop-color:#4A6E8B"/>
		<stop  offset="3.786670e-004" style="stop-color:#4A6E8B"/>
		<stop  offset="0.3552" style="stop-color:#5B829D"/>
		<stop  offset="1" style="stop-color:#7299AE"/>
	</linearGradient>
	<polygon clip-path="url(#SVGID_33_)" fill="url(#SVGID_34_)" points="162.028,90.592 153.035,66.611 182.524,55.553 
		191.518,79.534 	"/>
</g>
<g>
	<defs>
		<path id="SVGID_35_" d="M191.609,61.492c-2.633,0.247-5.447,1.083-6.957,3.254c-0.952,1.367-1.249,3.076-1.441,4.73
			c-0.668,5.771-0.331,11.657,0.99,17.314c0.33,1.409,0.756,2.871,1.772,3.9c0.911,0.924,2.185,1.384,3.428,1.752
			c5.915,1.75,12.25,2.062,18.307,0.898c0.818-0.157,1.693-0.376,2.229-1.015c0.474-0.563,0.582-1.34,0.638-2.074
			c0.495-6.651-1.941-13.118-3.287-19.649c-0.625-3.035-1.284-6.523-3.963-8.082c-1.381-0.804-3.046-0.91-4.644-0.996
			c-1.424-0.077-2.851-0.154-4.276-0.153C193.471,61.372,192.539,61.404,191.609,61.492"/>
	</defs>
	<clipPath id="SVGID_36_">
		<use xlink:href="#SVGID_35_"  overflow="visible"/>
	</clipPath>
	
		<linearGradient id="SVGID_37_" gradientUnits="userSpaceOnUse" x1="0" y1="180.0273" x2="1" y2="180.0273" gradientTransform="matrix(6.4686 -20.2144 -20.2144 -6.4686 3831.8306 1255.3376)">
		<stop  offset="0" style="stop-color:#4A6E8B"/>
		<stop  offset="3.786670e-004" style="stop-color:#4A6E8B"/>
		<stop  offset="0.3552" style="stop-color:#5B829D"/>
		<stop  offset="1" style="stop-color:#7299AE"/>
	</linearGradient>
	<polygon clip-path="url(#SVGID_36_)" fill="url(#SVGID_37_)" points="172.926,91.427 185.192,53.091 220.687,64.449 
		208.419,102.784 	"/>
</g>
<g>
	<defs>
		<rect id="SVGID_38_" width="300" height="180"/>
	</defs>
	<clipPath id="SVGID_39_">
		<use xlink:href="#SVGID_38_"  overflow="visible"/>
	</clipPath>
	<path clip-path="url(#SVGID_39_)" fill="#BA8C5E" d="M218.975,105.398c0.333,0.709,0.732,1.438,1.405,1.837
		c5.537,3.294,7.919-3.83,4.973-7.69C221.748,94.823,216.949,101.086,218.975,105.398"/>
</g>
<g>
	<defs>
		<path id="SVGID_40_" d="M202.944,67.419c-0.533,0.71,1.173,1.051,1.013,1.925c-0.339,1.849,0.744,3.919,3.029,6.161
			c6.874,6.738,8.049,14.82,11.32,26.684c2.021-0.81,3.639-2.831,4.986-5.392c-2.695-5.66-4.986-15.228-9.164-22.101
			c-1.411-2.322-3.604-4.951-5.525-6.873c-1.285-1.286-2.342-1.933-3.292-1.933C204.47,65.89,203.71,66.397,202.944,67.419"/>
	</defs>
	<clipPath id="SVGID_41_">
		<use xlink:href="#SVGID_40_"  overflow="visible"/>
	</clipPath>
	
		<linearGradient id="SVGID_42_" gradientUnits="userSpaceOnUse" x1="0" y1="179.9297" x2="1" y2="179.9297" gradientTransform="matrix(3.9742 -7.9484 -7.9484 -3.9742 1640.6643 803.7741)">
		<stop  offset="0" style="stop-color:#4A6E8B"/>
		<stop  offset="3.786670e-004" style="stop-color:#4A6E8B"/>
		<stop  offset="0.3552" style="stop-color:#5B829D"/>
		<stop  offset="1" style="stop-color:#7299AE"/>
	</linearGradient>
	<polygon clip-path="url(#SVGID_41_)" fill="url(#SVGID_42_)" points="187.892,94.929 206.587,57.537 237.813,73.149 
		219.116,110.541 	"/>
</g>
<g>
	<defs>
		<rect id="SVGID_43_" width="300" height="180"/>
	</defs>
	<clipPath id="SVGID_44_">
		<use xlink:href="#SVGID_43_"  overflow="visible"/>
	</clipPath>
	<path clip-path="url(#SVGID_44_)" fill="#4F6C7D" d="M186.955,64.667c-0.337,2.542-0.167,5.15,0.497,7.627
		c-0.349-1.044,1.047-1.988,2.097-1.657s1.686,1.376,2.16,2.369c0.482,1.009,0.897,2.049,1.242,3.112
		c0.139-0.947,0.289-1.926,0.803-2.734c0.515-0.807,1.497-1.399,2.423-1.154c0.743,0.198,1.275,0.886,1.5,1.622
		s0.194,1.522,0.161,2.29c3.142-2.355,5.594-5.616,6.986-9.287c0.399-1.056,0.588-2.507-0.385-3.08
		c-0.461-0.272-1.033-0.231-1.566-0.189c-4.347,0.34-8.732,0.183-13.042-0.468c-0.922-0.139-2.062-0.212-2.579,0.564
		C187.061,63.971,187,64.325,186.955,64.667"/>
</g>
<g>
	<defs>
		<path id="SVGID_45_" d="M198.188,18.655c-4.281,0.497-8.161,2.788-11.498,5.515c-0.195,0.158-0.405,0.363-0.374,0.611
			c0.032,0.248,0.49,0.317,0.492,0.067l0.91-0.478c-5.479,4.918-9.112,11.884-9.914,19.212c-0.916,8.381,1.89,17.102,7.52,23.379
			c1.918,2.137,4.273,4.062,7.092,4.614c4.13,0.809,8.232-1.488,11.466-4.181c2.866-2.388,5.412-5.159,7.549-8.216
			c3.404,1.432,7.695,0.357,10.022-2.511c0.19-0.235,0.374-0.494,0.419-0.794c0.09-0.617-0.438-1.155-0.989-1.448
			c-2.507-1.337-5.521,0.214-7.927,1.727c0.858-0.722,1.404-1.74,1.887-2.75c3.38-7.073,4.577-15.51,1.664-22.788
			c-2.704-6.756-9.467-12.055-16.653-12.055C199.301,18.559,198.745,18.591,198.188,18.655"/>
	</defs>
	<clipPath id="SVGID_46_">
		<use xlink:href="#SVGID_45_"  overflow="visible"/>
	</clipPath>
	
		<linearGradient id="SVGID_47_" gradientUnits="userSpaceOnUse" x1="0" y1="179.9844" x2="1" y2="179.9844" gradientTransform="matrix(-25.2006 -21.2924 -21.2924 25.2006 4029.5398 -4492.0708)">
		<stop  offset="0" style="stop-color:#BA8C5E"/>
		<stop  offset="0.0023" style="stop-color:#BA8C5E"/>
		<stop  offset="1" style="stop-color:#E5B47E"/>
	</linearGradient>
	<polygon clip-path="url(#SVGID_46_)" fill="url(#SVGID_47_)" points="203.188,94.604 150.354,49.964 195.663,-3.661 
		248.497,40.979 	"/>
</g>
<g>
	<defs>
		<path id="SVGID_48_" d="M198.188,18.655c-4.281,0.497-8.161,2.788-11.498,5.515c-0.195,0.158-0.405,0.363-0.374,0.611
			c0.032,0.248,0.49,0.317,0.492,0.067l0.91-0.478c-5.479,4.918-9.112,11.884-9.914,19.212c-0.916,8.381,1.89,17.102,7.52,23.379
			c1.918,2.137,4.273,4.062,7.092,4.614c4.13,0.809,8.232-1.488,11.466-4.181c2.866-2.388,5.412-5.159,7.549-8.216
			c3.404,1.432,7.695,0.357,10.022-2.511c0.19-0.235,0.374-0.494,0.419-0.794c0.09-0.617-0.438-1.155-0.989-1.448
			c-2.507-1.337-5.521,0.214-7.927,1.727c0.858-0.722,1.404-1.74,1.887-2.75c3.38-7.073,4.577-15.51,1.664-22.788
			c-2.705-6.756-9.468-12.054-16.654-12.055C199.3,18.559,198.745,18.591,198.188,18.655"/>
	</defs>
	<clipPath id="SVGID_49_">
		<use xlink:href="#SVGID_48_"  overflow="visible"/>
	</clipPath>
	<path clip-path="url(#SVGID_49_)" fill="#A9784C" d="M225.178,52.121c-2.809,4.697-7.213,6.655-12.537,6.699
		c-0.376,0.003-0.791,0.044-1.192,0.13c-0.04-0.027-0.08-0.054-0.119-0.081c-0.613-0.421-1.776-0.314-2.258,0.291
		c-3.644,4.573-9.47,12.367-16.052,10.803c-6.931-1.647-10.856-7.52-14.444-13.134c-0.255-0.398-0.966-0.152-0.797,0.336
		c2.434,7.028,7.496,13.981,14.996,16.014c7.451,2.021,13.61-4.808,18.015-10.245c0.661,0.24,1.446-0.007,1.964-0.5
		c2.862-0.181,5.405-0.159,8.225-1.506c3.181-1.518,5.644-3.909,7.451-6.907C229.683,51.941,226.422,50.041,225.178,52.121"/>
	<path clip-path="url(#SVGID_49_)" fill="#A9784C" d="M194.19,66.752c-0.796,0.251-1.523,0.087-2.244-0.297
		c-0.311-0.165-0.62,0.226-0.375,0.486c0.728,0.774,1.863,0.961,2.861,0.694C195.003,67.483,194.753,66.574,194.19,66.752"/>
	<path clip-path="url(#SVGID_49_)" fill="#A9784C" d="M217.722,54.837c-0.647,0.103-1.396,0.29-1.931,0.691
		c-0.651,0.488-1.122,1.121-1.831,1.571c-0.359,0.228-0.129,0.904,0.305,0.724c0.032-0.013,0.063-0.027,0.095-0.04h0.001
		c0.001,0,0.001-0.001,0.002-0.001c0.038-0.017,0.075-0.033,0.113-0.049c1.001,0.051,2.692-0.373,2.202-1.598
		c-0.03-0.077-0.078-0.147-0.131-0.211c0.992-0.554,2.969-1.013,3.36,0.101c0.091,0.26,0.493,0.157,0.417-0.115
		C220.011,54.783,218.712,54.68,217.722,54.837"/>
	<path clip-path="url(#SVGID_49_)" fill="#A9784C" d="M206.427,41.821c-1.214-1.359-3.044-1.989-4.741-1.119
		c-1.854,0.95-2.52,3.019-2.741,4.952c-0.192,1.672,2.394,1.892,2.847,0.386c0.211-0.695,0.35-2.213,1.05-2.595
		c0.676-0.368,1.515,0.358,1.856,0.838c0.397,0.556,0.535,1.347,0.602,2.004c0.199,1.994-0.687,3.939-1.352,5.776
		c-0.154,0.43,0.388,0.794,0.752,0.578C208.286,50.51,209.276,45.009,206.427,41.821"/>
	<path clip-path="url(#SVGID_49_)" fill="#A9784C" d="M188.585,35.465c-3.051-3.662-6.726,1.774-6.15,4.879
		c0.256,1.385,2.145,1.11,2.54,0c0.241-0.677,0.345-2.107,0.952-2.586c0.904-0.713,0.981,1.01,1.009,1.775
		c0.068,1.905-0.846,3.505-1.26,5.305c-0.117,0.508,0.411,0.932,0.877,0.674C189.609,43.818,190.886,38.228,188.585,35.465"/>
</g>
<g>
	<defs>
		<rect id="SVGID_50_" width="300" height="180"/>
	</defs>
	<clipPath id="SVGID_51_">
		<use xlink:href="#SVGID_50_"  overflow="visible"/>
	</clipPath>
	<path clip-path="url(#SVGID_51_)" fill="#56462A" d="M210.388,16.194c0.339,0.42,0.679,0.839,1.018,1.259
		c-0.267-2.444-2.389-4.557-4.833-4.814c0.029,1.019,0.06,2.038,0.088,3.057c-0.993-1.926-3.16-3.184-5.326-3.091
		c-0.308,0.728-0.243,1.602,0.166,2.277c-1.789-1.794-4.23-2.922-6.756-3.121c-0.288-0.022-0.596-0.029-0.845,0.118
		c-0.549,0.325-0.473,1.158-0.167,1.717c0.305,0.559,0.776,1.07,0.817,1.705c-1.691-0.7-3.773-0.337-5.127,0.895l1.49,0.823
		c-1.844,0.007-3.682,0.615-5.165,1.711c-0.42,0.31-0.843,0.718-0.866,1.24c-0.023,0.521,0.63,1.023,1.029,0.688
		c-2.118,0.896-3.854,2.654-4.727,4.782c0.686,0.155,1.45-0.113,1.888-0.664c-1.684,1.129-3.083,2.68-4.033,4.471
		c0.436,0.146,0.962-0.187,1.019-0.642c-0.728,1.621-1.118,3.392-1.14,5.169l0.742-1.265c-0.298,1.346-0.596,2.692-0.894,4.037
		c2.976-2.736,5.953-5.472,8.929-8.208c-0.42,0.27-0.839,0.54-1.259,0.81c1.915-1.073,3.699-2.38,5.299-3.883
		c-0.119,0.53-0.238,1.061-0.357,1.591c2.379-0.223,4.674-1.25,6.425-2.875c-0.365,0.346-0.729,0.693-1.095,1.039
		c1.575-0.711,3.272-1.149,4.995-1.288c-0.738,0.376-1.293,1.096-1.467,1.906c2.132,0.085,4.279-0.233,6.294-0.931
		c-0.626,0.126-1.173,0.592-1.397,1.191c1.99,0.423,3.981,0.846,5.972,1.27c-0.784-0.553-1.864,0.59-1.598,1.512
		c0.265,0.921,1.24,1.431,2.153,1.727c0.912,0.296,1.915,0.517,2.566,1.222c-0.94-0.133-1.915-0.006-2.79,0.361
		c0.86,1.425,2.241,2.528,3.822,3.05c-0.798,0.065-1.594,0.13-2.391,0.195c0.993,1.888,1.985,3.776,2.979,5.665
		c-0.641-0.145-1.28-0.29-1.921-0.434c0.086,2.199,0.171,4.397,0.256,6.596c0.976-0.762,1.76-1.767,2.261-2.899
		c-1.159,1.814-1.992,3.835-2.448,5.938c0.52-0.335,1.037-0.67,1.557-1.005c-2.337,1.3-3.837,3.976-3.727,6.648
		c0.563-0.605,1.125-1.21,1.688-1.816c-1.578,1.273-2.732,3.064-3.238,5.027c2.419-1.953,4.72-4.054,6.886-6.285
		c1.588-1.636,3.197-3.574,3.176-5.854c-0.287,0.203-0.575,0.406-0.862,0.609c1.209-1.463,1.972-3.289,2.164-5.178
		c-0.349-0.206-0.846-0.104-1.084,0.223c1.379-1.621,2.148-3.747,2.128-5.875c-0.696,0.48-1.214,1.212-1.436,2.028
		c1.018-2.257,1.037-4.943,0.056-7.215c-0.28,0.71-0.561,1.42-0.842,2.13c0.638-2.25,0.15-4.788-1.273-6.643
		c-0.005,0.738-0.01,1.477-0.015,2.215c-0.216-3.259-1.795-6.407-4.277-8.529c-0.107,0.574,0.21,1.199,0.736,1.452
		C214.86,19.441,212.882,17.237,210.388,16.194"/>
	<path clip-path="url(#SVGID_51_)" fill="#BA8C5E" d="M190.227,52.508c-1.503,0.83-3.327-0.157-4.751-1.115
		c-0.646-0.435-1.292-0.87-1.938-1.305c-0.316-0.213-0.652-0.432-1.032-0.462c-0.574-0.044-1.112,0.384-1.329,0.917
		c-0.218,0.533-0.166,1.142-0.007,1.695c0.426,1.486,1.588,2.687,2.952,3.412c1.363,0.725,2.919,1.018,4.461,1.129"/>
</g>
<g>
	<defs>
		<path id="SVGID_52_" d="M181.176,50.544c-0.218,0.533-0.165,1.141-0.007,1.695c0.427,1.485,1.589,2.686,2.952,3.411
			c1.365,0.725,2.92,1.019,4.461,1.129l1.645-4.27c-1.503,0.83-3.327-0.158-4.751-1.116c-0.646-0.435-1.293-0.87-1.938-1.304
			c-0.317-0.214-0.653-0.433-1.032-0.462c-0.028-0.002-0.055-0.003-0.082-0.003C181.881,49.624,181.384,50.036,181.176,50.544"/>
	</defs>
	<clipPath id="SVGID_53_">
		<use xlink:href="#SVGID_52_"  overflow="visible"/>
	</clipPath>
	<path clip-path="url(#SVGID_53_)" fill="#A9784C" d="M180.377,49.282c-1.007,1.606-0.698,3.925,0.265,5.488
		c1.289,2.091,3.564,2.746,5.669,3.721c2.007,0.931,3.744-2.089,1.734-2.968c-1.498-0.656-3.297-1.077-4.535-2.187
		c-1.186-1.062-1.466-2.405-1.79-3.879C181.578,48.815,180.696,48.773,180.377,49.282"/>
</g>
<g>
	<defs>
		<rect id="SVGID_54_" width="300" height="180"/>
	</defs>
	<clipPath id="SVGID_55_">
		<use xlink:href="#SVGID_54_"  overflow="visible"/>
	</clipPath>
	<path clip-path="url(#SVGID_55_)" fill="#3B2C27" d="M194.504,65.685c-0.77,0.116-1.531-0.346-2.007-0.962
		c-0.476-0.616-0.728-1.37-1.006-2.097c-0.158-0.413-0.345-0.844-0.704-1.1c-0.172-0.122-0.371-0.196-0.569-0.269
		c-1.229-0.453-2.456-0.906-3.685-1.359c3.13,0.577,6.313,0.86,9.494,0.842c1.9-0.01,4.055,0.18,5.974-0.126
		c-1.975,1.322-4.254,3.146-6.229,4.468C195.38,65.344,194.971,65.613,194.504,65.685"/>
	<path clip-path="url(#SVGID_55_)" fill="#FFFFFF" d="M206.917,48.571c0.192-1.629,0.1-3.35-0.669-4.799
		c-0.769-1.45-2.325-2.559-3.961-2.436c-0.531,0.04-1.053,0.206-1.51,0.48c-1.253,0.754-1.896,2.225-2.167,3.661
		c-0.329,1.739-0.222,3.56,0.311,5.248c0.412,1.305,1.176,2.624,2.452,3.116c1.377,0.531,3.005-0.095,3.978-1.203
		C206.324,51.529,206.743,50.036,206.917,48.571"/>
	<path clip-path="url(#SVGID_55_)" fill="#FFFFFF" d="M183.469,36.902c-1.857,2.287-1.87,5.876-0.025,8.175
		c0.65,0.812,1.703,1.504,2.685,1.157c0.662-0.234,1.088-0.873,1.399-1.503c0.828-1.676,1.188-3.58,1.03-5.443
		c-0.073-0.871-0.268-1.756-0.76-2.478c-0.492-0.723-1.325-1.256-2.198-1.205C184.745,35.655,184.009,36.237,183.469,36.902"/>
	<path clip-path="url(#SVGID_55_)" fill="#BA8C5E" d="M157.851,72.607c-1.548-0.33-3.242,0.116-4.426,1.165
		c-1.185,1.05-1.831,2.678-1.689,4.254c0.115,1.273,1.087,2.688,2.345,2.466c0.526-0.093,0.958-0.453,1.44-0.682
		s1.141-0.287,1.477,0.128c0.466,0.574-0.023,1.62,0.558,2.076c0.14,0.109,0.318,0.157,0.495,0.187
		c0.439,0.075,0.995-0.011,1.16-0.427c0.089-0.225,0.031-0.478-0.021-0.714c-0.496-2.193-0.557-4.484-0.179-6.701
		c0.057-0.332,0.121-0.684-0.006-0.996C158.823,72.919,158.318,72.708,157.851,72.607"/>
</g>
<g>
	<defs>
		<path id="SVGID_56_" d="M223.487,103.435c-0.454,0.853-0.49,1.882-0.266,2.819c0.521,2.173,2.294,3.815,4.149,5.058
			c4.656,3.118,10.66,4.548,15.998,2.845c1.188-0.38,2.43-1.003,2.921-2.149c-6.512-1.526-12.674-4.522-17.897-8.701
			c-0.767-0.612-1.592-1.283-2.573-1.32c-0.026-0.001-0.053-0.001-0.078-0.001C224.806,101.984,223.928,102.606,223.487,103.435"/>
	</defs>
	<clipPath id="SVGID_57_">
		<use xlink:href="#SVGID_56_"  overflow="visible"/>
	</clipPath>
	
		<linearGradient id="SVGID_58_" gradientUnits="userSpaceOnUse" x1="0" y1="179.9961" x2="1" y2="179.9961" gradientTransform="matrix(-4.4472 -9.5007 -9.5007 4.4472 1947.3757 -685.9116)">
		<stop  offset="0" style="stop-color:#4A6E8B"/>
		<stop  offset="3.786670e-004" style="stop-color:#4A6E8B"/>
		<stop  offset="0.3552" style="stop-color:#5B829D"/>
		<stop  offset="1" style="stop-color:#7299AE"/>
	</linearGradient>
	<polygon clip-path="url(#SVGID_57_)" fill="url(#SVGID_58_)" points="227.184,124.803 217.67,104.478 242.104,93.04 
		251.617,113.365 	"/>
</g>
<g>
	<defs>
		<rect id="SVGID_59_" width="300" height="180"/>
	</defs>
	<clipPath id="SVGID_60_">
		<use xlink:href="#SVGID_59_"  overflow="visible"/>
	</clipPath>
	<path clip-path="url(#SVGID_60_)" fill="#B76029" d="M252.758,154.732c2.05,1.39,4.381,2.362,6.81,2.844
		c1.665,0.33,3.479,0.409,4.977-0.39c0.145-0.077,0.293-0.169,0.37-0.314c0.114-0.208,0.056-0.467-0.037-0.685
		c-0.568-1.336-2.116-1.911-3.509-2.323c-2.675-0.793-5.374-1.506-8.093-2.136c-0.467-0.108-0.987-0.207-1.404,0.031
		c-0.54,0.31-0.652,1.086-0.399,1.654C251.725,153.983,252.242,154.383,252.758,154.732"/>
	<path clip-path="url(#SVGID_60_)" fill="#B76029" d="M231.124,162.833c-0.203,0.086-0.407,0.192-0.537,0.37
		c-0.302,0.41-0.09,0.999,0.213,1.408c0.708,0.954,1.814,1.515,2.893,2.013c3.812,1.76,7.785,3.167,11.856,4.195
		c1.699,0.431,6.559,0.727,5.174-2.367c-0.705-1.571-4.322-2.763-5.854-3.421C241.287,163.492,234.824,161.267,231.124,162.833"/>
	<path clip-path="url(#SVGID_60_)" fill="#9F865A" d="M241.963,143.754c-1.267-0.229-2.564-0.427-3.839-0.238
		c-1.274,0.187-2.541,0.815-3.213,1.914c-1.009,1.649-0.437,3.772,0.188,5.603c1.191,3.487,2.476,6.943,3.849,10.363
		c1.307,3.253,3.041,6.809,6.354,7.955c1.475,0.51,3.505,0.191,3.992-1.29c0.169-0.515,0.115-1.071,0.058-1.609
		c-0.626-5.879-1.367-11.747-2.225-17.597c-0.167-1.137-0.362-2.331-1.075-3.233C245.1,144.419,243.472,144.027,241.963,143.754"/>
</g>
<g>
	<defs>
		<path id="SVGID_61_" d="M238.125,143.515c-1.275,0.188-2.542,0.816-3.214,1.915c-1.009,1.649-0.437,3.772,0.188,5.603
			c1.191,3.486,2.476,6.942,3.849,10.362c1.307,3.254,3.04,6.81,6.353,7.955c1.475,0.512,3.506,0.192,3.994-1.289
			c0.168-0.514,0.114-1.07,0.056-1.609c-0.625-5.879-1.366-11.746-2.225-17.596c-0.166-1.139-0.361-2.332-1.074-3.233
			c-0.951-1.203-2.58-1.595-4.089-1.868c-0.914-0.165-1.844-0.313-2.769-0.313C238.836,143.44,238.48,143.463,238.125,143.515"/>
	</defs>
	<clipPath id="SVGID_62_">
		<use xlink:href="#SVGID_61_"  overflow="visible"/>
	</clipPath>
	<path clip-path="url(#SVGID_62_)" fill="#846C44" d="M251.936,172.396c-0.262-7.554-1.388-15.125-2.871-22.529
		c-0.195-0.974-1.41-1.624-2.332-1.323c-4.853,1.574-8.105-0.308-12.68-1.402c-0.772-0.185-1.436,0.637-1.033,1.346
		c1.955,3.447,6.138,4.568,10.108,4.435c1.066,6.382,2.584,13.082,4.925,19.159c0.01,0.105,0.021,0.211,0.029,0.315
		c0.046,0.557,0.283,0.984,0.611,1.291c0.803,1.698,3.39,1.175,3.168-0.681C251.91,172.821,251.943,172.624,251.936,172.396"/>
</g>
<g>
	<defs>
		<rect id="SVGID_63_" width="300" height="180"/>
	</defs>
	<clipPath id="SVGID_64_">
		<use xlink:href="#SVGID_63_"  overflow="visible"/>
	</clipPath>
	<path clip-path="url(#SVGID_64_)" fill="#9F865A" d="M257.025,151.806c1.194,1.943,2.856,4.041,5.139,4.044
		c0.441,0.001,0.911-0.096,1.226-0.406c0.504-0.496,0.433-1.313,0.325-2.012c-0.391-2.54-0.782-5.079-1.173-7.619
		c-0.408-2.651-0.82-5.321-1.714-7.85c-0.365-1.034-0.901-2.136-1.916-2.552c-1.104-0.45-2.348,0.069-3.388,0.65
		c-1.585,0.884-3.206,2.112-3.541,3.895c-0.25,1.333,0.281,2.678,0.839,3.914C254.052,146.602,255.457,149.254,257.025,151.806"/>
</g>
<g>
	<defs>
		<path id="SVGID_65_" d="M255.523,136.061c-1.584,0.885-3.204,2.112-3.539,3.896c-0.25,1.333,0.281,2.678,0.838,3.914
			c1.229,2.73,2.635,5.383,4.203,7.936c1.194,1.944,2.855,4.041,5.139,4.043c0.442,0.001,0.91-0.096,1.225-0.405
			c0.504-0.495,0.434-1.313,0.326-2.013c-0.391-2.539-0.782-5.079-1.172-7.617c-0.409-2.652-0.821-5.321-1.715-7.851
			c-0.365-1.035-0.901-2.135-1.916-2.552c-0.292-0.119-0.595-0.171-0.901-0.171C257.163,135.24,256.288,135.634,255.523,136.061"/>
	</defs>
	<clipPath id="SVGID_66_">
		<use xlink:href="#SVGID_65_"  overflow="visible"/>
	</clipPath>
	<path clip-path="url(#SVGID_66_)" fill="#846C44" d="M265.026,158.512c-0.729-6.124-1.604-12.521-3.719-18.339
		c0.048-0.364,0.021-0.701-0.111-0.991c-0.107-0.232-0.462-0.369-0.701-0.285c-0.033,0.012-0.067,0.023-0.101,0.036
		c-0.228,0.08-0.4,0.268-0.436,0.496c-0.03,0.045-0.061,0.089-0.09,0.134c-0.188,0.103-0.32,0.283-0.358,0.535
		c-1.966,2.932-4.036,5.824-7.148,7.632c-1.557,0.903-0.071,3.4,1.402,2.399c2.119-1.438,3.79-3.251,5.171-5.401
		c0.215-0.333,0.529-0.784,0.861-1.292c0.565,5.029,1.436,10.038,1.944,15.076C261.952,160.606,265.273,160.597,265.026,158.512"/>
</g>
<g>
	<defs>
		<path id="SVGID_67_" d="M240.463,113.827c-2.301,4.895-3.648,8.337-4.771,13.628c-0.953,4.491-0.922,10.762-3.961,14.203
			c-0.587,0.664-1.22,1.396-1.252,2.282c-0.021,0.618,0.261,1.208,0.582,1.736c2.205,3.614,6.534,5.571,10.766,5.72
			c4.231,0.149,8.376-1.288,12.146-3.215c3.692-1.885,5.805-4.204,8.199-7.587c0.402-0.567,0.779-1.18,0.894-1.867
			c0.163-0.981-0.226-1.961-0.597-2.885c-3.136-7.814-2.925-15.867-5.46-24.389c-0.225-0.758-0.271-1.59-0.731-2.232
			c-0.528-0.735-1.404-1.137-2.271-1.401c-0.994-0.305-2.022-0.448-3.054-0.448C246.643,107.372,242.311,109.894,240.463,113.827"/>
	</defs>
	<clipPath id="SVGID_68_">
		<use xlink:href="#SVGID_67_"  overflow="visible"/>
	</clipPath>
	
		<linearGradient id="SVGID_69_" gradientUnits="userSpaceOnUse" x1="0" y1="179.8926" x2="1" y2="179.8926" gradientTransform="matrix(-8.077 -13.529 -13.529 8.077 2686.8955 -1313.0056)">
		<stop  offset="0" style="stop-color:#4A6E8B"/>
		<stop  offset="3.786670e-004" style="stop-color:#4A6E8B"/>
		<stop  offset="0.3552" style="stop-color:#5B829D"/>
		<stop  offset="1" style="stop-color:#7299AE"/>
	</linearGradient>
	<polygon clip-path="url(#SVGID_68_)" fill="url(#SVGID_69_)" points="239.068,165.97 211.015,118.979 254.617,92.948 
		282.672,139.938 	"/>
</g>
<g>
	<defs>
		<path id="SVGID_70_" d="M239.271,119.806c-1.858,1.713-2.729,4.212-3.625,6.575c-1.029,2.71-2.178,5.374-3.442,7.981
			c-1.733,3.574-3.71,7.08-6.408,9.997c-1.336,1.443-2.864,2.768-3.762,4.518c-0.898,1.751-0.98,4.125,0.44,5.485
			c7.02-2.03,12.135-8.167,15.399-14.703c3.264-6.536,5.11-13.696,8.226-20.306c-0.758-0.779-1.783-1.121-2.855-1.121
			C241.826,118.232,240.329,118.831,239.271,119.806"/>
	</defs>
	<clipPath id="SVGID_71_">
		<use xlink:href="#SVGID_70_"  overflow="visible"/>
	</clipPath>
	
		<linearGradient id="SVGID_72_" gradientUnits="userSpaceOnUse" x1="0" y1="180.0127" x2="1" y2="180.0127" gradientTransform="matrix(-5.66 -5.66 -5.66 5.66 1254.6503 -880.3851)">
		<stop  offset="0" style="stop-color:#4A6E8B"/>
		<stop  offset="3.786670e-004" style="stop-color:#4A6E8B"/>
		<stop  offset="0.3552" style="stop-color:#5B829D"/>
		<stop  offset="1" style="stop-color:#7299AE"/>
	</linearGradient>
	<polygon clip-path="url(#SVGID_71_)" fill="url(#SVGID_72_)" points="233.577,166.885 202.989,136.297 233.577,105.709 
		264.165,136.297 	"/>
</g>
<g>
	<defs>
		<path id="SVGID_73_" d="M256.27,61.843c-7.047,2.199-12.56,7.915-16.141,14.372c-1.418,2.556-2.595,5.298-2.962,8.199
			l-3.006-3.721c-0.737-0.912-2.179-1.846-2.892-0.914c-0.251,0.329-0.267,0.777-0.239,1.191c0.129,1.964,1.019,3.868,2.442,5.226
			c0.389,0.37,0.834,0.729,1.006,1.238c0.221,0.65-0.063,1.349-0.285,1.999c-1.073,3.122-0.763,6.598,0.325,9.715
			c1.088,3.116,2.905,5.925,4.851,8.594c1.775,2.435,3.958,4.957,6.938,5.415c2.204,0.338,4.394-0.535,6.453-1.393
			c3.855-1.603,7.768-3.238,11.031-5.844c3.549-2.832,6.151-6.667,8.503-10.553c2.534-4.189,4.875-8.588,5.887-13.378
			c1.012-4.79,0.562-10.063-2.154-14.137c-3.033-4.55-8.546-6.864-14.065-6.864C260.029,60.989,258.097,61.273,256.27,61.843"/>
	</defs>
	<clipPath id="SVGID_74_">
		<use xlink:href="#SVGID_73_"  overflow="visible"/>
	</clipPath>
	
		<linearGradient id="SVGID_75_" gradientUnits="userSpaceOnUse" x1="0" y1="180.0225" x2="1" y2="180.0225" gradientTransform="matrix(-32.6224 -21.0686 -21.0686 32.6224 4077.4949 -5766.3906)">
		<stop  offset="0" style="stop-color:#D69352"/>
		<stop  offset="0.0023" style="stop-color:#D69352"/>
		<stop  offset="1" style="stop-color:#E5B47E"/>
	</linearGradient>
	<polygon clip-path="url(#SVGID_74_)" fill="url(#SVGID_75_)" points="265.009,135.457 207.074,98.041 245.187,39.027 
		303.121,76.443 	"/>
</g>
<g>
	<defs>
		<path id="SVGID_76_" d="M256.27,61.843c-7.047,2.199-12.56,7.915-16.141,14.372c-1.418,2.556-2.595,5.298-2.962,8.199
			l-3.006-3.721c-0.737-0.912-2.179-1.846-2.892-0.914c-0.251,0.329-0.267,0.777-0.239,1.191c0.129,1.964,1.019,3.868,2.442,5.226
			c0.389,0.37,0.833,0.729,1.006,1.238c0.221,0.65-0.063,1.349-0.285,1.999c-1.073,3.122-0.763,6.598,0.324,9.715
			c1.089,3.116,2.906,5.925,4.852,8.594c1.775,2.435,3.958,4.957,6.938,5.415c2.204,0.338,4.394-0.535,6.453-1.393
			c3.855-1.603,7.768-3.238,11.031-5.844c3.549-2.832,6.151-6.667,8.503-10.553c2.534-4.189,4.875-8.588,5.887-13.378
			c1.012-4.79,0.562-10.063-2.154-14.137c-3.033-4.55-8.546-6.864-14.065-6.864C260.029,60.989,258.097,61.273,256.27,61.843"/>
	</defs>
	<clipPath id="SVGID_77_">
		<use xlink:href="#SVGID_76_"  overflow="visible"/>
	</clipPath>
	<path clip-path="url(#SVGID_77_)" fill="#DCA36A" d="M234.412,84.266c-1.316-1.152-3.526-3.082-3.304-5.036
		c0.071-0.633-0.813-0.738-1.106-0.299c-0.814,1.217-0.599,2.838-0.175,4.173c0.233,0.736,0.56,1.456,0.985,2.101
		c0.173,0.264,0.695,0.728,1.063,1.109c-0.13,0.191-0.246,0.395-0.301,0.674c-0.423,2.117,2.448,2.875,3.204,0.883
		c-0.224,0.587,0.411-0.35,0.43-0.379c0.205-0.322,0.364-0.774,0.372-1.151C235.599,85.463,235.023,84.8,234.412,84.266"/>
	<path clip-path="url(#SVGID_77_)" fill="#DCA36A" d="M254.655,106.942c0.547-1.757-2.123-3.099-3.287-1.347
		c-0.511,0.77-1.095,1.352-1.834,1.903c-0.121,0.091-0.224,0.188-0.315,0.291c-0.747,0.497-1.551,0.932-2.317,1.421
		c-1.188,0.359-2.387,0.592-3.704,0.679c-1.642-0.704-3.157-1.837-4.184-3.206c-0.563-0.749-1.675-0.127-1.267,0.74
		c0.598,1.261,1.443,2.42,2.455,3.423c-0.645,1.147-0.084,2.983,1.66,3.068c0.993,0.049,1.983,0.015,2.964-0.09
		c3.419,1.274,7.296,0.974,10.286-1.927C256.76,110.303,257.029,107.675,254.655,106.942"/>
	<path clip-path="url(#SVGID_77_)" fill="#BA8C5E" d="M255.878,100.539c0.522,0.094,1.051,0.35,1.307,0.814
		c0.296,0.541,0.141,1.25-0.256,1.723c-0.396,0.474-0.988,0.742-1.585,0.898c0.342-0.134,0.641-0.376,0.841-0.684
		c0.107-0.164,0.189-0.351,0.191-0.547c0.007-0.486-0.486-0.862-0.971-0.896c-0.485-0.033-0.95,0.185-1.376,0.419
		c-0.427,0.233-0.855,0.495-1.338,0.558c-0.754,0.1-1.546-0.365-1.828-1.071c-0.187-0.467-0.027-1.159,0.473-1.206
		c-0.104,0.168,0.048,0.373,0.19,0.512c0.341,0.333,0.789,0.693,1.24,0.541c0.195-0.066,0.346-0.219,0.502-0.354
		C253.978,100.643,254.962,100.375,255.878,100.539"/>
</g>
<g>
	<defs>
		<rect id="SVGID_78_" width="300" height="180"/>
	</defs>
	<clipPath id="SVGID_79_">
		<use xlink:href="#SVGID_78_"  overflow="visible"/>
	</clipPath>
	<path clip-path="url(#SVGID_79_)" fill="#FFFFFF" d="M243.786,84.172c0.646,1.207,1.94,2.031,3.306,2.136s2.758-0.499,3.64-1.546
		c1.113-1.324,1.363-3.162,1.399-4.892c0.03-1.455-0.075-2.968-0.772-4.244c-0.698-1.277-2.128-2.25-3.563-2.009
		c-1.853,0.311-2.838,2.312-3.508,4.067C243.487,79.778,242.729,82.197,243.786,84.172"/>
	<path clip-path="url(#SVGID_79_)" d="M245.691,82.619c0.314-0.729,0.414-1.549,0.286-2.332c-0.048-0.293-0.141-0.602-0.376-0.784
		c-0.372-0.287-0.949-0.113-1.25,0.248c-0.302,0.361-0.396,0.846-0.475,1.309c-0.11,0.641-0.207,1.308-0.027,1.933
		s0.717,1.195,1.367,1.199c0.61-0.858,0.807-1.997,0.521-3.01"/>
	
		<path clip-path="url(#SVGID_79_)" fill="none" stroke="#A67C54" stroke-linecap="round" stroke-linejoin="round" stroke-miterlimit="10" d="
		M233.872,92.484c0.878,1.53,1.905,2.454,3.362,3.45c1.62,1.107,3.442,1.835,5.011,0.653c-0.445-1.197-0.049-2.611,0.266-3.849
		c-0.259,1.269-0.505,2.576-0.266,3.849c0.237,1.271,1.074,2.516,2.323,2.856"/>
	<path clip-path="url(#SVGID_79_)" fill="#9F723B" d="M258.771,62.415c-0.54,0.034-0.891,0.568-1.129,1.053
		c-1.78,3.621-2.23,7.877-1.246,11.79c0.327-1.52,1.175-2.923,2.369-3.918c-1.391,5.323-2.113,10.82-2.146,16.322
		c-0.448-0.598-0.896-1.196-1.345-1.794c-0.678,2.632-1.094,5.331-1.239,8.044c-0.386-0.317-0.772-0.635-1.159-0.952
		c-1.036,1.625-1.767,3.444-2.14,5.335c1.817-0.202,3.715-0.395,5.426,0.25c1.713,0.646,3.151,2.409,2.782,4.2
		c-0.519,2.519-4.032,3.171-6.364,2.089c0.748,2.292,1.969,4.428,3.56,6.239c2.945-0.782,5.696-2.284,7.946-4.339
		c-0.504,1.583-1.009,3.166-1.514,4.749c3.254-1.735,5.862-4.649,7.229-8.075c-0.451,1.424-0.445,2.988,0.016,4.408
		c3.302-3.171,5.102-7.699,5.521-12.259c0.419-4.56-0.452-9.159-1.887-13.507c-2.521-7.648-7.005-14.911-13.762-19.292
		C259.41,62.577,259.103,62.394,258.771,62.415"/>
</g>
<g>
	<defs>
		<path id="SVGID_80_" d="M258.771,62.415c-0.54,0.034-0.892,0.569-1.131,1.054c-1.779,3.62-2.229,7.877-1.244,11.789
			c0.325-1.52,1.174-2.922,2.367-3.918c-1.39,5.324-2.112,10.821-2.145,16.322c-0.448-0.598-0.897-1.195-1.345-1.794
			c-0.679,2.632-1.094,5.331-1.238,8.044c-0.387-0.316-0.773-0.634-1.16-0.952c-1.036,1.625-1.766,3.444-2.14,5.335
			c1.816-0.202,3.716-0.395,5.427,0.25c1.711,0.646,3.149,2.41,2.781,4.201c-0.519,2.517-4.032,3.17-6.364,2.089
			c0.749,2.291,1.968,4.428,3.56,6.239c2.945-0.783,5.696-2.285,7.946-4.339c-0.505,1.583-1.009,3.165-1.514,4.748
			c3.255-1.735,5.862-4.649,7.228-8.075c-0.451,1.424-0.443,2.988,0.017,4.408c3.302-3.172,5.102-7.699,5.521-12.26
			c0.419-4.559-0.453-9.159-1.887-13.507c-2.521-7.648-7.004-14.91-13.761-19.291c-0.266-0.172-0.556-0.346-0.867-0.346
			C258.805,62.413,258.788,62.414,258.771,62.415"/>
	</defs>
	<clipPath id="SVGID_81_">
		<use xlink:href="#SVGID_80_"  overflow="visible"/>
	</clipPath>
	<path clip-path="url(#SVGID_81_)" fill="#8C6235" d="M278.496,99.349c-0.563-1.985-1.419-2.447-3.102-3.413
		c-2.965-1.703-4.731-3.636-6.866-6.298c-4.207-5.245-6.685-11.263-8.588-17.667c-0.217-0.73-1.196-0.531-1.265,0.172
		c-0.61,6.198,1.22,11.738,4.663,16.896c1.669,2.498,3.597,4.906,5.602,7.141c0.721,0.805,1.463,1.609,2.374,2.205
		c0.886,0.58,3.088,0.965,3.503,1.979C275.719,102.568,279.186,101.781,278.496,99.349"/>
</g>
<g>
	<defs>
		<rect id="SVGID_82_" width="300" height="180"/>
	</defs>
	<clipPath id="SVGID_83_">
		<use xlink:href="#SVGID_82_"  overflow="visible"/>
	</clipPath>
	<path clip-path="url(#SVGID_83_)" fill="#737277" d="M262.822,80.914c0.305,0.435,0.623,0.873,1.056,1.182
		c0.529,0.379,1.193,0.532,1.845,0.556c2.811,0.105,5.313-2.127,6.305-4.759c0.992-2.632,0.758-5.564,0.236-8.328
		c-1.22-6.466-3.903-12.55-6.565-18.568c-0.757-1.712-1.538-3.461-2.835-4.813c-1.295-1.351-3.228-2.246-5.048-1.807
		c-0.926,0.224-1.787,0.813-2.21,1.666c-0.231,0.467-0.327,0.989-0.41,1.505C253.338,59.094,256.133,71.322,262.822,80.914"/>
	<path clip-path="url(#SVGID_83_)" fill="#373538" d="M261.296,81.569c-2.231-3.656-4.726-11.366-3.017-15.294
		c1.227-2.819,4.224-4.573,7.266-5.017c3.042-0.444,6.136,0.234,9.072,1.145c5.398,1.674,10.873,4.447,13.617,9.389
		c2.637,4.751,2.195,10.833-0.354,15.632c-2.548,4.799-6.967,8.405-11.827,10.836C270.325,94.641,265.652,88.705,261.296,81.569"/>
	<path clip-path="url(#SVGID_83_)" fill="#E5B47F" d="M215.883,150.566c0.841-2.111,3.814-3.008,5.683-1.714
		c1.318,0.913,1.925,2.565,2.117,4.157c0.167,1.384,0.037,2.903-0.861,3.969c-0.513,0.609-1.23,1.012-1.97,1.312
		c-1.179,0.479-2.576,0.71-3.688,0.092c-0.919-0.51-1.472-1.522-1.677-2.554c-0.204-1.031-0.106-2.096-0.009-3.142
		C215.546,151.967,215.615,151.237,215.883,150.566"/>
	<path clip-path="url(#SVGID_83_)" fill="#E5B47F" d="M193.089,127.016c1.805-6.493-0.041-14.338-5.689-18.012
		c-3.687-2.397-8.317-2.725-12.714-2.713c-4.783,0.013-9.909,0.469-13.627,3.477c-4.737,3.833-5.763,10.582-5.912,16.673
		c-1.381-1.178-2.875-2.225-4.454-3.121c-0.418-0.237-0.86-0.471-1.34-0.502c-1.085-0.074-2.01,0.948-2.166,2.024
		c-0.157,1.076,0.272,2.151,0.805,3.099c1.786,3.178,4.888,5.587,8.409,6.53c0.488,0.131,1.006,0.245,1.387,0.578
		c0.324,0.282,0.508,0.688,0.689,1.076c2.41,5.177,6.346,10.07,11.832,11.653c4.543,1.31,9.62,0.084,13.407-2.745
		c3.788-2.829,6.338-7.123,7.562-11.689c3.209-0.196,6.33-1.602,8.602-3.877c1.152-1.153,2.114-2.974,1.226-4.34
		c-0.834-1.282-2.78-1.248-4.148-0.564S194.487,126.397,193.089,127.016"/>
	<path clip-path="url(#SVGID_83_)" fill="#4F6C7D" d="M168.51,150.154c-0.604-0.287-1.236-0.598-1.612-1.151
		c-0.376-0.553-0.372-1.424,0.187-1.791c5.918-2.22,12.533-2.538,18.638-0.895c0.459,1.115-0.21,2.437-1.206,3.115
		c-0.997,0.679-2.236,0.867-3.43,1.04c-1.858,0.267-3.717,0.534-5.575,0.802c-1.1,0.158-2.214,0.316-3.315,0.177
		C170.897,151.286,169.69,150.716,168.51,150.154"/>
</g>
<g>
	<defs>
		<path id="SVGID_84_" d="M163.505,153.634c-6.438,5.284-11.056,15.13-18.383,19.092c-2.602,1.408-5.844,2.487-6.864,5.266
			c-0.301,0.819-0.22,0.679-0.278,1.55c2.291,0,3.638,0.04,7.003,0.04c0.93,0,1.933-0.649,3.202-1.188
			c6.763-2.879,12.397-8.402,15.113-15.231c-1.814,5.271-3.654,10.724-3.247,16.284c10.34,0.096,20.515,0.096,31.295,0.096
			c0.873-6.574,1.24-13.498,0.826-20.119c6.62,2.563,13.842,4.413,20.786,2.939c2.389-0.508,4.88-1.56,6.055-3.698
			c1.176-2.14,0.172-5.472-2.245-5.814c-1.71-0.24-3.229,0.989-4.813,1.677c-3.419,1.485-7.353,0.442-10.926-0.615
			c-6.954-2.059-13.906-4.117-20.86-6.175C176.665,147.872,169.569,148.656,163.505,153.634"/>
	</defs>
	<clipPath id="SVGID_85_">
		<use xlink:href="#SVGID_84_"  overflow="visible"/>
	</clipPath>
	
		<linearGradient id="SVGID_86_" gradientUnits="userSpaceOnUse" x1="0" y1="179.9678" x2="1" y2="179.9678" gradientTransform="matrix(-1.0188 -17.93 -17.93 1.0188 3406.7993 -3.7894)">
		<stop  offset="0" style="stop-color:#4A6E8B"/>
		<stop  offset="3.786670e-004" style="stop-color:#4A6E8B"/>
		<stop  offset="0.3552" style="stop-color:#5B829D"/>
		<stop  offset="1" style="stop-color:#7299AE"/>
	</linearGradient>
	<polygon clip-path="url(#SVGID_85_)" fill="url(#SVGID_86_)" points="138.222,184.238 136.153,147.838 219.924,143.078 
		221.991,179.479 	"/>
</g>
<g>
	<defs>
		<rect id="SVGID_87_" width="300" height="180"/>
	</defs>
	<clipPath id="SVGID_88_">
		<use xlink:href="#SVGID_87_"  overflow="visible"/>
	</clipPath>
	<path clip-path="url(#SVGID_88_)" fill="#CE7229" d="M171.394,134.74c-0.292,2.201-0.758,4.381-1.393,6.511
		c-1.866-2.463-3.177-5.346-3.804-8.373c0.13,2.013,0.26,4.024,0.39,6.038c-2.435-2.172-4.324-4.95-5.45-8.013
		c0.109,2.012,0.221,4.022,0.331,6.034c-4.789-4.108-8.186-9.814-9.513-15.983c-1.328-6.169-0.581-12.767,2.095-18.482
		c-2.45,1.48-4.214,4.046-4.718,6.863c-1.172-4.852,2.158-9.531,5.291-13.416c-2.256,0.101-4.468,0.991-6.164,2.479
		c2.084-6.649,8.586-11.663,15.548-11.991c-1.489-0.741-3.236-0.95-4.858-0.581c4.398-3.356,10.215-4.788,15.669-3.857
		c5.454,0.93,10.466,4.211,13.502,8.836c0.395-3.816,3.794-7.097,7.622-7.354c-2.935,1.775-5.092,4.789-5.826,8.14
		c1.389-1.86,4.507-2.046,6.106-0.364c-1.852-0.049-3.698,0.914-4.718,2.46c-0.128-0.417,0.624-0.4,0.956-0.119
		c1.847,1.567,2.993,3.809,3.801,6.092c2.58,7.304,2.034,15.516-0.746,22.746c-2.781,7.229-7.687,13.52-13.498,18.642
		c0.544-1.181,0.809-2.489,0.764-3.788c-1.896,2.486-4.168,4.686-6.715,6.501c1.044-2.164,1.268-4.712,0.617-7.025
		c-1.314,2.047-2.382,4.251-3.173,6.553C172.805,140.438,172.099,137.589,171.394,134.74"/>
</g>
<g>
	<defs>
		<path id="SVGID_89_" d="M159.148,85.827c1.623-0.369,3.369-0.16,4.858,0.581c-6.961,0.328-13.463,5.341-15.549,11.991
			c1.697-1.49,3.909-2.381,6.164-2.48c-3.132,3.885-6.462,8.565-5.29,13.416c0.504-2.816,2.268-5.383,4.717-6.863
			c-2.674,5.717-3.422,12.313-2.094,18.482s4.723,11.874,9.513,15.984c-0.11-2.013-0.221-4.023-0.332-6.035
			c1.126,3.063,3.017,5.841,5.451,8.013c-0.129-2.012-0.26-4.025-0.389-6.038c0.627,3.026,1.936,5.909,3.804,8.373
			c0.633-2.13,1.099-4.309,1.391-6.511c0.706,2.849,1.411,5.698,2.116,8.547c0.791-2.3,1.859-4.505,3.174-6.552
			c0.65,2.313,0.428,4.86-0.617,7.025c2.547-1.815,4.819-4.015,6.716-6.502c0.044,1.3-0.221,2.608-0.766,3.788
			c5.813-5.121,10.718-11.411,13.499-18.641c2.781-7.23,3.326-15.442,0.745-22.746c-0.806-2.284-1.954-4.524-3.8-6.092
			c-0.188-0.16-0.513-0.234-0.734-0.191c1.053-1.363,2.772-2.195,4.496-2.149c-1.6-1.682-4.718-1.496-6.105,0.363
			c0.733-3.35,2.891-6.364,5.825-8.139c-3.828,0.257-7.229,3.538-7.621,7.353c-3.037-4.625-8.049-7.905-13.503-8.836
			c-1.096-0.187-2.203-0.278-3.313-0.278C167.086,81.691,162.664,83.144,159.148,85.827"/>
	</defs>
	<clipPath id="SVGID_90_">
		<use xlink:href="#SVGID_89_"  overflow="visible"/>
	</clipPath>
	<path clip-path="url(#SVGID_90_)" fill="#DB923C" d="M189.462,96.46c-2.131,3.766-4.651,7.312-7.509,10.563
		c1.473-3.48,2.946-6.962,4.418-10.441c-4.459-1.454-9.538-0.877-13.558,1.54c2.495-3.115,6.958-3.626,10.94-3.898
		c-3.222-1.46-6.935-1.805-10.371-0.964c2.436-1.58,5.344-2.42,8.246-2.383c-5.449-3.195-11.84-4.762-18.148-4.451
		c-2.842,0.141-5.651,0.651-8.473,1.022c-0.434,0.057-0.95,0.081-1.229-0.259c-0.301-0.369-0.121-0.921,0.103-1.342
		c1.361-2.556-5.548-0.784-2.93-2.022c5.806-2.747,12.42-3.103,18.84-3.265c4.065-0.103,8.188-0.142,12.129,0.859
		c3.942,1,17.125-0.404,19.279,3.045c1.833,2.933,2.326,6.521,2.234,9.978c-0.106,4.03-1.473,8.686-5.252,10.087
		c-1.243-3.648-3.766-6.848-7.023-8.907c1.099,2.609,1.152,5.643,0.147,8.29C191.479,101.315,190.825,98.674,189.462,96.46"/>
	<path clip-path="url(#SVGID_90_)" fill="#CD7128" d="M169.79,77.819c4.88-0.11,9.921,0.81,13.978,3.524
		c1.315,0.879,2.541,1.976,3.222,3.403c1.089,2.279,0.633,5.022,1.497,7.395c-5.41-3.861-12.265-5.644-18.871-4.907
		c-4.432,0.494-8.886,2.073-13.25,1.149c-1.255-0.266-2.682-1.016-2.722-2.299c-0.021-0.668,0.358-1.278,0.764-1.808
		C157.903,79.706,164.037,77.949,169.79,77.819"/>
</g>
<g>
	<defs>
		<path id="SVGID_91_" d="M64.273,141.1c-1.516,0.945-1.818,2.729-0.808,4.65c0.832,1.581,5.82,4.491,7.479,5.154
			c4.549,1.819,7.883,1.92,14.15,1.313c2.563-0.248,5.225-2.455,7.075-4.245c1.245-1.203,1.215-0.218,1.049-1.94
			s-0.457-1.936-1.352-3.415c-4.245-0.203-7.808,3.682-12.129,3.84c-5.558,0.203-7.8-4.595-12.274-5.254
			c-0.647-0.095-1.474-0.339-2.202-0.339C64.895,140.864,64.553,140.926,64.273,141.1"/>
	</defs>
	<clipPath id="SVGID_92_">
		<use xlink:href="#SVGID_91_"  overflow="visible"/>
	</clipPath>
	
		<linearGradient id="SVGID_93_" gradientUnits="userSpaceOnUse" x1="0" y1="179.9844" x2="1" y2="179.9844" gradientTransform="matrix(0.7262 -5.0833 -5.0833 -0.7262 991.9631 283.6932)">
		<stop  offset="0" style="stop-color:#4A6E8B"/>
		<stop  offset="3.786670e-004" style="stop-color:#4A6E8B"/>
		<stop  offset="0.3552" style="stop-color:#5B829D"/>
		<stop  offset="1" style="stop-color:#7299AE"/>
	</linearGradient>
	<polygon clip-path="url(#SVGID_92_)" fill="url(#SVGID_93_)" points="60.781,152.585 63.074,136.529 95.088,141.104 
		92.795,157.158 	"/>
</g>
<g>
	<defs>
		<path id="SVGID_94_" d="M99.031,140.288c-1.502,0.034-3.025,0.071-4.46,0.516c-2.612,0.811-4.657,2.9-6.088,5.231
			c-2.733,4.449-3.54,9.794-3.983,14.996c-0.385,4.527-0.538,9.072-0.69,13.616c-0.042,1.243-0.367,3.648-0.409,4.894h37.869
			c-1.549-6.166-3.056-12.464-4.605-18.63c4.284,5.649,8.568,11.301,12.853,16.952c0.41,0.539,1.059,1.357,1.657,1.678h8.826
			c-10.294-10.337-16.039-25.42-27.178-34.841c-1.921-1.625-4.041-3.094-6.452-3.814c-1.735-0.517-3.551-0.628-5.369-0.628
			C100.344,140.258,99.686,140.273,99.031,140.288"/>
	</defs>
	<clipPath id="SVGID_95_">
		<use xlink:href="#SVGID_94_"  overflow="visible"/>
	</clipPath>
	
		<radialGradient id="SVGID_96_" cx="0" cy="180" r="1" gradientTransform="matrix(12.4754 -34.563 -34.563 -12.4754 6315.3765 2418.0283)" gradientUnits="userSpaceOnUse">
		<stop  offset="0" style="stop-color:#4A6E8B"/>
		<stop  offset="3.786670e-004" style="stop-color:#4A6E8B"/>
		<stop  offset="0.3552" style="stop-color:#5B829D"/>
		<stop  offset="1" style="stop-color:#7299AE"/>
	</radialGradient>
	<polygon clip-path="url(#SVGID_95_)" fill="url(#SVGID_96_)" points="70.856,175.013 89.925,122.184 152.546,144.786 
		133.477,197.616 	"/>
</g>
<g>
	<defs>
		<rect id="SVGID_97_" width="300" height="180"/>
	</defs>
	<clipPath id="SVGID_98_">
		<use xlink:href="#SVGID_97_"  overflow="visible"/>
	</clipPath>
	<path clip-path="url(#SVGID_98_)" fill="#4F6C7D" d="M104.557,143.643c-2.727,2.152-6.435,3.006-9.829,2.263
		c-0.645-0.141-1.318-0.361-1.731-0.877c-0.615-0.767-0.409-1.969,0.253-2.694c0.662-0.727,1.661-1.052,2.635-1.18
		s1.965-0.088,2.937-0.229c1.681-0.245,3.297-1.031,4.992-0.918c0.795,0.054,1.673,0.398,1.943,1.148
		C106.09,142.084,105.331,143.032,104.557,143.643"/>
</g>
<g>
	<defs>
		<path id="SVGID_99_" d="M87.782,98.599c-3.904,4.311-5.642,10.234-5.933,16.041c-0.388,7.724,1.63,15.551,5.704,22.123
			c0.603,0.974,1.268,1.938,2.19,2.615c1.132,0.83,2.546,1.154,3.921,1.431c4.17,0.842,5.202,0.461,9.421-0.08
			c5.256-0.673,8.036-2.447,12.061-8.018c-1.345-0.721-3.301-2.224-3.301-5.457c0.982,0.689,4.001,2.036,5.179,1.804
			c-0.183-3.772-0.462-4.096,2.232-3.557c0.868,0.174,2.351-0.172,2.875-0.884c0.524-0.713,0.578-1.893-0.179-2.351
			c-0.544-0.247-0.915-0.228-1.276-0.21c-0.624,0.032-1.221,0.065-2.632-1.271c1.347-7.749,1.768-19.106-3.437-26.077l-11.062-0.995
			c-1.269-0.409-2.58-0.601-3.893-0.601C95.237,93.112,90.791,95.277,87.782,98.599"/>
	</defs>
	<clipPath id="SVGID_100_">
		<use xlink:href="#SVGID_99_"  overflow="visible"/>
	</clipPath>
	
		<linearGradient id="SVGID_101_" gradientUnits="userSpaceOnUse" x1="0" y1="179.9961" x2="1" y2="179.9961" gradientTransform="matrix(40.7217 0 0 -40.7217 81.8014 7447.1157)">
		<stop  offset="0" style="stop-color:#D69352"/>
		<stop  offset="0.0023" style="stop-color:#D69352"/>
		<stop  offset="1" style="stop-color:#E5B47E"/>
	</linearGradient>
	<rect x="81.461" y="93.112" clip-path="url(#SVGID_100_)" fill="url(#SVGID_101_)" width="41.248" height="48.538"/>
</g>
<g>
	<defs>
		<path id="SVGID_102_" d="M87.782,98.599c-3.904,4.311-5.642,10.234-5.933,16.041c-0.388,7.724,1.63,15.551,5.704,22.123
			c0.603,0.974,1.268,1.938,2.19,2.615c1.132,0.83,2.546,1.154,3.921,1.431c4.17,0.842,5.202,0.461,9.421-0.08
			c5.256-0.673,8.036-2.447,12.061-8.018c-1.345-0.721-3.301-2.224-3.301-5.457c0.982,0.689,4.001,2.036,5.179,1.804
			c-0.183-3.772-0.462-4.096,2.232-3.557c0.868,0.174,2.351-0.172,2.875-0.884c0.524-0.713,0.578-1.893-0.179-2.351
			c-0.544-0.247-0.915-0.228-1.276-0.21c-0.624,0.032-1.221,0.065-2.632-1.271c1.347-7.749,1.768-19.106-3.437-26.077l-11.062-0.995
			c-1.269-0.409-2.58-0.601-3.893-0.601C95.237,93.112,90.791,95.277,87.782,98.599"/>
	</defs>
	<clipPath id="SVGID_103_">
		<use xlink:href="#SVGID_102_"  overflow="visible"/>
	</clipPath>
	<path clip-path="url(#SVGID_103_)" fill="#DCA36A" d="M123.912,122.737c-0.357-0.418-1.079-0.076-1.068,0.442
		c0.009,0.424-1.401,0.671-1.695,0.72c-0.826,0.138-1.427-0.209-2.221-0.234c-0.939-0.03-1.666,0.63-1.839,1.52
		c-0.166,0.856,0.228,1.82,0.49,2.629c0.628,1.935,3.626,1.141,3.071-0.841c0.094-0.006,0.187-0.004,0.283-0.015
		c0.847-0.092,1.64-0.342,2.325-0.861C124.376,125.248,124.885,123.877,123.912,122.737"/>
	<path clip-path="url(#SVGID_103_)" fill="#DCA36A" d="M119.306,112.015c-0.03-0.957,0.066-2.364-0.697-3.098
		c-0.82-0.788-2.148-0.644-2.887,0.174c-0.766,0.849-0.645,2.1-0.616,3.157c0.039,1.464,0.168,2.912,0.386,4.36
		c0.253,1.68,3.162,1.304,2.99-0.405c-0.101-1.006-0.205-2.013-0.266-3.021c-0.008-0.125-0.01-0.251-0.017-0.376
		C118.685,112.971,119.323,112.561,119.306,112.015"/>
	<path clip-path="url(#SVGID_103_)" fill="#D39966" d="M109.033,121.59c-0.808,9.312-4.576,17.722-10.692,24.753
		c-1.067,1.228,0.711,3.027,1.796,1.796c6.537-7.42,10.123-16.697,10.614-26.549C110.807,120.475,109.127,120.502,109.033,121.59"/>
</g>
<g>
	<defs>
		<rect id="SVGID_104_" width="300" height="180"/>
	</defs>
	<clipPath id="SVGID_105_">
		<use xlink:href="#SVGID_104_"  overflow="visible"/>
	</clipPath>
	<path clip-path="url(#SVGID_105_)" fill="#FFFFFF" d="M118.05,109.497c-0.568-0.391-1.369-0.161-1.851,0.344
		c-0.482,0.506-0.713,1.216-0.893,1.908c-0.663,2.552-0.826,5.363,0.187,7.783c0.281,0.669,0.714,1.352,1.383,1.532
		c0.69,0.185,1.424-0.253,1.83-0.873c0.405-0.621,0.548-1.389,0.649-2.136c0.342-2.518,0.314-5.161-0.606-7.511
		C118.592,110.145,118.394,109.734,118.05,109.497"/>
	<path clip-path="url(#SVGID_105_)" d="M117.472,112.905c-0.109,0.134-0.147,0.31-0.174,0.479c-0.19,1.166-0.036,2.385,0.438,3.467
		c0.116,0.265,0.289,0.551,0.573,0.6c0.235,0.041,0.471-0.106,0.602-0.307c0.131-0.199,0.175-0.44,0.205-0.678
		c0.11-0.864,0.062-1.749-0.142-2.596c-0.088-0.362-0.216-0.737-0.5-0.978C118.19,112.653,117.707,112.616,117.472,112.905"/>
	<path clip-path="url(#SVGID_105_)" fill="#00315C" d="M53.367,156.529c0.618,0.297,1.136,0.946,1.016,1.623
		c-0.114,0.637-0.725,1.05-1.3,1.347c-2.818,1.457-6.02,1.954-9.164,2.374c-0.923,0.124-1.864,0.242-2.779,0.073
		c-0.915-0.168-1.817-0.672-2.234-1.503c-0.597-1.189,0.036-2.762,1.199-3.406c1.163-0.646,2.671-0.45,3.788,0.271
		c2.205-0.39,4.421-0.718,6.645-0.985C51.49,156.207,52.503,156.113,53.367,156.529"/>
	<path clip-path="url(#SVGID_105_)" fill="#00315C" d="M26.2,159.284c0.552,0.553,1.465,0.43,2.222,0.236
		c2.66-0.677,5.223-1.732,7.589-3.125c0.347-0.204,0.732-0.489,0.727-0.891c-0.005-0.355-0.318-0.622-0.625-0.802
		c-0.818-0.476-1.794-0.677-2.735-0.562c-0.684,0.083-1.351,0.329-2.04,0.312c-1.114-0.026-2.174-0.734-3.273-0.554
		c-1.595,0.265-2.3,2.189-2.318,3.807C25.739,158.269,25.801,158.887,26.2,159.284"/>
	<path clip-path="url(#SVGID_105_)" fill="#453C35" d="M41.528,159.366c0.181,0.363,0.404,0.758,0.791,0.878
		c0.674,0.212,1.241-0.519,1.565-1.146c4.917-9.553,7.725-20.185,8.165-30.921c0.021-0.508,0.031-1.042-0.207-1.492
		c-0.263-0.498-0.78-0.799-1.271-1.075c-6.353-3.564-13.018-7.222-20.298-7.491c-1.661,10.509-2.67,21.107-3.678,31.698
		c-0.218,2.288-0.244,5.026,1.628,6.36c0.295,0.211,0.653,0.376,1.011,0.316c0.605-0.102,0.918-0.763,1.127-1.339
		c2.162-5.952,3.806-12.091,4.908-18.327C35.885,144.648,38.023,152.348,41.528,159.366"/>
</g>
<g>
	<defs>
		<path id="SVGID_106_" d="M26.595,149.817c-0.218,2.286-0.244,5.024,1.628,6.359c0.295,0.21,0.653,0.376,1.012,0.316
			c0.605-0.102,0.918-0.762,1.126-1.338c2.162-5.952,3.807-12.092,4.908-18.327c0.617,7.821,2.754,15.52,6.26,22.539
			c0.181,0.361,0.403,0.757,0.79,0.877c0.674,0.211,1.242-0.519,1.565-1.146c4.918-9.553,7.726-20.186,8.166-30.921
			c0.02-0.508,0.03-1.043-0.207-1.492c-0.263-0.498-0.781-0.799-1.272-1.075c-6.352-3.565-13.018-7.223-20.297-7.49
			C28.613,128.627,27.603,139.225,26.595,149.817"/>
	</defs>
	<clipPath id="SVGID_107_">
		<use xlink:href="#SVGID_106_"  overflow="visible"/>
	</clipPath>
	<path clip-path="url(#SVGID_107_)" fill="#332B26" d="M50.945,141.482c-1.076,2.548-2.292,4.987-3.553,7.447
		c-0.037,0.07-0.112,0.206-0.203,0.367c-0.124-0.075-0.28-0.103-0.445-0.02c-0.532,0.261-1.039,0.381-1.524,0.407
		c-1.245-0.581-2.289-1.434-3.218-2.417c-1.488-4.972-3.153-9.867-6.667-13.82c-0.047-0.053-0.098-0.094-0.148-0.139
		c-0.394-0.79-0.88-1.548-1.511-2.26c-0.016-0.018-0.033-0.023-0.049-0.039c-0.201-0.447-0.443-0.879-0.751-1.332
		c-0.201-0.299-0.622-0.141-0.615,0.189c-0.002,0.01-0.007,0.016-0.009,0.027c-0.004,0.032-0.007,0.063-0.011,0.095h-0.002
		c0.001,0.003,0.001,0.005,0.001,0.008c-0.324,2.435-0.01,4.896-0.005,7.33c-0.381,2.73-1.26,5.455-2.132,8.179
		c-0.143,0.002-0.285,0.058-0.373,0.191c-0.249,0.383-0.595,0.646-0.979,0.792c-0.475-0.043-1.001-0.425-1.409-0.84
		c-0.158-0.627-0.276-1.268-0.381-1.967c-0.216-1.432-1.519-1.703-2.551-1.221c-1.202-0.426-2.894,0.592-2.612,2.279
		c0.726,4.336,2.375,8.373,4.577,12.162c0.563,0.969,2.069,1.19,2.937,0.563c0.443,0.07,0.905-0.005,1.305-0.224
		c1.444-0.793,2.224-2.173,2.864-3.654c0.519-1.199-0.029-2.36-0.996-2.745c0.036-0.16,0.074-0.317,0.111-0.476
		c0.773-0.916,1.394-1.91,1.885-2.966c0.175,1.498,0.322,3.001,0.44,4.512c0.109,1.4,1.559,1.899,2.523,1.466
		c0.088,0.144,0.173,0.29,0.264,0.428c-0.005,0.302,0.069,0.617,0.26,0.928c0.508,0.824,1.067,1.498,1.696,2.073
		c-1.04,2.1,1.361,3.858,3.317,3.184c1.154,0.007,2.35-0.552,3.249-1.585c3.619-4.162,4.686-11.282,5.881-16.432
		C52.266,141.309,51.239,140.786,50.945,141.482"/>
	<path clip-path="url(#SVGID_107_)" fill="#332B26" d="M49.311,127.088c-4.057,0.766-7.928,0.324-11.706-1.335
		c-3.179-1.396-5.576-3.931-8.662-5.36c-0.489-0.226-1.312,0.167-1.049,0.808c3.245,7.901,14.764,10.985,22.368,9.336
		C52.522,130.045,51.552,126.665,49.311,127.088"/>
	<path clip-path="url(#SVGID_107_)" fill="#463C35" d="M49.479,147.068c0.08-1.653-1.805-2.107-2.859-1.356
		c-0.263-1.44-1.903-1.83-2.878-1.148c-0.678-1.557-1.365-3.113-2.048-4.681c-0.181-0.415-0.594-0.455-0.926-0.29
		c-0.415-1.281-0.854-2.554-1.339-3.81c1.637,0.551,2.286-2.048,0.676-2.696c-1.657-0.668-3.262-1.467-4.753-2.453
		c-1.405-0.932-2.615-2.158-4.057-3.018c-0.719-0.428-1.366,0.397-1.063,1.063c1.162,2.551,3.842,4.547,6.515,5.921
		c1.06,7.043,2.464,13.984,5.686,20.403c0.711,1.416,3.107,1.103,3.435-0.449c0.007-0.03,0.011-0.061,0.017-0.09
		c0.232-0.076,0.455-0.196,0.65-0.391C48.465,152.147,49.348,149.767,49.479,147.068"/>
</g>
<g>
	<defs>
		<path id="SVGID_108_" d="M39.651,89.567c-1.232,0.341-2.47,0.758-3.498,1.518c-1.3,0.963-2.163,2.398-2.881,3.847
			c-1.28,2.584-2.211,5.342-2.76,8.172c-0.76,3.911-0.813,8.031-2.466,11.656c-0.385,0.843-0.865,1.701-0.821,2.627
			c0.032,0.693,0.357,1.335,0.7,1.938c4.278,7.5,13.234,12.424,21.725,10.857c1.933-0.355,3.99-1.177,4.86-2.938
			c0.576-1.166,0.524-2.536,0.364-3.825c-0.902-7.263-1.922-14.748-3.74-21.838c-1.01-3.942-1.271-5.662-3.253-8.576
			c-1.092-1.604-3.007-2.512-4.934-2.744c-1.533-0.185-1.529-0.843-2.406-0.843C40.316,89.418,40.033,89.461,39.651,89.567"/>
	</defs>
	<clipPath id="SVGID_109_">
		<use xlink:href="#SVGID_108_"  overflow="visible"/>
	</clipPath>
	
		<linearGradient id="SVGID_110_" gradientUnits="userSpaceOnUse" x1="0" y1="180.1162" x2="1" y2="180.1162" gradientTransform="matrix(12.1437 -11.2095 -11.2095 -12.1437 2050.2063 2307.0249)">
		<stop  offset="0" style="stop-color:#4A6E8B"/>
		<stop  offset="3.786670e-004" style="stop-color:#4A6E8B"/>
		<stop  offset="0.3552" style="stop-color:#5B829D"/>
		<stop  offset="1" style="stop-color:#7299AE"/>
	</linearGradient>
	<polygon clip-path="url(#SVGID_109_)" fill="url(#SVGID_110_)" points="6.083,108.893 42.248,75.51 76.184,112.273 40.019,145.656 
			"/>
</g>
<g>
	<defs>
		<path id="SVGID_111_" d="M57.31,130.03c-0.104,0.81,0.156,1.619,0.214,2.435c0.099,1.368-0.37,2.705-0.588,4.06
			c-0.217,1.354-0.116,2.907,0.877,3.853c0.647,0.614,1.559,0.859,2.444,0.968c1.285,0.158,2.688,0.043,3.708-0.755
			c0.48-0.376,0.843-0.879,1.188-1.382c0.6-0.876,1.173-1.794,1.446-2.82c0.273-1.024,0.212-2.185-0.389-3.061
			c-0.767-1.119-2.21-1.541-3.556-1.707c-0.513-0.063-1.053-0.109-1.478-0.401c-1.008-0.692-1.076-2.54-2.286-2.719
			c-0.052-0.007-0.104-0.011-0.154-0.011C57.998,128.489,57.408,129.271,57.31,130.03"/>
	</defs>
	<clipPath id="SVGID_112_">
		<use xlink:href="#SVGID_111_"  overflow="visible"/>
	</clipPath>
	
		<linearGradient id="SVGID_113_" gradientUnits="userSpaceOnUse" x1="0" y1="179.7373" x2="1" y2="179.7373" gradientTransform="matrix(-1.7182 -2.7289 -2.7289 1.7182 552.7089 -173.1609)">
		<stop  offset="0" style="stop-color:#E5B47E"/>
		<stop  offset="0.9977" style="stop-color:#D69352"/>
		<stop  offset="1" style="stop-color:#D69352"/>
	</linearGradient>
	<polygon clip-path="url(#SVGID_112_)" fill="url(#SVGID_113_)" points="59.602,146.081 50.851,132.184 63.99,123.911 
		72.74,137.809 	"/>
</g>
<g>
	<defs>
		<path id="SVGID_114_" d="M40.151,98.953c0.135,4.986,3.611,10.053,5.256,14.285c2.829,7.276,9.568,17.384,10.955,19.764
			c0.276,0.473,0.555,1.001,1.062,1.208c0.552,0.226,1.18,0.016,1.728-0.219c2.208-0.942,2.173-0.852,3.883-2.536
			c0.285-0.281,0.575-0.596,0.646-0.99c0.092-0.511-0.123-1.066-0.48-1.442c-10.383-10.933-11.744-21.193-17.82-30.575
			c-0.39-0.603-0.865-1.242-1.568-1.382c-0.146-0.029-0.308-0.043-0.481-0.043C42.025,97.022,40.121,97.828,40.151,98.953"/>
	</defs>
	<clipPath id="SVGID_115_">
		<use xlink:href="#SVGID_114_"  overflow="visible"/>
	</clipPath>
	
		<linearGradient id="SVGID_116_" gradientUnits="userSpaceOnUse" x1="0" y1="179.8926" x2="1" y2="179.8926" gradientTransform="matrix(5.6969 -4.6833 -4.6833 -5.6969 892.0103 1142.5554)">
		<stop  offset="0" style="stop-color:#4A6E8B"/>
		<stop  offset="3.786670e-004" style="stop-color:#4A6E8B"/>
		<stop  offset="0.3552" style="stop-color:#5B829D"/>
		<stop  offset="1" style="stop-color:#7299AE"/>
	</linearGradient>
	<polygon clip-path="url(#SVGID_115_)" fill="url(#SVGID_116_)" points="21.768,112.11 54.235,85.419 82.126,119.348 
		49.659,146.039 	"/>
</g>
<g>
	<defs>
		<path id="SVGID_117_" d="M26.793,53.468c-4.468,4.375-5.879,11.186-4.973,17.374c0.904,6.187,3.833,11.885,7.03,17.259
			l-1.437-4.544c1.92,5.621,7.51,11.428,14.22,10.747c6.226-0.632,10.676-0.431,14.655-4.997c-3.493-0.861-6.433-3.683-7.436-7.137
			c4.271,0.387,8.576,0.403,12.85,0.05c0.247-1.9,0.493-3.802,0.739-5.703c1.375,0.086,2.788,0.167,4.104-0.243
			s2.534-1.426,2.774-2.784c0.239-1.358-0.86-2.912-2.234-2.804c-1.808,0.141-3.529,2.705-4.876,1.489
			c-0.384-0.346-0.428-0.915-0.615-1.397c-2.981-7.705,0.052-13.365-10.258-19.429c-2.921-1.719-6.81-2.591-10.745-2.591
			C35.347,48.758,30.021,50.307,26.793,53.468"/>
	</defs>
	<clipPath id="SVGID_118_">
		<use xlink:href="#SVGID_117_"  overflow="visible"/>
	</clipPath>
	
		<radialGradient id="SVGID_119_" cx="0" cy="180" r="1" gradientTransform="matrix(26.0427 0 0 -26.0427 41.2098 4769.4136)" gradientUnits="userSpaceOnUse">
		<stop  offset="0" style="stop-color:#D69352"/>
		<stop  offset="0.0023" style="stop-color:#D69352"/>
		<stop  offset="1" style="stop-color:#E5B47E"/>
	</radialGradient>
	<rect x="20.914" y="48.758" clip-path="url(#SVGID_118_)" fill="url(#SVGID_119_)" width="48.644" height="46.228"/>
	<path clip-path="url(#SVGID_118_)" fill="#DCA36A" d="M70.357,69.931c-0.362-0.395-1.151,0.017-0.94,0.547
		c1.305,3.261-3.642,4.049-5.673,4.177c-0.057,0.004-0.112,0.02-0.168,0.029c-1.162-0.08-2.198,0.487-2.511,1.923
		c-0.537,2.462-0.435,5.285,0.013,7.749c0.347,1.905,3.601,1.493,3.413-0.462c-0.11-1.143-0.254-2.272-0.321-3.414
		c1.132,0.287,2.609-0.732,2.169-2.1c-0.071-0.222-0.158-0.437-0.239-0.655c1.711-0.34,3.357-0.946,4.523-2.321
		C72.013,73.763,71.764,71.469,70.357,69.931"/>
	<path clip-path="url(#SVGID_118_)" fill="#D7975F" d="M56.728,89.363c-3.394,0.638-6.541,1.296-9.666,1.683
		c-1.816-0.5-3.478-1.405-4.961-2.77c-1.577-1.452-2.8-3.016-4.645-4.153c-1.771-1.092-3.422,1.148-2.566,2.604
		c-0.238,0.396-0.332,0.873-0.202,1.371c-0.408,0.414-0.592,1.003-0.306,1.689c0.114,0.273,0.244,0.532,0.384,0.78
		c-0.213-0.05-0.422-0.091-0.637-0.146c-2.174-0.55-3.388,2.39-1.51,3.582c3.688,2.343,9.075,4.467,13.311,2.445
		c0.178-0.085,0.327-0.193,0.452-0.316c0.957,0.144,1.646-0.311,1.968-0.963c0.772,0.07,1.524,0.113,2.237,0.129
		c1.044,0.045,1.634-0.621,1.781-1.406c1.844-0.641,3.588-1.504,5.153-2.646C58.464,90.557,57.911,89.141,56.728,89.363"/>
	<path clip-path="url(#SVGID_118_)" fill="#AE7749" d="M38.031,80.801c0.3,0.516,0.654,1.001,1.055,1.444
		c-0.225-0.282-0.403-0.62-0.408-0.98c-0.005-0.361,0.2-0.739,0.542-0.853c0.509-0.17,1.022,0.296,1.225,0.793
		c0.202,0.497,0.235,1.061,0.508,1.523c0.39,0.66,1.277,0.977,1.997,0.713c-0.511-0.484-0.591-1.356-0.176-1.925
		c0.115-0.158,0.269-0.307,0.288-0.501c0.028-0.269-0.208-0.485-0.427-0.643c-0.907-0.652-1.93-1.142-3.007-1.44
		c-0.641-0.178-1.476-0.215-1.815,0.357C37.541,79.749,37.763,80.338,38.031,80.801"/>
</g>
<g>
	<defs>
		<rect id="SVGID_120_" width="300" height="180"/>
	</defs>
	<clipPath id="SVGID_121_">
		<use xlink:href="#SVGID_120_"  overflow="visible"/>
	</clipPath>
	<path clip-path="url(#SVGID_121_)" fill="#FFFFFF" d="M47.395,70.552c1.112,1.213,2.997,2.232,5.119,2.039
		c2.122-0.192,4.135-1.913,4.243-4.041c0.115-2.243-1.815-4.162-3.947-4.869c-1.943-0.644-4.3-0.442-5.737,1.016
		c-1.436,1.457-1.8,3.631-0.385,4.945"/>
	<path clip-path="url(#SVGID_121_)" d="M52.557,66.339c0.283,1.246,1.079,2.367,2.163,3.044c0.18,0.113,0.387,0.217,0.597,0.182
		c0.335-0.056,0.51-0.43,0.574-0.763c0.251-1.307-0.435-2.739-1.61-3.362c-0.369-0.196-0.81-0.316-1.203-0.175
		c-0.392,0.141-0.672,0.624-0.481,0.995"/>
	<path clip-path="url(#SVGID_121_)" fill="#7E0081" d="M40.457,64.467c0.171-4.79,3.241-9.362,7.61-11.333
		c1.97-0.888,4.181-1.295,5.936-2.555c1.755-1.26,2.861-3.875,1.553-5.594c1.073-2.092,2.17-4.267,2.269-6.616
		c0.099-2.349-1.095-4.927-3.329-5.659c-3.28-1.076-6.237,2.059-8.803,4.368c-6.035,5.43-14.347,7.372-22.274,9.123
		c1.586-1.686,2.238-4.201,1.67-6.445c-2.868,3.101-4.795,7.061-5.466,11.231c-0.319-1.558-1.245-2.984-2.539-3.91
		c0.966,1.533,0.673,3.564-0.077,5.213c-0.749,1.65-1.903,3.088-2.681,4.724c-2.757,5.8-0.286,12.761,3.251,18.12
		c4.713,7.14,9.535,13.923,17.184,17.755c-1.074-1.015,1.408-3.765,2.419-4.843c1.01-1.078,2.355-2.042,2.587-3.501
		c-2.249-0.721-3.92-2.959-3.974-5.319c-0.012-0.528,0.066-1.097,0.424-1.485c0.427-0.464,1.124-0.543,1.754-0.53
		c2.735,0.059,5.418,1.364,7.153,3.477c0.356-4.351-1.894-8.423-3.254-12.571"/>
</g>
<g>
	<defs>
		<path id="SVGID_122_" d="M45.693,37.078c-6.035,5.43-14.347,7.372-22.275,9.123c1.587-1.686,2.238-4.201,1.67-6.445
			c-2.868,3.101-4.795,7.061-5.465,11.231c-0.32-1.558-1.246-2.985-2.539-3.91c0.965,1.533,0.673,3.563-0.077,5.213
			s-1.903,3.088-2.681,4.724c-2.757,5.8-0.287,12.76,3.251,18.12c4.712,7.14,9.535,13.923,17.184,17.755
			c-1.074-1.015,1.408-3.765,2.418-4.843c1.01-1.078,2.355-2.042,2.587-3.502c-2.248-0.72-3.92-2.958-3.974-5.318
			c-0.012-0.528,0.067-1.097,0.424-1.486c0.427-0.463,1.125-0.543,1.755-0.529c2.734,0.059,5.417,1.363,7.153,3.477
			c0.356-4.351-1.894-8.423-3.255-12.571l-1.412-3.65c0.171-4.791,3.241-9.362,7.61-11.333c1.969-0.889,4.181-1.295,5.936-2.556
			c1.754-1.26,2.861-3.874,1.552-5.593c1.074-2.092,2.17-4.267,2.269-6.616c0.1-2.349-1.094-4.927-3.328-5.659
			c-0.457-0.15-0.908-0.218-1.352-0.218C50.4,32.492,47.902,35.091,45.693,37.078"/>
	</defs>
	<clipPath id="SVGID_123_">
		<use xlink:href="#SVGID_122_"  overflow="visible"/>
	</clipPath>
	<path clip-path="url(#SVGID_123_)" fill="#BB4D94" d="M10.327,62.278c1.727,7.978,6.709,15.202,13.552,19.652
		c-4.706-3.674-7.401-9.78-6.944-15.733c1.373,3.48,3.515,6.654,6.228,9.229c-1.529-4.452-2.141-9.217-1.786-13.911
		c1.123,1.799,2.246,3.598,3.369,5.396c0.661-3.212,1.154-6.459,1.477-9.723c1.816,1.463,2.886,3.81,2.797,6.141
		c1.33-2.795,1.836-5.975,1.439-9.044c1.494,1.366,2.304,3.446,2.128,5.462c1.459-0.508,1.905-2.366,1.809-3.907
		c-0.096-1.541-0.49-3.168,0.147-4.575c0.545-1.201,1.726-1.964,2.846-2.66c3.335-2.072,6.67-4.143,10.004-6.214
		c1.419-0.881,3.444-1.701,4.575-0.471c0.896,0.974,0.404,2.688-0.693,3.428c-1.097,0.741-2.538,0.728-3.84,0.486
		c0.333,1.478,2.156,2.208,3.635,1.878s2.663-1.405,3.747-2.465c1.461-1.43,2.903-2.944,3.772-4.795
		c1.458-3.101,1.086-6.909-0.669-9.852c-1.754-2.943-4.774-5.028-8.07-5.964c-3.629-1.032-7.494-0.743-11.238-0.267
		c-7.575,0.962-15.057,2.653-22.308,5.043c-3.945,1.3-7.974,2.907-10.773,5.977c-2.325,2.55-3.585,5.885-4.543,9.201
		c-1.477,5.118-2.358,10.522-1.49,15.778c0.868,5.257,3.681,10.368,8.257,13.096"/>
</g>
<g>
	<defs>
		<path id="SVGID_124_" d="M61.177,136.048c-1.428,1.016-2.282,2.839-2.005,4.569c0.277,1.729,2.147,3.63,3.888,3.818
			c0.131-1.639,1.385-3.257,3.028-3.316c0.339-0.012,0.724-0.002,0.962-0.245c0.192-0.196,0.221-0.494,0.239-0.767l0.18-2.645
			c0.017-0.265,0.034-0.543-0.069-0.789c-0.091-0.22-0.268-0.391-0.453-0.541c-0.811-0.661-1.848-0.98-2.893-0.98
			C63.035,135.152,62.008,135.457,61.177,136.048"/>
	</defs>
	<clipPath id="SVGID_125_">
		<use xlink:href="#SVGID_124_"  overflow="visible"/>
	</clipPath>
	
		<linearGradient id="SVGID_126_" gradientUnits="userSpaceOnUse" x1="0" y1="180.1025" x2="1" y2="180.1025" gradientTransform="matrix(-2.5268 -4.5482 -4.5482 2.5268 882.7536 -314.5535)">
		<stop  offset="0" style="stop-color:#E5B47E"/>
		<stop  offset="0.9977" style="stop-color:#D69352"/>
		<stop  offset="1" style="stop-color:#D69352"/>
	</linearGradient>
	<polygon clip-path="url(#SVGID_125_)" fill="url(#SVGID_126_)" points="60.925,148.091 54.954,137.342 65.473,131.498 
		71.444,142.246 	"/>
</g>
<g>
	<defs>
		<rect id="SVGID_127_" width="300" height="180"/>
	</defs>
	<clipPath id="SVGID_128_">
		<use xlink:href="#SVGID_127_"  overflow="visible"/>
	</clipPath>
	<path clip-path="url(#SVGID_128_)" d="M112.408,54.207c-0.055-0.608-0.326-1.195-0.754-1.631c-0.134-0.136-0.297-0.264-0.488-0.273
		c-0.473-0.024-0.648,0.612-0.64,1.086c0.01,0.6,0.09,1.267,0.547,1.655c0.458,0.389,1.372,0.162,1.359-0.437"/>
	<path clip-path="url(#SVGID_128_)" d="M132.757,49.22c-0.055-0.608-0.326-1.195-0.754-1.631c-0.134-0.136-0.297-0.264-0.488-0.273
		c-0.473-0.024-0.648,0.612-0.64,1.086c0.01,0.6,0.09,1.267,0.547,1.655c0.458,0.389,1.372,0.162,1.359-0.437"/>
	<path clip-path="url(#SVGID_128_)" d="M200.784,51.242c0.394,0.396,1.131,0.146,1.407-0.339c0.277-0.485,0.226-1.084,0.146-1.637
		c-0.035-0.247-0.079-0.504-0.226-0.706c-0.434-0.6-1.485-0.27-1.789,0.405c-0.305,0.674-0.099,1.46,0.138,2.161"/>
	<path clip-path="url(#SVGID_128_)" d="M184.747,44.774c0.394,0.396,1.131,0.146,1.408-0.339c0.276-0.485,0.225-1.084,0.146-1.637
		c-0.036-0.247-0.08-0.504-0.226-0.706c-0.435-0.6-1.485-0.27-1.79,0.405c-0.304,0.674-0.098,1.46,0.138,2.161"/>
	<path clip-path="url(#SVGID_128_)" fill="#9F865A" d="M115.646,106.196c-0.821-2.891-2.36-5.575-4.441-7.743
		c1.425,2.561,2.224,5.467,2.305,8.396c-1.125,0.398-2.154,1.063-2.982,1.925c1.654,7.136,1.011,14.785-1.81,21.545
		c-2.821,6.76-7.807,12.597-14.042,16.441c-3.28,2.021-6.943,3.513-10.776,3.903c-3.467,0.354-7.024-0.213-10.209-1.626
		c3.014-0.56,3.924-0.357,6.046-2.581c-7.378,0.809-10.41-0.506-13.71-5.159c1.973,1.037,4.43,1.102,6.454,0.169
		c-3.101,0.396-6.327-1.76-7.147-4.775c1.307,2.372,4.973,2.969,6.966,1.136c1.309-1.204,1.786-3.064,1.939-4.837
		c0.403-4.655-0.983-9.249-1.893-13.831c-1.619-8.144-1.731-16.692,0.594-24.664c1.519-5.205,4.442-10.471,9.437-12.579
		c3.602-1.52,7.831-1.129,11.381,0.507c3.55,1.636,6.474,4.418,8.818,7.547c2.067-2.51,5.831-3.232,8.902-2.167
		c3.071,1.066,5.446,3.662,6.81,6.611c1.364,2.951,1.817,6.243,1.951,9.491C118.615,104.459,117.066,105.232,115.646,106.196"/>
</g>
<g>
	<defs>
		<path id="SVGID_129_" d="M82.378,81.916c-4.995,2.108-7.919,7.374-9.437,12.579c-2.325,7.972-2.214,16.52-0.595,24.664
			c0.91,4.583,2.296,9.176,1.894,13.831c-0.154,1.771-0.631,3.634-1.939,4.838c-1.993,1.832-5.66,1.235-6.967-1.136
			c0.82,3.016,4.047,5.171,7.148,4.773c-2.025,0.935-4.482,0.869-6.454-0.169c3.299,4.655,6.331,5.968,13.709,5.16
			c-2.122,2.224-3.032,2.021-6.046,2.582c3.186,1.412,6.742,1.978,10.21,1.625c3.833-0.391,7.495-1.882,10.775-3.904
			c6.236-3.844,11.221-9.681,14.042-16.44c2.822-6.761,3.464-14.409,1.811-21.545c0.827-0.86,1.857-1.525,2.982-1.926
			c-0.082-2.929-0.88-5.836-2.306-8.395c2.082,2.168,3.621,4.852,4.441,7.742c1.421-0.964,2.97-1.737,4.593-2.291
			c-0.134-3.248-0.587-6.539-1.951-9.49c-1.364-2.951-3.739-5.545-6.809-6.611c-3.072-1.066-6.836-0.343-8.902,2.166
			c-2.344-3.129-5.268-5.911-8.819-7.547c-2.024-0.933-4.268-1.461-6.49-1.461C85.591,80.962,83.926,81.263,82.378,81.916"/>
	</defs>
	<clipPath id="SVGID_130_">
		<use xlink:href="#SVGID_129_"  overflow="visible"/>
	</clipPath>
	<path clip-path="url(#SVGID_130_)" fill="#7A5F37" d="M104.051,114.549c-0.443-4.801-0.03-9.68,1.212-14.339l1.873,6.417
		c-0.359-4.199,0.44-8.605-1.118-12.521c-2.539-6.381-10.535-8.972-17.336-8.018c3.01-0.103,6.037,1.231,7.992,3.522
		c-5.897-2.474-13.355-0.451-17.192,4.665c2.301-1.626,5.307-2.216,8.053-1.579c-4.682,0.852-7.971,5.417-8.84,10.096
		c-0.87,4.678,0.176,9.479,1.245,14.115c0.545-3.183,1.09-6.365,1.636-9.547c0.939,5.263,1.689,10.655,0.881,15.939
		c-0.808,5.285-3.38,10.519-7.86,13.438c6.133-2,11.214-6.987,13.328-13.082c0.903,6.225-1.373,12.828-5.922,17.173
		c7.339-2.141,12.948-9.228,13.345-16.862c1.055,5.7,0.188,11.738-2.428,16.911c5.274-3.445,8.911-9.293,9.671-15.547
		c1.053-8.657-3.125-17.498-1.178-25.998C101.399,104.505,102.296,109.682,104.051,114.549"/>
	<path clip-path="url(#SVGID_130_)" fill="#7A5F37" d="M114.418,103.476c0.497,1.476,0.76,3.081,0.372,4.588
		c-0.387,1.507-1.532,2.886-3.053,3.215c-1.224-2.985-2.093-6.116-2.581-9.306c0.919,1.137,1.593,2.471,1.961,3.886
		c-0.226-3.622-1.279-7.19-3.055-10.354C111.02,97.315,113.312,100.188,114.418,103.476"/>
	<path clip-path="url(#SVGID_130_)" fill="#7A5F37" d="M114.813,106.527c0.331,0.592,1.049,0.878,1.727,0.892
		c1.72,0.037,3.201-1.414,3.716-3.056c0.516-1.643,0.266-3.421-0.105-5.102c-0.659-2.989-1.728-5.968-3.716-8.296
		c-1.988-2.327-5.026-3.914-8.067-3.566c2.173-0.033,4.242,1.136,5.687,2.76c1.446,1.624,2.338,3.665,3.009,5.731
		c-1.5-2.87-4.367-4.986-7.552-5.572c1.714,1.285,3.44,2.594,4.796,4.252c1.357,1.657,2.329,3.723,2.281,5.863
		c-1.268-3.09-3.894-5.594-7.041-6.713c3.247,2.815,4.686,7.239,4.993,11.525C114.574,105.686,114.6,106.143,114.813,106.527"/>
	<path clip-path="url(#SVGID_130_)" fill="#7A5F37" d="M101.952,89.951c1.298-2.164,4.384-3.021,6.612-1.838
		c-1.556-0.159-3.174,0.523-4.147,1.749c1.585,0.034,3.104,1.079,3.701,2.547c-1.414-1.109-3.659-0.958-4.91,0.333"/>
	<path clip-path="url(#SVGID_130_)" fill="#7A5F37" d="M98.747,155.069c2.935-1.045,5.792-2.492,7.973-4.717
		c2.017-2.057,3.362-4.681,4.411-7.363c3.237-8.28,3.88-17.554,1.817-26.201c-1.08-4.53-2.879-8.886-3.631-13.48
		c0.646,7.601,1.224,15.607-1.999,22.521c0.498-3.576,0.201-7.261-0.865-10.71c0.015,8.692-0.73,18.085-6.351,24.716
		c-4.634,5.464-11.949,8.098-19.103,8.484c-7.154,0.388-14.254-1.228-21.192-3.012c1.391,2.719,3.866,4.725,6.465,6.328
		C75.853,157.546,88.142,158.846,98.747,155.069"/>
	<path clip-path="url(#SVGID_130_)" fill="#7A5F37" d="M83.46,144.153c-3.419,1.378-7.458,1.663-10.707-0.079
		c4.166-1.702,7.758-4.772,10.088-8.622c-3.394,2.646-7.083,5.41-11.382,5.635c-2.154,0.112-12.53-1.321-7.443,3.04
		c2.369,2.031,7.45,3.094,10.512,3.494c6.644,0.869,14.378-4.131,17.976-9.453C89.652,140.423,86.875,142.776,83.46,144.153"/>
	<path clip-path="url(#SVGID_130_)" fill="#7A5F37" d="M73.463,109.932c-1.741-7.649-1.37-15.768,1.061-23.226
		c-6.012,5.805-7.246,15.046-6.318,23.351c0.928,8.304,3.641,16.363,4.145,24.704c1.232-3.412,1.864-7.04,1.857-10.668
		c0.981,2.099,1.615,4.358,1.871,6.662C78.309,124.011,75.04,116.857,73.463,109.932"/>
	<path clip-path="url(#SVGID_130_)" fill="#7A5F37" d="M109.229,138.107c3.123-5.774,5.127-12.381,4.295-18.893
		c-0.285-2.229-0.894-4.399-1.501-6.562c-0.572-2.036-1.144-4.072-1.716-6.109c-1.39-4.95-2.883-10.092-6.329-13.908
		c0.075,1.509-1.126,2.781-2.403,3.588c-1.277,0.808-2.739,1.378-3.77,2.482c-1.214,1.3-1.639,3.138-1.897,4.898
		c-0.64,4.387-0.524,8.88,0.341,13.228c-3.45,1.143-5.076,5.04-5.929,8.573c-1.181,4.898-1.95,10.411-5.822,13.638
		c-2.376,1.979-5.521,2.71-8.54,3.381c-4.441,0.987-9.144,1.964-13.463,0.535c4.408,5.329,10.597,9.241,17.386,10.562
		c6.789,1.322,14.133-0.044,19.786-4.028C103.753,146.61,106.852,142.506,109.229,138.107"/>
	<path clip-path="url(#SVGID_130_)" fill="#7A5F37" d="M89.932,122.757c-0.052-1.56-2.297-2.174-3.624-1.354
		c-1.327,0.822-1.936,2.396-2.568,3.823c-2.026,4.58-5.145,8.672-9.022,11.842c-0.895,0.732-1.873,1.435-3.008,1.653
		c-1.531,0.295-3.121-0.355-4.312-1.362c-1.19-1.006-2.052-2.337-2.896-3.647c-1.857,3.56-0.657,8.216,2.219,11.018
		c2.877,2.802,7.087,3.917,11.099,3.746c1.925-0.082,3.892-0.454,5.516-1.492c1.496-0.956,2.605-2.414,3.505-3.944
		c2.307-3.928,3.42-8.545,3.154-13.092"/>
	<path clip-path="url(#SVGID_130_)" fill="#7A5F37" d="M68.286,139.427c4.807,2.255,10.855,0.528,14.578-3.258
		c3.723-3.785,5.369-9.229,5.568-14.535c0.2-5.307-0.907-10.564-2.009-15.76c-0.538-2.538-1.076-5.076-1.614-7.615
		c-0.113-0.531-0.293-1.145-0.801-1.334c-0.309-0.115-0.654-0.033-0.964,0.077c-3.528,1.261-4.774,5.539-5.364,9.238
		c-0.911,5.708-1.436,11.477-1.571,17.254c-0.075,3.235-0.04,6.545-1.108,9.601C73.934,136.148,71.487,138.958,68.286,139.427"/>
	<path clip-path="url(#SVGID_130_)" fill="#9E8559" d="M70.338,138.775c15.565-3.841,4.245-28.098,6.469-50.536
		c-5.148,4.82-8.195,17.841-6.956,24.783C71.09,119.965,69.69,131.754,70.338,138.775"/>
</g>
<g>
	<defs>
		<rect id="SVGID_131_" width="300" height="180"/>
	</defs>
	<clipPath id="SVGID_132_">
		<use xlink:href="#SVGID_131_"  overflow="visible"/>
	</clipPath>
	<g clip-path="url(#SVGID_132_)">
		<defs>
			<path id="SVGID_133_" d="M482.817,21.618c0.407-0.132,0.772-0.395,1.027-0.74c-1.216-2.434-3.843-4.096-6.563-4.152
				c0.465-0.134,0.433-0.886,0.036-1.163c-0.397-0.278-0.932-0.217-1.408-0.13c-6.253,1.133-12.023,4.74-15.779,9.866
				c-3.757,5.126-5.459,11.715-4.656,18.019c0.118,0.932,0.702,2.139,1.604,1.871c0.416-0.124,0.666-0.537,0.882-0.913
				c5.076-8.85,13.237-15.89,22.735-19.614c1.607-0.631,3.456-1.369,3.998-3.008C484.147,21.278,483.376,21.264,482.817,21.618"/>
		</defs>
		<clipPath id="SVGID_134_">
			<use xlink:href="#SVGID_133_"  overflow="visible"/>
		</clipPath>
		<path clip-path="url(#SVGID_134_)" fill="#E4D7BA" d="M219.901,45.77c-0.726-0.179-1.032-1.242-0.516-1.78
			c0.519-0.539,1.592-0.273,1.799,0.444C221.393,45.151,220.626,45.948,219.901,45.77"/>
	</g>
</g>
</svg>
