<?xml version="1.0" encoding="utf-8"?>
<!-- Generator: Adobe Illustrator 15.0.0, SVG Export Plug-In . SVG Version: 6.00 Build 0)  -->
<!DOCTYPE svg PUBLIC "-//W3C//DTD SVG 1.1//EN" "http://www.w3.org/Graphics/SVG/1.1/DTD/svg11.dtd">
<svg version="1.1" id="Layer_1" xmlns="http://www.w3.org/2000/svg" xmlns:xlink="http://www.w3.org/1999/xlink" x="0px" y="0px"
	 width="300px" height="180px" viewBox="0 0 300 180" enable-background="new 0 0 300 180" xml:space="preserve">
<g>
	<defs>
		<rect id="SVGID_1_" width="300" height="180"/>
	</defs>
	<clipPath id="SVGID_2_">
		<use xlink:href="#SVGID_1_"  overflow="visible"/>
	</clipPath>
	<path clip-path="url(#SVGID_2_)" fill="#BA8C5E" d="M148.93,146.096c-0.479-0.004-0.907-0.281-1.304-0.549
		c-1.136-0.765-3.721-0.187-3.868-1.547c-0.14-1.289,2.078-3.062,3.094-3.867c3.739-2.966,9.203-7.097,8.509-7.35
		c-2.837-1.03-1.806-5.285-7.077-13.531c-0.42-0.657-0.37-1.561-0.133-2.304c0.236-0.742,1.009-1.37,1.765-1.178
		c-0.113-0.841-0.671-1.541-1.138-2.249c-0.466-0.708-0.871-1.565-0.633-2.38c0.239-0.814,1.439-1.299,1.966-0.634
		c-0.217-1.142-1.782-1.771-1.73-2.933c0.027-0.618,0.567-1.131,1.169-1.278c0.603-0.148,1.241,0.005,1.807,0.258
		c0.934,0.416,1.741,1.106,2.298,1.965c-0.559-0.394-0.015-1.382,0.668-1.401c0.682-0.018,1.237,0.521,1.686,1.035
		c4.715,5.413,7.298,12.556,7.528,19.729c0.073,2.258,0.919,3.32,0.075,5.417c-1.042,2.587-5.202,5.097-7.241,7
		c-1.923,1.794-3.925,3.504-5.998,5.122C149.946,145.755,149.472,146.1,148.93,146.096"/>
</g>
<g>
	<defs>
		<path id="SVGID_3_" d="M149.551,106.296c-0.602,0.148-1.142,0.661-1.17,1.28c-0.051,1.16,1.514,1.79,1.731,2.931
			c-0.527-0.664-1.728-0.18-1.966,0.635c-0.238,0.814,0.167,1.672,0.633,2.38c0.467,0.709,1.025,1.407,1.138,2.25
			c-0.756-0.192-1.529,0.434-1.765,1.178c-0.237,0.743-0.287,1.645,0.133,2.303c5.271,8.246,4.24,12.5,7.076,13.531
			c0.693,0.253-4.771,4.384-8.509,7.35c-1.016,0.806-3.234,2.577-3.094,3.867c0.148,1.361,2.731,0.782,3.867,1.547
			c0.398,0.268,0.826,0.545,1.305,0.548c0.542,0.005,1.016-0.34,1.443-0.674c2.074-1.617,4.075-3.327,5.997-5.121
			c2.04-1.902,6.2-4.413,7.242-7.001c0.844-2.095-0.003-3.158-0.075-5.416c-0.23-7.175-2.813-14.316-7.528-19.729
			c-0.448-0.516-1.004-1.054-1.686-1.035c-0.543,0.014-0.998,0.643-0.881,1.097c-0.54-0.717-1.265-1.296-2.084-1.662
			c-0.413-0.184-0.865-0.315-1.313-0.315C149.879,106.238,149.714,106.256,149.551,106.296"/>
	</defs>
	<clipPath id="SVGID_4_">
		<use xlink:href="#SVGID_3_"  overflow="visible"/>
	</clipPath>
	<path clip-path="url(#SVGID_4_)" fill="#A1744A" d="M147.708,138.907c2.92-1.771,4.75-5.202,4.592-8.613
		c-0.101-2.193-0.948-4.273-1.785-6.303c-1.024-2.487-2.058-4.99-3.534-7.238c-0.879,1.706-0.706,3.741-0.483,5.646
		c0.409,3.495,0.912,7.038,0.378,10.517"/>
	<path clip-path="url(#SVGID_4_)" fill="#A1744A" d="M159.809,119.634c-0.897-3.641-2.802-7.648-4.88-10.77
		c-1.233-1.852-2.593-3.809-4.666-4.616c-0.386-0.15-0.801-0.258-1.212-0.208c-0.464,0.056-0.882,0.304-1.254,0.585
		c-1.95,1.469-3,3.947-3.03,6.389c-0.031,2.441,0.875,4.831,2.236,6.857c-0.43-0.766,0.095-4.322,0.945-4.104
		c0.85,0.219,1.146,1.245,1.835,1.789c1.324,1.047,2.134,3.222,5.126,9.524c0.425,0.208,0.54-0.034,0.296-0.76
		c-0.953-2.809-4.238-8.799-5.658-11.403c-0.268-0.49-0.552-1.008-0.536-1.567c0.015-0.559-0.012-1.166,0.545-1.107
		c0.399,0.042,0.853,0.37,1.099,0.688c1.843,2.385,5.337,8.807,6.961,11.442c0.404,0.654,0.58,0.386,0.646,0
		c-1.547-4.514-5.677-10.289-8.63-13.862c-0.401-0.485-0.844-1.088-0.639-1.683c0.193-0.565,0.919-0.794,1.495-0.638
		c0.576,0.157,1.297,0.446,1.715,0.872C155.52,110.451,157.787,115.345,159.809,119.634"/>
	<path clip-path="url(#SVGID_4_)" fill="#A1744A" d="M147.105,117.174c-0.404,1.272-0.192,2.677,0.317,3.911
		c0.509,1.235,1.296,2.332,2.076,3.416c0.446,0.62,0.893,1.24,1.339,1.859c-0.732-2.752-1.466-5.504-2.199-8.256
		c-0.225-0.843-0.421-1.834,0.127-2.513C147.95,115.618,147.352,116.396,147.105,117.174"/>
	<path clip-path="url(#SVGID_4_)" fill="#A1744A" d="M150.834,137.508c-4.215-5.101-5.941-12.166-4.556-18.636
		c0.349-1.63,1.134-3.463,2.758-3.839c-0.952,0.495-0.856,1.886-0.496,2.896c1.177,3.307,3.658,6.059,4.624,9.433
		c0.443,1.549,0.339,2.812,1.423,4.003c1.289,1.419,1.183,3.73,2.735,4.157c1.336,0.365,2.741-0.126,4.038-0.611
		c-0.837,2.619-3.379,4.601-6.123,4.774c-0.779,0.049-1.578-0.039-2.287-0.363C152.098,138.932,151.432,138.23,150.834,137.508"/>
	<path clip-path="url(#SVGID_4_)" fill="#B98B5D" d="M150.802,126.784c1.744,1.589,1.244,3.284,2.754,5.097
		c1.592,1.911,5.848,1.022,8.251,0.387c-0.722,1.489-3.397,4.325-5.051,4.417c-1.652,0.093-3.467,0.06-4.744,1.113
		c-0.296,0.244-0.562,0.547-0.925,0.671c-0.555,0.188-1.154-0.097-1.637-0.428c-2.144-1.466-3.477-4.047-3.433-6.645
		c0.017-0.965,0.208-1.946-0.03-2.882"/>
	<path clip-path="url(#SVGID_4_)" fill="#B98B5D" d="M158.148,133.124c-0.312-0.591-1.088-0.805-1.742-0.668
		c-0.654,0.138-1.213,0.544-1.75,0.942c-1.301,0.963-2.603,1.926-3.904,2.89c-1.792,1.326-3.6,2.666-5.065,4.347
		c-0.671,0.769-1.285,1.89-0.736,2.751c0.374,0.586,1.175,0.775,1.855,0.632c0.68-0.145,1.27-0.552,1.839-0.952
		c3.21-2.254,6.47-4.554,8.885-7.646C158.046,134.759,158.539,133.868,158.148,133.124"/>
	<path clip-path="url(#SVGID_4_)" fill="#A1744A" d="M147.315,148.685c0.698-0.052,1.288-0.517,1.825-0.966
		c4.57-3.82,8.88-7.951,12.89-12.356c0.438-0.479,0.887-0.996,1.006-1.633c0.119-0.636-0.244-1.409-0.887-1.49
		c-5.656,4.851-11.571,9.399-17.71,13.621C144.972,147.202,145.875,148.792,147.315,148.685"/>
	<path clip-path="url(#SVGID_4_)" fill="#A1744A" d="M148.08,114.941c-2.556,1.31-1.918,4.21-0.861,6.342
		c0.714,1.441,2.723,0.177,2.118-1.238c-0.451-1.054-1.3-2.813-0.253-3.803C149.79,115.573,148.893,114.524,148.08,114.941"/>
	<path clip-path="url(#SVGID_4_)" fill="#A1744A" d="M154.714,126.766c1.249-2.795,3.058-4.91,6.089-5.797
		c0.761-0.222,0.441-1.392-0.329-1.19c-3.057,0.803-5.999,3.452-6.438,6.701C153.985,126.85,154.523,127.19,154.714,126.766"/>
	<path clip-path="url(#SVGID_4_)" fill="#A1744A" d="M153.047,131.356c0.895,0.997,1.903,1.807,3,2.566
		c0.139-0.508,0.276-1.016,0.413-1.524c-3.544,0.192-6.8,1.973-10.259,2.649c-1.245,0.244-0.72,2.157,0.526,1.906
		c3.385-0.684,6.61-2.072,9.951-2.948c0.825-0.216,0.729-1.319,0-1.578c-1.151-0.41-2.164-0.988-3.172-1.666
		C153.134,130.512,152.772,131.05,153.047,131.356"/>
	<path clip-path="url(#SVGID_4_)" fill="#A1744A" d="M156.076,133.02c-0.013,0.137-1.735,1.365-1.894,1.514
		c-0.963,0.905-1.886,1.85-2.81,2.792c-1.517,1.545-2.988,3.116-4.692,4.459c0.669,0.277,1.339,0.555,2.008,0.832
		c-0.139-1.033,2.511-3.366,3.293-4.146c1.117-1.114,2.263-2.091,3.04-3.488c0.65-1.17-0.88-2.372-1.854-1.431
		c-2.74,2.649-5.581,5.183-8.526,7.603c-1.166,0.959,0.5,2.606,1.658,1.657c2.948-2.416,5.792-4.945,8.537-7.59
		c-0.617-0.478-1.234-0.954-1.853-1.432c-1.131,2.026-3.282,3.501-4.758,5.3c-0.951,1.161-2.09,2.266-1.847,3.84
		c0.148,0.964,1.366,1.011,1.966,0.519c1.675-1.375,3.13-2.965,4.589-4.562c1.511-1.655,3.195-3.299,4.315-5.251
		c0.18-0.313,0.064-0.691-0.23-0.883c-0.075-0.048-0.151-0.097-0.227-0.145C156.464,132.396,156.107,132.683,156.076,133.02"/>
	<path clip-path="url(#SVGID_4_)" fill="#B98B5D" d="M157.418,132.628c-3.17,3.716-6.813,6.819-10.346,10.176
		c-1.819,1.728,0.488,4.106,2.493,3.229c3.112-1.36,5.782-3.438,8.216-5.786c1.96-1.892,5.042-4.233,5.021-7.204
		c-0.017-2.41-3.669-2.999-4.267-0.577c-0.485,1.965-3.289,4.152-4.712,5.529c-1.897,1.837-3.942,3.358-6.336,4.486
		c0.831,1.077,1.662,2.154,2.493,3.23c3.534-3.555,7.457-7.241,9.095-12.118C159.384,132.677,158.06,131.876,157.418,132.628"/>
</g>
<g>
	<defs>
		<rect id="SVGID_5_" width="300" height="180"/>
	</defs>
	<clipPath id="SVGID_6_">
		<use xlink:href="#SVGID_5_"  overflow="visible"/>
	</clipPath>
	<path clip-path="url(#SVGID_6_)" fill="#E5B47F" d="M163.708,138.497c2.868,2.143,5.846,4.336,9.331,5.153
		c0.604,0.142,1.243,0.239,1.837,0.061c0.594-0.178,1.124-0.701,1.124-1.321c0-0.479-0.299-0.898-0.59-1.277
		c-1.508-1.956-3.219-3.839-4.036-6.17c-1.255-3.585-0.18-7.517-0.221-11.315c-0.043-3.995-1.338-8.006-0.574-11.928
		c0.184-0.945,0.393-2.143-0.404-2.684c-0.608-0.413-1.49-0.112-1.957,0.458c-0.466,0.569-0.62,1.324-0.757,2.049
		c0.198-1.469,0.396-2.938,0.594-4.405c0.041-0.305,0.082-0.624-0.014-0.917c-0.213-0.649-1.056-0.924-1.706-0.709
		c-0.649,0.215-1.121,0.782-1.464,1.374c-0.628,1.085-0.947,2.348-0.909,3.603c-0.798-0.636-2.067-0.191-2.654,0.644
		c-0.586,0.836-0.676,1.911-0.744,2.929c-0.165-0.433-0.805-0.497-1.182-0.229c-0.377,0.267-0.551,0.733-0.687,1.176
		c-1.275,4.115-1.191,8.521-0.854,12.816c0.182,2.303,0.46,4.689,1.674,6.654C160.541,136.12,162.144,137.329,163.708,138.497"/>
</g>
<g>
	<defs>
		<path id="SVGID_7_" d="M166.335,105.492c-0.649,0.214-1.12,0.781-1.464,1.373c-0.628,1.086-0.947,2.348-0.909,3.602
			c-0.798-0.636-2.067-0.19-2.654,0.646c-0.586,0.835-0.675,1.91-0.744,2.928c-0.165-0.432-0.804-0.496-1.182-0.229
			c-0.377,0.269-0.55,0.734-0.688,1.177c-1.273,4.114-1.189,8.521-0.854,12.815c0.182,2.305,0.46,4.69,1.674,6.656
			c1.026,1.661,2.629,2.87,4.193,4.038c2.868,2.142,5.846,4.337,9.331,5.154c0.603,0.141,1.243,0.237,1.837,0.06
			s1.124-0.702,1.123-1.322c0-0.478-0.297-0.897-0.589-1.275c-1.508-1.957-3.218-3.841-4.036-6.172
			c-1.255-3.583-0.18-7.517-0.221-11.313c-0.043-3.996-1.338-8.007-0.574-11.928c0.184-0.946,0.393-2.144-0.404-2.685
			c-0.608-0.414-1.492-0.111-1.957,0.457c-0.466,0.57-0.62,1.326-0.757,2.05c0.198-1.469,0.396-2.937,0.594-4.404
			c0.042-0.307,0.082-0.625-0.014-0.917c-0.165-0.504-0.707-0.782-1.245-0.782C166.639,105.419,166.482,105.443,166.335,105.492"/>
	</defs>
	<clipPath id="SVGID_8_">
		<use xlink:href="#SVGID_7_"  overflow="visible"/>
	</clipPath>
	<path clip-path="url(#SVGID_8_)" fill="#CF9560" d="M171.633,109.193c0.313-4.721-3.807-9.272-8.534-9.43
		c-4.28-0.142-8.169,2.914-10.193,6.688c-2.024,3.773-2.519,8.162-2.783,12.436c-0.355,5.714-0.25,11.864,3,16.578
		c3.122,4.534,8.573,6.855,13.905,8.223c1.74,0.447,6.009-2.362,6.447-4.104c-5.415,0.387-7.492-0.753-9.959-2.804
		c-1.192-0.99-2.724-2.285-3.578-3.577c-1.481-2.241-1.547-5.341-1.644-8.026c-0.126-3.493,0.215-6.332,0.87-9.765
		c0.138-0.72,0.97-1.872,1.684-1.709c0.607,0.138,0.736,0.933,0.737,1.555c0.003,2.848-0.487,5.762,0.01,8.544
		c0.664-3.749,0.882-7.01,1.169-10.606c0.054-0.669,0.116-1.365,0.461-1.941c0.346-0.576,0.434-0.909,1.064-0.677
		c0.422,3.526,0.097,9.089,0.773,11.216c0.844-6.315,0.338-9.164,0.591-13.326c0.044-0.732,0.115-1.529,0.617-2.064
		c0.501-0.536,1.59-0.525,1.816,0.173c0.066,0.205,0.048,0.427,0.027,0.642c-0.395,4.226-0.925,5.487,0.042,13.609
		c0.773-1.45,0.387-5.512,0.29-8.219c-0.037-1.032-0.164-1.92,0.464-2.739C169.537,109.047,170.785,108.603,171.633,109.193"/>
</g>
<g>
	<defs>
		<path id="SVGID_9_" d="M129.686,103.1c-0.782,1.232-1.591,2.492-2.764,3.359c-1.279,0.945-2.873,1.335-4.421,1.698
			c-9.797,2.293-19.654,4.328-29.558,6.102c-0.629,0.113-1.283,0.235-1.797,0.615c-0.432,0.32-0.724,0.794-0.951,1.281
			c-1.342,2.88-0.515,6.612,1.92,8.655c2.003,1.681,4.792,2.166,7.394,1.913c2.603-0.252,5.09-1.163,7.567-2.001
			c7.497-2.534,15.197-4.469,23.003-5.774c0.986-0.165,2.002-0.331,2.855-0.854c0.711-0.434,1.258-1.086,1.785-1.729
			c6.909-8.436,12.941-17.585,17.972-27.257c0.216-0.412,0.434-0.857,0.379-1.318c-0.048-0.404-0.298-0.75-0.548-1.07
			c-2.188-2.798-5.034-5.077-8.243-6.6C139.414,87.78,134.55,95.44,129.686,103.1"/>
	</defs>
	<clipPath id="SVGID_10_">
		<use xlink:href="#SVGID_9_"  overflow="visible"/>
	</clipPath>
	
		<linearGradient id="SVGID_11_" gradientUnits="userSpaceOnUse" x1="0" y1="180.0039" x2="1" y2="180.0039" gradientTransform="matrix(6.1882 -13.7302 -13.7302 -6.1882 2585.7478 1232.3441)">
		<stop  offset="0" style="stop-color:#4A6E8B"/>
		<stop  offset="3.786670e-004" style="stop-color:#4A6E8B"/>
		<stop  offset="0.3552" style="stop-color:#5B829D"/>
		<stop  offset="1" style="stop-color:#7299AE"/>
	</linearGradient>
	<polygon clip-path="url(#SVGID_10_)" fill="url(#SVGID_11_)" points="71.3,119.065 99.705,56.043 170.677,88.031 142.272,151.054 	
		"/>
</g>
<g>
	<defs>
		<path id="SVGID_12_" d="M90.579,117.643c-7.571,2.575-15.454,5.347-20.972,11.135c-1.889,1.981-3.474,4.334-4.137,6.991
			c-0.863,3.457-0.107,7.093,0.703,10.563c2.661,11.382,5.916,22.625,9.748,33.668l49.779-0.179
			c-2.872-19.572-7.151-39.508-18.036-56.026c-2.197-3.333-5.012-6.735-8.938-7.456c-0.541-0.099-1.083-0.143-1.625-0.143
			C94.897,116.196,92.692,116.923,90.579,117.643"/>
	</defs>
	<clipPath id="SVGID_13_">
		<use xlink:href="#SVGID_12_"  overflow="visible"/>
	</clipPath>
	
		<linearGradient id="SVGID_14_" gradientUnits="userSpaceOnUse" x1="0" y1="180" x2="1" y2="180" gradientTransform="matrix(60.6131 0 0 -60.6131 65.0938 11058.4502)">
		<stop  offset="0" style="stop-color:#4A6E8B"/>
		<stop  offset="3.786670e-004" style="stop-color:#4A6E8B"/>
		<stop  offset="0.3552" style="stop-color:#5B829D"/>
		<stop  offset="1" style="stop-color:#7299AE"/>
	</linearGradient>
	<rect x="64.607" y="116.196" clip-path="url(#SVGID_13_)" fill="url(#SVGID_14_)" width="61.093" height="63.804"/>
</g>
<g>
	<defs>
		<rect id="SVGID_15_" width="300" height="180"/>
	</defs>
	<clipPath id="SVGID_16_">
		<use xlink:href="#SVGID_15_"  overflow="visible"/>
	</clipPath>
	<path clip-path="url(#SVGID_16_)" fill="#4F6C7D" d="M72.43,122.426c6.304,2.574,12.701,4.919,19.175,7.03
		c-0.976-2.132-0.573-5.25,1.642-6.018c2.037-0.707,4.084,0.981,5.432,2.663c2.872,3.583,4.931,7.74,6.807,11.931
		c5.506,12.305,9.622,25.229,12.246,38.452c0.295,1.483,0.969,3.332,2.482,3.362c-4.04-19.026-9.031-38.229-19.315-54.739
		c-0.733-1.179-1.509-2.383-1.746-3.749c-0.237-1.368,0.216-2.962,1.436-3.625c2.002-1.089,4.261,0.842,5.72,2.592
		c-0.174-3.963-4.22-6.572-8.002-7.769c-4.88-1.544-10.242-1.895-15.104-0.294C78.342,113.864,74.065,117.576,72.43,122.426"/>
</g>
<g>
	<defs>
		<path id="SVGID_17_" d="M69.458,129.997c-0.603,0.203-1.035,0.733-1.361,1.281c-1.922,3.226-1.022,7.525,1.171,10.575
			c2.192,3.051,5.446,5.134,8.597,7.176c12.048,7.806,23.777,16.102,35.151,24.861c1.166,0.898,2.424,1.84,3.893,1.938
			c1.051,0.071,2.077-0.303,3.056-0.693c13.689-5.444,25.654-15.139,33.819-27.4c-3.22-3.386-6.441-6.77-9.661-10.153
			c-2.518,3.014-5.036,6.028-7.554,9.042c-2.033,2.433-4.079,4.879-6.506,6.92c-3.264,2.744-7.122,4.674-10.981,6.487
			c-0.532,0.25-1.085,0.503-1.672,0.514c-0.722,0.012-1.394-0.341-2.021-0.697c-7.792-4.428-14.274-10.778-21.108-16.579
			c-6.832-5.798-14.369-11.227-23.108-13.217c-0.351-0.08-0.714-0.153-1.071-0.153C69.883,129.898,69.667,129.926,69.458,129.997"/>
	</defs>
	<clipPath id="SVGID_18_">
		<use xlink:href="#SVGID_17_"  overflow="visible"/>
	</clipPath>
	
		<linearGradient id="SVGID_19_" gradientUnits="userSpaceOnUse" x1="0" y1="179.6045" x2="1" y2="179.6045" gradientTransform="matrix(12.7633 -14.8905 -14.8905 -12.7633 2774.1963 2457.1052)">
		<stop  offset="0" style="stop-color:#4A6E8B"/>
		<stop  offset="3.786670e-004" style="stop-color:#4A6E8B"/>
		<stop  offset="0.3552" style="stop-color:#5B829D"/>
		<stop  offset="1" style="stop-color:#7299AE"/>
	</linearGradient>
	<polygon clip-path="url(#SVGID_18_)" fill="url(#SVGID_19_)" points="43.445,156.417 103.28,86.609 176.515,149.381 
		116.679,219.189 	"/>
</g>
<g>
	<defs>
		<rect id="SVGID_20_" width="300" height="180"/>
	</defs>
	<clipPath id="SVGID_21_">
		<use xlink:href="#SVGID_20_"  overflow="visible"/>
	</clipPath>
	<path clip-path="url(#SVGID_21_)" fill="#BA8C5E" d="M99.367,123.666c-3.254-3.576-6.509-7.153-9.763-10.73
		c-0.611-0.672-1.244-1.384-1.451-2.267c-0.495-2.104,1.517-3.854,3.151-5.269c4.803-4.157,8.137-10.385,7.581-16.713
		c-0.393-4.457-2.65-8.588-5.591-11.96c-2.941-3.372-6.553-6.08-10.146-8.747c-3.978-2.952-8.002-5.906-12.49-8.002
		s-9.522-3.301-14.42-2.561c-4.307,0.652-8.313,2.79-11.559,5.695c-6.53,5.846-9.991,14.945-8.996,23.652
		c0.995,8.708,6.421,16.792,14.101,21.012c-1.435,2.196,0.142,5.401,2.575,6.382c2.432,0.981,5.238,0.263,7.56-0.959
		c0.815-0.428,1.616-0.923,2.515-1.125c0.888-0.201,1.812-0.101,2.717-0.002c4.497,0.497,9.061,1.012,13.247,2.728
		C85.516,117.719,91.686,124.092,99.367,123.666"/>
</g>
<g>
	<defs>
		<path id="SVGID_22_" d="M56.238,57.418c-4.307,0.651-8.313,2.789-11.559,5.695c-6.53,5.845-9.991,14.945-8.996,23.652
			c0.996,8.707,6.421,16.791,14.101,21.012c-1.435,2.194,0.142,5.4,2.574,6.382c2.433,0.98,5.239,0.262,7.561-0.959
			c0.816-0.429,1.616-0.923,2.515-1.126c0.888-0.2,1.813-0.102,2.717-0.001c4.496,0.497,9.061,1.01,13.247,2.726
			c7.118,2.919,13.288,9.293,20.969,8.867c-3.254-3.576-6.509-7.154-9.763-10.73c-0.611-0.672-1.244-1.384-1.451-2.267
			c-0.495-2.104,1.517-3.854,3.151-5.269c4.803-4.156,8.138-10.386,7.581-16.712c-0.393-4.458-2.65-8.588-5.59-11.96
			c-2.941-3.373-6.554-6.081-10.148-8.747c-3.977-2.952-8.001-5.906-12.489-8.002c-3.584-1.674-7.517-2.78-11.451-2.78
			C58.216,57.199,57.225,57.269,56.238,57.418"/>
	</defs>
	<clipPath id="SVGID_23_">
		<use xlink:href="#SVGID_22_"  overflow="visible"/>
	</clipPath>
	<path clip-path="url(#SVGID_23_)" fill="#A9784C" d="M99.856,123.567c-2.044-0.817-4.033-1.758-5.991-2.765
		c-3.985-3.436-8.499-6.102-13.395-8.027c0.689,0.027,1.377,0.043,2.062,0.031c1.43-0.025,3.054,0.064,4.253-0.832
		c0.265-0.198,0.475-0.426,0.642-0.671c0.95,1.11,2.335,1.911,3.719,2.503c2.13,0.911,4.023-2.171,1.854-3.173
		c-0.596-0.275-1.135-0.57-1.566-0.903c0.776-0.218,1.554-0.434,2.321-0.68c0.969-0.311,0.546-1.61-0.408-1.48
		c-0.963,0.131-1.924,0.253-2.885,0.371c0.003-0.038-0.005-0.073,0-0.113c2.771-1.074,5.493-2.256,8.156-3.475
		c1.779-0.814,0.565-3.853-1.262-3.289c0.685-0.725,1.318-1.499,1.868-2.347c3.187-4.916,2.182-11.334,1.805-16.853
		c-0.044-0.646-1.088-0.892-1.211-0.164c-0.659,3.898-0.728,8.234-1.685,12.045c-1.076,4.281-4.931,6.639-8.236,9.136
		c-0.303,0.228-0.609,0.46-0.909,0.699c-8.171,2.847-16.628,4.588-25.16,6.053c-0.111,0.019-0.196,0.063-0.29,0.098
		c-0.97-0.076-1.951,0.047-2.919,0.468c-1.77,0.772-2.902,2.394-4.89,2.71c-2.712,0.434-5.165-1.126-6.295-3.531
		c-0.254-0.542-1.132-0.159-0.961,0.404c0.84,2.772,2.948,4.787,5.807,5.419c1.29,0.286,2.573,0.229,3.821-0.16
		c-0.707,1.938,2.102,3.514,3.196,1.568c0.894-1.589,2.526-2.462,4.489-2.852c0.57,0.261,1.153,0.581,1.782,0.93
		c1.118,0.62,2.133-0.182,2.312-1.135c2.491,0.165,5.082,0.754,7.225,1.478c0.043,0.03,0.079,0.063,0.126,0.089
		c3.116,1.764,6.387,3.92,9.787,5.81c2.014,1.479,4.064,2.905,6.401,3.931c0.683,0.301,1.416,0.128,1.925-0.274
		c1.405,0.407,2.826,0.698,4.263,0.822C100.746,125.506,100.755,123.927,99.856,123.567"/>
	<path clip-path="url(#SVGID_23_)" fill="#A9784C" d="M80.674,69.669c-0.111,0.477-0.163,0.96-0.258,1.438
		c-0.073-0.168-0.15-0.337-0.243-0.504c-0.393-0.706-1.295-0.429-1.557,0.203c-0.557,1.34,0.477,2.918,1.376,3.829
		c0.46,0.466,1.378,0.533,1.827,0c1.033-1.226,1.834-2.929,1.858-4.56C83.702,68.374,81.07,67.969,80.674,69.669"/>
	<path clip-path="url(#SVGID_23_)" fill="#A9784C" d="M51.833,60.267c-0.593,0.407-1.157,0.853-1.707,1.316
		c-0.071-0.012-0.144-0.022-0.223-0.022c-0.779,0-1.146,0.634-1.109,1.238c-0.512,0.505-1.001,1.035-1.469,1.586
		c-0.247-0.278-0.649-0.382-0.974-0.009c-1.101,1.266-2.143,2.642-3.031,4.105c-0.744-0.393-1.686-0.292-2.232,0.722
		c-2.733,5.07-1.794,10.045,0.014,14.982c0.001,0.001,0.001,0.003,0.001,0.004c0.037,0.368,0.166,0.671,0.347,0.919
		c1.79,4.631,4.193,9.232,4.889,13.847c0.242,1.604,2.793,1.854,3.477,0.455c2.243-4.586,0.681-9.001-1.867-13.129
		c-1.2-1.944-2.455-3.779-3.213-5.826c0.709-7.065,3.492-13.013,8.203-18.755C53.544,60.962,52.756,59.633,51.833,60.267"/>
	<path clip-path="url(#SVGID_23_)" fill="#A9784C" d="M57.883,110.413c-0.563,0.188-1.234-0.025-1.587-0.503
		c-0.352-0.476-0.358-1.181-0.014-1.664c-0.317-0.577-1.026-0.813-1.682-0.879c-0.825-0.081-1.697,0.041-2.385,0.503
		c-0.688,0.463-1.15,1.309-1.008,2.125c0.141,0.817,0.984,1.493,1.794,1.317c-0.567-0.397-0.967-1.119-0.776-1.784
		c0.191-0.666,1.135-1.05,1.633-0.568c0.28,0.271,0.337,0.692,0.498,1.046c0.497,1.098,2.201,1.371,3.016,0.484"/>
</g>
<g>
	<defs>
		<rect id="SVGID_24_" width="300" height="180"/>
	</defs>
	<clipPath id="SVGID_25_">
		<use xlink:href="#SVGID_24_"  overflow="visible"/>
	</clipPath>
	<path clip-path="url(#SVGID_25_)" fill="#BA8C5E" d="M76.563,70.873c1.007,0.24,2.075-0.346,2.669-1.194
		c0.595-0.848,0.801-1.905,0.902-2.935c0.092-0.934,0.111-1.874,0.055-2.811c-0.042-0.711-0.124-1.447,0.118-2.117
		c0.496-1.375,2.274-1.96,3.665-1.512c1.391,0.449,2.407,1.666,3.073,2.967c0.856,1.67,1.256,3.657,0.68,5.444
		c-0.577,1.786-2.29,3.261-4.165,3.181"/>
</g>
<g>
	<defs>
		<path id="SVGID_26_" d="M76.909,70.924l-0.345-0.051C76.679,70.9,76.794,70.917,76.909,70.924 M80.308,61.816
			c-0.242,0.67-0.16,1.406-0.118,2.117c0.055,0.937,0.037,1.878-0.055,2.811c-0.102,1.03-0.308,2.088-0.902,2.935
			c-0.527,0.751-1.425,1.297-2.324,1.245l6.652,0.972c1.874,0.081,3.588-1.395,4.164-3.181c0.577-1.787,0.176-3.774-0.679-5.444
			c-0.667-1.301-1.682-2.518-3.073-2.966c-0.31-0.1-0.639-0.149-0.969-0.149C81.854,60.156,80.693,60.748,80.308,61.816"/>
	</defs>
	<clipPath id="SVGID_27_">
		<use xlink:href="#SVGID_26_"  overflow="visible"/>
	</clipPath>
	<path clip-path="url(#SVGID_27_)" fill="#A9784C" d="M78.222,72.28c2.97,2.91,7.73,2.105,10.086-1.137
		c2.933-4.036,1.639-9.081-0.267-13.248c-1.028-2.25-4.987-0.624-4.041,1.704c1.014,2.493,2.2,5.371,1.292,8.064
		c-1.046,3.099-3.69,3.295-6.562,3.39C78.121,71.073,77.765,71.832,78.222,72.28"/>
	<path clip-path="url(#SVGID_27_)" fill="#A9784C" d="M77.225,68.142c-0.006,2.111,2.882,2.308,3.739,0.582
		c0.651-1.311,0.168-3.035-0.066-4.393c-0.313-1.819-0.687-3.62-1.155-5.405c-0.648-2.476-4.177-1.395-3.766,1.038
		c0.25,1.483,0.57,2.934,0.923,4.396c0.162,0.671,0.323,1.341,0.514,2.005c0.093,0.332,0.194,0.662,0.302,0.99
		c0.064,0.751,0.526,0.844,1.387,0.278C78.548,66.856,77.229,67.077,77.225,68.142"/>
</g>
<g>
	<defs>
		<rect id="SVGID_28_" width="300" height="180"/>
	</defs>
	<clipPath id="SVGID_29_">
		<use xlink:href="#SVGID_28_"  overflow="visible"/>
	</clipPath>
	<path clip-path="url(#SVGID_29_)" fill="#3B2C27" d="M68.676,77.908c0,0-0.257-0.152-0.721-0.351
		c-0.224-0.106-0.513-0.198-0.845-0.292c-0.337-0.078-0.718-0.138-1.132-0.18c-0.418-0.018-0.868-0.023-1.337,0.04
		c-0.471,0.045-0.951,0.185-1.433,0.338c-0.482,0.168-0.94,0.421-1.384,0.701c-0.424,0.29-0.839,0.684-1.137,1.048
		c-0.377,0.494-0.59,0.884-0.798,1.389c-0.17,0.496-0.315,0.999-0.368,1.506c-0.041,0.505-0.067,1.003-0.005,1.472
		c0.045,0.471,0.152,0.908,0.263,1.311c0.135,0.394,0.28,0.752,0.432,1.062c0.166,0.302,0.321,0.563,0.477,0.76
		c0.297,0.405,0.503,0.62,0.503,0.62s-0.06-0.041-0.173-0.12c-0.108-0.084-0.294-0.182-0.474-0.369
		c-0.198-0.171-0.41-0.405-0.646-0.689c-0.224-0.291-0.454-0.64-0.653-1.053c-0.39-0.824-0.657-1.899-0.602-3.065
		c0.034-0.581,0.137-1.183,0.34-1.77c0.205-0.565,0.558-1.199,0.888-1.631c0.443-0.533,0.898-0.924,1.423-1.277
		c0.526-0.329,1.088-0.567,1.647-0.732c1.123-0.316,2.23-0.3,3.121-0.107c0.447,0.1,0.839,0.246,1.173,0.397
		c0.329,0.166,0.607,0.319,0.82,0.475c0.226,0.135,0.357,0.29,0.464,0.376C68.622,77.859,68.676,77.908,68.676,77.908"/>
	<path clip-path="url(#SVGID_29_)" fill="#3B2C27" d="M78.01,61.385c0,0-0.219-0.092-0.605-0.194
		c-0.187-0.057-0.423-0.09-0.689-0.134c-0.27-0.025-0.571-0.035-0.896-0.021c-0.65,0.048-1.393,0.217-2.105,0.568
		c-0.361,0.168-0.693,0.407-1.019,0.652c-0.312,0.251-0.613,0.58-0.83,0.876c-0.284,0.4-0.443,0.705-0.612,1.102
		c-0.141,0.387-0.268,0.777-0.338,1.172c-0.136,0.789-0.125,1.557-0.036,2.212c0.097,0.654,0.255,1.199,0.399,1.571
		c0.137,0.375,0.236,0.589,0.236,0.589s-0.167-0.163-0.412-0.495c-0.247-0.329-0.556-0.845-0.782-1.532
		c-0.228-0.683-0.361-1.542-0.277-2.463c0.052-0.458,0.138-0.935,0.308-1.398c0.164-0.444,0.434-0.956,0.679-1.308
		c0.333-0.439,0.674-0.776,1.072-1.087c0.397-0.295,0.827-0.525,1.26-0.696c0.868-0.341,1.752-0.418,2.476-0.334
		c0.364,0.042,0.687,0.129,0.965,0.222c0.275,0.104,0.505,0.212,0.684,0.325c0.187,0.094,0.3,0.208,0.39,0.271
		C77.963,61.349,78.01,61.385,78.01,61.385"/>
	<path clip-path="url(#SVGID_29_)" fill="#3B2C27" d="M96.179,94.693c0.152-0.687-0.125-1.389-0.41-2.03
		c-2.128-4.803-5.029-9.262-8.557-13.154c0.759-1.11,1.26-2.396,1.453-3.727c-4.06,8.127-10.007,15.304-17.239,20.803
		c7.126,1.283,14.475,1.322,21.614,0.115C94.343,96.479,95.893,95.984,96.179,94.693"/>
	<path clip-path="url(#SVGID_29_)" fill="#FAF1D7" d="M87.961,82.764c-0.528-0.957-1.024-1.972-1.832-2.709
		c-3.738,6.381-8.96,11.86-14.887,16.545c0.922,0.349,1.929,0.702,2.872,0.413c0.459-0.14,0.859-0.423,1.246-0.705
		C80.365,92.644,84.667,88.02,87.961,82.764"/>
	<path clip-path="url(#SVGID_29_)" fill="#D27455" d="M91.439,93.486c1.323,0.69,2.258,1.608,2.555,3.07
		c-3.417,0.773-6.995,1.241-10.507,1.032c0.564-1.684,2.597-2.867,4.3-2.372c-0.232-0.824,0.372-1.724,1.174-2.022
		C89.764,92.896,90.679,93.091,91.439,93.486"/>
	<path clip-path="url(#SVGID_29_)" fill="#392918" d="M30.111,128.63c3.396,2.407,8.503,1.984,11.457-0.949
		c1.831-1.819,2.697-5.066,0.894-6.914c0.209,2.987-3.257,5.298-6.185,4.671c-2.928-0.628-5.025-3.359-5.839-6.241
		c1.788,1.488,4.933,0.731,5.847-1.408c-0.973,0.967-2.691,0.067-3.364-1.128c-1.112-1.973-0.728-4.672,0.889-6.258
		c0.776-0.762,1.867-1.412,1.979-2.494c0.168-1.608-1.895-2.44-3.513-2.488c-2.289-0.068-4.592,0.352-6.71,1.224
		c-6.794,2.798-11.08,10.328-10.775,17.669c0.304,7.341,4.8,14.188,11.018,18.101c2.433,1.53,5.193,2.673,8.066,2.728
		c-4.158-2.512-7.291-6.67-8.557-11.36c2.962,4.042,8.805,5.673,13.431,3.748c-2.156-0.232-4.066-1.58-5.442-3.256
		C31.931,132.598,31.013,130.602,30.111,128.63"/>
	<path clip-path="url(#SVGID_29_)" fill="#CD5F65" d="M39.693,109.398c-1.023-2.15-8.445-14.619-11.6-8.982
		c-1.887,3.371,3.224,9.257,5.484,11.136C35.978,113.549,42.014,114.281,39.693,109.398"/>
	<path clip-path="url(#SVGID_29_)" fill="#392918" d="M57.361,106.084c-2.776-1.603-7.19,0.217-7.942,3.333
		c-2.214-0.103-4.106-0.269-6.32-0.37c0.706,1.553,1.77,2.941,3.086,4.026c-4.404,0.316-8.308-2.703-11.42-5.835
		c-2.007-2.02-3.907-4.178-5.32-6.647c-1.033-1.808-1.794-3.762-2.37-5.763c-2.405-8.352-1.501-17.61,2.474-25.339
		c3.975-7.73,10.98-13.85,19.173-16.752c3.892-1.379,8.153-2.047,12.167-1.076c1.63,0.395,3.243,1.089,4.382,2.32
		c1.139,1.23,1.713,3.076,1.115,4.643c-2.467-1.654-5.806-0.919-8.521,0.284c-8.117,3.596-14.438,11.017-16.7,19.601
		c-0.28,1.067-0.502,2.186-0.279,3.265c0.447,2.158,2.474,3.537,4.054,5.072c2.566,2.49,4.215,5.904,4.574,9.461
		c1.127-0.102,2.006,0.989,2.39,2.055c0.383,1.064,0.528,2.261,1.248,3.135c0.711,0.864,1.841,1.235,2.789,1.832
		C56.889,103.923,57.742,105.031,57.361,106.084"/>
</g>
<g>
	<defs>
		<path id="SVGID_30_" d="M165.982,89.386c4.275,9.841,9.312,19.352,15.047,28.419c0.483,0.767,0.981,1.539,1.661,2.141
			c0.661,0.586,1.468,0.981,2.263,1.37c6.078,2.973,12.156,5.945,18.235,8.918c4.409,2.157,9.566,4.342,14.038,2.316
			c3.347-1.516,5.413-5.811,3.814-9.117c-1.578-3.261-5.618-4.322-9.171-5.024c-8.444-1.669-16.888-3.338-25.331-5.007
			c0.402-0.129,0.631-0.978,0.497-1.546c-2.244-9.581-4.975-19.051-8.175-28.356C174.474,85.246,170.174,87.212,165.982,89.386"/>
	</defs>
	<clipPath id="SVGID_31_">
		<use xlink:href="#SVGID_30_"  overflow="visible"/>
	</clipPath>
	
		<linearGradient id="SVGID_32_" gradientUnits="userSpaceOnUse" x1="0" y1="179.9883" x2="1" y2="179.9883" gradientTransform="matrix(-3.4809 -27.0736 -27.0736 3.4809 5069.0596 -503.3607)">
		<stop  offset="0" style="stop-color:#4A6E8B"/>
		<stop  offset="3.786670e-004" style="stop-color:#4A6E8B"/>
		<stop  offset="0.3552" style="stop-color:#5B829D"/>
		<stop  offset="1" style="stop-color:#7299AE"/>
	</linearGradient>
	<polygon clip-path="url(#SVGID_31_)" fill="url(#SVGID_32_)" points="166.903,141.742 159.521,84.331 221.719,76.334 
		229.101,133.745 	"/>
</g>
<g>
	<defs>
		<path id="SVGID_33_" d="M212.183,120.62c-1.218,0.589-2.396,1.299-3.336,2.272c-0.792,0.82-1.391,1.805-1.982,2.778
			c-2.99,4.922-6.004,9.895-7.836,15.354c-1.279,3.808-1.96,7.788-2.583,11.758c-1.394,8.871-2.52,17.783-3.38,26.721l45.199-0.163
			c-0.074-4.265,0.418-8.53,1.317-12.7c1.12-5.199,2.869-10.248,4.019-15.441c1.151-5.194,1.69-10.653,0.373-15.809
			c-1.653-6.474-6.333-12.107-12.392-14.924c-2.975-1.382-6.253-2.072-9.532-2.072C218.648,118.395,215.246,119.138,212.183,120.62"
			/>
	</defs>
	<clipPath id="SVGID_34_">
		<use xlink:href="#SVGID_33_"  overflow="visible"/>
	</clipPath>
	
		<linearGradient id="SVGID_35_" gradientUnits="userSpaceOnUse" x1="0" y1="179.8623" x2="1" y2="179.8623" gradientTransform="matrix(-27.4603 -17.5978 -17.5978 27.4603 3410.1101 -4773.647)">
		<stop  offset="0" style="stop-color:#4A6E8B"/>
		<stop  offset="3.786670e-004" style="stop-color:#4A6E8B"/>
		<stop  offset="0.3552" style="stop-color:#5B829D"/>
		<stop  offset="1" style="stop-color:#7299AE"/>
	</linearGradient>
	<polygon clip-path="url(#SVGID_34_)" fill="url(#SVGID_35_)" points="230.087,203.229 165.305,161.714 208.27,94.67 
		273.052,136.186 	"/>
</g>
<g>
	<defs>
		<rect id="SVGID_36_" width="300" height="180"/>
	</defs>
	<clipPath id="SVGID_37_">
		<use xlink:href="#SVGID_36_"  overflow="visible"/>
	</clipPath>
	<path clip-path="url(#SVGID_37_)" fill="#4F6C7D" d="M199.326,179.338c-0.429-7.097,1.051-14.187,3.189-20.967
		c1.864-5.915,4.257-11.708,7.678-16.881c3.421-5.174,7.916-9.723,13.381-12.653c1.012-0.542,2.313-1.012,3.238-0.331
		c1.136,0.836,0.727,2.6,0.203,3.909c2.094-1.037,4.188-2.076,6.283-3.114c2.52-1.25,5.437-3.152,5.224-5.956
		c-0.157-2.074-2.033-3.566-3.858-4.563c-4.014-2.191-8.798-3.313-13.217-2.138c-4.418,1.177-8.264,5.007-8.579,9.569
		c1.09-1.097,2.18-2.192,3.271-3.289c0.308-0.31,0.639-0.631,1.063-0.73c0.735-0.171,1.479,0.437,1.692,1.159
		s0.018,1.504-0.266,2.202c-0.848,2.095-2.437,3.783-3.91,5.496c-11.299,13.144-17.27,30.737-16.306,48.043
		C198.716,179.176,199.021,179.257,199.326,179.338"/>
</g>
<g>
	<defs>
		<path id="SVGID_38_" d="M237.875,132.8c-2.153,0.044-3.83,1.794-5.302,3.367c-10.354,11.06-23.471,19.513-37.818,24.375
			c-6.002-7.779-12.256-15.365-18.748-22.74c-3.669,2.22-7.087,4.853-10.168,7.834c8.934,9.288,18.616,17.854,28.925,25.585
			c0.554,0.414,1.133,0.836,1.811,0.972c0.849,0.167,1.713-0.146,2.521-0.454c10.064-3.827,20.202-7.69,29.32-13.414
			c6.371-4,12.551-9.457,14.116-16.814c0.395-1.855,0.463-3.852-0.289-5.594c-0.742-1.719-2.425-3.116-4.291-3.116
			C237.926,132.8,237.901,132.8,237.875,132.8"/>
	</defs>
	<clipPath id="SVGID_39_">
		<use xlink:href="#SVGID_38_"  overflow="visible"/>
	</clipPath>
	
		<linearGradient id="SVGID_40_" gradientUnits="userSpaceOnUse" x1="0" y1="180.1836" x2="1" y2="180.1836" gradientTransform="matrix(-11.9897 -23.9795 -23.9795 11.9897 4533.3164 -1991.4204)">
		<stop  offset="0" style="stop-color:#4A6E8B"/>
		<stop  offset="3.786670e-004" style="stop-color:#4A6E8B"/>
		<stop  offset="0.3552" style="stop-color:#5B829D"/>
		<stop  offset="1" style="stop-color:#7299AE"/>
	</linearGradient>
	<polygon clip-path="url(#SVGID_39_)" fill="url(#SVGID_40_)" points="181.271,203.222 150.016,140.712 227.563,101.938 
		258.818,164.447 	"/>
</g>
<g>
	<defs>
		<rect id="SVGID_41_" width="300" height="180"/>
	</defs>
	<clipPath id="SVGID_42_">
		<use xlink:href="#SVGID_41_"  overflow="visible"/>
	</clipPath>
	<path clip-path="url(#SVGID_42_)" fill="#E5B47F" d="M271.971,81.621c1.056,3.628,1.426,7.511,0.604,11.199
		c-1.728,7.748-8.279,13.39-14.764,17.969c-2.237,1.58-4.77,3.175-7.494,2.884c1.134,0.911,0.81,2.873-0.315,3.794
		s-2.708,1.028-4.155,0.885c-3.374-0.334-6.62-1.836-9.058-4.19c-1.754,1.54-3.506,3.081-5.259,4.621
		c-4.095,3.6-8.252,7.241-13.141,9.652c-0.736-2.223,0.885-4.514,2.615-6.091c1.73-1.578,3.796-3.1,4.328-5.38
		c0.501-2.153-0.569-4.41-2.109-5.995c-1.541-1.585-3.513-2.663-5.347-3.896c-5.528-3.717-10.137-9.466-10.642-16.108
		c-0.125-1.635,0.012-3.324,0.686-4.819c0.729-1.614,2.029-2.89,3.348-4.072c2.361-2.116,4.877-4.061,7.521-5.813
		c-1.617-1.546-2.901-3.437-3.741-5.511c3.98-0.465,7.088-3.49,10.393-5.757c7.917-5.429,18.471-6.797,27.511-3.567
		C261.99,64.657,269.287,72.404,271.971,81.621"/>
</g>
<g>
	<defs>
		<path id="SVGID_43_" d="M225.44,64.993c-3.307,2.268-6.412,5.292-10.395,5.758c0.841,2.073,2.125,3.964,3.741,5.51
			c-2.643,1.752-5.158,3.697-7.52,5.813c-1.318,1.181-2.618,2.459-3.348,4.072c-0.674,1.494-0.81,3.184-0.686,4.819
			c0.505,6.643,5.113,12.392,10.642,16.108c1.833,1.232,3.806,2.311,5.347,3.896c1.539,1.585,2.61,3.842,2.108,5.995
			c-0.531,2.28-2.596,3.802-4.327,5.379c-1.73,1.578-3.351,3.869-2.615,6.092c4.889-2.411,9.045-6.053,13.141-9.651
			c1.753-1.541,3.506-3.082,5.258-4.622c2.438,2.354,5.685,3.856,9.058,4.19c1.447,0.144,3.03,0.036,4.155-0.885
			c1.126-0.921,1.45-2.884,0.317-3.794c2.723,0.29,5.257-1.304,7.493-2.884c6.484-4.579,13.036-10.221,14.765-17.968
			c0.822-3.689,0.452-7.572-0.604-11.2c-2.684-9.217-9.979-16.964-19.021-20.195c-3.243-1.159-6.679-1.726-10.12-1.726
			C236.679,59.701,230.517,61.512,225.44,64.993"/>
	</defs>
	<clipPath id="SVGID_44_">
		<use xlink:href="#SVGID_43_"  overflow="visible"/>
	</clipPath>
	<path clip-path="url(#SVGID_44_)" fill="#DCA36A" d="M222.223,106.107c-2.804-2.864-6.611-4.487-9.688-7.016
		c-3.256-2.676-5.819-6.027-7.582-9.846c-0.367-0.795-1.647-0.231-1.403,0.591c1.482,4.978,4.015,9.437,8.049,12.788
		c4.451,3.699,15.487,9.517,7.86,16.111c-1.88,1.626,0.832,4.264,2.709,2.71C227.214,117.265,226.567,110.549,222.223,106.107"/>
	<path clip-path="url(#SVGID_44_)" fill="#DCA36A" d="M249.013,118.056c-2.578-0.161-4.98-0.788-7.055-2.396
		c-1.119-0.868-1.978-2.176-3.256-2.821c-1.974-0.997-3.963-0.234-5.598,1.116c-1.012,0.835-1.813,1.847-2.567,2.898
		c-0.54,0.429-1.042,0.842-1.475,1.152c-5.033,3.612-10.251,6.896-15.372,10.37c-1.858,1.263-0.234,4.131,1.775,3.037
		c0.325-0.176,0.646-0.36,0.967-0.544c0.339,0.142,0.748,0.156,1.217-0.037c5.818-2.399,10.966-5.029,14.548-10.358
		c0.508-0.754,1.141-2.001,1.886-3.028c0.78-0.513,1.379-0.768,1.627-0.57c0.585,0.469,1.563-0.118,1.109-0.856
		c-0.067-0.111-0.143-0.195-0.215-0.291c1.332,0.071,2.654,1.472,3.729,2.039c2.672,1.41,5.702,1.931,8.68,1.656
		C249.882,119.341,249.9,118.11,249.013,118.056"/>
	<path clip-path="url(#SVGID_44_)" fill="#DCA36A" d="M256.502,76.893c-1.688-3.511-7.549-5.095-9.234-0.738
		c-0.233,0.601,0.436,1.061,0.959,0.958c2.14-0.42,5.79-0.51,5.261,2.811c-0.406,2.556-3.118,3.944-5.081,5.177
		c-1.972,1.238-0.21,4.288,1.83,3.131C254.067,86.059,258.881,81.84,256.502,76.893"/>
	<path clip-path="url(#SVGID_44_)" fill="#DCA36A" d="M244.788,62.115c-0.602-1.878-2.288-3.098-4.178-3.43
		c-2.345-0.412-4.158,0.588-5.875,2.043c-0.67,0.567,0.049,1.64,0.829,1.424c1.894-0.524,6.109-1.282,5.935,1.863
		c-0.138,2.473-2.963,3.623-4.876,4.536c-1.781,0.85-0.512,3.957,1.359,3.225C241.85,70.264,246.324,66.905,244.788,62.115"/>
</g>
<g>
	<defs>
		<rect id="SVGID_45_" width="300" height="180"/>
	</defs>
	<clipPath id="SVGID_46_">
		<use xlink:href="#SVGID_45_"  overflow="visible"/>
	</clipPath>
	<path clip-path="url(#SVGID_46_)" fill="#E5B47F" d="M225.284,72.965c-2.265-1.953-4.196-4.381-5.151-7.215
		c-0.956-2.834-0.844-6.104,0.706-8.663c0.692-1.145,1.774-2.184,3.107-2.297c1.466-0.125,2.836,0.944,3.47,2.27
		c0.636,1.327,0.672,2.858,0.576,4.325c-0.243,3.762-1.202,7.827,0.673,11.098c0.189,0.331,0.583,0.688,0.896,0.469"/>
	<path clip-path="url(#SVGID_46_)" fill="#3B2C27" d="M234.159,93.518c-5.79,1.616-11.862,2.216-17.856,1.761
		c-1.837-0.14-3.785-0.427-5.18-1.631c-2.479-2.142-2.019-6.348,0.085-8.859c2.103-2.511,5.317-3.748,8.389-4.887
		c-1.448-2.109-2.543-4.46-3.228-6.925C221.102,80.748,227.142,87.722,234.159,93.518"/>
	<path clip-path="url(#SVGID_46_)" fill="#FAF1D7" d="M215.31,72.835c-0.592,0.573-1.237,1.304-1.066,2.114
		c0.068,0.32,0.258,0.597,0.445,0.864c3.913,5.609,10.427,12.551,14.69,17.893c0.212,0.265,0.439,0.542,0.757,0.659
		c0.341,0.126,0.719,0.044,1.072-0.039c1.521-0.357,2.075-0.429,3.596-0.786c-5.699-6.348-12.855-14.442-18.555-20.79
		c-0.07-0.08-0.146-0.162-0.246-0.202C215.757,72.45,215.5,72.65,215.31,72.835"/>
	<path clip-path="url(#SVGID_46_)" fill="#D27455" d="M214.128,89.397c-0.501,0.371-0.453,1.122-0.354,1.738
		c0.232,1.447,0.594,3.087,1.87,3.807c0.599,0.337,1.304,0.406,1.988,0.47c2.1,0.194,3.995,0.114,6.444-0.145
		c-0.438-1.291-1.086-1.922-2.154-2.767c-1.07-0.845-2.89-0.887-3.615,0.267c0.349-0.434,0.322-1.086,0.056-1.574
		c-0.265-0.49-0.727-0.843-1.205-1.127c-0.518-0.307-1.071-0.552-1.646-0.729C215.052,89.196,214.513,89.112,214.128,89.397"/>
	<path clip-path="url(#SVGID_46_)" fill="#FFFFFF" d="M239.874,78.859c-1.562,1.74-2.656,4.187-1.927,6.407
		c0.319,0.969,0.968,1.814,1.771,2.444c1.593,1.248,3.751,1.635,5.752,1.332s3.86-1.243,5.511-2.413
		c1.94-1.375,3.711-3.201,4.301-5.505c0.591-2.304-0.352-5.111-2.546-6.029c-0.479-0.201-0.993-0.306-1.51-0.378
		C247.073,74.131,242.674,75.737,239.874,78.859"/>
	<path clip-path="url(#SVGID_46_)" fill="#FFFFFF" d="M239.99,59.303c-0.563-0.142-1.151-0.173-1.732-0.142
		c-2.204,0.119-4.308,1.148-5.918,2.656c-1.611,1.508-2.235,2.752-2.979,4.83c0.076,0.115-0.312,0.911-0.175,0.921
		c0.104,2.13,1.831,3.969,3.872,4.582c2.042,0.613,4.296,0.147,6.169-0.87c2.268-1.231,4.147-3.4,4.48-5.958
		C244.043,62.763,242.493,59.931,239.99,59.303"/>
	<path clip-path="url(#SVGID_46_)" d="M240.201,81.465c-0.499,0.575-0.265,1.57,0.38,1.976c0.645,0.406,1.537,0.267,2.133-0.207
		c0.596-0.474,0.925-1.221,1.042-1.974c0.078-0.498,0.05-1.068-0.308-1.422c-0.32-0.317-0.824-0.372-1.266-0.284
		c-1.06,0.211-1.906,1.212-1.939,2.292"/>
	<path clip-path="url(#SVGID_46_)" d="M230.661,65.995c-0.499,0.575-0.265,1.57,0.38,1.976c0.645,0.406,1.537,0.267,2.133-0.207
		c0.596-0.474,0.925-1.221,1.042-1.974c0.078-0.498,0.05-1.068-0.308-1.422c-0.32-0.317-0.824-0.372-1.266-0.284
		c-1.06,0.211-1.907,1.212-1.939,2.292"/>
	<path clip-path="url(#SVGID_46_)" fill="#CDA16C" d="M270.489,113.131c5.258-2.273,8.977-7.736,9.164-13.463
		c-0.908-0.101-1.854,0.234-2.496,0.885c3.027-5.338,4.392-11.602,3.858-17.714c-0.93,1.07-1.86,2.14-2.791,3.21
		c1.116-3.636,1.361-7.535,0.708-11.281l-2.793,1.002c1.793-2.604,2.989-5.616,3.469-8.741c0.087-0.563,0.129-1.206-0.246-1.635
		c-0.318-0.363-0.838-0.458-1.318-0.508c-2.399-0.252-4.856,0.063-7.115,0.91c3.18-3.652,6.526-7.71,6.709-12.548
		c-4.053,0.81-7.93,2.49-11.293,4.893c1.425-4.114,5.475-6.756,9.568-8.236c0.712-0.258,1.578-0.691,1.534-1.447
		c-3.147-1.869-7.308-1.889-10.473-0.049c1.301-1.943,3.432-3.308,5.739-3.676c-2.225-1.269-4.799-1.918-7.358-1.855
		c-2.497,0.061-5.236,1.008-6.338,3.25c-0.45,0.92-0.578,1.963-0.932,2.925c-0.494,1.346-1.409,2.488-2.144,3.719
		c-1.309,2.189-2.06,4.707-2.164,7.254c-0.025,0.612-0.007,1.252,0.274,1.796c0.334,0.641,0.979,1.048,1.576,1.457
		c6.165,4.227,9.677,12.028,8.754,19.446c-0.068,0.555-0.169,1.127-0.484,1.587c-0.31,0.451-0.79,0.746-1.247,1.046
		c-3.589,2.355-6.446,5.805-8.093,9.768c0.818-0.349,1.706-0.534,2.597-0.542c-3.126,2.57-5.944,5.516-8.376,8.75
		c0.783-0.215,1.564-0.429,2.347-0.644c-1.998,2.947-4.973,5.22-8.342,6.373c2.997-0.058,5.96,1.664,7.397,4.294
		c0.579,1.06,0.86,2.521-0.002,3.368c-0.431,0.424-1.053,0.584-1.648,0.683c-2.056,0.342-4.196,0.157-6.162-0.532
		c-1.68-0.588-3.93-3.38-5.582-2.714c-0.463,0.188-3.315,1.483-3.745,3.211c3.113-1.56,6.752,0.521,9.553,2.588
		c2.802,2.068,6.247,4.323,9.499,3.078c-0.045-0.345-0.308-0.651-0.642-0.75c3.986,0.629,8.11,0.363,11.982-0.772
		c-2.195-0.91-4.391-1.82-6.586-2.73c5.629,1.619,12.149-0.538,15.703-5.195C272.098,112.969,271.163,112.761,270.489,113.131"/>
</g>
<g>
	<defs>
		<path id="SVGID_47_" d="M265.355,42.877c-2.497,0.061-5.235,1.009-6.338,3.251c-0.451,0.919-0.578,1.962-0.932,2.924
			c-0.494,1.346-1.409,2.488-2.144,3.719c-1.309,2.189-2.06,4.708-2.164,7.254c-0.025,0.612-0.009,1.252,0.274,1.796
			c0.334,0.642,0.979,1.048,1.576,1.457c6.166,4.227,9.677,12.028,8.753,19.446c-0.067,0.555-0.168,1.127-0.483,1.588
			c-0.31,0.45-0.79,0.745-1.247,1.045c-3.589,2.355-6.446,5.805-8.093,9.768c0.819-0.349,1.706-0.534,2.597-0.542
			c-3.126,2.57-5.944,5.515-8.375,8.75c0.781-0.215,1.563-0.429,2.345-0.644c-1.998,2.946-4.972,5.22-8.341,6.372
			c2.996-0.057,5.96,1.664,7.396,4.295c0.58,1.06,0.861,2.522-0.001,3.368c-0.432,0.424-1.053,0.583-1.648,0.684
			c-2.056,0.341-4.195,0.156-6.162-0.532c-1.68-0.589-3.93-3.381-5.582-2.715c-0.463,0.187-3.314,1.482-3.745,3.211
			c3.114-1.561,6.752,0.52,9.553,2.588c2.803,2.068,6.247,4.323,9.499,3.078c-0.045-0.345-0.308-0.652-0.642-0.75
			c3.986,0.629,8.11,0.363,11.981-0.773c-2.194-0.909-4.39-1.819-6.586-2.729c5.631,1.619,12.15-0.539,15.703-5.195
			c-0.404-0.556-1.194-0.782-1.839-0.559c5.139-2.33,8.757-7.721,8.94-13.363c-0.907-0.101-1.854,0.234-2.494,0.884
			c3.025-5.338,4.392-11.602,3.857-17.714c-0.931,1.069-1.859,2.139-2.791,3.209c1.116-3.635,1.361-7.535,0.708-11.281l-2.793,1.002
			c1.794-2.604,2.989-5.616,3.469-8.741c0.087-0.563,0.128-1.206-0.246-1.635c-0.318-0.364-0.838-0.458-1.319-0.508
			c-2.398-0.252-4.855,0.064-7.114,0.91c3.18-3.651,6.526-7.71,6.709-12.548c-4.053,0.81-7.93,2.49-11.293,4.893
			c1.427-4.113,5.475-6.755,9.568-8.236c0.712-0.257,1.579-0.691,1.534-1.447c-3.147-1.869-7.309-1.888-10.473-0.049
			c1.301-1.943,3.432-3.307,5.739-3.676c-2.126-1.213-4.571-1.859-7.018-1.859C265.582,42.873,265.469,42.874,265.355,42.877"/>
	</defs>
	<clipPath id="SVGID_48_">
		<use xlink:href="#SVGID_47_"  overflow="visible"/>
	</clipPath>
	<path clip-path="url(#SVGID_48_)" fill="#BB8A5A" d="M257.434,73.395c-3.475-5.814-5.82-13.256-2.636-19.234
		c-0.884,2.916,0.181,6.322,2.569,8.214c-0.094-3.378,1.773-6.74,4.689-8.447c-2.351,3.602-2.485,8.532-0.332,12.256
		c1.339-2.61,3.948-4.529,6.839-5.032c-3.048,1.581-3.845,5.651-3.33,9.046c0.516,3.395,1.965,6.649,2.007,10.082
		c0.646-2.055,2.35-3.746,4.41-4.374c-1.506,1.784-2.386,4.085-2.453,6.418c1.348-0.493,2.694-0.986,4.041-1.48
		c-2.225,5.469-5.508,10.506-9.615,14.747c2.152-0.065,4.294-0.5,6.303-1.276c-2.739,5.674-10.212,7-14.861,11.254
		c2.337,1.015,4.968,1.342,7.482,0.932c-1.831,1.13-2.346,2.851-4.177,3.98c6.764,1.57,13.813-2.641,17.686-8.404
		c3.874-5.763,5.777-9.387,5.197-20.214c2.573,10.971,1.515,22.761-2.97,33.099c-2.724,6.277-7.062,12.327-13.449,14.777
		c-7.676,2.943-16.569-0.074-22.922-5.288c-1.861-1.528-3.644-3.278-5.917-4.068c-2.306-0.8-5.067-0.604-6.885-2.233
		c-1.524-1.367-1.877-3.706-1.325-5.68c0.552-1.973,1.856-3.644,3.247-5.146c2.554-2.76,5.482-5.143,8.4-7.512
		c4.667-3.793,9.334-7.585,14.001-11.377c3.229-2.623,6.789-6.039,6.199-10.156C259.378,76.498,258.355,74.938,257.434,73.395"/>
	<path clip-path="url(#SVGID_48_)" fill="#BB8A5A" d="M256.003,113.048c-1.735-1.091-3.532-2.463-3.989-4.46
		c-0.583-2.552,1.313-5.081,3.579-6.392c2.265-1.31,4.906-1.801,7.298-2.86c3.21-1.424,5.944-3.898,7.677-6.953
		c0.04,3.743-1.176,7.487-3.407,10.493c4.307-2.634,7.244-7.386,7.677-12.415c1.361,4.231,1.186,8.939-0.487,13.057
		c-1.674,4.117-4.833,7.613-8.76,9.694c-2.115,1.119-4.606,1.842-6.901,1.166C257.727,114.095,256.852,113.58,256.003,113.048"/>
</g>
<g>
	<defs>
		<rect id="SVGID_49_" width="300" height="180"/>
	</defs>
	<clipPath id="SVGID_50_">
		<use xlink:href="#SVGID_49_"  overflow="visible"/>
	</clipPath>
	<path clip-path="url(#SVGID_50_)" fill="#C88E5B" d="M241.6,111.234c1.457-0.045,2.922,0.197,4.287,0.71
		c0.904,0.34,1.82,0.854,2.244,1.723c0.422,0.87,0.088,2.143-0.847,2.395c0.067-0.862-0.485-1.736-1.294-2.044
		c-0.807-0.309-1.802-0.025-2.327,0.663c-1.04-0.578-1.855-1.552-2.242-2.678"/>
	<path clip-path="url(#SVGID_50_)" fill="#BA8C5E" d="M146.659,87.468c0.922,1.29,1.289,1.74,2.344,2.673
		c0.991,0.877,2.175-1.466,2.993-2.506c2.915-3.706,5.67-7.618,7.334-12.03c2.215-5.868,2.36-12.492,0.409-18.452
		c-0.239-0.732-0.595-1.541-1.326-1.782c-0.73-0.242-1.654,0.696-1.13,1.259c-0.383-1.713-1.213-4.422-2.769-4.354
		c-0.277,0.236-0.479,0.559-0.571,0.911c-0.447-1.197-1.493-2.152-2.725-2.49c-0.379-0.104-0.8-0.149-1.152,0.026
		c-0.788,0.391-0.724,1.581-0.244,2.318c0.48,0.736,1.237,1.286,1.595,2.089c-0.379-0.928-2.046-0.767-2.241,0.216
		c-0.123,0.624,0.263,1.22,0.591,1.765c1.21,2.006,1.856,4.349,1.848,6.692c-0.229-0.834-1.615-0.659-2.011,0.11
		c-0.396,0.77-0.15,1.694,0.034,2.539c0.409,1.874,0.473,3.822,0.187,5.718c-0.234,1.556-0.625,3.379,0.461,4.516
		c0.507,0.53,1.271,0.81,1.637,1.445c0.361,0.628,0.225,1.423-0.024,2.104c-0.847,2.316-2.766,4.042-4.554,5.741
		C146.617,86.667,146.336,87.017,146.659,87.468"/>
</g>
<g>
	<defs>
		<path id="SVGID_51_" d="M150.065,50.723c-0.788,0.391-0.724,1.58-0.244,2.318c0.462,0.71,1.183,1.246,1.554,2.004
			c-0.442-0.832-2.012-0.651-2.2,0.3c-0.123,0.625,0.262,1.221,0.59,1.765c1.21,2.007,1.858,4.349,1.848,6.693
			c-0.23-0.835-1.615-0.659-2.011,0.11c-0.395,0.769-0.15,1.693,0.035,2.539c0.408,1.873,0.472,3.821,0.187,5.717
			c-0.234,1.556-0.626,3.38,0.461,4.517c0.506,0.529,1.271,0.81,1.637,1.445c0.362,0.627,0.225,1.423-0.024,2.104
			c-0.848,2.317-2.766,4.042-4.555,5.74c-0.728,0.692-1.008,1.041-0.685,1.492c0.921,1.291,1.288,1.741,2.343,2.674
			c0.991,0.875,2.175-1.467,2.994-2.506c2.915-3.706,5.67-7.618,7.334-12.031c2.213-5.868,2.36-12.491,0.409-18.451
			c-0.239-0.732-0.597-1.541-1.326-1.782c-0.52-0.171-1.134,0.25-1.261,0.711c-0.429-1.686-1.24-3.868-2.639-3.806
			c-0.276,0.235-0.479,0.559-0.57,0.91c-0.448-1.196-1.493-2.151-2.726-2.49c-0.195-0.053-0.401-0.091-0.604-0.091
			C150.423,50.605,150.236,50.638,150.065,50.723"/>
	</defs>
	<clipPath id="SVGID_52_">
		<use xlink:href="#SVGID_51_"  overflow="visible"/>
	</clipPath>
	<path clip-path="url(#SVGID_52_)" fill="#A1744A" d="M160.582,76.703c-0.512-0.403-3.411,1.846-4.061,1.805
		c-2.047-0.129-2.45-0.129-3.481-1.741c-0.143-0.223-1.029-1.238-1.225-1.418c-0.147-0.135-0.884-1.347-0.902-1.547
		c-0.229-2.436,0.247-4.059-0.42-6.413c-0.397-1.397-1.272-3.044-0.308-4.129c-0.537-0.296-1.245,0.038-1.57,0.556
		c-0.325,0.519-0.368,1.16-0.402,1.771c-0.125,2.238-0.25,4.476-0.375,6.713c-0.091,1.63-0.073,3.523,1.194,4.552
		c1.053,0.856,0.557,1.066,1.732,0.788c-0.274,0.2-0.521,0.514-0.708,0.968c-0.212,0.517,0.448,0.83,0.844,0.648
		c-0.155,0.071-0.74,1.818-0.992,2.309c-0.621,1.212-1.48,2.01-2.409,2.984c-1.49,1.564-2.432,3.298-1.954,5.478
		c0.075,0.34,0.24,0.602,0.459,0.792c0.452,0.968,1.208,1.795,2.156,2.291c1.435,0.751,3.251,0.722,4.661-0.077
		c1.602-0.904,2.551-2.617,3.35-4.273c1.469-3.051,2.703-6.216,3.688-9.456C160.247,78.022,161.632,77.531,160.582,76.703"/>
	<path clip-path="url(#SVGID_52_)" fill="#A1744A" d="M150.116,62.813c1.097,0.028,1.774,1.198,2.099,2.246
		c0.421,1.367,0.409,3.897,0.374,5.327c-0.009,0.351,0.294-0.542,0.258-0.193c0.064-4.899-0.079-9.326-2.431-13.357
		c-0.307-0.526-0.651-1.098-0.557-1.699c0.094-0.601,0.913-1.069,1.328-0.624c-0.663-0.063-1.063-0.73-1.488-1.242
		c-0.426-0.512-1.255-0.914-1.706-0.424c-0.121,0.13-0.185,0.302-0.241,0.471C146.659,56.583,147.62,60.44,150.116,62.813"/>
	<path clip-path="url(#SVGID_52_)" fill="#A1744A" d="M151.608,53.378c-0.446-0.504-0.967-0.994-1.125-1.648
		s0.288-1.498,0.958-1.435c-0.835-1.133-2.846-0.918-3.551,0.3c-0.705,1.218-0.049,2.952,1.225,3.55
		c0.932-0.162,1.889,0.298,2.538,0.986s1.039,1.576,1.367,2.463c0.976,2.634,2,5.472,2.083,8.279
		c0.868-0.471-0.248-4.165-0.646-6.317C154.062,57.404,153.06,55.017,151.608,53.378"/>
	<path clip-path="url(#SVGID_52_)" fill="#A1744A" d="M154.425,51.272c0.649,0.127,1.222,0.601,1.467,1.217
		c-0.383-0.011-1.537,0.014-0.982,0.879c0.207,0.322,0.462,0.64,0.621,0.989c1.104,2.405,1.505,5.062,1.896,7.679
		c0.133,0.895,0.19,2.548,0.005,3.433c-0.2,0.017-0.263,0.011-0.395,0.017c-0.222-4.162-1.365-9.031-3.182-12.782
		c-0.228-0.471-0.396-1.174,0.074-1.401C154.081,51.23,154.259,51.24,154.425,51.272"/>
	<path clip-path="url(#SVGID_52_)" fill="#A1744A" d="M158.777,65.229c0.481,0,0.621-0.139,0.601-0.62
		c-0.135-3.156-0.871-5.494-1.478-8.593c-0.046-0.234-0.092-0.482-0.006-0.704c0.091-0.233,0.311-0.393,0.421-0.618
		c0.247-0.506-0.143-1.079-0.508-1.507c-0.271-0.315-0.666-0.664-1.048-0.498c-0.44,0.193-0.364,0.834-0.222,1.294
		C157.799,58.044,158.797,60.977,158.777,65.229"/>
	<path clip-path="url(#SVGID_52_)" fill="#A1744A" d="M151.396,61.138c0.232,1.379,0.729,2.682,1.002,4.05
		c0.316,1.584,0.199,3.151,0.047,4.746c-0.057,0.601,0.86,0.584,0.931,0c0.381-3.205-0.069-6.092-1.372-9.052
		C151.841,60.512,151.34,60.797,151.396,61.138"/>
	<path clip-path="url(#SVGID_52_)" fill="#A1744A" d="M152.835,70.45c1.065-0.956,2.623-1.086,3.908-0.554
		c0.353,0.146,0.612-0.461,0.262-0.621c-0.885-0.405-1.842-0.547-2.798-0.316c-0.66,0.159-1.703,0.554-1.688,1.36
		C152.521,70.485,152.716,70.556,152.835,70.45"/>
	<path clip-path="url(#SVGID_52_)" fill="#A1744A" d="M154.428,66.221c2.039-0.712,3.979-0.922,6.078-0.327
		c0.378,0.107,0.538-0.477,0.162-0.588c-2.119-0.619-4.438-0.524-6.398,0.54C154.069,65.955,154.206,66.299,154.428,66.221"/>
	<path clip-path="url(#SVGID_52_)" fill="#B98B5D" d="M158.733,78.349c-0.253-1.41-1.349-1.72-2.406-2.202
		c-0.035-0.096-0.066-0.194-0.105-0.29c-0.171-0.415-0.714-0.581-1.083-0.445c-0.177-0.163-0.338-0.352-0.477-0.577
		c-0.377-0.61-1.24-0.198-1.116,0.47c0.198,1.069,0.646,1.813,1.117,2.773c0.001,0.002,0.004,0.005,0.005,0.007
		c-0.517,2.334-2.201,4.668-3.405,6.572c-1.54,2.434-3.294,4.701-5.214,6.847c-1.365,1.527,0.688,3.748,2.128,2.643
		c0.521,0.188,1.138,0.125,1.689-0.375c3.401-3.09,5.979-7.184,7.762-11.395C158.143,81.16,158.975,79.701,158.733,78.349"/>
</g>
<g>
	<defs>
		<rect id="SVGID_53_" width="300" height="180"/>
	</defs>
	<clipPath id="SVGID_54_">
		<use xlink:href="#SVGID_53_"  overflow="visible"/>
	</clipPath>
	<path clip-path="url(#SVGID_54_)" fill="#E5B47F" d="M176.504,90.774c0-0.047-0.174-0.043-0.174-0.09
		c-3.477-3.607-5.161-8.596-5.469-13.535s0.659-9.87,1.913-14.664c0.19-0.726,0.379-1.526,0.035-2.195
		c-0.344-0.67-1.485-0.93-1.852-0.272c-0.223-1.01,1.078-1.89,0.878-2.905c-0.213-1.078-1.989-1.103-2.663-0.223
		c0.289-0.69,0.501-1.41,0.632-2.144c0.053-0.298,0.084-0.636-0.106-0.876c-0.157-0.201-0.432-0.279-0.69-0.302
		c-1.053-0.091-2.059,0.558-2.664,1.402c-0.607,0.844-0.892,1.862-1.164,2.857c-0.125-0.459-0.746-0.641-1.2-0.47
		c-0.453,0.171-0.762,0.58-1.015,0.984c-1.457,2.331-1.884,5.124-2.144,7.842c-0.084,0.886-0.147,1.774-0.203,2.663
		c-0.03-0.258-0.059-0.515-0.104-0.77c-0.115-0.645-0.297-1.316-0.742-1.754c-0.445-0.439-1.223-0.524-1.603-0.017
		c-0.247,0.329-0.263,0.793-0.267,1.221c-0.018,2.24-0.036,4.481-0.054,6.721c-0.014,1.615-0.007,3.316,0.721,4.718
		c0.396,0.762,0.981,1.381,1.566,1.978c1.289,1.315,2.754,2.488,3.951,3.882c0.167,0.234,0.333,0.467,0.5,0.701l-0.04-0.133
		c0.087,0.114,0.177,0.224,0.26,0.341c1.442,2.041,2.862,4.119,4.315,6.159c1.592,0.196,3.121,0.06,4.704-0.207
		c0.763-0.128,1.532-0.314,2.198-0.743C176.223,90.816,176.73,90.81,176.504,90.774 M160.732,72.682
		c0.034,0.015,0.033,0.046,0.023,0.076L160.732,72.682z"/>
</g>
<g>
	<defs>
		<path id="SVGID_55_" d="M160.733,72.681c0.032,0.016,0.032,0.046,0.021,0.077L160.733,72.681z M166.343,54.97
			c-0.605,0.844-0.891,1.862-1.164,2.858c-0.124-0.459-0.745-0.641-1.198-0.47c-0.454,0.171-0.763,0.579-1.016,0.984
			c-1.458,2.331-1.885,5.123-2.143,7.841c-0.085,0.887-0.149,1.775-0.204,2.663c-0.03-0.257-0.059-0.515-0.104-0.77
			c-0.114-0.644-0.298-1.315-0.742-1.754c-0.444-0.438-1.223-0.523-1.603-0.016c-0.248,0.329-0.263,0.794-0.266,1.22
			c-0.02,2.241-0.037,4.481-0.056,6.721c-0.013,1.615-0.007,3.317,0.723,4.718c0.396,0.762,0.98,1.382,1.565,1.978
			c1.289,1.315,2.753,2.489,3.951,3.882c0.167,0.234,0.333,0.468,0.499,0.702l-0.04-0.133c0.087,0.113,0.177,0.224,0.26,0.34
			c1.443,2.041,2.862,4.12,4.316,6.16c1.591,0.195,3.122,0.06,4.705-0.207c0.762-0.128,1.532-0.314,2.198-0.743
			c0.196-0.127,0.704-0.135,0.477-0.169c0-0.048-0.174-0.043-0.174-0.09c-3.476-3.607-5.161-8.597-5.468-13.535
			c-0.308-4.939,0.658-9.871,1.914-14.665c0.189-0.725,0.379-1.525,0.034-2.195s-1.485-0.929-1.852-0.271
			c-0.223-1.011,1.078-1.891,0.878-2.906c-0.213-1.077-1.989-1.102-2.663-0.223c0.289-0.689,0.501-1.41,0.632-2.143
			c0.054-0.299,0.084-0.636-0.105-0.877c-0.159-0.2-0.433-0.279-0.692-0.301c-0.065-0.006-0.132-0.009-0.198-0.009
			C167.83,53.56,166.912,54.18,166.343,54.97"/>
	</defs>
	<clipPath id="SVGID_56_">
		<use xlink:href="#SVGID_55_"  overflow="visible"/>
	</clipPath>
	<path clip-path="url(#SVGID_56_)" fill="#CF9560" d="M158.523,66.365c0.408-0.303,1.029-0.092,1.34,0.31s0.392,0.93,0.464,1.434
		c0.287,2.03,0.574,4.061,0.862,6.092c0.043-4.397,0.419-8.791,1.122-13.131c0.137-0.842,0.296-1.709,0.762-2.423
		c0.467-0.715,1.323-1.244,2.158-1.071c-0.355,3.326-0.496,8.726-0.976,12.036c1.075-0.838,1.756-8.087,2.179-11.223
		c0.143-1.064,0.249-2.165,0.76-3.109s1.553-1.698,2.609-1.502c-0.777,4.231-2.453,9.13-3.021,15.505
		c1.342-2.378,1.592-7.03,2.311-9.473c0.341-1.157,0.741-2.403,1.728-3.098c0.323-0.227,0.837-0.348,1.059-0.021
		c0.167,0.246,0.044,0.577-0.078,0.849c-1.423,3.14-2.509,8.647-2.903,12.072c0.645-0.387,1.514-5.618,2.063-7.219
		c0.298-0.87,0.404-1.551,1.223-1.972c0.816-0.421,2.111,0.217,1.887,1.108c1.929-2.076,2.126-5.438,0.758-7.919
		s-4.08-4.066-6.889-4.432c-2.811-0.367-5.688,0.386-8.185,1.726c-0.729,0.391-1.449,0.848-1.948,1.508
		c-0.613,0.812-0.833,1.845-1.036,2.842c-0.834,4.092-1.669,8.184-2.503,12.277c-0.465,2.28-0.934,4.604-0.691,6.919
		c0.294,2.83,1.638,5.462,3.331,7.748c1.693,2.287,3.739,4.284,5.671,6.373c1.267,1.368,2.51,2.799,4.096,3.779
		c1.587,0.979,3.612,1.45,5.333,0.734c-1.692-2.544-3.385-5.088-5.076-7.631c-1.06-1.592-3.325-3.718-5.122-4.367
		c-0.795-0.286-2.33-1.771-2.579-2.578c-0.517-1.676-0.732-1.738-0.773-3.868c-0.049-2.488-0.275-4.498-0.324-6.986
		C158.122,67.187,158.147,66.644,158.523,66.365"/>
</g>
<g>
	<defs>
		<rect id="SVGID_57_" width="300" height="180"/>
	</defs>
	<clipPath id="SVGID_58_">
		<use xlink:href="#SVGID_57_"  overflow="visible"/>
	</clipPath>
	<path clip-path="url(#SVGID_58_)" fill="#424872" d="M120.758,21.272c-0.007-0.015-0.015-0.025-0.022-0.039
		c-0.177-0.365-0.354-0.731-0.531-1.097c-7.971,3.758-15.459,8.541-22.22,14.193c0.133,0.267,0.314,0.506,0.516,0.725
		c0.17,0.219,0.403,0.42,0.536,0.648c2.805,4.843,5.61,9.686,8.415,14.529c-1.479-0.55-3.048-0.854-4.625-0.896
		c-1.134-0.031-2.424,0.156-3.076,1.083c-0.519,0.738-0.463,1.773-0.041,2.57c0.422,0.797,1.154,1.386,1.929,1.847
		c2.699,1.607,6.171,1.84,9.061,0.609c0.211-0.09,0.434-0.201,0.541-0.405c0.154-0.294,0.007-0.649-0.141-0.946
		c-2.909-5.846-6.287-11.456-10.078-16.773c6.773-4.11,13.547-8.219,20.321-12.329c2.189,4.565,4.378,9.13,6.567,13.695
		c-1.711-0.497-3.529-0.997-5.246-0.525c-1.718,0.472-3.187,2.32-2.578,3.994c0.444,1.219,1.764,1.876,3.02,2.201
		c3.036,0.784,6.382,0.278,9.05-1.369C128.356,35.749,124.558,28.51,120.758,21.272 M99.422,35.13
		c1.583-1.302,3.209-2.553,4.886-3.733c1.512-1.064,3.061-2.077,4.624-3.067c3.577-2.265,7.233-4.404,10.953-6.425
		c0.214,0.572,0.466,1.073,0.76,1.656c-6.913,3.954-13.684,8.158-20.286,12.613c-0.035,0.023-0.069,0.048-0.104,0.073
		C99.981,35.872,99.701,35.502,99.422,35.13"/>
	<path clip-path="url(#SVGID_58_)" fill="#00315C" d="M198.213,48.485c4.986-8.798,10.201-17.467,15.638-25.994
		c-0.864,5.298,1.007,10.968,4.855,14.71c-3.479-1.867-6.061-5.33-6.855-9.198c-5.528,8.43-10.49,17.232-14.838,26.327
		c-3.621-1.218-6.677-3.847-8.777-7.039c-0.919-1.397-1.682-2.95-1.823-4.616s0.434-3.461,1.77-4.465
		c1.341-1.007,3.247-1.054,4.783-0.383c1.535,0.671,2.73,1.967,3.584,3.41C197.829,43.405,198.42,45.975,198.213,48.485"/>
</g>
</svg>
