<?xml version="1.0" encoding="utf-8"?>
<!-- Generator: Adobe Illustrator 15.0.0, SVG Export Plug-In . SVG Version: 6.00 Build 0)  -->
<!DOCTYPE svg PUBLIC "-//W3C//DTD SVG 1.1//EN" "http://www.w3.org/Graphics/SVG/1.1/DTD/svg11.dtd">
<svg version="1.1" id="Layer_1" xmlns="http://www.w3.org/2000/svg" xmlns:xlink="http://www.w3.org/1999/xlink" x="0px" y="0px"
	 width="300px" height="180px" viewBox="0 0 300 180" enable-background="new 0 0 300 180" xml:space="preserve">
<g>
	<defs>
		<rect id="SVGID_1_" width="300" height="180"/>
	</defs>
	<clipPath id="SVGID_2_">
		<use xlink:href="#SVGID_1_"  overflow="visible"/>
	</clipPath>
	<g clip-path="url(#SVGID_2_)">
		<defs>
			<rect id="SVGID_3_" width="300" height="180"/>
		</defs>
		<clipPath id="SVGID_4_">
			<use xlink:href="#SVGID_3_"  overflow="visible"/>
		</clipPath>
		<path clip-path="url(#SVGID_4_)" fill="#E5DBC6" d="M111.302,161.975c0.489-1.343-1.314-2.308-2.718-2.581
			c-13.368-2.607-27.121-2.671-40.704-1.668c-5.943,0.439-11.87,1.081-17.769,1.923c-0.835,0.119-1.787,0.32-2.192,1.061
			c-0.743,1.358,1.032,2.704,2.514,3.155c4.519,1.383,9.291,1.679,14.014,1.863c12.005,0.469,24.036,0.276,36.019-0.58
			c3.287-0.234,6.665-0.545,9.601-2.04C110.577,162.848,111.106,162.513,111.302,161.975"/>
		<path clip-path="url(#SVGID_4_)" fill="#E5B47F" d="M119.664,99.947c1.472-0.278,2.628-0.303,3.301-1.643
			c0.673-1.338,2.553-3.58,1.776-4.86c-1.174-1.934-5.411-3.003-7.673-2.955c-0.697,0.015-1.504,0.151-1.846,0.759
			c-0.18,0.32-0.187,0.706-0.174,1.073c0.079,2.318,1.545,6.444,2.94,8.299"/>
		<path clip-path="url(#SVGID_4_)" fill="#00315C" d="M46.308,129.783c0.924-0.472,2.094-0.069,2.845,0.649
			c0.75,0.717,1.19,1.688,1.682,2.602c0.963,1.791,2.187,3.438,3.616,4.884c1.23,1.245,3.549,2.249,4.481,3.659
			c2.057,3.113-2.12,5.77-5.043,4.955C50.211,145.508,41.426,132.275,46.308,129.783"/>
	</g>
	<g clip-path="url(#SVGID_2_)">
		<defs>
			<path id="SVGID_5_" d="M46.308,129.784c-4.881,2.492,3.904,15.724,7.58,16.748c2.924,0.813,7.1-1.842,5.044-4.955
				c-0.932-1.41-3.252-2.414-4.482-3.659c-1.428-1.446-2.652-3.093-3.616-4.884c-0.492-0.913-0.932-1.885-1.682-2.603
				c-0.527-0.503-1.26-0.852-1.97-0.852C46.881,129.58,46.583,129.643,46.308,129.784"/>
		</defs>
		<clipPath id="SVGID_6_">
			<use xlink:href="#SVGID_5_"  overflow="visible"/>
		</clipPath>
		<path clip-path="url(#SVGID_6_)" fill="#DCD4BD" d="M42.068,127.029c-0.938,10.957,7.884,22.875,18.502,25.582
			c2.136,0.544,3.705-2.689,1.559-3.699c-9.958-4.679-15.347-11.431-17.836-22.184C43.989,125.413,42.171,125.821,42.068,127.029"/>
	</g>
	<g clip-path="url(#SVGID_2_)">
		<defs>
			<rect id="SVGID_7_" width="300" height="180"/>
		</defs>
		<clipPath id="SVGID_8_">
			<use xlink:href="#SVGID_7_"  overflow="visible"/>
		</clipPath>
		<path clip-path="url(#SVGID_8_)" fill="#00315C" d="M109.75,157.681c0.259-1.473,0.417-3.021-0.057-4.44
			c-0.473-1.419-1.732-2.672-3.228-2.7c-1.812-0.035-3.245,1.727-3.525,3.518c-0.097,0.617-0.097,1.262-0.348,1.834
			c-0.539,1.229-2.035,1.714-3.374,1.793c-1.34,0.079-2.733-0.101-3.987,0.378c-1.253,0.48-2.266,1.985-1.615,3.159
			c0.496,0.893,1.65,1.134,2.665,1.255c2.643,0.314,5.309,0.443,7.97,0.386c1.047-0.021,2.139-0.085,3.049-0.603
			C108.856,161.374,109.44,159.444,109.75,157.681"/>
	</g>
	<g clip-path="url(#SVGID_2_)">
		<defs>
			<path id="SVGID_9_" d="M102.94,154.057c-0.096,0.618-0.097,1.263-0.347,1.835c-0.539,1.229-2.035,1.715-3.374,1.792
				c-1.34,0.08-2.734-0.1-3.987,0.38c-1.253,0.479-2.267,1.984-1.616,3.157c0.496,0.894,1.651,1.135,2.665,1.255
				c2.643,0.314,5.309,0.444,7.97,0.388c1.048-0.022,2.14-0.085,3.05-0.604c1.556-0.885,2.14-2.814,2.45-4.578
				c0.259-1.473,0.417-3.021-0.057-4.44c-0.474-1.418-1.733-2.671-3.229-2.7c-0.017,0-0.035,0-0.053,0
				C104.625,150.54,103.217,152.284,102.94,154.057"/>
		</defs>
		<clipPath id="SVGID_10_">
			<use xlink:href="#SVGID_9_"  overflow="visible"/>
		</clipPath>
		<path clip-path="url(#SVGID_10_)" fill="#DCD4BD" d="M111.831,153.697c-1.167,4.635-5.692,7.793-10.143,7.86
			c-4.836,0.071-9.765-1.46-14.411-2.598c-2.82-0.69-4.017,3.614-1.201,4.354c6.127,1.609,15.77,4.598,21.807,1.345
			c3.359-1.81,7.707-7.256,5.947-11.223C113.439,152.557,112.045,152.844,111.831,153.697"/>
	</g>
	<g clip-path="url(#SVGID_2_)">
		<defs>
			<rect id="SVGID_11_" width="300" height="180"/>
		</defs>
		<clipPath id="SVGID_12_">
			<use xlink:href="#SVGID_11_"  overflow="visible"/>
		</clipPath>
		<path clip-path="url(#SVGID_12_)" fill="#504F81" d="M54.771,137.528c-0.191,1.765,1.577,4.775,3.289,5.243
			c1.272-2.661,1.005-6.021,2.277-8.682c0.705-1.475,1.468-3.017,2.818-3.937c1.487-1.013,3.404-1.08,5.204-1.076
			c7.331,0.017,14.662,0.624,21.896,1.814c0.471,0.078,0.989,0.185,1.276,0.565c0.22,0.291,0.253,0.679,0.278,1.041
			c0.317,4.594,0.633,9.186,0.95,13.778c0.038,0.563,0.084,1.149,0.369,1.637c0.297,0.508,0.813,0.84,1.31,1.152
			c2.589,1.629,5.177,3.259,7.766,4.889c1.516,0.955,3.838,1.763,4.808,0.256c0.849-1.319,1.6-3.421,0.479-4.519
			c-2.306-2.26-6.565-4.071-8.871-6.331c1.96-3.675,3.92-7.35,5.88-11.024c1.231-2.309,2.444-5.225,0.957-7.377
			c-1.133-1.642-3.345-2.043-5.322-2.307c-4.166-0.554-8.363-1.109-12.558-0.851c-4.167,0.257-8.279,1.316-12.454,1.227
			c-4.257-0.092-8.726-1.348-12.641,0.328C57.289,125.577,55.38,131.913,54.771,137.528"/>
	</g>
	<g clip-path="url(#SVGID_2_)">
		<defs>
			<path id="SVGID_13_" d="M87.577,121.801c-4.167,0.258-8.279,1.317-12.453,1.228c-4.258-0.093-8.726-1.348-12.642,0.328
				c-5.192,2.222-7.102,8.558-7.711,14.172c-0.191,1.764,1.577,4.774,3.289,5.243c1.273-2.661,1.005-6.021,2.278-8.683
				c0.704-1.473,1.467-3.016,2.817-3.935c1.488-1.015,3.404-1.08,5.204-1.076c7.332,0.016,14.662,0.623,21.896,1.813
				c0.471,0.078,0.989,0.186,1.277,0.567c0.219,0.291,0.252,0.677,0.277,1.041c0.317,4.593,0.633,9.184,0.949,13.777
				c0.039,0.563,0.085,1.148,0.37,1.637c0.297,0.507,0.813,0.839,1.31,1.152c2.588,1.63,5.178,3.26,7.766,4.89
				c1.516,0.954,3.838,1.761,4.808,0.255c0.849-1.32,1.6-3.42,0.48-4.518c-2.307-2.261-6.566-4.072-8.873-6.332
				c1.96-3.676,3.921-7.35,5.881-11.025c1.231-2.308,2.444-5.224,0.958-7.376c-1.134-1.642-3.346-2.042-5.322-2.306
				c-3.441-0.458-6.903-0.917-10.367-0.917C89.038,121.736,88.308,121.756,87.577,121.801"/>
		</defs>
		<clipPath id="SVGID_14_">
			<use xlink:href="#SVGID_13_"  overflow="visible"/>
		</clipPath>
		<path clip-path="url(#SVGID_14_)" fill="#6E6FA5" d="M100.161,140.922c-1.657,1.396-2.977,3.188-3.818,5.185
			c0.631-0.305,1.261-0.608,1.891-0.912c-0.016,1.34,0.136,2.682,0.452,3.983c0.777-0.249,0.471-1.531,1.055-2.102
			c0.514-0.501,1.37-0.177,1.987,0.189c2.894,1.724,5.513,3.907,7.726,6.446c0.683-0.128,1.163-0.795,1.285-1.479
			c0.122-0.685-0.041-1.385-0.221-2.056c-1.125-4.189-2.99-8.242-5.877-11.48"/>
		<path clip-path="url(#SVGID_14_)" fill="#504F81" d="M109.703,132.457c-7.257-8.557-20.823-12.39-31.755-11.954
			c-2.531,0.102-2.495,3.727,0,3.906c5.445,0.395,10.684,1.006,15.866,2.806c5.108,1.772,9.765,4.578,14.668,6.825
			C109.524,134.518,110.464,133.355,109.703,132.457"/>
		<path clip-path="url(#SVGID_14_)" fill="#39395F" d="M111.393,133.738c-8.696-8.722-22.532-13.156-34.566-13.915
			c-2.438-0.154-2.355,3.501,0,3.75c5.943,0.629,11.744,1.741,17.381,3.761c5.715,2.049,10.656,5.16,15.983,7.962
			C111.169,135.811,112.211,134.559,111.393,133.738"/>
		<path clip-path="url(#SVGID_14_)" fill="#39395F" d="M78.863,123.9c4.882,2.34,10.805,2.758,15.939,4.7
			c6.077,2.299,11.48,5.633,16.732,9.41c1.779,1.278,4.06-1.645,2.358-3.056c-4.93-4.085-10.533-7.247-16.513-9.527
			c-5.228-1.994-12.72-4.469-18.328-2.969C78.433,122.624,78.235,123.6,78.863,123.9"/>
		<path clip-path="url(#SVGID_14_)" fill="#39395F" d="M87.291,133.35c0.496,0.366,0.992,0.733,1.489,1.101
			c0.944,0.698,2.307-0.058,2.594-1.056c0.107-0.371,0.214-0.742,0.321-1.114c0.308-1.07-0.38-2.026-1.356-2.387
			c-8.193-3.028-17.676-4.167-26.273-2.201c-7.384,1.688-10.447,10.581-12.409,17.075c-0.575,1.902,1.846,4.09,3.606,2.772
			c1.548-1.158,7.481-6.36,4.962-8.516c2.341,2.003,5.311-1.009,3.359-3.359c-1.266-1.523-3.057-1.825-4.824-0.891
			c-3.13,1.655-2.999,6.295-5.975,8.525c1.202,0.925,2.404,1.849,3.606,2.772c0.96-3.187,2.115-6.319,3.771-9.218
			c2.339-4.099,4.943-4.922,9.525-5.377c6.684-0.664,13.215,0.25,19.62,2.158c-0.475-0.624-0.95-1.247-1.424-1.871
			c0.007,0.387,0.015,0.773,0.022,1.16c0.432-0.567,0.864-1.135,1.297-1.702c-0.561,0.128-1.122,0.257-1.683,0.385
			C86.643,131.808,86.682,132.899,87.291,133.35"/>
		<path clip-path="url(#SVGID_14_)" fill="#39395F" d="M103.967,144.977c0.525,3.116,1.477,6.148,2.224,9.217
			c1.061-0.617,2.122-1.234,3.183-1.853c-1.77-2.288-3.589-4.537-5.401-6.792c-1.326-1.651-4.217,0.13-3.543,2.063
			c0.831,2.386,1.513,4.758,2.02,7.23c1.334-0.563,2.669-1.125,4.003-1.688c-1.538-2.402-3.077-4.806-4.615-7.209
			c-0.973-1.519-2.881-1.363-3.882,0c-1.522,2.074-0.714,4.883-0.515,7.281c1.419-0.385,2.839-0.769,4.258-1.154
			c-1.146-1.583-2.159-3.193-3.087-4.914c-0.801-1.481-3.179-1.512-3.972,0l-0.529,0.665c0.868,1.131,1.737,2.26,2.605,3.39
			c0.574-1.232,2.514-2.101,3.461-3.04c1.178-1.17,2.069-2.503,2.846-3.963c1.412-2.655-2.408-4.885-4.025-2.354
			c-1.361,2.127-5.053,5.908-7.774,2.459c-1.188-1.507-1.343-4.651-1.834-6.482l-1.678,2.956c-1.917,0.363,2.303,7.361,3.339,8.174
			c2.233,1.751,4.996,1.221,7.485,0.293c2.88-1.074,1.653-5.725-1.284-4.656c-5.128,1.866-4.121-2.667-5.884-6.042
			c-1.128-2.16-2.577-2.797-4.934-2.403c-1.307,0.219-1.961,1.801-1.678,2.955c1.081,4.427,2.01,10.599,7.524,11.545
			c4.31,0.74,8.634-3.109,10.743-6.444c-1.342-0.785-2.684-1.569-4.025-2.354c-1.582,3.01-4.929,4.122-6.265,7.027
			c-0.727,1.582,0.534,4.234,2.605,3.389c1.533-0.626,2.489-1.276,3.274-2.792h-3.972c0.938,1.715,1.959,3.321,3.113,4.899
			c1.188,1.623,4.478,1.347,4.258-1.153c-0.106-1.201-0.905-3.985-0.173-5.011h-3.882l4.715,7.149
			c1.371,2.079,4.542,0.773,4.003-1.688c-0.542-2.469-1.233-4.839-2.155-7.192c-1.182,0.688-2.363,1.375-3.544,2.063
			c1.891,2.171,3.775,4.35,5.706,6.486c1.226,1.356,3.875-0.063,3.182-1.854c-1.185-3.063-2.178-6.207-3.583-9.179
			C105.624,142.609,103.747,143.669,103.967,144.977"/>
	</g>
	<g clip-path="url(#SVGID_2_)">
		<defs>
			<path id="SVGID_15_" d="M95.193,81.07c-11.488,4.415-19.347,14.882-26.571,24.847c1.565,6.653,9.35,10.916,9.686,17.743
				c10.619-1.12,20.475,5.586,31.076,6.863c1.67-10.483-2.464-21.704-10.534-28.601c-2.74-2.341-5.86-4.187-8.963-6.019
				c2.466-1.531,4.994-2.959,7.578-4.281c1.945-0.997,3.994-1.951,6.179-2.033c4.342-0.163,7.988,3.055,11.12,6.066l3.676-5.929
				c-4.515-4.764-9.751-9.867-16.312-10.051c-0.118-0.003-0.235-0.005-0.353-0.005C99.523,79.671,97.298,80.261,95.193,81.07"/>
		</defs>
		<clipPath id="SVGID_16_">
			<use xlink:href="#SVGID_15_"  overflow="visible"/>
		</clipPath>
		
			<linearGradient id="SVGID_17_" gradientUnits="userSpaceOnUse" x1="0" y1="180.0732" x2="1" y2="180.0732" gradientTransform="matrix(7.2849 -16.0525 -16.0525 -7.2849 2975.8779 1435.1812)">
			<stop  offset="0" style="stop-color:#4A6E8B"/>
			<stop  offset="3.786670e-004" style="stop-color:#4A6E8B"/>
			<stop  offset="0.3552" style="stop-color:#5B829D"/>
			<stop  offset="1" style="stop-color:#7299AE"/>
		</linearGradient>
		<polygon clip-path="url(#SVGID_16_)" fill="url(#SVGID_17_)" points="49.486,121.839 77.13,60.924 137.576,88.355 
			109.932,149.271 		"/>
	</g>
	<g clip-path="url(#SVGID_2_)">
		<defs>
			<path id="SVGID_18_" d="M95.193,81.07c-11.488,4.415-19.347,14.882-26.571,24.847c1.565,6.653,9.35,10.916,9.686,17.743
				c10.619-1.12,20.475,5.586,31.076,6.863c1.67-10.483-2.464-21.704-10.534-28.601c-2.74-2.341-5.86-4.187-8.963-6.019
				c2.466-1.531,4.994-2.959,7.578-4.281c1.945-0.997,3.994-1.951,6.179-2.033c4.342-0.163,7.988,3.055,11.12,6.066l3.676-5.929
				c-4.515-4.764-9.751-9.867-16.312-10.051c-0.118-0.003-0.235-0.005-0.353-0.005C99.523,79.671,97.298,80.261,95.193,81.07"/>
		</defs>
		<clipPath id="SVGID_19_">
			<use xlink:href="#SVGID_18_"  overflow="visible"/>
		</clipPath>
		<g clip-path="url(#SVGID_19_)">
			<defs>
				<path id="SVGID_20_" d="M93.885,69.719c1.106,0,1.108-1.719,0-1.719C92.779,68,92.777,69.719,93.885,69.719"/>
			</defs>
			<clipPath id="SVGID_21_">
				<use xlink:href="#SVGID_20_"  overflow="visible"/>
			</clipPath>
			
				<linearGradient id="SVGID_22_" gradientUnits="userSpaceOnUse" x1="0" y1="179.999" x2="1" y2="179.999" gradientTransform="matrix(0.7629 -1.5541 -1.5541 -0.7629 373.2487 206.9651)">
				<stop  offset="0" style="stop-color:#4A6E8B"/>
				<stop  offset="3.786670e-004" style="stop-color:#4A6E8B"/>
				<stop  offset="0.3552" style="stop-color:#5B829D"/>
				<stop  offset="1" style="stop-color:#7299AE"/>
			</linearGradient>
			<polygon clip-path="url(#SVGID_21_)" fill="url(#SVGID_22_)" points="92.097,69.385 93.208,67.124 95.673,68.334 94.563,70.596 
							"/>
		</g>
	</g>
	<g clip-path="url(#SVGID_2_)">
		<defs>
			<path id="SVGID_23_" d="M95.193,81.07c-11.488,4.415-19.347,14.882-26.571,24.847c1.565,6.653,9.35,10.916,9.686,17.743
				c10.619-1.12,20.475,5.586,31.076,6.863c1.67-10.483-2.464-21.704-10.534-28.601c-2.74-2.341-5.86-4.187-8.963-6.019
				c2.466-1.531,4.994-2.959,7.578-4.281c1.945-0.997,3.994-1.951,6.179-2.033c4.342-0.163,7.988,3.055,11.12,6.066l3.676-5.929
				c-4.515-4.764-9.751-9.867-16.312-10.051c-0.118-0.003-0.235-0.005-0.353-0.005C99.523,79.671,97.298,80.261,95.193,81.07"/>
		</defs>
		<clipPath id="SVGID_24_">
			<use xlink:href="#SVGID_23_"  overflow="visible"/>
		</clipPath>
		<g opacity="0.68" clip-path="url(#SVGID_24_)">
			<g>
				<defs>
					<rect id="SVGID_25_" x="86.187" y="87.208" width="38.609" height="18.852"/>
				</defs>
				<clipPath id="SVGID_26_">
					<use xlink:href="#SVGID_25_"  overflow="visible"/>
				</clipPath>
				<g clip-path="url(#SVGID_26_)">
					<defs>
						<path id="SVGID_27_" d="M87.002,98.779c5.514-3.817,11.906-7.941,18.951-7.09c7.23,0.874,11.962,6.449,14.463,12.879
							c1.007,2.587,5.164,1.563,4.249-1.172c-2.53-7.564-8.157-14.042-16.209-15.784c-9.191-1.989-16.53,3.665-22.135,10.282
							C85.937,98.348,86.44,99.168,87.002,98.779"/>
					</defs>
					<clipPath id="SVGID_28_">
						<use xlink:href="#SVGID_27_"  overflow="visible"/>
					</clipPath>
					
						<linearGradient id="SVGID_29_" gradientUnits="userSpaceOnUse" x1="0" y1="180.1074" x2="1" y2="180.1074" gradientTransform="matrix(8.0242 -16.3455 -16.3455 -8.0242 3045.1689 1550.822)">
						<stop  offset="0" style="stop-color:#4A6E8B"/>
						<stop  offset="3.786670e-004" style="stop-color:#4A6E8B"/>
						<stop  offset="0.3552" style="stop-color:#5B829D"/>
						<stop  offset="1" style="stop-color:#7299AE"/>
					</linearGradient>
					<polygon clip-path="url(#SVGID_28_)" fill="url(#SVGID_29_)" points="77.42,102.974 93.635,69.942 134.097,89.805 
						117.882,122.837 					"/>
				</g>
			</g>
		</g>
		<g opacity="0.68" clip-path="url(#SVGID_24_)">
			<g>
				<defs>
					<rect id="SVGID_30_" x="68.974" y="109.996" width="13.914" height="24.785"/>
				</defs>
				<clipPath id="SVGID_31_">
					<use xlink:href="#SVGID_30_"  overflow="visible"/>
				</clipPath>
				<g clip-path="url(#SVGID_31_)">
					<defs>
						<path id="SVGID_32_" d="M69.187,111.342c5.338,6.384,9.641,12.952,9.737,21.539c0.029,2.546,3.81,2.521,3.938,0
							c0.478-9.424-5.8-16.903-12.548-22.665C69.529,109.545,68.529,110.555,69.187,111.342"/>
					</defs>
					<clipPath id="SVGID_33_">
						<use xlink:href="#SVGID_32_"  overflow="visible"/>
					</clipPath>
					
						<linearGradient id="SVGID_34_" gradientUnits="userSpaceOnUse" x1="0" y1="179.9844" x2="1" y2="179.9844" gradientTransform="matrix(6.873 -14.0005 -14.0005 -6.873 2592.5769 1366.1018)">
						<stop  offset="0" style="stop-color:#4A6E8B"/>
						<stop  offset="3.786670e-004" style="stop-color:#4A6E8B"/>
						<stop  offset="0.3552" style="stop-color:#5B829D"/>
						<stop  offset="1" style="stop-color:#7299AE"/>
					</linearGradient>
					<polygon clip-path="url(#SVGID_33_)" fill="url(#SVGID_34_)" points="58.291,130.401 71.405,103.687 93.578,114.571 
						80.464,141.286 					"/>
				</g>
			</g>
		</g>
	</g>
	<g clip-path="url(#SVGID_2_)">
		<defs>
			<rect id="SVGID_35_" width="300" height="180"/>
		</defs>
		<clipPath id="SVGID_36_">
			<use xlink:href="#SVGID_35_"  overflow="visible"/>
		</clipPath>
		<g opacity="0.68" clip-path="url(#SVGID_36_)">
			<g>
				<defs>
					<rect id="SVGID_37_" x="75.699" y="107.593" width="8.466" height="16.753"/>
				</defs>
				<clipPath id="SVGID_38_">
					<use xlink:href="#SVGID_37_"  overflow="visible"/>
				</clipPath>
				<g clip-path="url(#SVGID_38_)">
					<defs>
						<path id="SVGID_39_" d="M75.784,108.367c3.374,4.572,5.27,9.827,6.572,15.308c0.281,1.182,1.993,0.666,1.793-0.494
							c-1.011-5.858-3.943-10.817-7.568-15.43C76.228,107.303,75.441,107.902,75.784,108.367"/>
					</defs>
					<clipPath id="SVGID_40_">
						<use xlink:href="#SVGID_39_"  overflow="visible"/>
					</clipPath>
					
						<linearGradient id="SVGID_41_" gradientUnits="userSpaceOnUse" x1="0" y1="179.9863" x2="1" y2="179.9863" gradientTransform="matrix(7.9156 0 0 -7.9156 75.8269 1540.7813)">
						<stop  offset="0" style="stop-color:#4A6E8B"/>
						<stop  offset="3.786670e-004" style="stop-color:#4A6E8B"/>
						<stop  offset="0.3552" style="stop-color:#5B829D"/>
						<stop  offset="1" style="stop-color:#7299AE"/>
					</linearGradient>
					<rect x="75.441" y="107.303" clip-path="url(#SVGID_40_)" fill="url(#SVGID_41_)" width="8.908" height="17.554"/>
				</g>
			</g>
		</g>
		<path clip-path="url(#SVGID_36_)" fill="#4F6C7D" d="M66.68,100.814c-0.437-1.51-0.732-3.138-0.266-4.639
			c0.455-1.467,1.604-2.646,2.935-3.41c1.914-1.101,4.602-1.31,6.141,0.273c0.664,0.683,1.022,1.597,1.387,2.477
			c1.632,3.938,3.719,7.686,6.205,11.147c-0.84-0.965-1.928-1.709-3.13-2.145c-0.396-0.143-0.83-0.253-1.234-0.132
			c-0.776,0.233-1.069,1.179-1.109,1.988c-0.118,2.392,0.893,4.678,1.883,6.857c-1.091-1.542-2.412-2.922-3.905-4.08
			c-0.367-0.283-0.778-0.566-1.242-0.565c-0.751,0.001-1.313,0.781-1.352,1.531s0.298,1.463,0.627,2.138
			C70.355,109.141,67.935,105.149,66.68,100.814"/>
		<path clip-path="url(#SVGID_36_)" fill="#DCA36A" d="M81.833,84.296c-1.7-0.922-3.918-0.147-5.235,1.269
			c-0.586,0.63-1.031,1.359-1.401,2.135c1.282-5.451-1.01-11.745-5.811-14.741c-2.897-1.807-6.365-2.44-9.762-2.793
			c-2.862-0.298-5.778-0.419-8.596,0.159c-3.591,0.738-6.875,2.587-9.768,4.838c-2.811,2.189-5.4,4.933-6.351,8.366
			c-1.069,3.862,0.1,8.021,1.964,11.568c2.21,4.207,5.385,7.846,9.069,10.863c-0.306,0.3-0.628,0.552-0.932,0.7
			c-0.922,0.45-2.055,0.335-2.944,0.846c-0.826,0.477-1.299,1.477-1.195,2.423c0.104,0.947,0.756,1.803,1.621,2.202
			c1.126,0.521,2.46,0.29,3.619-0.154c1.403-0.54,2.984-1.624,4.097-2.93c2.065,1.301,4.266,2.401,6.628,2.991
			c5.048,1.261,10.663-0.008,14.679-3.317c4.015-3.309,6.334-8.577,6.061-13.774c0.275,0.621,1.215,0.253,1.729-0.19
			c1.61-1.389,3.278-2.856,4.058-4.835C84.143,87.944,83.702,85.309,81.833,84.296"/>
	</g>
	<g clip-path="url(#SVGID_2_)">
		<defs>
			<path id="SVGID_42_" d="M51.027,70.325c-3.591,0.738-6.875,2.587-9.767,4.838c-2.812,2.189-5.4,4.933-6.352,8.366
				c-1.069,3.862,0.1,8.022,1.964,11.569c2.211,4.207,5.386,7.847,9.07,10.863c-0.307,0.3-0.628,0.552-0.933,0.7
				c-0.922,0.45-2.055,0.335-2.944,0.847c-0.825,0.476-1.299,1.476-1.194,2.422c0.104,0.947,0.756,1.802,1.621,2.202
				c1.126,0.522,2.459,0.29,3.618-0.155c1.404-0.538,2.985-1.623,4.098-2.929c2.065,1.301,4.265,2.401,6.627,2.991
				c5.049,1.261,10.664-0.008,14.679-3.317c4.016-3.31,6.334-8.578,6.062-13.774c0.274,0.621,1.214,0.253,1.728-0.19
				c1.611-1.388,3.278-2.856,4.059-4.834c0.78-1.979,0.339-4.614-1.53-5.627c-1.7-0.922-3.918-0.147-5.235,1.269
				c-0.587,0.63-1.031,1.36-1.401,2.135c1.281-5.452-1.01-11.745-5.812-14.741c-2.897-1.807-6.365-2.44-9.761-2.793
				c-1.4-0.146-2.813-0.249-4.221-0.249C53.932,69.917,52.467,70.029,51.027,70.325"/>
		</defs>
		<clipPath id="SVGID_43_">
			<use xlink:href="#SVGID_42_"  overflow="visible"/>
		</clipPath>
		<path clip-path="url(#SVGID_43_)" fill="#DCA36A" d="M34.671,79.769c-0.245,0.979-0.415,1.977-0.511,2.983
			c-0.111,1.178-0.118,2.369,0.022,3.545c0.358,2.994,1.656,5.793,3.119,8.429"/>
		<path clip-path="url(#SVGID_43_)" fill="#DCA36A" d="M44.839,104.65c-0.711-0.631-1.551-1.947-2.414-2.316
			c-1.341-0.576-2.613-0.025-3.746-1.242c2.015,1.025,3.975-1.128,4.077-3.023c0.201-3.764-3.894-4.662-6.625-3.475
			c-0.549,0.239-0.96-0.375-0.897-0.844c0.403-3,4.198-3.49,6.567-2.599c2.946,1.109,4.957,4.172,4.755,7.314
			c-0.455,7.092-10.224,9.499-13.572,3.053c-1.14-2.194,2.017-4.24,3.292-2.061c0.158,0.269,0.338,0.508,0.536,0.718"/>
		<path clip-path="url(#SVGID_43_)" fill="#DCA36A" d="M38.891,109.804c0.303,1.158,1.373,2.002,2.531,2.31
			c1.157,0.306,2.387,0.151,3.55-0.134c0.844-0.207,1.684-0.486,2.401-0.979c0.716-0.492,1.303-1.219,1.48-2.07"/>
		<path clip-path="url(#SVGID_43_)" fill="#DCA36A" d="M50.275,109.649c2.999,1.251,6.255,1.808,9.502,1.929
			c1.898,0.071,3.814-0.007,5.664-0.437c6.803-1.583,11.975-8.428,11.64-15.405"/>
		<path clip-path="url(#SVGID_43_)" fill="#DCA36A" d="M78.08,92.946c-0.059-0.426-0.119-0.852-0.178-1.277
			c-0.072-0.516-0.252-1.149-0.766-1.236c-0.16-0.027-0.332,0.009-0.484-0.051c-0.379-0.149-0.322-0.701-0.169-1.078
			c0.265-0.651,0.616-1.268,1.041-1.828c0.585-0.77,1.401-1.472,2.368-1.502c0.966-0.029,1.954,0.942,1.622,1.851
			c-0.736-0.721-2.136-0.54-2.664,0.344c-0.429,0.717-0.282,1.619-0.191,2.449C78.75,91.447,78.72,92.41,78.08,92.946"/>
		<path clip-path="url(#SVGID_43_)" fill="#DCA36A" d="M73.521,91.793c-1.777-3.692-0.584-8.025-2.393-11.724
			c-1.413-2.89-4.05-4.395-7.037-5.227c-2.97-1.529-6.283-2.652-9.173-2.455c-2.211,0.15-3.698,1.148-5.376,2.461
			c-1.101,0.862-1.994,1.998-3.276,2.612c-2.196,1.052-4.334,0.436-6.564-0.126c-2.557-0.644-3.402,3.136-0.957,3.932
			c4.581,1.492,8.037,1.216,11.795-1.854c1.036-0.847,1.962-2.227,3.251-2.661c2.289-0.77,4.7-0.127,6.882,0.542
			c1.587,0.486,3.111,0.985,4.673,1.364c1.467,1.752,2.632,3.566,3.226,6.117c0.683,2.936,1.163,5.773,3.04,8.214
			C72.501,94.147,74.149,93.101,73.521,91.793"/>
		<path clip-path="url(#SVGID_43_)" fill="#DCA36A" d="M67.55,86.595c-0.329-2.826-2.48-5.072-5.278-5.573
			c-2.74-0.492-5.906,0.581-7.443,2.994c-2.014,3.165,0.57,6.856,2.694,9.242c1.759,1.977,4.419-0.991,2.782-2.956
			c-0.83-0.996-2.954-3.345-1.799-4.555c0.853-0.893,2.317-1.192,3.484-0.863c3.067,0.866,1.746,3.998,1.368,6.123
			c-0.098,0.551,0.279,1.092,0.872,1.075C66.891,92.005,67.807,88.803,67.55,86.595"/>
	</g>
	<g clip-path="url(#SVGID_2_)">
		<defs>
			<rect id="SVGID_44_" width="300" height="180"/>
		</defs>
		<clipPath id="SVGID_45_">
			<use xlink:href="#SVGID_44_"  overflow="visible"/>
		</clipPath>
		<path clip-path="url(#SVGID_45_)" fill="#DCA36A" d="M42.449,99.862c-0.59,0.46-1.309,0.185-1.915-0.097
			c-0.951-0.442-1.191-1.356-1.477-2.289c-0.54-1.767-3.579-1.552-3.376,0.457c0.243,2.396,1.908,4.417,4.326,4.862
			c1.785,0.329,4.382-0.207,3.904-2.548C43.766,99.533,42.921,99.495,42.449,99.862"/>
		<path clip-path="url(#SVGID_45_)" fill="#FFFFFF" d="M41.764,91.731c-1.761-0.638-3.881,0.001-5.067,1.451
			c-1.186,1.449-1.408,3.594-0.627,5.295c0.545,1.188,1.545,2.137,2.728,2.69c0.514,0.241,4.968-0.551,5.476-1.457
			c0.314-0.561,0.527-1.189,0.632-1.815C45.316,95.427,44.118,92.584,41.764,91.731"/>
		<path clip-path="url(#SVGID_45_)" fill="#FFFFFF" d="M64.206,92.647c1.914-0.393,2.26-3.33,2.034-5.271
			c-0.227-1.941-1.575-3.749-3.427-4.371c-0.932-0.313-1.95-0.33-2.91-0.119c-0.935,0.205-1.829,0.627-2.542,1.265
			c-1.348,1.203-1.951,3.1-1.837,4.902c0.077,1.218,0.512,2.451,1.251,3.41C56.775,92.464,61.479,93.207,64.206,92.647"/>
		<path clip-path="url(#SVGID_45_)" d="M42.58,93.244c-0.664-0.285-1.48,0.19-1.737,0.866c-0.258,0.676-0.064,1.453,0.305,2.074
			c0.182,0.306,0.414,0.596,0.731,0.758c0.845,0.432,1.944-0.32,2.099-1.257c0.154-0.938-0.407-1.869-1.15-2.459"/>
		<path clip-path="url(#SVGID_45_)" d="M64.293,85.439c-0.059-0.641-0.947-0.939-1.501-0.611c-0.554,0.328-0.774,1.034-0.758,1.678
			c0.026,1.066,0.856,2.236,1.912,2.088c0.882-0.123,1.424-1.15,1.268-2.026c-0.157-0.875-0.83-1.576-1.578-2.058"/>
		<path clip-path="url(#SVGID_45_)" fill="#3B2C27" d="M55.526,109.727c1.656-0.201,3.362,0.131,4.989-0.236
			c1.874-0.424,3.463-1.767,4.441-3.421c0.978-1.653,1.389-3.593,1.462-5.513c0.881,1.421,1.417,3.054,1.549,4.72
			c0.09,1.132-0.024,2.337-0.668,3.272c-1.249,1.816-3.953,1.91-6.032,1.176c-0.131-0.046-0.308-0.081-0.382,0.037
			c-0.074,0.118,0.221,0.198,0.164,0.07"/>
	</g>
	<g clip-path="url(#SVGID_2_)">
		<defs>
			<path id="SVGID_46_" d="M50.554,66.762c-6.963,0.797-14.135-0.306-20.536-3.16c1.181,3.423,3.713,6.36,6.925,8.031
				c-3.953,0.543-8.125-0.787-11.035-3.518c1.538,3.528,4.417,6.453,7.92,8.046c-3.116,1.429-6.908,1.288-9.911-0.367
				c1.898,3.157,5.332,5.34,8.996,5.718c3.664,0.379,7.472-1.057,9.975-3.759c-0.467,2.068-1.47,4.088-3.59,4.101
				c2.823,1.804,5.572-0.168,8.263-2.163c2.691-1.994,5.346-4.524,8.691-4.714c4.072-0.232,7.516,3.112,11.552,3.701
				c0.433,0.063,0.899,0.105,1.234,0.386c0.327,0.275,0.454,0.715,0.55,1.13C70.7,85.014,70.186,90.849,74,94.001
				c0.075-3.351,0.299-6.557,3.133-8.968c5.117-4.354,3.197-13.833-2.206-17.826c-4.199-3.103-9.766-3.568-14.983-3.383
				c-5.218,0.185-10.518,0.897-15.605-0.275C46.06,65.167,48.238,66.293,50.554,66.762"/>
		</defs>
		<clipPath id="SVGID_47_">
			<use xlink:href="#SVGID_46_"  overflow="visible"/>
		</clipPath>
		
			<linearGradient id="SVGID_48_" gradientUnits="userSpaceOnUse" x1="0" y1="180" x2="1" y2="180" gradientTransform="matrix(56.0957 -1.7017 -1.7017 -56.0957 330.3456 10176.875)">
			<stop  offset="0" style="stop-color:#DA8D00"/>
			<stop  offset="3.786670e-004" style="stop-color:#DA8D00"/>
			<stop  offset="1" style="stop-color:#D16A18"/>
		</linearGradient>
		<polygon clip-path="url(#SVGID_47_)" fill="url(#SVGID_48_)" points="22.994,63.577 82.196,61.781 83.173,93.973 23.971,95.769 		
			"/>
	</g>
	<g clip-path="url(#SVGID_2_)">
		<defs>
			<rect id="SVGID_49_" width="300" height="180"/>
		</defs>
		<clipPath id="SVGID_50_">
			<use xlink:href="#SVGID_49_"  overflow="visible"/>
		</clipPath>
		<path clip-path="url(#SVGID_50_)" fill="#E5DBC6" d="M178.76,173.164c29.191,2.478,59.384,1.554,88.557-1.128
			c14.001-3.316-7.859-5.253-14.214-5.984c-24.848-2.863-54.713-2.186-79.688-0.83c-3.509,0.191-7.503,0.681-9.523,3.556
			c7.56,4.393,16.678,6.031,25.293,4.546"/>
		<path clip-path="url(#SVGID_50_)" fill="#3A2C27" d="M179.14,169.955c3.428,0.631,7.006,0.433,10.343-0.574
			c0.836-0.253,1.801-0.732,1.859-1.604c0.068-1.001-1.091-1.591-2.065-1.829c-1.904-0.465-3.878-0.638-5.833-0.513
			c-1.028-3.977-2.801-7.759-5.2-11.092c-1.982-0.963-4.396,0.901-4.851,3.058c-0.454,2.157,0.418,4.347,1.271,6.379l1.537,3.657
			c0.293,0.696,0.61,1.425,1.21,1.883C177.903,169.695,178.529,169.844,179.14,169.955"/>
	</g>
	<g clip-path="url(#SVGID_2_)">
		<defs>
			<path id="SVGID_51_" d="M173.392,157.401c-0.452,2.155,0.418,4.347,1.272,6.378l1.536,3.657c0.294,0.696,0.609,1.426,1.211,1.884
				c0.493,0.376,1.118,0.523,1.729,0.635c3.429,0.631,7.005,0.432,10.343-0.575c0.836-0.252,1.801-0.731,1.86-1.604
				c0.067-1.001-1.092-1.591-2.066-1.829c-1.903-0.464-3.878-0.639-5.834-0.514c-1.027-3.976-2.801-7.758-5.199-11.092
				c-0.368-0.179-0.751-0.26-1.133-0.26C175.432,154.082,173.762,155.645,173.392,157.401"/>
		</defs>
		<clipPath id="SVGID_52_">
			<use xlink:href="#SVGID_51_"  overflow="visible"/>
		</clipPath>
		<path clip-path="url(#SVGID_52_)" fill="#9D8B79" d="M173.313,152.148c-2.852,4.856-1.195,13.425,2.566,17.595
			c4.402,4.88,15.32,1.959,20.392-0.122c2.126-0.873,1.233-4.371-0.968-3.511c-4.701,1.836-10.55,3.546-15.352,1.431
			c-4.608-2.031-5.935-10.157-5.054-14.725C175.079,151.885,173.836,151.26,173.313,152.148"/>
	</g>
	<g clip-path="url(#SVGID_2_)">
		<defs>
			<rect id="SVGID_53_" width="300" height="180"/>
		</defs>
		<clipPath id="SVGID_54_">
			<use xlink:href="#SVGID_53_"  overflow="visible"/>
		</clipPath>
		<path clip-path="url(#SVGID_54_)" fill="#54433A" d="M203.262,100.832c11.341,1.387,22.592,3.513,33.656,6.358
			c2.157,0.556,4.356,1.159,6.183,2.435c1.567,1.095,2.771,2.622,3.979,4.104c5.715,7.018,12.036,13.541,18.869,19.476
			c0.349,0.302,0.723,0.646,0.774,1.104c0.042,0.365-0.134,0.716-0.308,1.04c-1.706,3.186-3.714,6.207-5.988,9.013
			c-8.43-7.182-15.061-16.219-22.942-23.998c-1.717-1.694-3.529-3.354-5.697-4.412c-2.13-1.04-4.506-1.452-6.854-1.78
			c-8.404-1.175-16.938-1.423-25.396-0.74c-3.236,8.895-4.308,18.568-3.097,27.956c0.171,1.321,0.38,2.7-0.068,3.954
			c-0.405,1.139-1.303,2.022-2.172,2.864c-3.778,3.658-7.557,7.317-11.336,10.977c-1.059,1.026-2.385,2.134-3.824,1.816
			c-1.299-0.286-2.097-1.717-2.062-3.046s0.714-2.554,1.475-3.645c2.4-3.439,5.86-6.311,7.015-10.344
			c0.611-2.141,0.505-4.41,0.394-6.633c-0.142-2.822-0.284-5.644-0.426-8.465c-0.067-1.337-0.135-2.683-0.46-3.98
			c-0.425-1.699-1.275-3.259-1.857-4.911c-1.823-5.17-0.807-11.246,2.601-15.54c3.406-4.295,9.092-6.667,14.542-6.066"/>
	</g>
	<g clip-path="url(#SVGID_2_)">
		<defs>
			<path id="SVGID_55_" d="M185.72,104.435c-3.406,4.296-4.423,10.371-2.6,15.54c0.583,1.653,1.432,3.212,1.856,4.912
				c0.325,1.297,0.394,2.645,0.462,3.98c0.141,2.822,0.282,5.643,0.425,8.465c0.111,2.222,0.218,4.494-0.395,6.633
				c-1.153,4.033-4.613,6.904-7.013,10.344c-0.761,1.091-1.44,2.315-1.476,3.645s0.764,2.76,2.062,3.046
				c1.439,0.317,2.765-0.791,3.825-1.816c3.779-3.658,7.557-7.317,11.336-10.977c0.868-0.842,1.765-1.725,2.172-2.864
				c0.448-1.254,0.238-2.634,0.068-3.955c-1.212-9.387-0.141-19.061,3.097-27.955c8.458-0.684,16.991-0.435,25.395,0.74
				c2.348,0.328,4.724,0.74,6.854,1.78c2.168,1.059,3.979,2.717,5.697,4.413c7.881,7.778,14.512,16.815,22.941,23.998
				c2.274-2.807,4.283-5.829,5.988-9.014c0.173-0.323,0.349-0.676,0.307-1.04c-0.052-0.458-0.426-0.803-0.772-1.105
				c-6.834-5.933-13.154-12.457-18.869-19.476c-1.208-1.482-2.412-3.01-3.98-4.104c-1.826-1.274-4.025-1.879-6.182-2.433
				c-11.066-2.848-22.317-4.974-33.658-6.36l-2.999-2.463c-0.56-0.062-1.122-0.092-1.684-0.092
				C193.669,98.277,188.778,100.582,185.72,104.435"/>
		</defs>
		<clipPath id="SVGID_56_">
			<use xlink:href="#SVGID_55_"  overflow="visible"/>
		</clipPath>
		<path clip-path="url(#SVGID_56_)" fill="#54433A" d="M251.221,132.897c-1.488-1.704-3.164-3.204-4.994-4.53
			c-0.699-0.506-1.511,0.494-0.841,1.049c1.638,1.355,3.134,2.851,4.531,4.451C250.6,134.649,251.91,133.688,251.221,132.897"/>
		<path clip-path="url(#SVGID_56_)" fill="#4B2D22" d="M266.57,144.467c-11.991-6.095-18.617-17.82-28.821-26.087
			c-10.577-8.57-25.117-9.765-38.035-6.591c-1.026,0.252-0.919,1.704,0.184,1.662c7.316-0.277,14.847-0.58,22.075,0.813
			c6.815,1.313,12.336,5.084,17.25,9.839c8.308,8.04,14.912,18.842,25.951,23.504C267.225,148.474,268.533,145.465,266.57,144.467"
			/>
		<path clip-path="url(#SVGID_56_)" fill="#4A312B" d="M204.686,99.289c-0.322-0.555-1.304-0.157-1.176,0.463
			c0.138,0.668-8.563,6.258-9.49,6.963c-3.703,2.815-7.725,4.479-11.902,6.421c-2.077,0.966-0.862,4.059,1.319,3.313
			c6.034-2.063,10.992-5.196,15.739-9.418C200.842,105.547,206.276,102.034,204.686,99.289"/>
		<path clip-path="url(#SVGID_56_)" fill="#4A312B" d="M197.882,139.044c-1.204,6.4-7.984,10.693-12.804,14.337
			c-5.729,4.332-11.667,8.287-17.685,12.198c-1.992,1.295,0.189,4.104,2.176,2.928c7.525-4.459,14.751-9.639,21.479-15.227
			c4.561-3.785,8.308-8.012,8.292-14.201C199.339,138.223,198.03,138.259,197.882,139.044"/>
		<path clip-path="url(#SVGID_56_)" fill="#4A312B" d="M190.655,117.983c-2.312,0.248-4.078,1.636-6.046,2.762
			c-2.677,1.529-5.482,2.749-8.345,3.885c-1.46,0.579-0.564,2.84,0.904,2.27c2.359-0.916,4.62-2.036,6.794-3.33
			c2.335-1.389,4.46-3.368,7.001-4.35C191.642,118.959,191.377,117.906,190.655,117.983"/>
	</g>
	<g clip-path="url(#SVGID_2_)">
		<defs>
			<rect id="SVGID_57_" width="300" height="180"/>
		</defs>
		<clipPath id="SVGID_58_">
			<use xlink:href="#SVGID_57_"  overflow="visible"/>
		</clipPath>
		<path clip-path="url(#SVGID_58_)" fill="#3B2C27" d="M270.592,114.922c1.305-0.222,2.481,0.791,3.31,1.823
			c3.822,4.757,4.75,11.668,2.318,17.266c-2.106,4.849-6.396,8.512-8.402,13.401c-0.234,0.572-0.444,1.17-0.844,1.643
			c-0.625,0.737-1.665,1.059-2.621,0.913c-1.428-0.217-2.582-1.379-3.129-2.716c-0.548-1.337-0.577-2.827-0.472-4.268
			c0.219-2.97,0.983-5.898,2.247-8.594c2.018-4.307,5.36-8.291,5.384-13.047c0.005-1.244-0.225-2.499-0.021-3.727
			C268.565,116.39,269.364,115.131,270.592,114.922"/>
	</g>
	<g clip-path="url(#SVGID_2_)">
		<defs>
			<path id="SVGID_59_" d="M270.591,114.922c-1.226,0.209-2.024,1.467-2.228,2.695c-0.204,1.228,0.024,2.482,0.02,3.727
				c-0.022,4.755-3.366,8.74-5.384,13.046c-1.263,2.696-2.029,5.625-2.246,8.595c-0.106,1.44-0.077,2.932,0.47,4.269
				c0.549,1.337,1.702,2.499,3.13,2.715c0.955,0.146,1.996-0.176,2.62-0.914c0.4-0.471,0.61-1.069,0.846-1.642
				c2.007-4.89,6.295-8.553,8.401-13.401c2.433-5.597,1.504-12.508-2.317-17.266c-0.751-0.936-1.787-1.854-2.946-1.854
				C270.836,114.891,270.714,114.901,270.591,114.922"/>
		</defs>
		<clipPath id="SVGID_60_">
			<use xlink:href="#SVGID_59_"  overflow="visible"/>
		</clipPath>
		<path clip-path="url(#SVGID_60_)" fill="#9C8C79" d="M266.578,136.889c1.382-2.12,3.134-4.029,4.109-6.364
			c1.432-3.425,1.013-7.33,0.228-10.958c-0.192-0.886-0.405-1.801-0.224-2.689c0.183-0.888,0.888-1.742,1.793-1.771
			c0.842-0.026,1.532,0.627,2.1,1.248c4.131,4.531,7.443,10.314,7.108,16.437c-0.394,7.206-5.606,13.109-10.536,18.378
			c-0.891,0.951-1.862,1.95-3.137,2.221c-1.774,0.376-3.595-0.877-4.374-2.517c-0.778-1.639-0.718-3.551-0.424-5.341
			C263.727,142.46,264.878,139.496,266.578,136.889"/>
	</g>
	<g clip-path="url(#SVGID_2_)">
		<defs>
			<path id="SVGID_61_" d="M270.692,116.877c-0.183,0.888,0.03,1.803,0.222,2.69c0.786,3.628,1.205,7.531-0.227,10.957
				c-0.976,2.336-2.728,4.244-4.109,6.363c-1.701,2.608-2.853,5.572-3.356,8.645c-0.219,1.333-0.308,2.731-0.019,4.036
				c0.355,0.198,0.742,0.338,1.149,0.399c0.955,0.146,1.996-0.176,2.62-0.914c0.4-0.471,0.61-1.069,0.846-1.642
				c2.007-4.89,6.295-8.553,8.401-13.401c2.433-5.597,1.504-12.508-2.317-17.266c-0.495-0.617-1.116-1.229-1.815-1.571
				C271.377,115.395,270.846,116.124,270.692,116.877"/>
		</defs>
		<clipPath id="SVGID_62_">
			<use xlink:href="#SVGID_61_"  overflow="visible"/>
		</clipPath>
		<path clip-path="url(#SVGID_62_)" fill="#9C8C79" d="M279.937,117.693c-0.355,0.061-0.708,0.13-1.063,0.196
			c-3.257,0.271-6.824,1.225-9.837,2.49c-0.993,0.305-1.981,0.619-2.967,0.944c-1.031,0.34-0.404,1.942,0.628,1.574
			c0.47-0.168,0.945-0.317,1.417-0.479c0.267,0.278,0.672,0.423,1.155,0.257c3.508-1.204,7.019-2.247,10.551-3.365
			c0.286-0.09,0.422-0.292,0.459-0.515C280.83,118.565,280.563,117.585,279.937,117.693"/>
	</g>
	<g clip-path="url(#SVGID_2_)">
		<defs>
			<rect id="SVGID_63_" width="300" height="180"/>
		</defs>
		<clipPath id="SVGID_64_">
			<use xlink:href="#SVGID_63_"  overflow="visible"/>
		</clipPath>
		<path clip-path="url(#SVGID_64_)" fill="#496449" d="M208.409,97.245c-6.491,5.958-13.751,11.076-21.543,15.188
			c-0.223,0.117-0.473,0.236-0.714,0.169c-0.232-0.064-0.383-0.28-0.514-0.482c-5.533-8.521-11.064-17.042-16.598-25.563
			c-2.763-4.256-5.529-8.516-8-12.948c-1.165-2.09-2.276-4.249-2.778-6.589c-0.503-2.339-0.341-4.907,0.915-6.944
			c2.276-3.693,7.526-4.561,11.619-3.124c4.093,1.436,7.295,4.612,10.349,7.692c5.042,5.084,10.083,10.169,15.125,15.253
			c4.59,4.628,9.226,9.315,12.586,14.9c0.208,0.346,0.417,0.721,0.397,1.123C209.227,96.457,208.806,96.881,208.409,97.245"/>
	</g>
	<g clip-path="url(#SVGID_2_)">
		<defs>
			<path id="SVGID_65_" d="M223.579,41.45c-16.204,5.19-32.407,10.379-48.611,15.57c-0.494-0.102-0.989-0.195-1.489-0.262
				c0.104,0.215,0.227,0.419,0.339,0.63c-0.465,0.149-0.931,0.298-1.395,0.446l4.076,3.695c0.011,0.014,0.022,0.028,0.032,0.043
				c0.224,0.633,0.646,1.152,1.178,1.557c1.252,1.637,2.503,3.274,3.508,5.048c9.567,8.276,19.637,17.261,25.985,25.646
				c1.174,1.552,2.311,3.158,3.044,4.96c1.334-0.702,2.443-1.822,3.131-3.162c-3.952-5.132-8.042-10.168-12.509-14.858
				c-5.297-5.563-11.396-11.533-17.512-16.969c0.563-0.135,1.12-0.294,1.675-0.449c15.451-4.331,31.646-5.74,46.916-10.669
				c-1.246-2.804-2.491-5.609-3.737-8.413c-0.619-1.392-1.513-2.991-3.033-3.105c-0.056-0.004-0.112-0.006-0.169-0.006
				C224.522,41.151,224.044,41.301,223.579,41.45"/>
		</defs>
		<clipPath id="SVGID_66_">
			<use xlink:href="#SVGID_65_"  overflow="visible"/>
		</clipPath>
		
			<linearGradient id="SVGID_67_" gradientUnits="userSpaceOnUse" x1="0" y1="179.9531" x2="1" y2="179.9531" gradientTransform="matrix(1.9916 -25.059 -25.059 -1.9916 4710.7876 439.0922)">
			<stop  offset="0" style="stop-color:#4A6E8B"/>
			<stop  offset="3.786670e-004" style="stop-color:#4A6E8B"/>
			<stop  offset="0.3552" style="stop-color:#5B829D"/>
			<stop  offset="1" style="stop-color:#7299AE"/>
		</linearGradient>
		<polygon clip-path="url(#SVGID_66_)" fill="url(#SVGID_67_)" points="167.871,98.42 172.797,36.45 236.498,41.513 
			231.573,103.483 		"/>
	</g>
	<g clip-path="url(#SVGID_2_)">
		<defs>
			<path id="SVGID_68_" d="M223.579,41.45c-16.204,5.19-32.407,10.379-48.611,15.57c-0.494-0.102-0.989-0.195-1.489-0.262
				c0.104,0.215,0.227,0.419,0.339,0.63c-0.465,0.149-0.931,0.298-1.395,0.446l4.076,3.695c0.011,0.014,0.022,0.028,0.032,0.043
				c0.224,0.633,0.646,1.152,1.178,1.557c1.252,1.637,2.503,3.274,3.508,5.048c9.567,8.276,19.637,17.261,25.985,25.646
				c1.174,1.552,2.311,3.158,3.044,4.96c1.334-0.702,2.443-1.822,3.131-3.162c-3.952-5.132-8.042-10.168-12.509-14.858
				c-5.297-5.563-11.397-11.533-17.512-16.969c0.563-0.135,1.12-0.294,1.675-0.449c15.451-4.331,31.646-5.74,46.916-10.669
				c-1.246-2.804-2.491-5.609-3.737-8.413c-0.619-1.392-1.513-2.991-3.033-3.105c-0.056-0.004-0.112-0.006-0.169-0.006
				C224.522,41.151,224.044,41.301,223.579,41.45"/>
		</defs>
		<clipPath id="SVGID_69_">
			<use xlink:href="#SVGID_68_"  overflow="visible"/>
		</clipPath>
		<path clip-path="url(#SVGID_69_)" fill="#658398" d="M188.012,67.621c-2.799-2.261-5.659-4.447-8.576-6.555
			c4.74,1.414,9.806,1.08,14.732,0.627l0.734,4.152"/>
	</g>
	<g clip-path="url(#SVGID_2_)">
		<defs>
			<rect id="SVGID_70_" width="300" height="180"/>
		</defs>
		<clipPath id="SVGID_71_">
			<use xlink:href="#SVGID_70_"  overflow="visible"/>
		</clipPath>
		<g clip-path="url(#SVGID_71_)">
			<defs>
				<rect id="SVGID_72_" x="221.892" y="22.274" width="19.064" height="30.68"/>
			</defs>
			<clipPath id="SVGID_73_">
				<use xlink:href="#SVGID_72_"  overflow="visible"/>
			</clipPath>
			<g clip-path="url(#SVGID_73_)">
				<defs>
					<rect id="SVGID_74_" x="221.892" y="22.274" width="19.064" height="30.68"/>
				</defs>
				<clipPath id="SVGID_75_">
					<use xlink:href="#SVGID_74_"  overflow="visible"/>
				</clipPath>
				<path clip-path="url(#SVGID_75_)" fill="#BA8C5E" d="M240.183,31.666c-2.16,2.062-3.331,5.108-3.14,8.091
					c0.089,1.361,0.443,2.754-0.031,4.026c-0.765,2.071-3.259,2.813-5.419,3.278c-0.246,0.053-0.528,0.122-0.831,0.218
					c-0.876-1.776-2.169-3.355-3.749-4.563c0.972-0.422,1.787-1.115,1.89-2.12c0.059-0.597-0.157-1.189-0.394-1.741
					c-0.921-2.073-2.321-3.929-3.24-5.99l2.189-0.77c0.267,0.699,0.7,1.33,1.336,1.737c-0.645-2.417-0.784-5.042,0.167-7.347
					c0.951-2.305,3.17-4.185,5.668-4.21c0.378-0.004,0.798,0.05,1.044,0.337c0.577,0.677-0.302,1.592-0.996,2.134
					c-2.43,1.903-3.629,5.254-2.955,8.272c0.338,0.214,0.611-0.37,0.631-0.774c0.204-3.945,4.146-7.273,8.07-6.815
					c-0.652,1.493-2.38,2.137-3.604,3.215c-1.694,1.508-2.34,4.069-1.575,6.209c1.064-2.192,2.874-4.014,5.055-5.098
					c0.418-0.084,0.741,0.458,0.639,0.885C240.844,31.052,240.487,31.355,240.183,31.666"/>
				<path clip-path="url(#SVGID_75_)" fill="#BA8C5E" d="M227.664,26.125c-0.201,1.367-0.566,2.715-0.552,4.096
					c0.007,0.628,0.117,1.282,0.346,1.873l-2.189,0.77c-0.134-0.287-0.254-0.588-0.363-0.89c-0.874-2.442-0.695-5.592,1.413-7.108
					c0.21-0.149,0.458-0.289,0.713-0.255C227.643,24.683,227.747,25.513,227.664,26.125"/>
				<path clip-path="url(#SVGID_75_)" fill="#BA8C5E" d="M227.013,42.716c1.579,1.208,2.873,2.787,3.749,4.563
					c-2.193,0.632-5.806,1.95-7.003,0.449c-0.789-0.994-1.587-2.075-1.764-3.325c1.019-0.905,2.516-1.008,3.841-1.305
					C226.229,43.017,226.631,42.897,227.013,42.716"/>
				<path clip-path="url(#SVGID_75_)" fill="#2D404D" d="M223.759,47.728c1.197,1.502,4.81,0.184,7.003-0.449
					c0.872,1.752,1.352,3.697,1.33,5.661c-1.708,0.126-3.391-0.542-4.784-1.545c-2.283-1.658-4.524-4.188-5.416-6.905
					c0.034-0.029,0.069-0.058,0.104-0.086C222.172,45.653,222.97,46.733,223.759,47.728"/>
				<path clip-path="url(#SVGID_75_)" fill="#2D404D" d="M225.806,41.919c0.417,0.243,0.824,0.512,1.207,0.797
					c-0.382,0.18-0.784,0.3-1.177,0.381c-1.325,0.298-2.822,0.401-3.841,1.306c-0.006-0.05-0.011-0.1-0.017-0.149
					c-0.144-1.304,0.707-2.807,2.017-2.901C224.632,41.307,225.254,41.59,225.806,41.919"/>
			</g>
		</g>
		<g clip-path="url(#SVGID_71_)">
			<g>
				<defs>
					<rect id="SVGID_76_" x="166.094" y="56.034" width="43.764" height="42.833"/>
				</defs>
				<clipPath id="SVGID_77_">
					<use xlink:href="#SVGID_76_"  overflow="visible"/>
				</clipPath>
				<path clip-path="url(#SVGID_77_)" fill="#ACB0D6" d="M167.676,58.113c13.065,13.198,26.509,25.727,38.473,39.99
					c1.884,2.245,4.939-0.952,3.183-3.183c-11.517-14.629-24.858-27.969-40.19-38.574c-1.838-1.271-4.194,1.72-2.414,3.129
					c14.538,11.505,27.927,24.035,39.422,38.628c1.061-1.061,2.122-2.122,3.183-3.183c-11.875-14.149-24.98-28.103-40.207-38.684
					C167.988,55.447,166.741,57.169,167.676,58.113"/>
			</g>
		</g>
		<path clip-path="url(#SVGID_71_)" fill="#BA8C5E" d="M234.841,39.755c-0.099-0.219-0.207-0.444-0.392-0.597
			c-0.188-0.156-0.433-0.221-0.671-0.262c-1.354-0.23-2.806,0.216-3.796,1.168c-0.192,0.185-0.383,0.397-0.641,0.468
			c-0.421,0.115-0.833-0.183-1.169-0.462c-0.964-0.804-1.929-1.608-2.893-2.411c-0.507-0.422-1.044-0.859-1.693-0.972
			c-0.649-0.113-1.428,0.235-1.544,0.883c-0.112,0.629,0.405,1.177,0.883,1.6c1.935,1.711,3.95,3.329,6.039,4.847
			c0.843,0.612,1.719,1.219,2.723,1.502c1.003,0.283,2.17,0.191,2.962-0.486c0.721-0.615,1.021-1.619,0.976-2.565
			C235.579,41.522,235.231,40.618,234.841,39.755"/>
	</g>
	<g clip-path="url(#SVGID_2_)">
		<defs>
			<path id="SVGID_78_" d="M155.076,70.087c-0.804,2.548-1.435,5.269-0.846,7.876c0.752,3.322,3.32,5.869,5.628,8.375
				c9.444,10.262,16.173,23,19.322,36.586c4.036-1.532,8.07-3.063,12.106-4.597c-2.846-7.125-6.599-13.85-10.438-20.492
				c-2.621-4.533-5.302-9.031-8.015-13.509c15.688,3.662,31.694,6.154,47.719,5.071l-0.387-12.847
				c-18.301,0.781-36.69-0.609-54.669-4.115c-2.078-3.297-4.174-6.581-6.302-9.845C157.083,64.555,155.945,67.336,155.076,70.087"/>
		</defs>
		<clipPath id="SVGID_79_">
			<use xlink:href="#SVGID_78_"  overflow="visible"/>
		</clipPath>
		
			<linearGradient id="SVGID_80_" gradientUnits="userSpaceOnUse" x1="0" y1="179.7168" x2="1" y2="179.7168" gradientTransform="matrix(16.2415 -22.1212 -22.1212 -16.2415 4154.2637 3023.0505)">
			<stop  offset="0" style="stop-color:#4A6E8B"/>
			<stop  offset="3.786670e-004" style="stop-color:#4A6E8B"/>
			<stop  offset="0.3552" style="stop-color:#5B829D"/>
			<stop  offset="1" style="stop-color:#7299AE"/>
		</linearGradient>
		<polygon clip-path="url(#SVGID_79_)" fill="url(#SVGID_80_)" points="124.86,101.792 177.078,30.67 249.335,83.722 
			197.117,154.844 		"/>
		<path clip-path="url(#SVGID_79_)" fill="#517185" d="M157.358,78.715c6.876,4.032,14.363,7.02,22.127,8.828
			C173.257,82.545,164.385,82.508,157.358,78.715"/>
	</g>
	<g clip-path="url(#SVGID_2_)">
		<defs>
			<rect id="SVGID_81_" width="300" height="180"/>
		</defs>
		<clipPath id="SVGID_82_">
			<use xlink:href="#SVGID_81_"  overflow="visible"/>
		</clipPath>
		<path clip-path="url(#SVGID_82_)" fill="#2D404D" d="M216.916,88.282c-1.902-2.559-3.792-5.276-4.359-8.413
			c-0.166-0.92-0.189-1.947,0.363-2.699c0.355-0.484,0.903-0.787,1.456-1.021c1.138-0.483,2.4-0.736,3.62-0.53
			c2.291,0.388,4.074,2.381,4.762,4.601c0.687,2.219,0.443,4.624-0.082,6.888c-0.184,0.795-0.41,1.6-0.882,2.266
			s-1.238,1.175-2.053,1.138c-0.833-0.037-1.538-0.613-2.12-1.21c-1.358-1.396-2.422-3.076-3.104-4.9"/>
		<path clip-path="url(#SVGID_82_)" fill="#BA8C5E" d="M224.91,73.382c-0.821-2.218-3.037-3.573-4.422-5.49
			c-1.204-1.667-1.756-3.793-1.515-5.835c0.108-0.914,0.203-2.135-0.659-2.454c-0.87-0.322-1.617,0.718-1.863,1.613
			c-0.967,3.505,0.231,7.514,2.965,9.912c-2.729-2.118-4.791-5.083-5.827-8.379c-0.252-0.803-0.666-1.803-1.507-1.794
			c-0.873,0.009-1.257,1.112-1.265,1.985c-0.035,3.808,2.376,7.185,4.962,9.981c-2.394-1.779-4.411-4.058-5.889-6.648
			c-0.279-0.491-0.612-1.048-1.17-1.148c-0.591-0.106-1.156,0.408-1.305,0.991c-0.148,0.582,0.017,1.197,0.229,1.76
			c1.248,3.346,3.993,5.882,6.748,8.156c-2.331-1.678-4.662-3.355-6.993-5.033c-1.073,1.81,0.401,4.049,1.934,5.491
			c3.116,2.934,6.825,5.235,10.837,6.724c1.109,0.411,2.334,0.762,3.456,0.388c0.926-0.309,1.624-1.061,2.279-1.785
			c1.179-1.302,2.394-2.665,2.895-4.349c1.05-3.53-1.218-7.777,0.84-10.832c0.169-0.25,0.369-0.57,0.209-0.826
			c-0.114-0.183-0.361-0.225-0.578-0.23c-1.472-0.029-2.911,0.934-3.446,2.305C225.145,69.632,225.856,71.764,224.91,73.382"/>
		<path clip-path="url(#SVGID_82_)" fill="#4F6C7D" d="M167.031,56.453l3.597,0.058c0.062-0.2,0.136-0.419,0.318-0.522
			c0.287-0.164,0.636,0.053,0.894,0.26c1.442,1.159,2.32,0.597,3.717,1.618c1.447,0.32,2.868,0.761,4.233,1.337
			c-2.437-2.079-5.074-4.023-8.114-5.032c-3.04-1.008-6.562-0.97-9.267,0.746"/>
		<path clip-path="url(#SVGID_82_)" fill="#4F6C7D" d="M175.475,57.123c-1.397-1.021-2.275-0.459-3.717-1.618
			c-0.259-0.207-0.607-0.424-0.895-0.26c-0.181,0.104-0.257,0.322-0.317,0.522l-3.598-0.058c4.183,3.82,9.153,8.043,14.269,12.468
			c-2.256-3.982-5.742-7.272-7.737-11.419C174.149,56.849,174.814,56.977,175.475,57.123"/>
		<path clip-path="url(#SVGID_82_)" fill="#4F6C7D" d="M154.795,60.714c1.17-1.511,2.457-2.931,3.845-4.245
			c0.289-0.273,0.617-0.557,1.014-0.576c0.367-0.017,0.702,0.199,0.986,0.433c1.017,0.839,1.739,2.028,2.016,3.317
			c0.166,0.777,0.175,1.577,0.218,2.371c0.166,3.081,0.868,6.133,2.068,8.977c-1.175-1.377-2.515-2.614-3.98-3.676
			c-0.726-0.525-1.883-0.943-2.385-0.202c-0.356,0.525-0.048,1.249,0.372,1.724c0.422,0.475,0.967,0.882,1.16,1.486
			c-2.024-0.494-3.907-1.559-5.375-3.039c-0.726-0.733-1.374-1.617-1.504-2.64C153.047,63.206,153.907,61.859,154.795,60.714"/>
		<path clip-path="url(#SVGID_82_)" fill="#BA8C5E" d="M172.674,22.884c0.176-1.046,0.073-2.121-0.133-3.161
			c-0.322-1.626-1.051-3.374-2.58-4.012c-1.044-0.435-2.331-0.215-3.171,0.543c-1.557,1.405-1.254,3.896-2.007,5.853
			c-0.087,0.226-0.199,0.439-0.317,0.648c-1.487-1.247-3.019-2.444-4.592-3.58c-1.916-1.382-3.99-2.717-6.338-2.994
			c-1.571-0.186-3.161,0.121-4.688,0.544c-4.374,1.214-8.47,3.416-11.896,6.393c-1.749,1.52-3.368,3.312-4.089,5.514
			c-0.672,2.055-0.504,4.276-0.329,6.431c0.137,1.69,0.292,3.441,1.123,4.919c0.623,1.11,1.574,1.968,2.608,2.728
			c-0.061,0.131-0.079,0.28-0.006,0.456c1.08,0.543,2.15,1.107,3.209,1.689c1.79,1.162,3.605,2.289,5.494,3.265
			c5.39,3.425,10.461,7.353,15.104,11.738c1.235,1.167,2.509,2.406,4.139,2.893c1.628,0.487,3.716-0.085,4.315-1.675
			c0.435-1.149-0.015-2.436-0.581-3.526c-1.286-2.477-3.179-4.566-5.381-6.296c3.278-0.428,6.484-1.389,9.428-2.895
			c0.373-0.191,0.763-0.409,0.966-0.775c0.224-0.401,0.177-0.892,0.122-1.348c-0.557-4.758-1.113-9.516-1.672-14.273
			c0.595-0.216,1.188-0.431,1.782-0.647c-1.293-1.156-2.407-2.507-3.316-3.984C171.28,26.215,172.377,24.654,172.674,22.884"/>
	</g>
	<g clip-path="url(#SVGID_2_)">
		<defs>
			<path id="SVGID_83_" d="M166.79,16.254c-1.556,1.405-1.254,3.896-2.006,5.854c-0.088,0.225-0.2,0.438-0.318,0.648
				c-1.488-1.248-3.018-2.445-4.593-3.581c-1.915-1.382-3.989-2.717-6.336-2.994c-1.573-0.185-3.162,0.121-4.689,0.545
				c-4.374,1.214-8.47,3.415-11.896,6.392c-1.749,1.52-3.368,3.312-4.088,5.515c-0.672,2.053-0.505,4.276-0.329,6.43
				c0.137,1.69,0.291,3.441,1.122,4.919c0.624,1.11,1.574,1.968,2.609,2.728c-0.062,0.132-0.08,0.28-0.007,0.456
				c1.08,0.543,2.15,1.107,3.209,1.689c1.791,1.162,3.605,2.289,5.494,3.265c5.39,3.426,10.462,7.353,15.105,11.738
				c1.234,1.167,2.509,2.407,4.137,2.894c1.628,0.486,3.717-0.086,4.317-1.675c0.433-1.15-0.016-2.437-0.581-3.527
				c-1.287-2.477-3.181-4.566-5.382-6.296c3.278-0.427,6.483-1.389,9.428-2.894c0.374-0.192,0.763-0.41,0.967-0.776
				c0.222-0.401,0.175-0.892,0.122-1.347c-0.559-4.759-1.115-9.516-1.672-14.274c0.594-0.216,1.188-0.431,1.781-0.647
				c-1.293-1.156-2.406-2.507-3.316-3.984c1.413-1.117,2.508-2.678,2.806-4.448c0.176-1.045,0.073-2.121-0.133-3.161
				c-0.322-1.626-1.051-3.374-2.581-4.012c-0.357-0.149-0.743-0.221-1.13-0.221C168.087,15.49,167.342,15.756,166.79,16.254"/>
		</defs>
		<clipPath id="SVGID_84_">
			<use xlink:href="#SVGID_83_"  overflow="visible"/>
		</clipPath>
		<path clip-path="url(#SVGID_84_)" fill="#A9784C" d="M136.466,45.565c9.788,6.693,20.042,12.163,29.239,19.762
			c1.732,1.432,4.229-0.962,2.508-2.508c-8.902-7.997-20.042-14.299-31.097-18.796C136.182,43.644,135.727,45.061,136.466,45.565"/>
		<path clip-path="url(#SVGID_84_)" fill="#A9784C" d="M171.861,21.032c0.086-0.699,0.083-1.425-0.161-2.085
			c-0.167-0.455-0.442-0.861-0.714-1.262c-0.518-0.762-1.102-1.517-1.534-2.321c3.212-1.174,5.634,5.398,4.932,7.781
			c-0.864,2.939-5.229,5.286-8.127,4.984C169.193,26.84,171.461,24.303,171.861,21.032"/>
		<path clip-path="url(#SVGID_84_)" fill="#A9784C" d="M158.761,29.674c-0.21-0.182-0.321-0.457-0.359-0.732
			c-0.109-0.773,0.311-1.548,0.908-2.053c0.596-0.504,1.347-0.783,2.092-1.018c0.721-0.229,1.457-0.427,2.211-0.473
			c-1.277,0.3-2.401,1.194-2.981,2.37c-0.136,0.276-0.244,0.581-0.208,0.886c0.098,0.786,1.03,1.125,1.804,1.298
			c-0.945,0.28-1.972,0.277-2.914-0.008C159.114,29.884,158.916,29.809,158.761,29.674"/>
		<path clip-path="url(#SVGID_84_)" fill="#A9784C" d="M174.097,48.63c0.197-0.525,0.149-1.106,0.093-1.663
			c-0.499-4.908-1.494-9.765-2.968-14.473c0.438,3.811,0.567,7.658,0.388,11.49c-0.044,0.954-0.125,1.96-0.664,2.748
			c-0.446,0.653-1.154,1.076-1.863,1.427c-5.965,2.959-13.07,2.178-19.565,0.708c6.876,2.609,14.519,3.164,21.701,1.577
			C172.375,50.188,173.681,49.74,174.097,48.63"/>
		<path clip-path="url(#SVGID_84_)" fill="#A9784C" d="M145.936,41.255c0.194-0.964,0.73-1.825,1.012-2.767
			c0.281-0.942,0.235-2.109-0.529-2.728c0.193,0.839-0.26,1.687-0.779,2.373c-0.52,0.686-1.139,1.339-1.363,2.17
			c-0.225,0.833-0.006,1.745,0.463,2.469c0.468,0.725,1.165,1.277,1.915,1.703C145.98,43.565,145.712,42.365,145.936,41.255"/>
	</g>
	<g clip-path="url(#SVGID_2_)">
		<defs>
			<rect id="SVGID_85_" width="300" height="180"/>
		</defs>
		<clipPath id="SVGID_86_">
			<use xlink:href="#SVGID_85_"  overflow="visible"/>
		</clipPath>
		<path clip-path="url(#SVGID_86_)" fill="#A9784C" d="M139.291,44.941c-0.926-0.466-0.809-1.821-0.458-2.796
			c1.888-5.248,7.242-11.95,12.057-14.765c4.815-2.814,8.756-2.59,13.578-5.392c-0.124,2.272-3.704,3.184-6.294,4.335
			c-2.111,0.938-4.357,2.899-6.255,4.218c-4.236,2.945-8.647,6.091-10.906,10.729C140.42,42.486,139.99,43.783,139.291,44.941"/>
		<path clip-path="url(#SVGID_86_)" fill="#3B2C27" d="M165.665,27.165c0.087-0.223,0.175-0.445,0.262-0.668
			c-0.505-0.397-1.231,0.044-1.669,0.514c-0.697,0.75-1.267,1.62-1.674,2.56c1.32-0.611,2.417-1.698,3.039-3.014"/>
		<path clip-path="url(#SVGID_86_)" fill="#3B2C27" d="M168.837,32.942c-0.577,0.368-1.174,0.697-1.769,1.032
			c0.274,1.082,0.32,2.22-0.448,2.952c-0.407,0.386-0.965,0.562-1.5,0.726c-4.71,1.441-9.612,2.898-14.485,2.183
			c-0.241-0.036-0.475-0.104-0.713-0.15c-1.121,0.196-2.244,0.375-3.368,0.53c3.316,2.157,6.867,3.953,10.57,5.346
			c1.479,0.557,3.033,1.056,4.611,0.941c1.294-0.094,2.522-0.596,3.695-1.151c1.617-0.767,3.338-1.846,3.733-3.591
			c0.343-1.517-0.429-3.029-0.933-4.501C167.728,35.789,167.604,33.89,168.837,32.942"/>
		<path clip-path="url(#SVGID_86_)" fill="#FAF1D7" d="M165.12,37.652c0.536-0.164,1.093-0.34,1.499-0.726
			c0.77-0.732,0.724-1.87,0.45-2.952c-5.261,2.963-11.157,4.667-17.147,5.711c0.238,0.046,0.472,0.114,0.713,0.15
			C155.508,40.55,160.41,39.094,165.12,37.652"/>
		<path clip-path="url(#SVGID_86_)" fill="#41362C" d="M126.891,38.156c-1.045-0.905-2.41-1.431-3.792-1.461
			c0.897,1.641,2.234,3.04,3.834,4.009c-1.328-0.123-2.69,0.691-3.209,1.919c1.383,0.357,2.832,0.457,4.251,0.293
			c0.051,1.06-1.88,1.059-2.2,2.071c-0.235,0.742,0.63,1.413,1.408,1.439c0.778,0.026,1.528-0.314,2.306-0.324
			c0.535-0.007,1.069,0.142,1.6,0.079c0.857-0.103,1.547-0.731,2.141-1.358c6.821-7.2,9.093-17.897,16.21-24.805
			c1.555-1.509,3.319-2.811,4.708-4.474c1.39-1.663,2.396-3.82,2.049-5.959c-0.348-2.139-2.435-4.048-4.559-3.619
			c1.271,0.546,2.176,1.86,2.231,3.243c0.055,1.382-0.74,2.764-1.964,3.411c0.355-1.113,0.603-2.397-0.005-3.394
			c-0.609-0.997-2.416-1.169-2.806-0.068c-0.387,1.087,0.726,2.681-0.273,3.26c-0.018-2.042-1.288-4.021-3.136-4.889
			c1.67,2.452,0.325,6.352-2.502,7.253c0.748-1.505,1.273-3.763-0.238-4.5c-1.439-0.701-2.919,0.965-3.394,2.494
			c-0.475,1.528-0.794,3.396-2.252,4.055c0.352-1.006,0.443-2.102,0.261-3.152c-0.082-0.478-0.297-1.023-0.769-1.131
			c-0.541-0.125-0.992,0.401-1.289,0.87c-1.497,2.366-2.738,4.894-3.695,7.526c0.374-0.797,0.757-1.661,0.598-2.527
			c-0.158-0.866-1.13-1.625-1.915-1.227c-0.297,0.15-0.505,0.428-0.694,0.702c-1.705,2.478-2.695,5.443-2.821,8.449
			c0.517-2.787,0.377-5.694-0.404-8.419c-4.292,4.665-4.081,12.754,0.449,17.189l-3.693-3.633L126.891,38.156z"/>
	</g>
	<g clip-path="url(#SVGID_2_)">
		<defs>
			<path id="SVGID_87_" d="M151.639,5.965c1.271,0.547,2.176,1.861,2.23,3.243c0.056,1.383-0.739,2.765-1.963,3.412
				c0.355-1.113,0.603-2.397-0.005-3.394c-0.609-0.998-2.416-1.169-2.806-0.068c-0.387,1.087,0.726,2.682-0.273,3.26
				c-0.018-2.042-1.288-4.022-3.136-4.889c1.67,2.452,0.325,6.352-2.502,7.253c0.748-1.505,1.273-3.764-0.238-4.5
				c-1.439-0.701-2.92,0.965-3.394,2.493c-0.475,1.529-0.794,3.396-2.253,4.056c0.353-1.006,0.444-2.102,0.262-3.153
				c-0.082-0.477-0.298-1.022-0.769-1.13c-0.541-0.125-0.992,0.401-1.289,0.869c-1.227,1.94-2.282,3.989-3.149,6.113
				c0.089-0.367,0.121-0.74,0.052-1.113c-0.158-0.866-1.129-1.626-1.915-1.228c-0.297,0.15-0.505,0.429-0.694,0.702
				c-1.251,1.819-2.118,3.9-2.539,6.066c0.105-2.031-0.125-4.08-0.686-6.035c-4.292,4.664-4.081,12.754,0.449,17.189l-3.693-3.633
				l3.563,6.678c-1.045-0.905-2.41-1.431-3.792-1.462c0.897,1.642,2.234,3.04,3.833,4.009c-1.327-0.123-2.689,0.692-3.208,1.919
				c1.383,0.358,2.832,0.457,4.252,0.294c0.05,1.059-1.882,1.059-2.201,2.071c-0.235,0.741,0.63,1.413,1.408,1.439
				c0.777,0.026,1.528-0.314,2.306-0.324c0.227-0.003,0.454,0.022,0.68,0.047c0.308,0.035,0.614,0.069,0.92,0.032
				c0.857-0.103,1.547-0.732,2.141-1.358c6.821-7.2,9.092-17.898,16.21-24.805c1.555-1.51,3.319-2.812,4.708-4.474
				c1.389-1.663,2.395-3.821,2.049-5.96c-0.314-1.934-2.05-3.679-3.95-3.679C152.046,5.905,151.843,5.924,151.639,5.965"/>
		</defs>
		<clipPath id="SVGID_88_">
			<use xlink:href="#SVGID_87_"  overflow="visible"/>
		</clipPath>
		<path clip-path="url(#SVGID_88_)" fill="#1E1915" d="M137.752,19.796c-0.051,1.402,0.03,2.808,0.24,4.194
			c1.024-2.051,2.048-4.103,3.072-6.155c-0.131,1.119-0.262,2.238-0.392,3.358c2.004-2.074,4.437-3.733,7.101-4.841
			c-0.464,0.584-0.927,1.168-1.39,1.752c2.512-0.583,4.847-1.903,6.642-3.754c0.233,2.389-1.601,4.436-3.354,6.076
			c-2.861,2.675-5.881,5.207-8.376,8.226c-2.494,3.02-4.468,6.623-4.806,10.525c-0.078,0.902-0.069,1.817-0.268,2.7
			c-0.486,2.151-2.172,3.875-4.108,4.93c-1.936,1.055-4.124,1.539-6.278,2.01c-4.905-3.37-7.528-9.765-6.402-15.609
			c1.437,0.742,2.832,1.565,4.176,2.464c-0.629-1.912-1.258-3.824-1.888-5.736c1.932,2.065,2.113,1.622,4.465,3.191
			c-9.443-7.108-1.715-15.491,0.488-15.985c-3.818,10.834,1.331,14.075,3.395,15.932c-1.032-2.521-1.297-5.336-0.727-7.698
			c0.105,1.402,1.809,4.268,2.747,5.315c-0.64-2.087-0.167-4.351,0.538-6.418c0.704-2.066,1.643-4.077,1.956-6.237
			c0.287,2.626,0.206,5.291-0.24,7.895C135.329,23.807,136.469,21.755,137.752,19.796"/>
	</g>
	<g clip-path="url(#SVGID_2_)">
		<defs>
			<rect id="SVGID_89_" width="300" height="180"/>
		</defs>
		<clipPath id="SVGID_90_">
			<use xlink:href="#SVGID_89_"  overflow="visible"/>
		</clipPath>
		<path clip-path="url(#SVGID_90_)" fill="#FAF1D7" d="M137.278,46.621c-0.136,0.827-0.875,1.476-1.695,1.652
			c-0.819,0.176-1.687-0.065-2.4-0.505c-0.774-0.479-1.419-1.235-1.571-2.132c-0.18-1.062,0.387-2.173,1.276-2.78
			s2.046-0.746,3.099-0.523c1.156,0.245,2.3,1.03,2.532,2.189c0.218,1.089-0.54,2.282-1.62,2.547"/>
		<path clip-path="url(#SVGID_90_)" fill="#FAF1D7" d="M162.816,21.618c0.408-0.132,0.773-0.395,1.028-0.74
			c-1.216-2.434-3.843-4.096-6.563-4.152c0.465-0.134,0.433-0.886,0.036-1.164c-0.397-0.277-0.932-0.216-1.408-0.13
			c-6.253,1.133-12.023,4.741-15.779,9.867c-3.757,5.126-5.459,11.715-4.656,18.019c0.119,0.932,0.702,2.139,1.603,1.87
			c0.416-0.124,0.666-0.536,0.882-0.912c5.076-8.85,13.237-15.89,22.735-19.615c1.607-0.63,3.456-1.368,3.998-3.008
			C164.146,21.278,163.376,21.263,162.816,21.618"/>
	</g>
	<g clip-path="url(#SVGID_2_)">
		<defs>
			<path id="SVGID_91_" d="M155.91,15.432c-6.254,1.133-12.023,4.742-15.779,9.867c-3.757,5.126-5.46,11.714-4.657,18.019
				c0.119,0.932,0.703,2.139,1.604,1.871c0.416-0.124,0.665-0.536,0.882-0.914c5.076-8.848,13.236-15.889,22.735-19.613
				c1.606-0.631,3.456-1.368,3.998-3.009c-0.422-0.29-0.979-0.364-1.467-0.22c0.24-0.141,0.452-0.331,0.617-0.555
				c-1.215-2.434-3.842-4.096-6.563-4.152c0.466-0.134,0.434-0.886,0.037-1.163c-0.22-0.153-0.479-0.203-0.748-0.203
				C156.35,15.36,156.124,15.393,155.91,15.432"/>
		</defs>
		<clipPath id="SVGID_92_">
			<use xlink:href="#SVGID_91_"  overflow="visible"/>
		</clipPath>
		<path clip-path="url(#SVGID_92_)" fill="#E4D7BA" d="M136.048,36.64c-0.358,1.363-0.716,2.727-1.073,4.09
			c-0.324,1.233-0.649,2.524-0.371,3.769c0.278,1.244,1.369,2.407,2.64,2.306c1.75-0.14,2.463-2.237,3.215-3.824
			c0.754-1.587,1.91-2.944,3.085-4.251c4.203-4.675,8.814-8.983,13.764-12.858c-6.978,3.126-13.303,7.693-18.467,13.329
			c0.969-3.621,2.965-6.867,4.936-10.056c-2.981,2.015-4.616,5.45-6.115,8.721c-0.021-2.829,0.945-5.562,1.899-8.226
			C137.506,31.324,136.722,34.069,136.048,36.64"/>
	</g>
	<g clip-path="url(#SVGID_2_)">
		<defs>
			<rect id="SVGID_93_" width="300" height="180"/>
		</defs>
		<clipPath id="SVGID_94_">
			<use xlink:href="#SVGID_93_"  overflow="visible"/>
		</clipPath>
		<path clip-path="url(#SVGID_94_)" fill="#FAF1D7" d="M144.446,55.364c-1.041,0.929-2.082,1.858-3.123,2.787
			c-2.732-2.452-5.164-5.572-5.547-9.223c-0.513,4.339,0.823,8.867,3.61,12.232c-1.824,0.679-3.599,1.492-5.306,2.429
			c-1.492-2.796-2.422-5.934-2.361-9.102c0.06-3.169,1.162-6.361,3.314-8.687c0.257-0.278,0.556-0.557,0.931-0.608
			C138.165,49.045,141.051,52.506,144.446,55.364"/>
	</g>
	<g clip-path="url(#SVGID_2_)">
		<defs>
			<path id="SVGID_95_" d="M135.032,45.8c-2.152,2.326-3.253,5.518-3.313,8.686c-0.061,3.169,0.869,6.307,2.361,9.103
				c1.707-0.937,3.481-1.75,5.307-2.429c-2.788-3.366-4.124-7.893-3.611-12.232c0.382,3.651,2.815,6.77,5.547,9.223
				c1.042-0.929,2.082-1.858,3.123-2.788c-3.394-2.858-6.281-6.318-8.482-10.171C135.589,45.242,135.29,45.522,135.032,45.8"/>
		</defs>
		<clipPath id="SVGID_96_">
			<use xlink:href="#SVGID_95_"  overflow="visible"/>
		</clipPath>
		<path clip-path="url(#SVGID_96_)" fill="#E4D7BA" d="M138.312,48.893c-0.202-0.705-0.392-1.473-0.954-1.944
			c-1.154-0.969-3.225-0.176-4.216-1.311c-1.719,3.94-1.539,8.659,0.476,12.456c-0.051-2.396,0.193-4.798,0.725-7.134
			c-0.064,4.245,1.522,8.494,4.352,11.659c0.754-0.826,0.116-2.113-0.398-3.107c-1.264-2.443-1.606-5.243-1.927-7.975
			c0.383,1.943,1.206,3.798,2.389,5.386c0.465,0.624,1.008,1.225,1.723,1.533c0.714,0.308,1.634,0.251,2.167-0.315
			c-2.362-1.316-4.13-3.655-4.754-6.286c0.849,1.292,2.045,2.353,3.429,3.041C139.959,53.104,138.932,51.057,138.312,48.893"/>
	</g>
	<g clip-path="url(#SVGID_2_)">
		<defs>
			<rect id="SVGID_97_" width="300" height="180"/>
		</defs>
		<clipPath id="SVGID_98_">
			<use xlink:href="#SVGID_97_"  overflow="visible"/>
		</clipPath>
		<path clip-path="url(#SVGID_98_)" fill="#BA8C5E" d="M141.448,44.598c-0.735,0.159-1.47,0.319-2.205,0.478
			c-1.111,0.241-2.262,0.499-3.167,1.188c-0.904,0.689-1.488,1.94-1.052,2.99c0.462,1.115,1.8,1.546,2.992,1.735
			c1.407,0.224,2.861,0.292,4.245-0.047c1.384-0.339,2.698-1.122,3.466-2.322c0.088-0.138,0.161-0.338,0.039-0.447
			c-0.122-0.108-0.286,0.208-0.125,0.183"/>
	</g>
	<g clip-path="url(#SVGID_2_)">
		<defs>
			<path id="SVGID_99_" d="M139.243,45.076c-1.112,0.241-2.262,0.499-3.167,1.189c-0.904,0.688-1.488,1.938-1.053,2.989
				c0.462,1.114,1.8,1.546,2.992,1.736c1.408,0.223,2.862,0.291,4.246-0.048c1.384-0.339,2.697-1.122,3.465-2.322
				c0.088-0.138,0.162-0.339,0.04-0.447c-0.069-0.06-0.149,0.011-0.18,0.081c-0.006,0.014-0.01,0.028-0.012,0.041l-4.126-3.697
				C140.712,44.757,139.978,44.916,139.243,45.076"/>
		</defs>
		<clipPath id="SVGID_100_">
			<use xlink:href="#SVGID_99_"  overflow="visible"/>
		</clipPath>
		<path clip-path="url(#SVGID_100_)" fill="#A9784C" d="M141.59,48.125c0.576,0.109,1.207,0.361,1.713,0.065
			c0.535-0.312,0.603-1.07,0.444-1.668c-0.229,0.313-0.688-0.024-1.024-0.219c-0.322-0.188-0.709-0.221-1.082-0.227
			c-1.256-0.021-2.517,0.216-3.68,0.692c-0.458,0.187-0.929,0.437-1.158,0.874c-0.316,0.602-0.047,1.387,0.471,1.826
			c0.518,0.44,1.221,0.594,1.899,0.633c0.678,0.04,1.361-0.02,2.036,0.061c-0.485-0.134-1.011-0.082-1.483-0.254
			c-0.472-0.172-0.879-0.729-0.625-1.163c0.101-0.173,0.283-0.282,0.465-0.367C140.193,48.086,140.911,47.997,141.59,48.125"/>
	</g>
</g>
</svg>
