<?xml version="1.0" encoding="UTF-8"?>
<!DOCTYPE svg PUBLIC "-//W3C//DTD SVG 1.1//EN" "http://www.w3.org/Graphics/SVG/1.1/DTD/svg11.dtd">
<svg version="1.1" xmlns="http://www.w3.org/2000/svg" xmlns:xlink="http://www.w3.org/1999/xlink" x="0" y="0" width="67" height="69" viewBox="0, 0, 67, 69">
  <g id="Layer_1">
    <path d="M50.773,31.258 Q50.904,36.23 47.567,39.24 Q44.23,42.25 39.258,41.727 Q36.771,41.465 34.547,40.287 Q32.061,38.979 30.163,36.885 Q28.266,34.791 27.219,32.305 Q26.303,29.949 26.172,27.463 Q26.172,22.49 29.509,19.415 Q32.846,16.34 37.818,16.863 Q40.174,17.256 42.529,18.434 Q44.885,19.611 46.782,21.705 Q48.68,23.799 49.727,26.285 Q50.773,28.771 50.773,31.258 z M54.699,60.832 L44.623,63.58 L35.07,67.375 L24.994,63.711 L14.656,61.094 L8.375,52.457 L1.178,44.344 L1.178,34.006 L0,23.668 L6.15,15.555 L11.385,6.918 L21.461,4.17 L31.145,0.375 L41.221,4.039 L51.559,6.656 L57.84,15.293 L64.906,23.406 L65.037,33.744 L66.084,44.082 L59.934,52.195 z M45.801,48.008 Q49.465,46.961 52.278,44.409 Q55.092,41.857 56.531,38.324 Q57.84,34.922 57.84,31.127 Q57.709,27.332 56.27,23.668 Q54.699,20.004 52.017,16.994 Q49.334,13.984 45.801,12.152 Q42.268,10.451 38.604,9.928 Q34.809,9.535 31.275,10.582 Q27.611,11.629 24.798,14.181 Q21.984,16.732 20.545,20.396 Q19.105,23.799 19.236,27.594 Q19.367,31.389 20.807,34.922 Q21.461,36.623 22.508,38.193 L11.385,46.83 L19.367,55.729 L29.182,45.129 Q30.098,45.914 31.275,46.438 Q34.678,48.27 38.473,48.662 Q42.268,49.055 45.801,48.008 z" fill="#333333"/>
  </g>
</svg>
