<?xml version="1.0" encoding="UTF-8"?>
<!DOCTYPE svg PUBLIC "-//W3C//DTD SVG 1.1//EN" "http://www.w3.org/Graphics/SVG/1.1/DTD/svg11.dtd">
<svg version="1.1" xmlns="http://www.w3.org/2000/svg" xmlns:xlink="http://www.w3.org/1999/xlink" x="0" y="0" width="67" height="69" viewBox="0, 0, 67, 69">
  <g id="Layer_1">
    <path d="M56.397,1.553 Q56.397,1.814 56.527,2.076 Q56.92,5.086 55.611,7.965 Q55.35,9.404 54.041,9.404 Q53.91,9.404 53.125,9.404 Q52.34,16.602 46.32,21.705 Q43.18,24.453 36.244,32.436 Q41.348,35.838 45.339,43.428 Q49.33,51.018 50.508,58.215 Q50.639,58.215 51.686,58.215 Q52.733,58.215 53.256,58.346 Q53.387,58.346 53.649,58.346 Q54.434,58.346 55.023,58.935 Q55.611,59.523 55.35,60.309 Q54.695,62.271 54.303,65.02 L54.172,65.02 Q54.041,66.459 52.602,66.459 Q35.852,66.459 27.738,66.982 Q27.477,66.982 27.215,66.982 Q27.215,66.982 27.084,66.982 Q18.971,66.459 3.922,66.459 Q2.483,66.459 2.352,65.02 Q1.828,62.271 1.174,60.309 Q0.912,59.523 1.501,58.935 Q2.09,58.346 2.875,58.346 Q3.137,58.346 3.399,58.346 Q3.922,58.215 4.903,58.215 Q5.885,58.215 6.016,58.215 Q7.193,51.018 11.25,43.428 Q15.307,35.838 20.41,32.436 Q13.344,24.453 10.203,21.705 Q4.315,16.602 3.399,9.404 Q3.268,9.404 2.483,9.404 Q1.174,9.404 0.912,7.965 Q-0.265,5.086 0.127,2.076 Q0.127,1.814 0.127,1.553 Q0.52,0.375 1.697,0.375 Q12.82,0.637 25.514,0.637 Q25.645,0.637 25.776,0.637 Q26.037,0.637 26.168,0.637 Q43.834,0.637 54.826,0.375 Q56.135,0.375 56.397,1.553 z M51.555,61.486 Q39.516,61.225 27.738,61.617 Q27.477,61.617 27.215,61.486 Q27.215,61.617 27.084,61.617 Q16.223,61.225 4.969,61.486 Q5.1,62.271 5.361,63.188 Q19.233,63.188 27.084,63.711 Q27.215,63.711 27.215,63.842 Q27.477,63.711 27.738,63.711 Q35.721,63.188 51.293,63.188 Q51.424,62.271 51.555,61.486 z M32.58,31.781 Q34.412,29.426 37.553,26.547 Q40.693,23.668 42.984,21.64 Q45.274,19.611 47.302,16.405 Q49.33,13.199 49.854,9.535 Q46.713,9.535 38.731,9.666 Q30.748,9.797 25.906,9.928 L25.776,9.928 Q21.85,9.797 18.84,9.731 Q15.83,9.666 12.559,9.601 Q9.287,9.535 6.801,9.535 Q7.193,13.199 9.222,16.405 Q11.25,19.611 13.606,21.64 Q15.961,23.668 19.102,26.547 Q22.242,29.426 23.943,31.781 Q24.598,32.566 24.074,33.352 Q23.943,34.006 23.42,34.268 Q18.84,37.539 14.718,44.736 Q10.596,51.934 9.287,58.084 Q18.186,57.953 27.084,58.346 Q27.215,58.346 27.215,58.346 Q27.477,58.346 27.738,58.346 Q37.291,57.953 47.236,58.084 Q46.059,51.934 41.871,44.736 Q37.684,37.539 33.104,34.268 Q32.711,34.006 32.58,33.352 Q31.926,32.566 32.58,31.781 z M52.863,6.133 Q53.256,4.955 53.256,3.646 Q42.264,3.908 26.168,3.908 Q26.037,3.908 25.776,3.908 Q25.645,3.908 25.514,3.908 Q14.26,3.908 3.268,3.646 Q3.268,4.955 3.791,6.133 Q16.746,6.395 25.776,6.656 L25.906,6.656 Q31.272,6.525 39.777,6.395 Q48.283,6.264 52.863,6.133 z M14.652,17.387 Q15.045,16.602 15.961,16.602 Q28.393,16.994 40.432,16.602 Q40.693,16.602 40.955,16.602 Q41.871,16.732 42.329,17.387 Q42.787,18.041 42.264,18.826 Q41.479,20.004 40.759,20.854 Q40.039,21.705 38.927,22.621 Q37.815,23.537 37.291,24.061 Q36.768,24.584 35.263,25.5 Q33.758,26.416 33.365,26.612 Q32.973,26.809 31.01,27.921 Q29.047,29.033 28.916,29.164 Q28,29.688 27.215,29.033 Q26.822,29.033 26.43,28.771 Q24.86,27.201 20.803,24.453 Q16.746,21.705 14.652,19.48 Q13.736,18.434 14.652,17.387 z M37.815,19.742 Q28.654,19.873 19.233,19.742 Q20.672,21.312 23.682,23.079 Q26.692,24.846 28.131,26.023 Q29.309,25.369 31.468,24.322 Q33.627,23.275 35.132,22.229 Q36.637,21.182 37.815,19.742 z M27.346,36.361 Q28.131,35.969 28.916,36.361 Q39.123,41.465 41.871,53.111 Q42.002,53.635 41.871,53.896 Q42.002,54.682 41.61,55.14 Q41.217,55.598 40.432,55.598 Q24.467,55.074 15.961,55.859 Q14.783,55.99 14.522,54.682 Q14.129,54.158 14.26,53.373 Q17.008,42.25 26.561,36.623 Q26.953,36.361 27.346,36.361 z M38.469,52.457 Q35.852,43.559 28,39.371 Q20.41,43.82 17.662,52.719 Q25.514,52.064 38.469,52.457 z" fill="#333333"/>
  </g>
</svg>
