<?xml version="1.0" encoding="UTF-8" standalone="no"?>
<!-- Generator: Adobe Illustrator 15.0.0, SVG Export Plug-In . SVG Version: 6.00 Build 0)  -->

<svg
   xmlns:dc="http://purl.org/dc/elements/1.1/"
   xmlns:cc="http://creativecommons.org/ns#"
   xmlns:rdf="http://www.w3.org/1999/02/22-rdf-syntax-ns#"
   xmlns:svg="http://www.w3.org/2000/svg"
   xmlns="http://www.w3.org/2000/svg"
   xmlns:xlink="http://www.w3.org/1999/xlink"
   xmlns:sodipodi="http://sodipodi.sourceforge.net/DTD/sodipodi-0.dtd"
   xmlns:inkscape="http://www.inkscape.org/namespaces/inkscape"
   version="1.1"
   id="Layer_1"
   x="0px"
   y="0px"
   width="300px"
   height="180px"
   viewBox="0 0 300 180"
   enable-background="new 0 0 300 180"
   xml:space="preserve"
   inkscape:version="0.91 r13725"
   sodipodi:docname="Tonselege.svg"><metadata
   id="metadata1677"><rdf:RDF><cc:Work
       rdf:about=""><dc:format>image/svg+xml</dc:format><dc:type
         rdf:resource="http://purl.org/dc/dcmitype/StillImage" /></cc:Work></rdf:RDF></metadata><defs
   id="defs1675" /><sodipodi:namedview
   pagecolor="#ffffff"
   bordercolor="#666666"
   borderopacity="1"
   objecttolerance="10"
   gridtolerance="10"
   guidetolerance="10"
   inkscape:pageopacity="0"
   inkscape:pageshadow="2"
   inkscape:window-width="1920"
   inkscape:window-height="1017"
   id="namedview1673"
   showgrid="false"
   inkscape:zoom="7.8133333"
   inkscape:cx="91.744751"
   inkscape:cy="90.63675"
   inkscape:window-x="-8"
   inkscape:window-y="-8"
   inkscape:window-maximized="1"
   inkscape:current-layer="g3" />
<g
   id="g3">
	<defs
   id="defs5">
		<rect
   id="SVGID_1_"
   width="300"
   height="180" />
	</defs>
	<clipPath
   id="SVGID_2_">
		<use
   xlink:href="#SVGID_1_"
   overflow="visible"
   id="use9" />
	</clipPath>
	<g
   clip-path="url(#SVGID_2_)"
   id="g11">
		<defs
   id="defs13">
			<rect
   id="SVGID_3_"
   width="300"
   height="180" />
		</defs>
		<clipPath
   id="SVGID_4_">
			<use
   xlink:href="#SVGID_3_"
   overflow="visible"
   id="use17" />
		</clipPath>
		<path
   clip-path="url(#SVGID_4_)"
   fill="#E5DBC6"
   d="M93.189,162.623c-0.53,2.917,3.557,4.492,6.735,4.9    c20.033,2.577,40.527,2.077,60.384-1.471c2.586-0.462,5.382-1.098,6.994-3.018c1.612-1.919,0.938-5.466-1.666-5.838    c14.767,0.898,33.85,0.392,47.861-3.994c4.179-1.309,9.111-4.157,8.205-8.139c-0.402-1.769-1.934-3.128-3.531-4.175    c-5.492-3.599-16.502-6.1-23.164-7.033c-33.423-4.68-65.928-5.776-97.895,5.509c-3.519,1.241-20.916,6.206-20.316,11.525    c0.802,7.122,33.604,4.198,38.258,4.084C107.104,155.206,99.283,157.894,93.189,162.623"
   id="path19" />
		<path
   clip-path="url(#SVGID_4_)"
   fill="#E5B47F"
   d="M184.483,23.031c0.813,2.047,2.052,3.924,3.612,5.478    c-0.151-3.214-0.301-6.427-0.452-9.641c-0.038-0.807,0.034-1.806,0.77-2.142c1.659,1.745,1.891,4.366,2.031,6.771    c0.104,1.772,0.208,3.544,0.312,5.316c0.845,0.052,1.196-1.041,1.322-1.877c0.327-2.165,0.995-4.278,1.972-6.238    c0.461-0.925,1.584-1.937,2.349-1.243c0.479,0.434,0.341,1.205,0.165,1.827c-0.791,2.796-1.583,5.592-2.374,8.388    c0.351,0.679,1.358,0.085,1.865-0.485c1.292-1.453,2.943-2.584,4.765-3.263c0.689,0.813-0.055,2.02-0.776,2.805    c-1.471,1.599-2.94,3.199-4.41,4.798c1.701-0.358,3.402-0.715,5.103-1.072c0.245-0.052,0.524-0.097,0.727,0.05    c0.381,0.277,0.124,0.885-0.206,1.221c-1.708,1.735-4.396,1.893-6.698,2.686c-2.281,0.786-4.308,2.293-5.718,4.251    c-0.56,0.777-1.047,1.646-1.843,2.177c-0.796,0.53-2.038,0.562-2.574-0.231c-0.394-0.582-0.269-1.358-0.112-2.042    c0.542-2.383,1.275-4.759,1.25-7.203c-0.04-3.832-1.931-7.376-3.852-10.692c-0.198-0.341-0.403-0.717-0.341-1.106    c0.125-0.778,1.264-0.979,1.907-0.524C183.92,21.496,184.192,22.298,184.483,23.031"
   id="path21" />
	</g>
	<g
   clip-path="url(#SVGID_2_)"
   id="g23">
		<defs
   id="defs25">
			<path
   id="SVGID_5_"
   d="M187.644,18.868c0.15,3.213,0.302,6.427,0.451,9.641c-1.56-1.554-2.799-3.43-3.61-5.478     c-0.292-0.733-0.565-1.535-1.209-1.991c-0.644-0.454-1.782-0.254-1.907,0.525c-0.063,0.389,0.143,0.765,0.34,1.106     c1.922,3.316,3.813,6.859,3.852,10.692c0.026,2.443-0.707,4.82-1.25,7.202c-0.155,0.685-0.28,1.46,0.113,2.042     c0.535,0.793,1.777,0.762,2.574,0.231c0.796-0.531,1.284-1.4,1.843-2.176c1.409-1.958,3.437-3.465,5.717-4.252     c2.304-0.792,4.99-0.951,6.698-2.686c0.331-0.335,0.587-0.944,0.206-1.22c-0.201-0.147-0.479-0.102-0.725-0.051     c-1.701,0.357-3.402,0.715-5.104,1.072c1.47-1.599,2.939-3.199,4.41-4.797c0.721-0.785,1.466-1.993,0.777-2.805     c-1.822,0.678-3.474,1.81-4.766,3.262c-0.507,0.571-1.516,1.164-1.865,0.485c0.792-2.796,1.583-5.591,2.375-8.388     c0.175-0.622,0.313-1.392-0.165-1.827c-0.766-0.694-1.889,0.319-2.35,1.243c-0.976,1.96-1.644,4.074-1.972,6.238     c-0.127,0.836-0.479,1.929-1.322,1.878c-0.104-1.773-0.207-3.545-0.311-5.317c-0.142-2.405-0.372-5.025-2.033-6.77     C187.677,17.062,187.606,18.061,187.644,18.868" />
		</defs>
		<clipPath
   id="SVGID_6_">
			<use
   xlink:href="#SVGID_5_"
   overflow="visible"
   id="use29" />
		</clipPath>
		<path
   clip-path="url(#SVGID_6_)"
   fill="#DCA776"
   d="M181.669,37.461c1.802,0.321,3.607-0.607,5.392-0.096    c2.328,0.665,1.222,2.799,0.806,4.453c-0.62,2.464,3.06,4.247,4.255,1.794c1.593-3.273,1.63-7.566-1.834-9.659    c-2.842-1.718-7.354-0.98-9.352,1.706C180.487,36.263,180.941,37.331,181.669,37.461"
   id="path31" />
	</g>
	<g
   clip-path="url(#SVGID_2_)"
   id="g33">
		<defs
   id="defs35">
			<rect
   id="SVGID_7_"
   width="300"
   height="180" />
		</defs>
		<clipPath
   id="SVGID_8_">
			<use
   xlink:href="#SVGID_7_"
   overflow="visible"
   id="use39" />
		</clipPath>
		<path
   clip-path="url(#SVGID_8_)"
   fill="#7B5D43"
   d="M209.47,99.966c1.152,0.724,2.513,0.274,3.799,0.443    c1.331,0.173,2.444,0.71,3.013,1.96c1.012,2.228,4.363,0.295,3.305-1.933c-0.882-1.855-2.685-3.073-4.702-3.372    c-1.78-0.264-4.761,0.004-5.705,1.789C208.968,99.252,209.085,99.724,209.47,99.966"
   id="path41" />
		<path
   clip-path="url(#SVGID_8_)"
   fill="#7B5D43"
   d="M215.334,112.069c0.87,3.041,5.144,0.976,6.277-0.719    c1.912-2.859,0.78-6.589-1.084-9.156c-1.417-1.95-4.43-0.291-3.279,1.916c0.806,1.546,2.514,4.047,0.76,5.57    C217.319,110.278,214.948,110.718,215.334,112.069"
   id="path43" />
	</g>
	<g
   clip-path="url(#SVGID_2_)"
   id="g45">
		<defs
   id="defs47">
			<path
   id="SVGID_9_"
   d="M58.208,146.793c3.608,2.967,7.216,5.934,10.824,8.902c8.232-3.415,15.89-8.208,22.56-14.12     c1.472-1.306,3.164-2.758,5.12-2.554l-4.705-9.956C83.116,138.352,70.405,142.731,58.208,146.793" />
		</defs>
		<clipPath
   id="SVGID_10_">
			<use
   xlink:href="#SVGID_9_"
   overflow="visible"
   id="use51" />
		</clipPath>
		
			<linearGradient
   id="SVGID_11_"
   gradientUnits="userSpaceOnUse"
   x1="-4.882813e-004"
   y1="180"
   x2="0.9995"
   y2="180"
   gradientTransform="matrix(38.5053 0 0 -38.5053 58.2121 7073.3218)">
			<stop
   offset="0"
   style="stop-color:#6884A5"
   id="stop54" />
			<stop
   offset="1"
   style="stop-color:#425C79"
   id="stop56" />
			<stop
   offset="1"
   style="stop-color:#425C79"
   id="stop58" />
		</linearGradient>
		<rect
   x="58.208"
   y="129.065"
   clip-path="url(#SVGID_10_)"
   fill="url(#SVGID_11_)"
   width="38.504"
   height="26.63"
   id="rect60" />
		<path
   clip-path="url(#SVGID_10_)"
   fill="#2B4755"
   d="M56.055,148.303c3.427-1.05,7.109-1.255,10.632-0.591    c1.663,0.313,3.547,1.07,3.953,2.713c0.418,1.696-0.991,3.269-2.376,4.333c-1.939,1.488-4.08,2.714-6.345,3.634"
   id="path62" />
	</g>
	<g
   clip-path="url(#SVGID_2_)"
   id="g64">
		<defs
   id="defs66">
			<path
   id="SVGID_12_"
   d="M61.642,149.617c0.168,0.139,0.338,0.277,0.506,0.416l4.184,0.137c0.133-0.494-0.576-0.746-1.088-0.747     c-0.025,0-0.05,0-0.074,0C63.992,149.423,62.813,149.488,61.642,149.617" />
		</defs>
		<clipPath
   id="SVGID_13_">
			<use
   xlink:href="#SVGID_12_"
   overflow="visible"
   id="use70" />
		</clipPath>
		
			<linearGradient
   id="SVGID_14_"
   gradientUnits="userSpaceOnUse"
   x1="0"
   y1="180"
   x2="1"
   y2="180"
   gradientTransform="matrix(6.9446 0 0 -6.9446 59.4048 1399.8298)">
			<stop
   offset="0"
   style="stop-color:#6884A5"
   id="stop73" />
			<stop
   offset="1"
   style="stop-color:#425C79"
   id="stop75" />
			<stop
   offset="1"
   style="stop-color:#425C79"
   id="stop77" />
		</linearGradient>
		<rect
   x="61.642"
   y="149.423"
   clip-path="url(#SVGID_13_)"
   fill="url(#SVGID_14_)"
   width="4.823"
   height="0.747"
   id="rect79" />
	</g>
	<g
   clip-path="url(#SVGID_2_)"
   id="g81">
		<defs
   id="defs83">
			<rect
   id="SVGID_15_"
   width="300"
   height="180" />
		</defs>
		<clipPath
   id="SVGID_16_">
			<use
   xlink:href="#SVGID_15_"
   overflow="visible"
   id="use87" />
		</clipPath>
		<path
   clip-path="url(#SVGID_16_)"
   fill="#CD5F65"
   d="M61.183,98.085c-0.108-0.857,0.185-1.711,0.503-2.515    c1.517-3.84,3.826-7.54,7.335-9.716c1.501-0.93,3.168-1.55,4.823-2.164c1.264-0.47,2.529-0.939,3.793-1.408    c0.709-0.263,1.542-0.516,2.181-0.111c0.397,0.251,0.615,0.7,0.813,1.126c0.565,1.215,1.138,2.455,1.307,3.784    c0.169,1.33-0.127,2.788-1.089,3.721c-1.49,1.446-3.88,1.161-5.898,1.648c-1.447,0.35-2.781,1.15-3.769,2.264    c-1.305,1.468-2,3.431-3.447,4.76c-1.014,0.932-2.421,1.495-3.781,1.281C62.595,100.543,61.355,99.45,61.183,98.085"
   id="path89" />
	</g>
	<g
   clip-path="url(#SVGID_2_)"
   id="g91">
		<defs
   id="defs93">
			<path
   id="SVGID_17_"
   d="M77.637,82.283c-1.265,0.469-2.528,0.938-3.793,1.407c-1.655,0.614-3.323,1.235-4.823,2.165     c-3.509,2.176-5.818,5.876-7.336,9.716c-0.317,0.803-0.61,1.655-0.502,2.514c0.173,1.365,1.411,2.458,2.771,2.671     s2.767-0.349,3.781-1.281c1.446-1.328,2.142-3.293,3.446-4.761c0.989-1.112,2.323-1.913,3.769-2.262     c2.019-0.488,4.409-0.202,5.899-1.649c0.962-0.934,1.258-2.392,1.089-3.722c-0.169-1.329-0.742-2.568-1.307-3.783     c-0.198-0.427-0.416-0.876-0.813-1.127c-0.241-0.153-0.51-0.212-0.79-0.212C78.567,81.959,78.078,82.119,77.637,82.283" />
		</defs>
		<clipPath
   id="SVGID_18_">
			<use
   xlink:href="#SVGID_17_"
   overflow="visible"
   id="use97" />
		</clipPath>
		<path
   clip-path="url(#SVGID_18_)"
   fill="#FFFFFF"
   d="M69.74,89.928c0.222,0.826,0.739,1.553,1.07,2.34    c0.349,0.829,0.563,1.706,0.762,2.58c0.347,1.525,2.591,0.864,2.32-0.64c-0.327-1.813-1.221-4.242-2.821-5.303    C70.395,88.456,69.544,89.196,69.74,89.928"
   id="path99" />
		<path
   clip-path="url(#SVGID_18_)"
   fill="#FFFFFF"
   d="M67.756,93.133c1.129,0.931,2.015,2.082,2.613,3.419    c0.488,1.09,2.145,0.145,1.619-0.947c-0.737-1.529-1.886-2.758-3.361-3.601C67.944,91.614,67.107,92.599,67.756,93.133"
   id="path101" />
		<path
   clip-path="url(#SVGID_18_)"
   fill="#AF3640"
   d="M84.224,81.413c-6.756-3.885-13.497,1.226-18.635,5.682    c-6.64,5.757-7.946,13.094-7.866,21.548c0.028,2.904,4.523,2.912,4.516,0c-0.016-6.306,0.228-12.067,4.776-16.895    c3.838-4.073,10.32-9.145,16.24-8.037C84.596,83.963,85.527,82.162,84.224,81.413"
   id="path103" />
		<path
   clip-path="url(#SVGID_18_)"
   fill="#AF3640"
   d="M81.306,93.42c1.577-3.061-1.089-7.774-4.785-6.696    c-1.614,0.471-2.75,1.852-3.064,3.485c-0.369,1.914,0.289,3.673,1.119,5.372c0.527,1.08,2.063,1.373,3.046,0.799    c1.123-0.657,1.301-1.949,0.799-3.047c-0.25-0.546-0.59-1.16-0.668-1.768c-0.016-0.122,0.08-0.666,0.056-0.719    c-0.005-0.012-0.074,0.01-0.074,0.007c-0.117-0.079-0.235-0.159-0.352-0.239c0.117,0.18,0.224,0.365,0.322,0.557    c0.343,0.618,0.644,1.21,0.849,1.889C78.909,94.238,80.691,94.612,81.306,93.42"
   id="path105" />
	</g>
	<g
   clip-path="url(#SVGID_2_)"
   id="g107">
		<defs
   id="defs109">
			<rect
   id="SVGID_19_"
   width="300"
   height="180" />
		</defs>
		<clipPath
   id="SVGID_20_">
			<use
   xlink:href="#SVGID_19_"
   overflow="visible"
   id="use113" />
		</clipPath>
		<path
   clip-path="url(#SVGID_20_)"
   fill="#7B5D43"
   d="M81.561,96.47c-0.296-1.91-0.592-3.819-0.888-5.73    c-0.168-1.089-0.507-2.386-1.561-2.707c-0.542-0.165-1.126-0.008-1.664,0.169c-0.81,0.265-1.647,0.604-2.17,1.277    c-0.676,0.872-0.663,2.085-0.513,3.179c0.359,2.62,1.331,5.152,2.816,7.341"
   id="path115" />
		<g
   clip-path="url(#SVGID_20_)"
   id="g117">
			<defs
   id="defs119">
				<rect
   id="SVGID_21_"
   x="74.434"
   y="94.127"
   width="64.804"
   height="46.59" />
			</defs>
			<clipPath
   id="SVGID_22_">
				<use
   xlink:href="#SVGID_21_"
   overflow="visible"
   id="use123" />
			</clipPath>
			<g
   clip-path="url(#SVGID_22_)"
   id="g125">
				<defs
   id="defs127">
					<rect
   id="SVGID_23_"
   x="74.434"
   y="94.127"
   width="64.804"
   height="46.59" />
				</defs>
				<clipPath
   id="SVGID_24_">
					<use
   xlink:href="#SVGID_23_"
   overflow="visible"
   id="use131" />
				</clipPath>
				<path
   clip-path="url(#SVGID_24_)"
   fill="#243955"
   d="M137.572,118.574c1.279,7.195,1.822,14.533,1.628,21.846      c-6.77,1.615-12.997-3.785-19.65-5.826c-4.393-1.331-9.095-1.188-13.63-1.861c-14.262-2.105-26.975-16.535-31.147-30.334      c-0.233-0.735-0.427-1.511-0.298-2.26c0.13-0.775,0.595-1.46,1.099-2.068c1.485-1.781,5.283-5.244,7.673-3.436      c0,0,3.243,12.015,4.716,14.766c3.527,6.576,9.922,11.744,17.337,13.075c0.491,0.09,1.047,0.143,1.408-0.181      c0.362-0.311,0.388-0.854,0.401-1.331c0.09-2.933,0.865-6.021,2.984-8.049c3.475-3.347,9.069-2.726,13.746-1.55      c3.501,0.879,6.963,1.95,10.348,3.19c0.905,0.323,1.835,0.698,2.442,1.447C137.223,116.714,137.404,117.657,137.572,118.574"
   id="path133" />
			</g>
		</g>
		<path
   clip-path="url(#SVGID_20_)"
   fill="#E5B47F"
   d="M139.652,160.154c1.593,0.809,3.545,0.376,5.154-0.402    c1.608-0.776,3.064-1.878,4.752-2.463c-1.408,0.686-2.588,1.83-3.314,3.217c-0.121,0.232-0.23,0.511-0.116,0.744    c0.218,0.451,0.897,0.244,1.319-0.023c1.964-1.25,3.927-2.499,5.891-3.749c-0.635,1.018-0.93,2.244-0.827,3.438    c2.442-1.707,3.272-5.35,1.813-7.947c-0.944-1.678-2.613-2.8-4.221-3.859c-2.303,2.163-5.114,3.781-8.141,4.685    c-2.208,0.66-4.806,1.144-5.94,3.15c3.24,0.662,6.699,0.197,9.649-1.297C143.372,156.693,141.303,158.242,139.652,160.154"
   id="path135" />
		<path
   clip-path="url(#SVGID_20_)"
   fill="#7B5D43"
   d="M246.701,129.106c-0.739-0.411-0.958-1.416-0.749-2.235    c0.209-0.82,0.741-1.512,1.208-2.216c1.61-2.428,2.567-5.282,2.746-8.189c0.035-0.558,0.053-1.154,0.375-1.61    c0.323-0.457,1.084-0.643,1.429-0.203c0.2,0.255,0.189,0.609,0.169,0.933c-0.139,2.213-0.277,4.425-0.416,6.638    c1.962-2.407,3.924-4.813,5.886-7.22c0.338-0.413,0.702-0.846,1.208-1.015c0.507-0.169,1.184,0.063,1.287,0.587    c0.074,0.37-0.152,0.729-0.369,1.04c-1.454,2.098-2.908,4.195-4.363,6.293c0.091,0.607,1.006,0.505,1.543,0.206    c1.997-1.112,3.763-2.637,5.154-4.449c0.277-0.36,0.613-0.771,1.068-0.758c0.806,0.021,0.91,1.203,0.629,1.96    c-0.986,2.653-3.295,4.556-5.506,6.326l8.449-1.881c0.261-0.058,0.535-0.115,0.793-0.046c0.575,0.157,0.805,0.914,0.597,1.474    c-0.208,0.559-0.714,0.946-1.218,1.266c-1.583,1.004-3.394,1.646-5.256,1.864c-1.716,0.2-3.871,0.301-4.532,1.896    c1.894,0.419,3.786,0.839,5.679,1.258c0.373,0.083,0.826,0.25,0.864,0.631c0.029,0.297-0.225,0.539-0.474,0.703    c-1.479,0.975-3.448,0.873-5.12,0.286c-3.05-1.068-5.729-3.618-8.955-3.411C248.107,129.281,247.332,129.458,246.701,129.106"
   id="path137" />
		<path
   clip-path="url(#SVGID_20_)"
   fill="#7B5D43"
   d="M249.163,153.638c2.328-0.248,3.883-0.479,6.211-0.728    c1.58-0.169,3.716-1.012,3.798-2.251c-0.533-0.502-3.466,0.23-5.197,0.45c-1.73,0.218-3.632,0.163-5.02-0.895    c1.927-1.501,4.409-2.025,6.71-2.846c1.485-0.53,3-1.282,4.106-2.368c0.877-0.862,0.033-2.361-1.167-2.096    c-1.23,0.271-2.44,0.855-3.576,1.43c-2.395,1.213-4.789,2.425-7.185,3.637l4.541-6.697c0.237-0.35,0.482-0.723,0.505-1.144    c0.023-0.421-0.271-0.891-0.694-0.892c-0.226-0.002-0.429,0.125-0.616,0.249c-3.314,2.191-6.167,5.077-8.321,8.415    c-0.357-1.829-0.417-3.714-0.179-5.562c0.082-0.635,0.083-1.477-0.522-1.686c-0.212-0.073-0.446-0.036-0.66,0.031    c-1.81,0.57-2.271,2.905-2.202,4.803c0.069,1.896,0.249,4.083-1.127,5.39c-0.449,0.427-1.05,0.733-1.319,1.291    c-0.271,0.56,0.159,1.45,0.749,1.256c2.925,1.763,6.172,2.99,9.531,3.604c1.844,0.337,3.94,0.412,5.518-0.463    c0.491-0.273,0.423-1.006-0.103-1.203c0,0-1.009,0.078-2.491-0.31C248.97,154.669,249.163,153.638,249.163,153.638"
   id="path139" />
		<path
   clip-path="url(#SVGID_20_)"
   fill="#7299AE"
   d="M252.274,126.637c-0.804-1.749-3.057-2.419-4.947-2.052    s-3.517,1.518-5.125,2.578c-10.872,7.173-24.92,11.345-36.99,6.449l-14.536-4.346c-1.529-0.021-3.058,0.197-4.526,0.618    c-0.784-0.619-1.563-1.241-2.309-1.903c-2.535-2.254-4.655-4.972-6.224-7.979c-1.479-2.84-2.846-6.284-5.914-7.205    c-1.273-0.383-2.641-0.238-3.961-0.068c-10.551,1.356-20.921,4.104-30.76,8.148c0.197,7.797-0.369,14.906-2.431,22.899    c-2.055-0.224,5.746,2.528,4.383,1.805c11.167,3.529,18.823,4.898,28.363,4.641c2.888-0.078,18.474-1.603,21.2-2.562    c0.637-0.225,1.193-0.44,1.682-0.651c12.284,9.008,28.781,11.693,44.04,9.636c1.869-0.252,3.795-0.592,5.36-1.646    c1.563-1.054,2.674-3.007,2.187-4.829c-0.139-0.521-0.427-1.034-0.904-1.285c-0.597-0.313-1.319-0.15-1.976,0.005    c-13.291,3.179-27.87,0.524-39.189-7.134c-1.121-0.759-2.222-1.569-3.321-2.38c6.205,1.95,12.761,2.844,19.27,2.71    c11.084-0.227,22.016-3.331,31.916-8.321C250.388,132.34,253.597,129.513,252.274,126.637"
   id="path141" />
	</g>
	<g
   clip-path="url(#SVGID_2_)"
   id="g143">
		<defs
   id="defs145">
			<path
   id="SVGID_25_"
   d="M167.743,112.729c-10.551,1.356-20.922,4.104-30.76,8.148c0.197,7.797-0.369,14.905-2.432,22.899     c-0.948-0.104,0.202,0.427,1.58,0.957c1.611,0.618,3.538,1.237,2.804,0.847c11.167,3.529,18.822,4.898,28.362,4.642     c2.889-0.079,18.476-1.603,21.201-2.562c0.637-0.225,1.194-0.441,1.682-0.651c12.283,9.009,28.781,11.693,44.04,9.636     c1.869-0.252,3.795-0.592,5.359-1.646s2.675-3.007,2.187-4.83c-0.138-0.52-0.427-1.033-0.902-1.285     c-0.598-0.313-1.321-0.15-1.977,0.006c-13.292,3.179-27.87,0.523-39.189-7.135c-1.121-0.758-2.222-1.568-3.321-2.378     c6.205,1.949,12.761,2.843,19.271,2.71c11.084-0.228,22.016-3.332,31.914-8.323c2.826-1.424,6.036-4.251,4.715-7.127     c-0.806-1.749-3.059-2.419-4.948-2.052c-1.891,0.367-3.518,1.518-5.124,2.578c-10.873,7.173-24.92,11.344-36.991,6.449     l-14.536-4.346c-1.528-0.021-3.058,0.196-4.526,0.617c-0.783-0.618-1.564-1.241-2.31-1.901c-2.535-2.255-4.654-4.974-6.222-7.981     c-1.481-2.839-2.847-6.282-5.914-7.204c-0.595-0.179-1.21-0.242-1.831-0.242C169.163,112.555,168.446,112.638,167.743,112.729" />
		</defs>
		<clipPath
   id="SVGID_26_">
			<use
   xlink:href="#SVGID_25_"
   overflow="visible"
   id="use149" />
		</clipPath>
		<defs
   id="defs151">
			<filter
   id="Adobe_OpacityMaskFilter"
   filterUnits="userSpaceOnUse"
   x="119.548"
   y="76.009"
   width="148.103"
   height="119.239">
				<feColorMatrix
   type="matrix"
   values="1 0 0 0 0  0 1 0 0 0  0 0 1 0 0  0 0 0 1 0"
   id="feColorMatrix154" />
			</filter>
		</defs>
		<mask
   maskUnits="userSpaceOnUse"
   x="119.548"
   y="76.009"
   width="148.103"
   height="119.239"
   id="SVGID_27_">
			<g
   filter="url(#Adobe_OpacityMaskFilter)"
   id="g157">
				
					<radialGradient
   id="SVGID_28_"
   cx="0"
   cy="180"
   r="1"
   gradientTransform="matrix(-53.8893 18.3069 18.3069 53.8893 -3067.3425 -9570.2119)"
   gradientUnits="userSpaceOnUse">
					<stop
   offset="0"
   style="stop-color:#FFFFFF"
   id="stop160" />
					<stop
   offset="0.6295"
   style="stop-color:#000000"
   id="stop162" />
					<stop
   offset="1"
   style="stop-color:#000000"
   id="stop164" />
				</radialGradient>
				<polygon
   clip-path="url(#SVGID_26_)"
   fill="url(#SVGID_28_)"
   points="267.651,153.928 146.018,195.248 119.548,117.329       241.182,76.009     "
   id="polygon166" />
			</g>
		</mask>
		
			<radialGradient
   id="SVGID_29_"
   cx="0"
   cy="180"
   r="1"
   gradientTransform="matrix(-53.8893 18.3069 18.3069 53.8893 -3067.3425 -9570.2119)"
   gradientUnits="userSpaceOnUse">
			<stop
   offset="0"
   style="stop-color:#91ADBF"
   id="stop169" />
			<stop
   offset="0.6295"
   style="stop-color:#71BDEE"
   id="stop171" />
			<stop
   offset="1"
   style="stop-color:#71BDEE"
   id="stop173" />
		</radialGradient>
		<polygon
   clip-path="url(#SVGID_26_)"
   mask="url(#SVGID_27_)"
   fill="url(#SVGID_29_)"
   points="267.651,153.928 146.018,195.248     119.548,117.329 241.182,76.009   "
   id="polygon175" />
		<path
   clip-path="url(#SVGID_26_)"
   fill="#658398"
   d="M242.765,151.293c-15.393,8.145-35.067,1.367-49.56-6.156    c-2.43-1.262-4.586,2.444-2.146,3.671c9.831,4.934,20.312,8.265,31.238,9.645c7.188,0.908,17.615,1.444,21.867-5.759    C244.702,151.784,243.649,150.825,242.765,151.293"
   id="path177" />
		<path
   clip-path="url(#SVGID_26_)"
   fill="#658398"
   d="M197.17,151.504c-1.065-3.467-3.268-6.138-7.036-6.651    c-2.374-0.322-4.868,0.399-7.195,0.763c-3.652,0.567-7.322,0.956-11.015,1.124c-13.31,0.604-26.495-1.755-38.898-6.558    c-2.91-1.127-4.166,3.553-1.288,4.671c9.718,3.776,19.896,6.007,30.319,6.482c5.08,0.232,10.185,0.062,15.231-0.557    c5.779-0.708,14.475-4.563,18.597,1.268C196.318,152.66,197.419,152.315,197.17,151.504"
   id="path179" />
		<path
   clip-path="url(#SVGID_26_)"
   fill="#658398"
   d="M201.553,149.767c-6.243-3.875-13-6.92-20.038-9.031    c1.649,1.314,3.3,2.628,4.948,3.942c-7.292,0.72-14.532,1.962-21.648,3.712c-0.499,0.123-1.136,0.566-0.845,0.99    c3.265,1.043,6.792,0.527,10.199,0.164c6.363-0.682,12.787-0.801,19.171-0.359"
   id="path181" />
		<path
   clip-path="url(#SVGID_26_)"
   fill="#658398"
   d="M165.646,148.725c-5.58-1.227-11.022-2.813-16.381-4.808    c-5.788-2.153-10.906-5.414-16.524-7.831c-1.932-0.831-4.486,1.608-2.499,3.24c9.353,7.682,23.41,10.65,35.236,10.641    C166.176,149.966,166.358,148.88,165.646,148.725"
   id="path183" />
		<path
   clip-path="url(#SVGID_26_)"
   fill="#658398"
   d="M178.854,146.742c-8.441-1.761-16.965-2.665-25.326-4.906    c-8.792-2.355-17.187-5.701-25.229-9.962c-2.689-1.424-5.085,2.703-2.381,4.075c15.594,7.909,34.969,14.671,52.72,12.39    C179.461,148.232,179.839,146.948,178.854,146.742"
   id="path185" />
		<path
   clip-path="url(#SVGID_26_)"
   fill="#658398"
   d="M197.326,141.5c11.502,1.817,23.842,1.855,35.163-1.104    c5.157-1.349,10.257-3.458,14.713-6.401c5.004-3.305,9.171-7.686,14.1-11.1c2.244-1.554,0.204-5.197-2.169-3.71    c-3.852,2.414-7.086,5.544-10.583,8.42c-4.836,3.976-10.354,6.713-16.341,8.505c-11.356,3.398-23.063,2.834-34.706,4.086    C196.829,140.269,196.521,141.373,197.326,141.5"
   id="path187" />
		<path
   clip-path="url(#SVGID_26_)"
   fill="#658398"
   d="M206.065,156.421c7.866,1.935,15.956,2.292,23.982,1.17    c8.636-1.207,16.191-5.524,24.678-7.036c2.601-0.463,1.47-4.325-1.084-3.932c-7.772,1.199-14.813,5.423-22.53,7.118    c-8.24,1.809-16.466,1.958-24.823,1.038C205.344,154.675,205.165,156.199,206.065,156.421"
   id="path189" />
		<path
   clip-path="url(#SVGID_26_)"
   fill="#658398"
   d="M143.364,144.562c1.178-0.089,1.415-0.246,2.114-1.219    c0.383-0.531,0.123-1.479-0.461-1.759c-2.777-1.328-5.431-2.846-7.768-4.868c-0.518,0.891-1.036,1.781-1.555,2.671    c4.039,1.319,8.112,2.536,12.169,3.795c1.891,0.586,3.101-2.251,1.351-3.204c-4.54-2.476-9.125-4.869-13.649-7.372    c-0.478,1.133-0.956,2.266-1.434,3.399c5.617,1.52,11.071,3.326,16.382,5.72c2.23,1.006,4.191-2.112,1.961-3.356    c-4.05-2.257-8.102-4.512-12.154-6.765c-0.51,1.21-1.02,2.419-1.53,3.629c3.282,1.125,6.564,2.251,9.847,3.377    c2.474,0.848,3.447-2.969,1.068-3.876c-2.906-1.109-5.532-2.612-8.024-4.464c-0.342,1.262-0.684,2.524-1.026,3.788    c2.581-0.2,4.846,0.183,7.23,1.188c2.137,0.9,3.071-2.061,1.996-3.43c-1.738-2.214-3.714-3.963-6.092-5.459    c-2.195-1.382-4.094,1.998-2.011,3.439c2.005,1.389,3.689,3.014,5.201,4.921l1.997-3.429c-2.706-1.126-5.404-1.537-8.321-1.297    c-2.086,0.171-2.667,2.58-1.026,3.788c2.791,2.055,5.769,3.612,9.008,4.83c0.356-1.292,0.712-2.584,1.068-3.876    c-3.286-1.11-6.573-2.22-9.86-3.33c-2.138-0.722-3.489,2.551-1.529,3.628c4.064,2.234,8.129,4.465,12.197,6.693    c0.652-1.118,1.307-2.237,1.961-3.356c-5.608-2.478-11.375-4.56-17.354-5.951c-1.97-0.458-3.388,2.404-1.433,3.4    c4.61,2.349,9.163,4.809,13.758,7.187c0.45-1.067,0.9-2.136,1.351-3.204c-4.082-1.171-8.154-2.385-12.252-3.494    c-1.798-0.487-2.713,1.934-1.231,2.921c2.788,1.857,5.596,3.469,8.713,4.708c-0.299-0.527-0.599-1.056-0.898-1.582    c-0.09,0.114-0.179,0.229-0.269,0.346C142.104,143.206,142.302,144.642,143.364,144.562"
   id="path191" />
	</g>
	<g
   clip-path="url(#SVGID_2_)"
   id="g193">
		<defs
   id="defs195">
			<path
   id="SVGID_30_"
   d="M131.973,82.408c-10.572,2.322-18.307,11.861-19.65,21.911c-0.234,1.749-2.513,2.646-2.782,4.39     c-0.264,1.705,0.452,3.4,1.26,4.924c3.689,6.965,4.749,13.568,11.898,16.887c2.002,0.93,4.173,1.689,6.373,1.496     c0.369-0.032,0.727-0.097,1.08-0.177c2.897,0.622,5.906,0.773,8.879,0.916c3.693,0.178,7.386,0.356,11.079,0.533     c-2.239,6.063-4.782,12.013-7.614,17.823c4.923,1.873,10.171,2.888,15.438,2.987c1.756-7.276,2.605-14.771,2.527-22.257     c-0.021-2.032-0.167-4.222-1.451-5.797c-1.02-1.254-2.594-1.902-4.12-2.436c-3.002-1.053-6.092-1.843-9.224-2.394     c6.014-3.503,13.267-6.329,19.053-7.351c2.227-0.393,4.114,0.183,5.538,0.757c1.38,0.558,2.323,1.115,2.713,0.79     c2.324-1.934-2.524-9.186-4.641-11.344c-6.691-6.829-24.105-21.854-34.437-21.856C133.22,82.212,132.58,82.275,131.973,82.408" />
		</defs>
		<clipPath
   id="SVGID_31_">
			<use
   xlink:href="#SVGID_30_"
   overflow="visible"
   id="use199" />
		</clipPath>
		
			<linearGradient
   id="SVGID_32_"
   gradientUnits="userSpaceOnUse"
   x1="0"
   y1="179.9629"
   x2="1"
   y2="179.9629"
   gradientTransform="matrix(13.9236 -19.5961 -19.5961 -13.9236 3656.5881 2641.1013)">
			<stop
   offset="0"
   style="stop-color:#6884A5"
   id="stop202" />
			<stop
   offset="1"
   style="stop-color:#425C79"
   id="stop204" />
			<stop
   offset="1"
   style="stop-color:#425C79"
   id="stop206" />
		</linearGradient>
		<polygon
   clip-path="url(#SVGID_31_)"
   fill="url(#SVGID_32_)"
   points="75.335,129.982 131.424,51.042 209.236,106.329     153.146,185.27   "
   id="polygon208" />
	</g>
	<g
   clip-path="url(#SVGID_2_)"
   id="g210">
		<defs
   id="defs212">
			<rect
   id="SVGID_33_"
   width="300"
   height="180" />
		</defs>
		<clipPath
   id="SVGID_34_">
			<use
   xlink:href="#SVGID_33_"
   overflow="visible"
   id="use216" />
		</clipPath>
		<path
   clip-path="url(#SVGID_34_)"
   fill="#E5B47F"
   d="M51.715,156.447c-1.414,1.203-2.731,2.52-3.934,3.934    c1.159,0.53,2.548,0.148,3.629-0.527c1.08-0.676,1.969-1.618,3.017-2.342c3.881-2.679,9.303-2.001,13.329-4.456    c1.328-0.81,2.535-2.541,1.635-3.809c-0.719-1.013-2.23-0.918-3.447-0.67c-2.35,0.479-4.666,1.125-6.924,1.933    c-1.055,0.378-2.116,0.795-3.234,0.883c-2.75,0.215-5.218-1.563-7.874-2.308c-4.813-1.35-10.415,1.172-12.594,5.67    c1.856-0.121,3.416-1.355,5.052-2.239c1.637-0.884,3.828-1.379,5.235-0.161c-2.603,0.777-5.01,2.2-6.948,4.104    c-0.527,0.519-1.011,1.433-0.442,1.906c0.476,0.395,1.178,0.019,1.69-0.33c2.121-1.448,4.563-2.424,7.098-2.836    c-2.183,0.993-4.082,2.599-5.424,4.587C45.153,160.464,48.104,156,51.715,156.447"
   id="path218" />
		<path
   clip-path="url(#SVGID_34_)"
   fill="#E5B47F"
   d="M68.187,45.264c0.006,3.225,2.695,5.725,5.171,7.793    c-1.572-0.136-3.097-0.764-4.31-1.772c-0.508,1.336,0.79,2.638,1.997,3.403c3.452,2.185,7.392,3.593,11.446,4.091    c-0.741-3.314-1.39-7.109,0.631-9.837c0.653-0.881,1.54-1.569,2.181-2.458c0.897-1.243,1.258-2.859,0.977-4.366    c-0.038-0.202-0.094-0.414-0.243-0.554c-0.428-0.401-1.089,0.094-1.451,0.555c-1.412,1.791-2.823,3.583-4.235,5.374    c-1.154-2.798-1.769-5.881-1.303-8.872c0.194-1.246,0.29-2.979-0.931-3.295c-0.723-0.188-1.47,0.377-1.751,1.07    c-0.281,0.692-0.216,1.47-0.146,2.214c0.3,3.19,0.6,6.381,0.9,9.572c-2.753-1.804-2.751-5.725-3.692-8.878    c-0.182-0.613-0.771-1.348-1.302-0.992c-0.201,0.135-0.285,0.384-0.347,0.618c-0.506,1.893-0.405,3.943,0.284,5.777    c0.65,1.73,1.817,3.315,1.942,5.158c-1.999-1.678-3.694-3.719-4.977-5.993C68.43,43.917,68.185,44.666,68.187,45.264"
   id="path220" />
	</g>
	<g
   clip-path="url(#SVGID_2_)"
   id="g222">
		<defs
   id="defs224">
			<path
   id="SVGID_35_"
   d="M76.365,36.396c-0.281,0.692-0.216,1.47-0.146,2.214c0.3,3.191,0.6,6.381,0.9,9.572     c-2.753-1.803-2.751-5.724-3.692-8.878c-0.182-0.612-0.771-1.348-1.302-0.992c-0.201,0.135-0.284,0.384-0.347,0.618     c-0.506,1.893-0.404,3.943,0.284,5.778c0.651,1.728,1.817,3.314,1.942,5.157c-1.999-1.678-3.693-3.718-4.977-5.993     c-0.596,0.045-0.842,0.794-0.84,1.393c0.005,3.224,2.695,5.725,5.17,7.792c-1.571-0.136-3.097-0.763-4.31-1.772     c-0.507,1.336,0.79,2.638,1.998,3.403c3.451,2.185,7.391,3.593,11.445,4.091c-0.74-3.314-1.389-7.108,0.631-9.837     c0.653-0.88,1.54-1.569,2.181-2.458c0.897-1.243,1.258-2.859,0.977-4.366c-0.037-0.201-0.093-0.414-0.243-0.554     c-0.428-0.401-1.089,0.094-1.451,0.555c-1.411,1.791-2.824,3.583-4.235,5.374c-1.154-2.798-1.768-5.881-1.303-8.871     c0.194-1.247,0.291-2.979-0.931-3.296c-0.095-0.025-0.19-0.036-0.285-0.036C77.204,35.29,76.61,35.795,76.365,36.396" />
		</defs>
		<clipPath
   id="SVGID_36_">
			<use
   xlink:href="#SVGID_35_"
   overflow="visible"
   id="use228" />
		</clipPath>
		<path
   clip-path="url(#SVGID_36_)"
   fill="#DCA776"
   d="M67.091,52.953c2.186,2.845,5.241,4.694,8.799,5.313    c1.334,0.232,2.5,0.281,3.747-0.312c0.601-0.286,1.082-0.73,1.597-1.143c0.702-0.564,2.872-1.501,1.655-2.168    c-0.331-0.814-0.663-1.629-0.995-2.444c-0.196,0.887-1.201,2.158-1.839,2.812c-1.069,1.094-1.657,1.015-3.054,1    c-2.129-0.023-3.64,0.082-5.615,0.927c-2.265,0.969-0.53,4.101,1.572,3.727c2.778-0.495,6.334,0.782,8.702-1.028    c1.68-1.285,3.958-4.204,4.409-6.287c0.193-0.895-0.116-2-0.995-2.444c-2.405-1.217-4.352,0.947-6.084,2.434    c-3.359,2.882-7.636,0.932-11.012-1.274C67.462,51.728,66.689,52.43,67.091,52.953"
   id="path230" />
		<path
   clip-path="url(#SVGID_36_)"
   fill="#DCA776"
   d="M73.372,52.709c-2.273-3.087-4.563-6.414-4.436-10.401    c0.041-1.277-1.852-1.239-1.961,0c-0.405,4.626,2.756,7.88,5.888,10.794C73.119,53.34,73.6,53.02,73.372,52.709"
   id="path232" />
	</g>
	<g
   clip-path="url(#SVGID_2_)"
   id="g234">
		<defs
   id="defs236">
			<path
   id="SVGID_37_"
   d="M80.552,58.633c0.9,2.536,2.971,4.461,5.066,6.151c3.019,2.433,6.249,4.607,9.64,6.489     c5.427,3.011,11.24,5.26,17.077,7.372c3.485,1.261,7.187,2.494,10.83,1.815c3.644-0.679,7.069-4,6.493-7.661     c-0.453-2.886-3.185-4.95-6.01-5.689c-2.19-0.573-4.471-0.537-6.745-0.501c-0.661,0.011-1.32,0.021-1.977,0.016     c-12.24-0.083-24.335-5.745-32.238-15.092C80.32,52.815,79.652,56.096,80.552,58.633" />
		</defs>
		<clipPath
   id="SVGID_38_">
			<use
   xlink:href="#SVGID_37_"
   overflow="visible"
   id="use240" />
		</clipPath>
		
			<linearGradient
   id="SVGID_39_"
   gradientUnits="userSpaceOnUse"
   x1="0"
   y1="180.0254"
   x2="1"
   y2="180.0254"
   gradientTransform="matrix(-16.7598 -19.5961 -19.5961 16.7598 3638.8472 -2943.6982)">
			<stop
   offset="0"
   style="stop-color:#4A6E8B"
   id="stop243" />
			<stop
   offset="3.786670e-004"
   style="stop-color:#4A6E8B"
   id="stop245" />
			<stop
   offset="0.3552"
   style="stop-color:#5B829D"
   id="stop247" />
			<stop
   offset="1"
   style="stop-color:#7299AE"
   id="stop249" />
		</linearGradient>
		<polygon
   clip-path="url(#SVGID_38_)"
   fill="url(#SVGID_39_)"
   points="101.021,106.124 65.028,64.041 108.865,26.548     144.858,68.632   "
   id="polygon251" />
	</g>
	<g
   clip-path="url(#SVGID_2_)"
   id="g253">
		<defs
   id="defs255">
			<rect
   id="SVGID_40_"
   width="300"
   height="180" />
		</defs>
		<clipPath
   id="SVGID_41_">
			<use
   xlink:href="#SVGID_40_"
   overflow="visible"
   id="use259" />
		</clipPath>
		<path
   clip-path="url(#SVGID_41_)"
   fill="#00315C"
   d="M208.307,46.561c2.657,2.148,5.232,4.517,6.871,7.516    c0.536,0.981,0.967,2.022,1.59,2.95c0.453,0.674,1.004,1.281,1.63,1.796c0.757,0.624,1.77,1.129,2.693,0.798    c0.804-0.288,1.276-1.128,1.501-1.952c0.503-1.851,0.083-3.859-0.785-5.569s-2.154-3.168-3.466-4.566    c-2.602-2.77-5.672-5.536-9.454-5.899c-0.795-0.076-1.69-0.004-2.242,0.575c-0.606,0.636-0.565,1.688-0.149,2.461    S207.622,46.009,208.307,46.561"
   id="path261" />
		<path
   clip-path="url(#SVGID_41_)"
   fill="#00315C"
   d="M230.385,76.314c0.509-0.047,0.713-0.681,0.729-1.191    c0.058-1.797-0.681-3.509-1.114-5.254c-0.435-1.745-0.501-3.782,0.677-5.139c0.171-0.198,0.393-0.387,0.654-0.384    c0.238,0.002,0.442,0.163,0.625,0.319c1.647,1.411,3.173,3.017,4.165,4.946c1.848,3.586,1.661,7.837,1.432,11.865    c-0.064,1.108-0.221,2.385-1.156,2.983c-0.771,0.494-1.788,0.318-2.655,0.02c-1.49-0.511-2.925-1.384-3.739-2.732    c-0.816-1.349-0.865-3.231,0.176-4.415"
   id="path263" />
		<path
   clip-path="url(#SVGID_41_)"
   fill="#E5B47F"
   d="M214.906,75.013c-5.591-0.768-11.166,1.742-15.679,5.128    c-4.514,3.387-8.29,7.659-12.673,11.214c-3.34,2.708-7.754,5.084-11.775,3.56c-2.575-0.976-4.328-3.336-5.863-5.621    c-1.271-1.893-2.521-3.883-2.927-6.127c-0.794-4.401,1.813-8.687,4.76-12.05c11.192-12.765,29.35-19.006,46.024-15.82    c1.407,0.269,3.202,1.545,2.34,2.688c-3.395,0.331-6.79,0.661-10.185,0.992c-5.958,0.581-12.095,1.213-17.373,4.035    c-5.28,2.821-9.548,8.414-8.944,14.371c7.682-5.155,16.462-9.089,25.704-9.523s18.97,3.068,24.536,10.458    c0.588,0.78,1.112,1.935,0.446,2.65c-0.609,0.654-1.685,0.353-2.508,0.006c-2.856-1.203-5.714-2.405-8.569-3.608    C219.853,76.37,217.451,75.363,214.906,75.013"
   id="path265" />
	</g>
	<g
   clip-path="url(#SVGID_2_)"
   id="g267">
		<defs
   id="defs269">
			<path
   id="SVGID_42_"
   d="M170.75,71.117c-2.949,3.363-5.554,7.649-4.76,12.05c0.403,2.245,1.654,4.234,2.927,6.127     c1.534,2.285,3.288,4.646,5.862,5.621c4.021,1.524,8.436-0.852,11.775-3.56c4.384-3.555,8.158-7.828,12.672-11.214     c4.515-3.386,10.09-5.896,15.68-5.128c2.546,0.35,4.946,1.356,7.313,2.353c2.856,1.203,5.713,2.405,8.57,3.609     c0.823,0.346,1.899,0.647,2.508-0.007c0.666-0.715,0.142-1.869-0.446-2.649c-5.566-7.391-15.295-10.893-24.536-10.459     s-18.021,4.368-25.704,9.523c-0.604-5.956,3.664-11.55,8.943-14.371c5.28-2.822,11.416-3.454,17.374-4.034     c3.396-0.331,6.789-0.662,10.185-0.993c0.861-1.143-0.934-2.419-2.339-2.688c-2.896-0.553-5.833-0.822-8.774-0.822     C194.006,54.476,179.999,60.569,170.75,71.117" />
		</defs>
		<clipPath
   id="SVGID_43_">
			<use
   xlink:href="#SVGID_42_"
   overflow="visible"
   id="use273" />
		</clipPath>
		<path
   clip-path="url(#SVGID_43_)"
   fill="#DCA36A"
   d="M236.201,82.61c-9.101-7.701-31.131-17.493-39.053-3.229    c-1.437,2.584,2.386,4.804,3.952,2.31c7.865-12.522,24.194,0.828,34.249,2.381C236.112,84.19,236.946,83.24,236.201,82.61"
   id="path275" />
		<path
   clip-path="url(#SVGID_43_)"
   fill="#DCA36A"
   d="M223.706,57.537c-13.265-4.602-31.268-0.004-42.391,7.98    c-2.306,1.654-0.306,5.308,2.263,3.872c6.154-3.44,12.189-6.398,19.122-7.953c6.936-1.555,13.67-1.235,20.688-1.551    C224.757,59.823,224.983,57.979,223.706,57.537"
   id="path277" />
	</g>
	<g
   clip-path="url(#SVGID_2_)"
   id="g279">
		<defs
   id="defs281">
			<rect
   id="SVGID_44_"
   width="300"
   height="180" />
		</defs>
		<clipPath
   id="SVGID_45_">
			<use
   xlink:href="#SVGID_44_"
   overflow="visible"
   id="use285" />
		</clipPath>
		<path
   clip-path="url(#SVGID_45_)"
   fill="#D4D647"
   d="M179.859,54.978c-6.252,8.442-17.589,12.227-23.103,21.169    c5.188,5.489,11.076,10.313,17.479,14.317c1.792,1.121,3.68,2.198,5.768,2.527c2.604,0.411,5.238-0.382,7.717-1.28    c5.734-2.079,11.245-4.774,16.405-8.027c-1.263-5.339-3.923-10.342-7.644-14.375c-0.353-0.381-0.731-0.766-1.219-0.944    c-0.597-0.218-1.26-0.094-1.875,0.065c-4.008,1.035-7.639,3.473-10.114,6.79c-0.252-2.398,0.817-4.785,2.377-6.624    c1.559-1.84,3.577-3.222,5.569-4.58C188.386,60.012,184.396,56.838,179.859,54.978"
   id="path287" />
	</g>
	<g
   clip-path="url(#SVGID_2_)"
   id="g289">
		<defs
   id="defs291">
			<path
   id="SVGID_46_"
   d="M156.757,76.146c5.188,5.489,11.076,10.313,17.479,14.318c1.792,1.121,3.68,2.198,5.769,2.527     c2.604,0.41,5.237-0.383,7.715-1.281c5.736-2.078,11.246-4.774,16.406-8.027c-1.262-5.34-3.923-10.343-7.644-14.375     c-0.353-0.382-0.731-0.767-1.219-0.945c-0.597-0.218-1.26-0.093-1.875,0.066c-4.008,1.034-7.639,3.472-10.114,6.789     c-0.253-2.397,0.816-4.784,2.377-6.624c1.559-1.84,3.577-3.222,5.569-4.58c-2.835-4.002-6.824-7.175-11.361-9.037     C173.606,63.419,162.271,67.205,156.757,76.146" />
		</defs>
		<clipPath
   id="SVGID_47_">
			<use
   xlink:href="#SVGID_46_"
   overflow="visible"
   id="use295" />
		</clipPath>
		<path
   clip-path="url(#SVGID_47_)"
   fill="#D071A5"
   d="M203.059,77.674c0.04,0.077,0.08,0.153,0.12,0.23l2.407,0.326    c-0.204-2.656-4.167-4.128-6.221-2.599c-1.207,0.899-1.353,2.534-0.36,3.662s2.663,1.972,3.936,2.741v-3.795    c-0.601,0.266-1.407,0.163-2.047,0.289c-0.729,0.144-1.421,0.451-2.016,0.894c-1.276,0.952-1.852,2.529-1.342,4.063    c1.225,3.675,5.778,2.881,8.067,0.881c2.079-1.819-0.574-4.935-2.86-3.706c-0.403,0.217-1.039,0.492-1.358,0.814    c-0.217,0.217,0.021-0.055,0,0.016c-0.09,0.304,0.21,1.415,0.327,1.455c0.246,0.084,1.135-0.19,1.396-0.23    c0.745-0.115,1.377-0.337,2.051-0.681c1.45-0.741,1.414-3.044,0-3.795c-0.652-0.346-1.3-0.701-1.946-1.058    c-0.286-0.159-0.572-0.32-0.856-0.484c-0.143-0.082-0.284-0.164-0.425-0.248c-0.322-0.202-0.285-0.162,0.111,0.119    c0.067,0.515,0.135,1.029,0.201,1.543c-0.067,0.222-0.422,0.412-0.309,0.608c0.072,0.126,0.653,0.239,0.797,0.302    c0.563,0.245,0.995,0.497,1.629,0.435c1.758-0.173,1.441-2.731-0.326-2.408c-0.022-0.024-0.046-0.047-0.069-0.071    C203.545,76.793,202.825,77.114,203.059,77.674"
   id="path297" />
		<path
   clip-path="url(#SVGID_47_)"
   fill="#D071A5"
   d="M188.027,83.967c-0.036,0.662,0.037,1.16,0.407,1.714    c0.532,0.795,1.795,0.925,2.298,0c1.079-1.986,1.233-4.736-0.943-6.087c-2.033-1.261-4.517,0.114-4.854,2.375    c-0.347,2.332,1.453,4.295,3.786,4.34c2.82,0.055,4.548-2.064,5.826-4.307c0.721-1.266-0.164-3.455-1.854-3.23    c-2.204,0.292-3.925,1.012-5.649,2.426c1.127,0.145,2.255,0.291,3.383,0.436c-1.08-2.138-3.304-5.846-6.22-4.15    c-3.326,1.932,0.178,5.241,1.619,6.976c0.701-1.207,1.403-2.413,2.106-3.619c-2.683-0.767-6.646-0.288-6.743,3.321    c-0.09,3.354,3.615,3.979,6.11,3.218c-0.842-1.095-1.685-2.189-2.525-3.284c-1.509,2.16-2.188,4.925-0.056,6.955    c2.129,2.026,5.377-1.22,3.227-3.226c-0.249-0.232,0.529-1.222,0.69-1.472c1.021-1.589-0.688-3.923-2.525-3.285    c-0.349,0.137-0.706,0.248-1.07,0.334c0.286,0.97,0.866,1.508,1.74,1.614c2.222,0.629,3.423-2.043,2.107-3.618    c-0.454-0.545-1.648-1.513-1.831-2.189c-0.072,0.555-0.145,1.11-0.218,1.665c-0.522,0.2-1.044,0.4-1.566,0.6    c0.229,0.286,0.44,0.584,0.631,0.896c0.3,0.465,0.554,0.946,0.804,1.438c0.681,1.34,2.384,1.259,3.383,0.436    c0.942-0.777,1.989-1.089,3.175-1.256c-0.808-1.051-1.616-2.102-2.424-3.153c-0.979,1.866-2.605,2.922-2.588,5.174    c0.326-0.428,0.651-0.855,0.977-1.283c0.007-0.03,0.015-0.06,0.021-0.09C188.901,83.065,188.063,83.324,188.027,83.967"
   id="path299" />
		<path
   clip-path="url(#SVGID_47_)"
   fill="#D071A5"
   d="M188.743,69.988c1.715,1.811,4.654,1.662,6.266-0.216    c1.492-1.74-0.737-3.902-2.486-2.486c-0.593,0.48-1.226,0.312-1.799-0.057c-0.308,1.137-0.616,2.274-0.924,3.411    c0.959-0.1,1.823-0.088,2.772,0.115c0.433,0.089,0.856,0.208,1.273,0.355c0.786,0.454,0.951,0.483,0.497,0.087    c-0.066-0.516-0.135-1.032-0.202-1.548c-0.035,0.124-0.068,0.248-0.103,0.372c0.308-0.402,0.617-0.803,0.926-1.205    c-0.392,0.247-1.385-0.569-1.621-0.748c-1.783-1.356-3.701,1.182-2.84,2.841c0.209,0.271,0.247,0.552,0.115,0.842    c0.547,0.072,1.094,0.143,1.641,0.215c0.097,0.118,0.194,0.236,0.291,0.354c-0.059-0.333-0.118-0.666-0.177-0.999    c-0.1-0.555-0.197-1.11-0.295-1.665c-0.231-1.302-2.076-2.024-3.145-1.279c-0.474,0.33-0.557,0.292-0.977-0.147    c-1.625-1.695-4.633,0.526-3.301,2.546c1.409,2.138,4.29,2.813,6.438,1.297c-1.048-0.426-2.096-0.853-3.144-1.279    c0.423,2.313,1.026,6.341,4.515,4.874c2.717-1.143,2.884-4.599,1.623-6.855c-0.947,0.947-1.893,1.893-2.84,2.84    c1.293,0.923,3.079,1.566,4.674,1.14c1.368-0.365,2.481-1.65,2.093-3.144c-0.819-3.153-6.32-2.936-8.702-2.605    c-1.64,0.228-1.665,2.613-0.437,3.346c2.056,1.228,4.348,0.924,6.133-0.618c-0.92-0.71-1.84-1.42-2.761-2.13    c-0.423,0.946-1.302,1.179-2.18,0.628C188.994,67.596,187.904,69.103,188.743,69.988"
   id="path301" />
		<path
   clip-path="url(#SVGID_47_)"
   fill="#D071A5"
   d="M184.291,70.725c0.867-1.267,0.869-2.743,0.54-4.2    c-0.12-0.534-0.77-1.101-1.348-1.027c-3.292,0.423-3.641,3.903-1.227,5.757c0.775,0.595,1.895,0.073,2.364-0.62    c1.518-2.236,0.717-5.559-1.697-6.82c-1.301-0.68-2.818-0.182-3.368,1.195c-0.574,1.436,0.171,3.179,1.04,4.334    c0.855-0.855,1.712-1.711,2.566-2.566c-2.146-1.232-5.072-0.471-6.119,1.852c-0.419,0.929-0.291,2.069,0.687,2.617    c1.717,0.964,3.481,0.932,5.237,0.094c-0.832-1.077-1.663-2.155-2.494-3.233c-2.188,1.739-2.468,5.656,0.63,6.646    c1.274,0.407,2.666-0.065,3.455-1.131c0.38-0.514,0.59-1.077,0.696-1.701c0.068-0.396,0.083-0.775,0.068-1.176    c-0.012-0.172-0.023-0.344-0.034-0.517c0.042-0.399-0.092-0.373-0.403,0.079h-1.153c0.017,0,0.035,0,0.053-0.001    c2.04,1.266,4.415-1.714,2.594-3.362c-1.282-1.159-3.095-1.163-4.358,0.079c-0.6,0.589-0.908,1.323-1.012,2.151    c-0.056,0.448-0.02,0.867,0.001,1.313c0.016,0.172,0.031,0.344,0.047,0.516c-0.067,0.568,0.066,0.487,0.402-0.242h1.124    c0.073,0.709,0.216,0.914,0.428,0.616c0.111-0.133,0.236-0.252,0.373-0.359c1.746-1.587-0.498-4.406-2.493-3.233    c-0.402,0.236-0.771,0.366-1.229,0.158c0.293,0.72,0.586,1.44,0.879,2.16c0.107-0.27,0.574-0.173,0.73-0.087    c1.984,1.101,3.521-1.338,2.271-2.946c-0.06-0.078-0.415-1.022-0.477-1.055c-0.559,0.387-1.115,0.774-1.673,1.161    c0.107,0.089,0.189,0.196,0.244,0.323c0.072,0.526,0.29,0.841,0.001,1.391c0.651-0.265,1.302-0.529,1.952-0.794    c0.088,0.049,0.178,0.099,0.266,0.148c-0.526-0.214-1.054-0.428-1.579-0.642c0.415,0.863,0.414,1.756,0.429,2.692    C182.718,71.175,183.825,71.405,184.291,70.725"
   id="path303" />
		<path
   clip-path="url(#SVGID_47_)"
   fill="#D071A5"
   d="M186.298,57.046c-0.447,0.362-1.246,0.41-1.747,0.113    c-0.159-0.096-0.294-0.222-0.388-0.385c-0.354-0.619,0.192-0.518-0.395,0.002c-0.284,0.166-0.569,0.332-0.854,0.497    c0.068-0.016,0.137-0.032,0.205-0.049h-1.033c0.027,0.004-0.06-0.355,0.209,0.154c0.03,0.047,0.062,0.095,0.093,0.142    c0.192,0.468,0.271,0.388,0.234-0.239c0.918-0.241,1.837-0.481,2.755-0.722c-0.511-0.36-0.934-0.886-1.157-1.472    c-0.343-0.894-0.995-1.438-1.964-1.495c-0.259-0.024-0.518-0.03-0.776-0.019c-2.165,0.023-2.832,3.574-0.532,3.929    c0.437,0.067,0.868,0.127,1.309,0.164c-0.655-0.499-1.311-0.997-1.964-1.496c0.651,1.633,1.598,2.867,3.053,3.865    c0.846,0.579,2.308,0.209,2.754-0.722c0.928-1.936,0.051-4.314-1.797-5.42c-1.868-1.119-4.129-0.029-4.061,2.235    c0.058,1.864,1.433,3.62,3.236,4.112c1.789,0.487,3.492-0.437,4.402-1.973C188.499,57.222,187.145,56.36,186.298,57.046"
   id="path305" />
		<path
   clip-path="url(#SVGID_47_)"
   fill="#D071A5"
   d="M180.706,55.917c0.104,0.274,0.201,0.494,0.118,0.773    c-0.053,0.175-0.194,0.24-0.2,0.24c-0.492,0.01-1.262-1.019-1.615-1.401c-0.673-0.729-1.915-0.681-2.596,0    c-0.756,0.756-0.635,1.83,0,2.596c1.38,1.666,4.081,3.134,5.983,1.347c1.249-1.173,1.479-3.784-0.232-4.675    C181.469,54.435,180.374,55.051,180.706,55.917"
   id="path307" />
		<path
   clip-path="url(#SVGID_47_)"
   fill="#D071A5"
   d="M178.596,55.045c0.14,0.436,0.31,0.847,0.494,1.264    c0.039,0.086,0.077,0.173,0.115,0.259c0.068,0.184,0.076,0.108,0.021-0.227c-0.068,0.254-0.068,0.508,0,0.762    c0.058,0.18,0.138,0.347,0.24,0.504c0.396,0.666,1.293,0.909,1.966,0.515c0.646-0.376,0.945-1.315,0.517-1.967    c-0.324-0.493-0.682-0.702-1.222-0.903c0.177,0.103,0.353,0.205,0.528,0.308c-0.444-0.416-0.794-0.922-1.236-1.344    C179.427,53.653,178.329,54.208,178.596,55.045"
   id="path309" />
		<path
   clip-path="url(#SVGID_47_)"
   fill="#D071A5"
   d="M183.741,69.541c1.018,0.238,1.613-0.266,2.309-0.932    c0.03-0.028,0.358-0.325,0.189-0.196c0.047-0.031,0.094-0.062,0.141-0.094c0.179-0.101,0.197-0.109,0.052-0.024    c-0.048,0.009-0.095,0.019-0.143,0.028c-0.234,0.013-0.434-0.048-0.598-0.184c-0.483-0.354-0.548-1.293-0.057-1.703    c-0.765,0.639-0.659,1.948,0,2.608c0.751,0.75,1.849,0.649,2.608,0c0.852-0.73,0.938-2.045,0.401-2.984    c-0.562-0.982-1.64-1.47-2.747-1.227c-1.652,0.362-2.626,2.294-2.821,3.834C183.027,69.042,183.39,69.458,183.741,69.541"
   id="path311" />
		<path
   clip-path="url(#SVGID_47_)"
   fill="#D071A5"
   d="M168.785,72.208c0.682-0.105,1.887-0.094,2.413,0.398    c0.266-1.009,0.532-2.018,0.799-3.027c-1.483,0.491-2.787,0.705-4.349,0.508c-1.885-0.236-2.731,2.9-0.987,3.646    c0.328,0.141,0.899,0.579,1.253,0.612c0.052-0.706,0.548-0.955,1.485-0.747c-0.219-0.193-0.438-0.385-0.657-0.577    c-0.439-0.385-0.878-0.77-1.317-1.154c-0.22-0.193-0.438-0.385-0.658-0.578c-0.423-0.513-0.541-0.54-0.355-0.081    c-0.205,0.498-0.411,0.995-0.617,1.492c-0.297,0.343,0.506-0.065,0.706-0.11c0.352-0.081,0.711-0.146,1.058-0.248    c0.824-0.243,1.578-0.592,2.138-1.265c0.954-1.149,0.895-2.964-0.308-3.919c-1.725-1.37-4.157,0.291-3.104,2.395    c0.651-1.153,0.622-1.583-0.09-1.291c-0.368,0.095-0.736,0.19-1.104,0.284c-0.475,0.126-0.931,0.226-1.372,0.452    c-0.996,0.51-1.627,1.497-1.543,2.635c0.103,1.377,1.119,2.161,2.096,2.975c0.957,0.798,1.939,1.836,3.018,2.467    c1.975,1.156,4.21-0.115,4.603-2.271c0.456-2.494-1.697-3.89-3.722-4.647c-0.174,1.281-0.347,2.562-0.521,3.843    c1.997,0.158,3.958-0.193,5.744-1.11c1.271-0.653,1.077-2.43,0-3.128c-1.995-1.294-5.104-0.832-5.408,1.836    C167.932,72.049,168.427,72.263,168.785,72.208"
   id="path313" />
		<path
   clip-path="url(#SVGID_47_)"
   fill="#D071A5"
   d="M168.431,75.088c0.039,0.001,0.079,0.002,0.118,0.003l-0.484-0.132    c0.316,0.225,0.692,0.306,1.026,0.459c0.403,0.184,0.628,0.405,0.905,0.651c0.747,0.665,1.883,0.737,2.619,0    c0.721-0.721,0.695-1.895,0-2.619c-0.156-0.163-0.313-0.325-0.468-0.488c-0.645-0.671-1.759-0.716-2.473-0.147    c-0.665,0.529-1.056,1.668-0.484,2.429c0.208,0.277-0.019-0.21,0.039-0.006c0.041,0.149,0.004-0.301,0.009-0.365    c-0.018,0.217-0.049,0.089,0.033-0.054c0.146-0.177,0.173-0.212,0.081-0.106c-0.096,0.101-0.06,0.077,0.108-0.071    c-0.859,0.564-1.223,1.686-0.684,2.608c0.559,0.954,1.673,1.123,2.607,0.684c0.892-0.419,1.455-1.345,1.583-2.297    c0.139-1.024-0.156-1.888-0.82-2.675c-0.889,0.888-1.775,1.775-2.663,2.663c0.171,0.148,0.341,0.296,0.512,0.444    c0.6-1.032,1.201-2.064,1.802-3.095c-0.718-0.188-1.496-0.366-2.24-0.319c-0.421,0.027-0.835,0.074-1.197,0.299    c-0.319,0.199-0.497,0.475-0.736,0.75C167.048,74.367,167.62,75.202,168.431,75.088"
   id="path315" />
		<path
   clip-path="url(#SVGID_47_)"
   fill="#F8EA37"
   d="M181.664,69.981c0.419,0.649,1.184,0.883,1.915,0.662    c1.025-0.311,1.473-1.456,0.977-2.396c-0.428-0.811-1.367-1.262-2.269-1.043c-0.989,0.24-1.467,1.076-1.575,2.018    c-0.077,0.659,0.527,1.291,1.114,1.464c0.938,0.276,2.042-0.001,2.646-0.795c0.758-0.996,0.115-2.406-0.802-3.043    c-2.102-1.46-4.034,1.517-2.785,3.318c0.749,1.079,2.087,1.027,2.844,0c0.148-0.2,0.287-0.406,0.429-0.611    c0.455-0.661,0.177-1.619-0.415-2.076c-0.597-0.461-1.583-0.48-2.113,0.126c-0.164,0.187-0.329,0.373-0.486,0.565    c0.862,0.111,1.725,0.222,2.586,0.333c-0.101-0.152-0.103-0.127-0.005,0.074c0.032,0.098,0.036,0.194,0.012,0.291    c-0.021,0.144-0.31,0.488-0.105,0.315c-0.523,0.139-1.045,0.277-1.568,0.415c-0.108-0.029-0.176-0.14-0.253-0.207    c-0.067-0.057-0.117-0.332-0.067-0.031c0.134-0.506,0.268-1.013,0.401-1.519c-0.189,0.183-0.113,0.153,0.228-0.092    c0.088-0.015,0.176-0.013,0.263,0.008l1.115,1.465c-0.043,0.624-0.354,0.796-0.934,0.514c-0.413,0.166-0.652,0.112-0.718-0.163    v-0.717c0.035-0.133,0.104-0.241,0.202-0.325c0.089-0.053,0.076-0.059-0.038-0.019C181.65,68.655,181.32,69.451,181.664,69.981"
   id="path317" />
		<path
   clip-path="url(#SVGID_47_)"
   fill="#F8EA37"
   d="M180.591,57.542c0.448,0.457,0.902,0.597,1.5,0.765    c0.11-0.814,0.22-1.627,0.33-2.44c-0.036,0.004-0.338,0.058-0.188,0.025c0.151-0.032-0.241-0.048,0.031,0.01    c-0.154-0.033-0.059-0.115-0.011-0.007c0.075,0.169,0.11,0.199,0.132,0.398c-0.109-0.977-0.911-1.77-1.948-1.484    c-0.937,0.258-1.444,1.411-0.92,2.261c0.749,1.214,2.225,1.757,3.53,1.112c0.672-0.332,0.771-1.278,0.349-1.826    c-0.47-0.608-1.297-0.62-1.854-0.126c0.233-0.207,0.003-0.05-0.146-0.072C180.624,56.042,179.963,56.899,180.591,57.542"
   id="path319" />
		<path
   clip-path="url(#SVGID_47_)"
   fill="#F8EA37"
   d="M189.595,69.188c-0.009,0.234,0-0.076,0.005,0.204    c0.003,0.165-0.009,0.306,0.037,0.471c0.082,0.289,0.268,0.537,0.486,0.739c0.45,0.416,1.046,0.663,1.66,0.67    c1.274,0.015,2.336-0.911,2.69-2.097c0.442-1.478-1.539-2.65-2.605-1.517c-0.239,0.254,0.197-0.077-0.082,0.085    c-0.072,0.052-0.148,0.098-0.229,0.138c0.167-0.067,0.194-0.083,0.079-0.048c-0.122,0.029-0.086,0.029,0.11-0.003    c-0.163-0.005-0.179,0.002-0.046,0.021c0.134,0.026,0.119,0.022-0.041-0.013c-0.085-0.025-0.171-0.05-0.256-0.076    c-1.779-0.539-2.979,2.173-1.281,3.041c1.438,0.736,3.461,0.271,4.193-1.256c-0.968-0.262-1.937-0.524-2.905-0.787    c0.004,0.156-0.008,0.141,0.018-0.002c-0.052,0.3-0.049,0.023,0.021-0.013c0.137-0.068-0.169,0.069-0.037,0.034    c0.188-0.049-0.026-0.013-0.035-0.017c0.01,0.004,0.098-0.012,0.123-0.008c0.002,0-0.199-0.042-0.11-0.012    c-0.314-0.106-0.513-0.245-0.855-0.254c0.158,0.042,0.315,0.085,0.474,0.128c-0.072-0.034-0.14-0.074-0.202-0.123    C190.277,68.131,189.615,68.621,189.595,69.188"
   id="path321" />
		<path
   clip-path="url(#SVGID_47_)"
   fill="#F8EA37"
   d="M189.536,86.031c0.864-0.858,0.949-2.318,0.282-3.325    c-0.801-1.208-2.654-1.577-3.881-0.804c-1.348,0.851-1.225,2.893-0.169,3.907c0.621,0.596,1.557,0.793,2.381,0.593    c0.771-0.188,1.323-0.68,1.751-1.326c0.581-0.877,0.072-2.089-0.833-2.471c-0.95-0.401-2.074,0.115-2.352,1.129    c0.073-0.245,0.214-0.423,0.424-0.533c-0.164,0.092-0.146,0.085,0.056-0.021c0.349-0.037,0.482-0.054,0.815,0.223    c0.114,0.173,0.141,0.207,0.079,0.103c-0.059-0.106-0.04-0.067,0.057,0.118c0.04,0.133,0.038,0.264-0.005,0.396    c-0.105,0.197-0.111,0.219-0.02,0.066c-0.191,0.191-0.383,0.382-0.573,0.572c0.056-0.041,0.115-0.076,0.177-0.105    c0.102-0.051,0.081-0.042-0.062,0.025c0.091,0.092,0.171-0.156-0.005-0.012c0.159,0.007,0.184,0.004,0.074-0.008    c-0.107-0.017-0.084-0.008,0.07,0.027c-0.19-0.087,0.001,0.002,0.086,0.05c0.069,0.042,0.078,0.044,0.028,0.007    c-0.066-0.054-0.045-0.031,0.062,0.07c-0.067-0.148,0.021,0.151,0.014,0.057c-0.007-0.119-0.002,0.061-0.005,0.089    c-0.013,0.121,0.013,0.135-0.019,0.261C187.751,86.019,188.859,86.704,189.536,86.031"
   id="path323" />
		<path
   clip-path="url(#SVGID_47_)"
   fill="#F8EA37"
   d="M203.899,80.406c-1.042,0.143-1.822,0.981-2.192,1.921    c-0.452,1.148-0.125,2.283,0.616,3.214c0.589,0.741,1.821,0.503,2.331-0.158c0.622-0.805,0.301-1.727-0.438-2.296    c0.063,0.02,0.109,0.058,0.138,0.114c0.044,0.068,0.043,0.065-0.004-0.008c0.005-0.021-0.119-0.313-0.049-0.081    c-0.01-0.03-0.085-0.367-0.061-0.216c0.021,0.131-0.01-0.221-0.009-0.227c0.006-0.193,0.065-0.43,0.366-0.607    C205.552,81.501,204.857,80.274,203.899,80.406"
   id="path325" />
		<path
   clip-path="url(#SVGID_47_)"
   fill="#F8EA37"
   d="M164.699,72.138c0.527,0.075,1.267,0.032,1.691,0.4    c0.141,0.122-0.057-0.081-0.005-0.072c0.031,0.006-0.017,0.179,0,0.161c0.104-0.11,0.462-0.303,0.117-0.254    c0.62,0.807,1.241,1.615,1.862,2.422c0.832-1.892,0.004-4.273-2.172-4.75c-1.128-0.247-1.995,0.496-2.102,1.601    c-0.006,0.065-0.012,0.13-0.018,0.195l0.226-0.838c0.03-0.069,0.639-0.191,0.641-0.2c0.01-0.036-0.438-0.433-0.474-0.472    c-1.471-1.574-3.846,0.802-2.365,2.365c0.826,0.871,1.863,1.595,3.122,1.384c1.279-0.213,2.076-1.164,2.188-2.434    c-0.7,0.533-1.401,1.067-2.102,1.6c0.594,0.125,0.111,0.038,0.115,0.019c-0.063,0.297,0.008,0.059,0.091-0.134    c-0.549,1.274,0.355,2.806,1.862,2.422c1.773-0.452,2.48-2.64,1.579-4.164c-0.883-1.493-3.053-1.812-4.487-0.993    C163.823,70.767,163.855,72.018,164.699,72.138"
   id="path327" />
		<g
   opacity="0.52"
   clip-path="url(#SVGID_47_)"
   id="g329">
			<g
   id="g331">
				<defs
   id="defs333">
					<rect
   id="SVGID_48_"
   x="171.961"
   y="60.04"
   width="27.809"
   height="15.868" />
				</defs>
				<clipPath
   id="SVGID_49_">
					<use
   xlink:href="#SVGID_48_"
   overflow="visible"
   id="use337" />
				</clipPath>
				<path
   clip-path="url(#SVGID_49_)"
   fill="#A19D65"
   d="M199.713,64.706c0.219-0.569-0.224-1.219-0.787-1.449      c-0.564-0.231-1.2-0.156-1.805-0.078c-1.051,0.136-2.102,0.272-3.152,0.408c-0.327,0.043-0.679,0.096-0.916,0.324      c-0.238,0.228-0.266,0.694,0.027,0.844c-0.921-1.649-2.203-3.095-3.729-4.207c-0.349-0.254-0.734-0.499-1.164-0.508      c-0.362-0.007-0.704,0.155-1.025,0.322c-4.713,2.454-8.284,7.003-9.549,12.163c-1.718-0.928-3.864-1.016-5.652-0.233      c2.283,1.749,4.975,2.961,7.798,3.511c0.582,0.113,1.215,0.193,1.743-0.076c0.426-0.216,0.715-0.624,0.993-1.012      c2.659-3.7,5.962-6.935,9.718-9.517c0.448,0.331,0.37,1.074-0.012,1.48c-0.382,0.407-0.953,0.564-1.493,0.704      c2.948,0.714,6.221-0.08,8.512-2.067C199.419,65.142,199.617,64.952,199.713,64.706"
   id="path339" />
			</g>
		</g>
	</g>
	<g
   clip-path="url(#SVGID_2_)"
   id="g341">
		<defs
   id="defs343">
			<rect
   id="SVGID_50_"
   width="300"
   height="180" />
		</defs>
		<clipPath
   id="SVGID_51_">
			<use
   xlink:href="#SVGID_50_"
   overflow="visible"
   id="use347" />
		</clipPath>
		<path
   clip-path="url(#SVGID_51_)"
   fill="#E5B47F"
   d="M140.084,68.158c3.163-1.295,5.64-4.156,6.469-7.473    c-2.651,1.269-5.932,1.116-8.453-0.394c-2.521-1.509-4.205-4.329-4.339-7.264c3.726,3.904,9.897,5.242,14.906,3.232    c-0.346-1.461-0.428-2.983-0.241-4.473c2.428,0.328,4.989-1.095,5.994-3.329c0.691-1.539,0.164-3.936-1.522-4.002    c-2.064-0.081-3.574,3.43-5.34,2.358c-0.385-4.657-1.066-9.37-3.022-13.613c-1.957-4.244-5.35-8.009-9.778-9.499    c-6.34-2.134-13.62,0.933-17.821,6.138c-4.2,5.206-5.746,12.112-5.917,18.799c-0.1,3.933,0.247,7.946,1.723,11.594    c1.475,3.648,4.19,6.915,7.823,8.426c3.582,1.489,7.631,1.164,11.446,1.865"
   id="path349" />
	</g>
	<g
   clip-path="url(#SVGID_2_)"
   id="g351">
		<defs
   id="defs353">
			<path
   id="SVGID_52_"
   d="M116.938,29.84c-4.2,5.205-5.747,12.111-5.917,18.798c-0.1,3.934,0.247,7.947,1.723,11.594     c1.475,3.648,4.189,6.915,7.824,8.426c3.581,1.489,7.63,1.165,11.445,1.866l8.072-2.365c3.163-1.296,5.639-4.157,6.468-7.473     c-2.65,1.268-5.932,1.115-8.453-0.394c-2.52-1.509-4.204-4.33-4.338-7.265c3.726,3.904,9.897,5.243,14.905,3.232     c-0.345-1.461-0.427-2.983-0.24-4.472c2.429,0.328,4.989-1.095,5.993-3.329c0.692-1.539,0.164-3.937-1.521-4.002     c-0.907-0.036-1.707,0.622-2.469,1.28c-0.972,0.839-1.881,1.679-2.871,1.078c-0.386-4.657-1.066-9.37-3.023-13.614     c-1.956-4.243-5.349-8.008-9.777-9.498c-1.39-0.468-2.827-0.686-4.265-0.686C125.373,23.015,120.217,25.775,116.938,29.84" />
		</defs>
		<clipPath
   id="SVGID_53_">
			<use
   xlink:href="#SVGID_52_"
   overflow="visible"
   id="use357" />
		</clipPath>
		<path
   clip-path="url(#SVGID_53_)"
   fill="#DCA776"
   d="M115.391,61.591c3.162,4.155,8.147,6.526,12.687,8.841    c0.334-1.233,0.668-2.466,1.002-3.698c-3.82,0.306-7.198-0.682-10.271-2.968c-0.676,1.156-1.352,2.312-2.027,3.469    c1.294,0.927,2.588,1.855,3.882,2.783c0.519-1.229,1.037-2.459,1.555-3.688c-2.26-0.407-3.936-1.269-5.558-2.899    c-1.841-1.851-4.664,0.98-2.861,2.861c2.006,2.094,4.49,3.427,7.346,3.93c2.273,0.4,3.46-2.334,1.555-3.689    c-1.297-0.922-2.594-1.845-3.892-2.767c-2.123-1.509-4.077,1.956-2.027,3.469c3.577,2.639,7.87,3.841,12.298,3.468    c2.165-0.183,2.773-3.232,0.527-3.899c-4.762-1.413-8.618-4.325-13.072-6.357C115.875,60.146,114.824,60.847,115.391,61.591"
   id="path359" />
		<path
   clip-path="url(#SVGID_53_)"
   fill="#DCA776"
   d="M128.195,26.836c2.445-1.103,5.077-1.724,7.701-2.28    c1.558-0.33,3.156-0.641,4.735-0.428c1.578,0.213,3.159,1.045,3.867,2.472c-1.599,1.431-3.802,1.917-5.757,2.802    c-2.472,1.119-4.576,2.898-6.645,4.654c-2.657,2.256-5.315,4.512-7.972,6.768c1.032,0.012,2.065,0.023,3.098,0.035    c-1.542,4.598-2.348,9.442-2.378,14.291c-0.795-2.451-2.77-4.49-5.194-5.363c-1.122-0.405-2.423-0.634-3.141-1.587    c-0.538-0.713-0.607-1.669-0.598-2.562C115.994,37.733,120.99,30.087,128.195,26.836"
   id="path361" />
		<path
   clip-path="url(#SVGID_53_)"
   fill="#DCA776"
   d="M148.053,50.611c-0.673-0.376-1.223-1.243-1.968-1.044    c-0.522,0.507-0.302,1.452,0.257,1.918c0.558,0.467,1.322,0.581,2.045,0.665c0.791,0.092,1.591,0.169,2.383,0.082    c1.473-0.161,2.866-0.927,3.819-2.057c0.477-0.565,1.8-2.381,0.728-2.661c-0.798-0.209-2.33,1.564-2.891,1.974    C151.331,50.287,149.411,51.37,148.053,50.611"
   id="path363" />
		<path
   clip-path="url(#SVGID_53_)"
   fill="#DCA776"
   d="M131.12,52.777c0.387,0.403,0.971,0.544,1.528,0.588    c1.377,0.108,2.788-0.287,3.91-1.093c0.453-0.326,0.899-0.882,0.666-1.39c-2.069,0.842-4.574,0.501-6.343-0.863    C130.644,50.956,130.45,52.081,131.12,52.777"
   id="path365" />
		<path
   clip-path="url(#SVGID_53_)"
   fill="#DCA776"
   d="M124.09,58.466c0.181-0.978-0.366-1.822-0.936-2.574    c-0.671-0.887-1.571-1.483-2.725-1.315c-1.212,0.176-2.103,1.189-1.924,2.443c0.189,1.32,1.436,2.208,2.741,1.872    c0.731-0.188,1.207-0.947,1.097-1.68c-0.101-0.672-0.74-1.428-1.504-1.328c0.427-0.056,0.26,1.649,0.578,1.126    c0.134-0.219-0.114,0.1-0.117,0.096c0.038,0.08,0.376,0.214,0.455,0.281c0.526,0.446,0.811,1.082,1.405,1.457    C123.484,59.047,124.017,58.864,124.09,58.466"
   id="path367" />
		<path
   clip-path="url(#SVGID_53_)"
   fill="#DCA776"
   d="M119.062,60.785c-0.196,1.248,0.744,2.59,1.45,3.539    c0.9,1.21,1.961,2.246,3.056,3.276c1.288,1.212,3.255-0.782,1.934-1.933c-1.044-0.91-2.094-1.831-3.024-2.86    c-0.698-0.772-1.287-2.301-2.29-2.661C119.759,59.992,119.135,60.322,119.062,60.785"
   id="path369" />
		<path
   clip-path="url(#SVGID_53_)"
   fill="#DCA776"
   d="M145.957,50.449c-0.131,1.07,0.609,2.299,1.154,3.174    c0.639,1.026,1.439,2.004,2.392,2.752c0.89,0.698,2.164-0.531,1.265-1.265c-0.89-0.727-1.741-1.466-2.431-2.394    c-0.597-0.802-0.949-1.872-1.666-2.563C146.387,49.88,145.999,50.102,145.957,50.449"
   id="path371" />
		<path
   clip-path="url(#SVGID_53_)"
   fill="#DCA776"
   d="M145.501,50.914c0.269,0.505,0.697,0.957,1.058,1.4    c0.383,0.47,0.766,0.941,1.149,1.411c0.469,0.576,1.365-0.162,1.009-0.778c-0.347-0.602-0.696-1.206-1.001-1.831l-1.157,0.893    c0.33,0.379,0.6,0.784,0.833,1.23c0.395-0.306,0.791-0.611,1.187-0.916c-0.517-0.648-1.041-1.288-1.502-1.976    c-0.688-1.027-2.192,0.156-1.331,1.027c0.628,0.637,1.191,1.331,1.764,2.018c0.565,0.677,1.587-0.189,1.187-0.916    c-0.301-0.548-0.668-1.053-1.096-1.509c-0.559-0.595-1.663,0.21-1.157,0.893c0.415,0.559,0.79,1.148,1.164,1.735    c0.336-0.259,0.672-0.519,1.009-0.778c-0.766-0.863-1.503-1.897-2.421-2.598C145.763,49.889,145.285,50.507,145.501,50.914"
   id="path373" />
		<path
   clip-path="url(#SVGID_53_)"
   fill="#DCA776"
   d="M142.142,43.856c0.003,0.016,0.007,0.033,0.01,0.049    c0.044,0.22,0.274,0.361,0.484,0.369c0.035,0.001,0.071,0.002,0.106,0.004c0.282,0.01,0.516-0.202,0.599-0.456    c1.294-3.952-1.554-10.267-6.067-10.688c-5.976-0.556-5.67,7.379-3.138,10.738c0.856,1.136,2.614,0.186,1.942-1.136    c-0.78-1.534-1.337-3.065-1.276-4.807c0.08-2.288,1.937-3.122,3.8-1.906c1.29,0.842,2.166,2.402,2.683,3.805    c0.275,0.748,0.467,3.572,1.176,3.466C142.205,43.332,142.098,43.638,142.142,43.856"
   id="path375" />
		<path
   clip-path="url(#SVGID_53_)"
   fill="#DCA776"
   d="M141.882,43.881c0.013,0.026,0.025,0.052,0.038,0.079    c0.114,0.235,0.407,0.307,0.64,0.26c0.975-0.197,0.941-1.639,0.913-2.4c-0.041-1.117-1.669-1.11-1.731,0    c-0.071,1.255,0.078,2.362,0.397,3.573c0.275,1.043,1.757,0.771,1.818-0.246c0.257-4.287-1.033-12.157-6.438-12.736    c-2.115-0.227-4.142,0.968-5.007,2.908c-1.032,2.317-0.078,4.979,0.806,7.169c0.544,1.351,2.748,0.803,2.23-0.614    c-0.494-1.351-1.186-2.868-1.137-4.334c0.106-3.214,3.629-3.602,5.302-1.254c1.787,2.508,2.468,5.838,2.393,8.861    c0.606-0.082,1.212-0.164,1.818-0.246c-0.29-1.025-0.418-2.017-0.451-3.081c-0.567,0.077-1.133,0.154-1.7,0.23    c0.139,0.488,0.169,0.979,0.09,1.473c0.232-0.132,0.465-0.264,0.697-0.396c-0.029-0.005-0.058-0.01-0.087-0.015    C142.013,43.033,141.674,43.454,141.882,43.881"
   id="path377" />
	</g>
	<g
   clip-path="url(#SVGID_2_)"
   id="g379">
		<defs
   id="defs381">
			<path
   id="SVGID_54_"
   d="M173.064,51.413c-4.452,5.156-9.897,9.731-16.417,11.701c-9.844,2.976-21.332-0.15-30.41,4.137     c-2.493,0.425-4.967,0.955-7.41,1.6c-0.833,0.219-1.68,0.461-2.381,0.958c-2.721,1.933-1.763,6.129-0.519,9.225     c1.307,3.253,2.614,6.506,3.92,9.759c9.181,14.289,26.608,22.837,43.527,21.349c3.093-0.271,6.27-0.897,8.79-2.711     c0.995-0.715,1.859-1.596,2.68-2.506c3.519-3.896,6.44-8.684,6.625-13.931c0.316-9.001-7.883-16.627-16.73-18.312     c-0.259-0.049-0.522-0.098-0.787-0.147c5.832-3.235,10.787-8.005,14.87-13.313c4.845-6.298,8.572-13.364,12.277-20.392     c-1.554-1.719-3.56-3.024-5.76-3.746C181.147,40.452,177.515,46.257,173.064,51.413" />
		</defs>
		<clipPath
   id="SVGID_55_">
			<use
   xlink:href="#SVGID_54_"
   overflow="visible"
   id="use385" />
		</clipPath>
		
			<radialGradient
   id="SVGID_56_"
   cx="0"
   cy="180"
   r="1"
   gradientTransform="matrix(42.2864 4.1255 4.1255 -42.2864 -583.2914 7684.1592)"
   gradientUnits="userSpaceOnUse">
			<stop
   offset="0"
   style="stop-color:#7299AE"
   id="stop388" />
			<stop
   offset="0.6967"
   style="stop-color:#597F9B"
   id="stop390" />
			<stop
   offset="0.9996"
   style="stop-color:#4A6E8B"
   id="stop392" />
			<stop
   offset="1"
   style="stop-color:#4A6E8B"
   id="stop394" />
		</radialGradient>
		<polygon
   clip-path="url(#SVGID_55_)"
   fill="url(#SVGID_56_)"
   points="114.456,27.606 198.497,35.806 190.37,119.107     106.329,110.908   "
   id="polygon396" />
		<path
   clip-path="url(#SVGID_55_)"
   fill="#658398"
   d="M154.147,72.869c10.094,5.179,27.354,2.858,29.394,31.457    c9.021-11.352,7.605-52.707,8.975-67.141c-0.858-0.304-1.579-0.977-1.939-1.813c-4.823,9.796-10.564,19.402-18.706,26.678    C167.556,65.907,164.72,68.743,154.147,72.869"
   id="path398" />
	</g>
	<g
   clip-path="url(#SVGID_2_)"
   id="g400">
		<defs
   id="defs402">
			<rect
   id="SVGID_57_"
   width="300"
   height="180" />
		</defs>
		<clipPath
   id="SVGID_58_">
			<use
   xlink:href="#SVGID_57_"
   overflow="visible"
   id="use406" />
		</clipPath>
		<path
   clip-path="url(#SVGID_58_)"
   fill="#FFFFFF"
   d="M133.432,40.737c0.005,3.269,2.251,6.415,5.341,7.482    c0.911,0.314,1.937,0.454,2.825,0.079c1.229-0.521,1.88-1.886,2.14-3.196c0.516-2.599-0.126-5.406-1.72-7.522    c-1.024-1.36-2.485-2.46-4.164-2.736c-1.68-0.276-3.562,0.408-4.419,1.878c-1.04,1.782-0.381,4.035,0.35,5.964"
   id="path408" />
		<path
   clip-path="url(#SVGID_58_)"
   fill="#597A5C"
   d="M107.107,36.093c-0.094-7.927,5.579-15.574,13.193-17.783    c-0.47,0.992-0.94,1.984-1.41,2.976c7.787-3.527,17.318-2.787,24.291-7.733c-1.4,2.943-3.651,5.475-6.408,7.211    c2.796-0.459,5.593-0.919,8.389-1.378c-1.057,1.496-2.357,2.819-3.833,3.904c1.544-1.09,3.615-1.395,5.408-0.796    c-5.052,4.213-11.033,7.306-17.391,8.993c2.02-0.42,4.162-0.231,6.078,0.535c-4.139,2.256-8.76,3.625-13.46,3.987    c1.819,0.422,3.637,0.845,5.456,1.267c-3.682,0.581-6.845,3.625-7.565,7.282c1.311-1.361,3.193-2.154,5.083-2.141    c-1.905,4.326-1.642,9.544,0.688,13.657c-0.95-1.646-2.8-2.811-4.696-2.687s-3.669,1.699-3.774,3.596    c-0.106,1.897,1.72,3.738,3.595,3.433c-0.172,1.788,0.389,3.635,1.526,5.026c-1.403-0.742-2.926-1.255-4.492-1.512l1.758,2.651    c-7.636-0.218-15.103-3.935-19.88-9.896c2.293,0.181,4.549,0.83,6.588,1.895c-5.283-4.32-8.873-10.657-9.862-17.409    c2.63,1.795,5.261,3.59,7.892,5.385c-1.305-1.096-2.116-2.761-2.174-4.465c0.723,1.042,1.744,1.873,2.91,2.37    c-2.719-5.162-2.378-11.799,0.857-16.654C104.978,30.559,105.448,33.721,107.107,36.093"
   id="path410" />
	</g>
	<g
   clip-path="url(#SVGID_2_)"
   id="g412">
		<defs
   id="defs414">
			<path
   id="SVGID_59_"
   d="M118.89,21.287c0.47-0.993,0.94-1.985,1.41-2.976c-7.614,2.208-13.286,9.855-13.193,17.783     c-1.658-2.373-2.129-5.534-1.233-8.287c-3.234,4.856-3.576,11.492-0.857,16.654c-1.166-0.497-2.188-1.328-2.91-2.37     c0.058,1.704,0.868,3.369,2.174,4.465c-2.631-1.795-5.261-3.59-7.892-5.385c0.989,6.752,4.579,13.089,9.862,17.409     c-2.039-1.065-4.295-1.713-6.588-1.894c4.778,5.96,12.244,9.677,19.88,9.895l-1.758-2.651c1.566,0.257,3.089,0.77,4.492,1.513     c-1.137-1.391-1.698-3.24-1.526-5.027c-1.875,0.305-3.701-1.535-3.595-3.433c0.105-1.897,1.878-3.472,3.774-3.596     c1.897-0.124,3.746,1.041,4.697,2.687c-2.331-4.112-2.593-9.331-0.688-13.656c-1.89-0.014-3.773,0.779-5.084,2.14     c0.721-3.657,3.883-6.701,7.565-7.282c-1.819-0.422-3.638-0.845-5.456-1.267c4.7-0.362,9.321-1.731,13.46-3.986     c-1.915-0.767-4.058-0.955-6.079-0.536c6.359-1.686,12.34-4.779,17.392-8.993c-1.793-0.599-3.864-0.294-5.407,0.796     c1.475-1.084,2.774-2.408,3.833-3.904c-2.797,0.46-5.594,0.919-8.39,1.378c2.758-1.736,5.008-4.268,6.409-7.211     C136.208,18.499,126.678,17.76,118.89,21.287" />
		</defs>
		<clipPath
   id="SVGID_60_">
			<use
   xlink:href="#SVGID_59_"
   overflow="visible"
   id="use418" />
		</clipPath>
		<path
   clip-path="url(#SVGID_60_)"
   fill="#87AB49"
   d="M148.401,7.449c-1.758,4.479-4.562,8.544-8.124,11.779    c2.566,0.024,5.134-0.683,7.328-2.015c-4.17,5.163-10.293,8.708-16.847,9.753c2.796-0.762,5.414-2.166,7.595-4.073    c-3.02,0.72-6.077,1.284-9.156,1.689c2.116-1.569,4.233-3.137,6.349-4.706c-6.897,0.682-13.405,4.598-17.239,10.372    c0.725-2.391,1.897-4.646,3.437-6.614c-5.437,2.595-8.525,9.319-6.951,15.135c-1.833-4.139-1.929-9.015-0.259-13.222    c-4.432,4.534-5.762,11.825-3.217,17.631c-1.903-1.719-3.578-3.69-4.968-5.846c-1.464,2.999,0.237,7.098,3.394,8.18    c-1.294,0.332-2.651,0.419-3.976,0.254c1.011,1.111,1.775,2.447,2.22,3.882c-2.574,0.271-5.231-0.303-7.464-1.613    c-0.178,3.708,1.833,7.44,5.028,9.331c-4.035-0.034-7.721-2.581-10.116-5.83c-2.395-3.248-3.709-7.148-4.937-10.992    c-2.099-6.568-4.052-13.715-1.801-20.232c1.109-3.211,3.18-6.017,5.564-8.437c5.433-5.514,12.667-9.224,20.315-10.422    c7.22-1.13,14.605-0.066,21.741,1.512c5.569,1.232,11.404,2.774,16.874,1.157c0.208,0.579,0.415,1.158,0.623,1.738"
   id="path420" />
	</g>
	<g
   clip-path="url(#SVGID_2_)"
   id="g422">
		<defs
   id="defs424">
			<rect
   id="SVGID_61_"
   width="300"
   height="180" />
		</defs>
		<clipPath
   id="SVGID_62_">
			<use
   xlink:href="#SVGID_61_"
   overflow="visible"
   id="use428" />
		</clipPath>
		<path
   clip-path="url(#SVGID_62_)"
   fill="#7B5D43"
   d="M228.045,111.931c-0.572-0.392-1.321-0.456-1.975-0.228    c-1.505,0.527-2.261,1.949-3.237,3.105c-0.433,0.512-0.932,0.963-1.46,1.376c-0.011-0.118-0.02-0.236-0.032-0.353    c-0.85-7.949-5.104-15.476-11.474-20.304c-2.086-1.581-4.436-2.9-7.008-3.385c-3.434-0.647-6.964,0.234-10.285,1.321    c-2.64,0.864-5.272,1.883-7.503,3.537c-5.97,4.429-7.937,12.531-7.936,19.963c0,2.386,0.17,4.82,1.08,7.024    c1.126,2.724,3.297,4.881,5.609,6.707c4.646,3.667,10.218,6.341,16.115,6.819c5.898,0.479,11.926-1.946,15.993-6.245    c-4.019-0.373-8.509,0-11.315-2.973c4.962,0.852,10.819,1.271,14.264-2.401c1.006-1.074,1.661-2.374,2.062-3.779    c3.78-0.961,6.976-4.157,7.754-8.002C228.852,113.355,228.916,112.526,228.045,111.931"
   id="path430" />
	</g>
	<g
   clip-path="url(#SVGID_2_)"
   id="g432">
		<defs
   id="defs434">
			<path
   id="SVGID_63_"
   d="M192.574,93.465c-2.64,0.864-5.272,1.882-7.502,3.537c-5.971,4.428-7.938,12.531-7.938,19.964     c0,2.384,0.17,4.819,1.081,7.022c1.126,2.725,3.296,4.882,5.61,6.708c4.645,3.668,10.216,6.342,16.114,6.819     c5.898,0.479,11.926-1.946,15.992-6.246c-4.017-0.372-8.508,0-11.313-2.972c4.961,0.852,10.819,1.271,14.262-2.401     c1.007-1.074,1.662-2.375,2.063-3.779c3.779-0.961,6.974-4.157,7.753-8.002c0.153-0.759,0.22-1.589-0.652-2.186     c-0.572-0.39-1.322-0.456-1.975-0.227c-1.505,0.527-2.262,1.949-3.236,3.105c-0.433,0.513-0.933,0.963-1.461,1.375     c-0.011-0.116-0.021-0.234-0.032-0.352c-0.85-7.948-5.103-15.476-11.474-20.303c-2.086-1.582-4.436-2.901-7.008-3.387     c-0.81-0.152-1.623-0.22-2.439-0.22C197.774,91.923,195.113,92.634,192.574,93.465" />
		</defs>
		<clipPath
   id="SVGID_64_">
			<use
   xlink:href="#SVGID_63_"
   overflow="visible"
   id="use438" />
		</clipPath>
		<path
   clip-path="url(#SVGID_64_)"
   fill="#5A3C24"
   d="M189.359,129.955c-0.778-0.747-1.728-1.314-2.753-1.646    c-0.64-0.206-1.427-0.287-1.9,0.188c-0.362,0.366-0.406,0.957-0.252,1.448c0.403,1.278,1.815,1.9,3.08,2.344    c-0.327-0.528-0.427-1.192-0.268-1.793c0.812-0.136,1.527,0.483,2.181,0.984c0.198,0.151,0.552,0.258,0.637,0.022    c0.032-0.086,0.003-0.181-0.026-0.268c-0.248-0.739-0.603-1.581-1.356-1.782"
   id="path440" />
		<path
   clip-path="url(#SVGID_64_)"
   fill="#6A4731"
   d="M228.637,113.332c-1.102,1.596-1.972,3.376-3.482,4.646    c-1.616,1.358-3.927,2.038-5.975,2.321c-1.47,0.203-1.129,2.254,0,2.652c3.13,1.103,6.213,0.294,8.622-1.912    c1.998-1.828,3.341-4.881,2.264-7.521C229.808,112.888,229.041,112.746,228.637,113.332"
   id="path442" />
		<path
   clip-path="url(#SVGID_64_)"
   fill="#715239"
   d="M186.12,135.708c1.065,0,1.066-1.656,0-1.656S185.053,135.708,186.12,135.708    "
   id="path444" />
		<path
   clip-path="url(#SVGID_64_)"
   fill="#74543A"
   d="M205.461,117.058c1.899-4.918-3.52-11.752-8.796-10.337    c-6.637,1.781-4.328,9.719-1.479,13.745c1.705,2.409,5.679,0.191,4.02-2.351c-1.015-1.555-3.877-5.838-1.461-7.248    c3.007-1.757,5.511,4.194,6.06,6.19C204.044,117.934,205.172,117.81,205.461,117.058"
   id="path446" />
		<path
   clip-path="url(#SVGID_64_)"
   fill="#74543A"
   d="M218.984,100.878c-0.029-3.596-4.464-4.609-6.984-2.766    c-3.144,2.299-2.47,8.115-0.469,10.982c1.046,1.498,3.848,1.131,3.728-1.01c-0.106-1.896-1.23-3.755-1.125-5.664    c0.122-2.216,2.124-1.598,3.393-0.707C218.141,102.146,218.989,101.568,218.984,100.878"
   id="path448" />
		<path
   clip-path="url(#SVGID_64_)"
   fill="#74543A"
   d="M203.604,129.708c0.331,0.872,1.045,1.748,1.978,1.72    c-1.188-1.811-1.616-4.104-1.159-6.221C203.216,126.29,203.027,128.192,203.604,129.708"
   id="path450" />
		<path
   clip-path="url(#SVGID_64_)"
   fill="#74543A"
   d="M205.276,135.804c-4.502,0.969-10.805-2.265-15.354-2.986    c-0.877-0.139-0.076,1.438-0.949,1.598c1.693,2.217,4.61,3.037,7.334,3.644c2.796,0.623,5.625,1.163,8.487,1.263    c1.868,0.066,3.77-0.062,5.535-0.676c2.74-0.952,4.101-4.294,6.086-6.408c-2.1,0.691-4.202,2.142-6.381,2.515    C208.186,135.067,207.111,135.408,205.276,135.804"
   id="path452" />
	</g>
	<g
   clip-path="url(#SVGID_2_)"
   id="g454">
		<defs
   id="defs456">
			<rect
   id="SVGID_65_"
   width="300"
   height="180" />
		</defs>
		<clipPath
   id="SVGID_66_">
			<use
   xlink:href="#SVGID_65_"
   overflow="visible"
   id="use460" />
		</clipPath>
		<path
   clip-path="url(#SVGID_66_)"
   fill="#FFFFFF"
   d="M205.268,113.657c-1.117-2.451-3.613-4.817-6.592-4.533    c-2.003,0.19-3.684,1.612-4.339,3.291s-0.404,3.552,0.313,5.211c0.642,1.485,1.686,2.881,3.189,3.761    c1.504,0.879,3.507,1.175,5.152,0.524c1.622-0.643,2.696-2.116,3.004-3.659C206.305,116.709,205.931,115.11,205.268,113.657"
   id="path462" />
		<path
   clip-path="url(#SVGID_66_)"
   fill="#FFFFFF"
   d="M211.458,106.235c-0.358-0.987-0.358-2.072-0.122-3.287    c0.407-2.08,2.339-4.202,4.89-4.036c2.663,0.174,4.222,2.497,5.188,4.547c0.643,1.36,0.453,1.751,0.391,3.21    c-0.063,1.459-0.938,2.982-2.552,3.587c-0.696,0.261-2.488,0.57-3.223,0.387c-2.063-0.516-2.295-0.658-3.973-2.928"
   id="path464" />
		<path
   clip-path="url(#SVGID_66_)"
   fill="#392918"
   d="M164.358,139.439c1.438-5.602,0.434-11.784-2.702-16.645    c-1.061-1.646-2.361-3.162-3.097-4.979c-0.733-1.814-0.774-4.093,0.545-5.54c0.792-0.868,1.963-1.313,3.128-1.472    c2.07-0.283,4.242,0.273,5.92,1.516c0.865,0.641,1.619,1.463,2.611,1.878s2.364,0.238,2.83-0.731    c0.439-0.917-0.132-1.982-0.721-2.813c-2.652-3.743-6.151-7.036-10.451-8.637s-9.467-1.277-13.084,1.545    c-3.616,2.823-5.13,8.335-2.802,12.288c-0.309-1.341-0.058-2.802,0.68-3.963c0.36,3.814,1.951,7.502,4.477,10.383    c-0.389-1.229-0.102-2.647,0.732-3.63C153.022,126.749,163.172,131.396,164.358,139.439"
   id="path466" />
	</g>
	<g
   clip-path="url(#SVGID_2_)"
   id="g468">
		<defs
   id="defs470">
			<path
   id="SVGID_67_"
   d="M149.338,103.562c-3.616,2.823-5.131,8.335-2.803,12.288c-0.308-1.341-0.057-2.802,0.681-3.963     c0.36,3.813,1.95,7.502,4.477,10.383c-0.39-1.229-0.102-2.647,0.732-3.63c0.598,8.109,10.747,12.755,11.935,20.801     c1.436-5.603,0.433-11.786-2.702-16.646c-1.063-1.645-2.362-3.162-3.098-4.977c-0.733-1.815-0.774-4.094,0.546-5.54     c0.792-0.869,1.963-1.313,3.128-1.474c2.068-0.281,4.24,0.274,5.92,1.518c0.863,0.64,1.618,1.462,2.61,1.876     c0.992,0.415,2.364,0.239,2.829-0.73c0.441-0.918-0.131-1.981-0.72-2.813c-2.652-3.744-6.152-7.037-10.451-8.638     c-1.689-0.629-3.513-0.961-5.324-0.961C154.3,101.056,151.534,101.848,149.338,103.562" />
		</defs>
		<clipPath
   id="SVGID_68_">
			<use
   xlink:href="#SVGID_67_"
   overflow="visible"
   id="use474" />
		</clipPath>
		<path
   clip-path="url(#SVGID_68_)"
   fill="#20180F"
   d="M170.129,115.816c-1.926-3.126-4.253-6.64-8.131-7.371    c-3.109-0.587-6.282,0.753-7.483,3.806c-1.613,4.097,0.859,7.869,3.158,11.057c3.985,5.526,5.848,11.377,4.279,18.162    c-0.666,2.886,3.611,4.083,4.445,1.226c1.547-5.301,1.09-10.737-1.121-15.792c-1.24-2.836-3.102-4.959-4.795-7.494    c-0.82-0.971-1.451-2.058-1.893-3.262c0.731-3.782,2.304-5.06,4.715-3.83c2.475,0.349,4.154,2.605,5.732,4.342    C169.568,117.243,170.542,116.487,170.129,115.816"
   id="path476" />
		<path
   clip-path="url(#SVGID_68_)"
   fill="#20180F"
   d="M158.038,110.671c0.806-0.505,1.844-0.338,2.776-0.153    c3.305,0.652,6.608,1.306,9.911,1.958c-3.774-6.381-12.118-9.651-19.224-7.536c3.252-0.663,6.738-0.108,9.624,1.533    c-3.796-1.346-8.463,0.705-10.04,4.41c2.149-2.231,5.701-2.978,8.567-1.8C159.115,109.612,158.577,110.143,158.038,110.671"
   id="path478" />
		<path
   clip-path="url(#SVGID_68_)"
   fill="none"
   stroke="#20180F"
   stroke-miterlimit="10"
   d="M158.038,110.671    c0.806-0.505,1.844-0.338,2.776-0.153c3.305,0.652,6.608,1.306,9.911,1.958c-3.774-6.381-12.118-9.651-19.224-7.536    c3.252-0.663,6.738-0.108,9.624,1.533c-3.796-1.346-8.463,0.705-10.04,4.41c2.149-2.231,5.701-2.978,8.567-1.8    C159.115,109.612,158.577,110.143,158.038,110.671z"
   id="path480" />
	</g>
	<g
   clip-path="url(#SVGID_2_)"
   id="g482">
		<defs
   id="defs484">
			<rect
   id="SVGID_69_"
   width="300"
   height="180" />
		</defs>
		<clipPath
   id="SVGID_70_">
			<use
   xlink:href="#SVGID_69_"
   overflow="visible"
   id="use488" />
		</clipPath>
		<path
   clip-path="url(#SVGID_70_)"
   fill="#CD5F65"
   d="M173.616,118.956c-1.856-0.428-3.262-2.076-3.815-3.899    c-0.555-1.822-0.374-3.792,0.045-5.65c0.21-0.932,0.613-1.992,1.533-2.248c0.759-0.211,1.573,0.262,2.009,0.917    c0.436,0.656,0.577,1.457,0.708,2.233c0.354,2.091,0.708,4.182,1.062,6.273c0.114,0.669,0.206,1.43-0.215,1.963    c-0.422,0.532-1.537,0.378-1.512-0.302"
   id="path490" />
		<path
   clip-path="url(#SVGID_70_)"
   fill="#392918"
   d="M193.478,97.6c0.074,1.675,0.149,3.351,0.223,5.025    c1.851-1.139,3.492-2.613,4.823-4.33c-0.37,1.871-0.981,3.694-1.816,5.409c4.69-0.366,9.113-3.229,11.369-7.357    c-0.403,1.491-0.809,2.981-1.214,4.473c2.964-0.584,5.606-2.621,6.924-5.34c0.811-1.671,1.096-3.77,0.083-5.327    c-1.012-1.558-3.628-2.003-4.708-0.491c0.102-0.646,0.201-1.292,0.302-1.938c-7.283-5.59-18.202-5.324-25.762-0.113    c-7.559,5.211-11.656,14.691-11.253,23.864c0.144,3.247,0.807,6.489,2.146,9.45c2.14,4.733,6.029,8.653,10.747,10.83    c0.208-2.521,1.952-4.599,3.371-6.692s2.598-4.771,1.573-7.083c0.65,1.009,1.301,2.019,1.95,3.028    c-1.417-4.612-3.327-9.073-5.686-13.282c0.964,1.015,1.928,2.03,2.892,3.045C188.146,106.099,189.786,100.743,193.478,97.6"
   id="path492" />
	</g>
	<g
   clip-path="url(#SVGID_2_)"
   id="g494">
		<defs
   id="defs496">
			<path
   id="SVGID_71_"
   d="M183.702,87.611c-7.56,5.211-11.658,14.691-11.254,23.863c0.143,3.247,0.807,6.489,2.146,9.451     c2.141,4.734,6.029,8.653,10.747,10.829c0.207-2.52,1.952-4.598,3.37-6.692c1.419-2.093,2.598-4.771,1.574-7.083     c0.65,1.01,1.301,2.02,1.951,3.029c-1.417-4.613-3.327-9.074-5.688-13.283c0.964,1.017,1.928,2.031,2.894,3.047     c-1.298-4.674,0.345-10.028,4.034-13.172c0.075,1.676,0.149,3.351,0.225,5.025c1.849-1.139,3.492-2.613,4.823-4.33     c-0.37,1.871-0.983,3.695-1.817,5.409c4.69-0.367,9.113-3.229,11.37-7.358c-0.405,1.491-0.811,2.982-1.215,4.474     c2.965-0.584,5.605-2.621,6.924-5.339c0.811-1.673,1.095-3.771,0.083-5.329c-1.012-1.558-3.627-2.002-4.707-0.49     c0.1-0.647,0.201-1.293,0.301-1.939c-3.615-2.775-8.128-4.107-12.679-4.107C192.166,83.616,187.508,84.986,183.702,87.611" />
		</defs>
		<clipPath
   id="SVGID_72_">
			<use
   xlink:href="#SVGID_71_"
   overflow="visible"
   id="use500" />
		</clipPath>
		<path
   clip-path="url(#SVGID_72_)"
   fill="#20180F"
   d="M185.099,122.058c2.478,2.864,4.955,5.729,7.433,8.593    c0.374,0.433,0.766,1.05,0.448,1.524c-0.104,0.158-0.271,0.264-0.437,0.355c-3.855,2.159-8.752,0.099-12.144-2.735    c-5.082-4.246-8.73-10.603-8.425-17.219c0.161-3.456,1.363-6.778,2.742-9.952c1.692-3.896,3.936-7.933,7.79-9.723    c-4.105,4.085-6.305,10.01-5.861,15.784c1.161-4.104,3.911-7.737,7.546-9.97c-2.789,3.469-4.937,7.45-6.303,11.686    c1.955-0.631,3.943-1.163,5.952-1.593c-2.006,0.862-3.755,2.312-4.977,4.12c3.015,0.625,5.898,1.869,8.421,3.633    c-1.49-0.251-2.981-0.504-4.472-0.756c2.279,1.938,4.24,4.251,5.778,6.817C187.428,122.436,186.263,122.246,185.099,122.058"
   id="path502" />
		<path
   clip-path="url(#SVGID_72_)"
   fill="#20180F"
   d="M204.646,88.284c0.166,0.647,0.332,1.293,0.499,1.94    c0.591-0.882,1.182-1.764,1.773-2.647c0.982,1.399,1.4,3.184,1.143,4.874c-0.003-1.738,2.691-2.664,3.757-1.291    c0.476,0.612,0.575,1.438,0.534,2.21c-0.119,2.226-1.327,4.365-3.169,5.618c0.726-2.118,0.852-4.439,0.36-6.623    c-0.354,2.214-1.775,4.145-3.513,5.562c-1.736,1.417-3.786,2.389-5.813,3.347c3.358-2.127,5.698-5.792,6.215-9.734    c-2.295,2.729-6.149,4.041-9.631,3.283C200.319,94.231,203.431,91.639,204.646,88.284"
   id="path504" />
	</g>
	<g
   clip-path="url(#SVGID_2_)"
   id="g506">
		<defs
   id="defs508">
			<rect
   id="SVGID_73_"
   width="300"
   height="180" />
		</defs>
		<clipPath
   id="SVGID_74_">
			<use
   xlink:href="#SVGID_73_"
   overflow="visible"
   id="use512" />
		</clipPath>
		<path
   clip-path="url(#SVGID_74_)"
   fill="#7B5D43"
   d="M190.988,134.427c-1.609-0.057-3.251-0.12-4.762-0.677    c-1.512-0.558-2.896-1.705-3.315-3.261c-0.417-1.557,0.434-3.466,1.997-3.851c2.362-0.581,4.366,2.261,6.799,2.187"
   id="path514" />
	</g>
	<g
   clip-path="url(#SVGID_2_)"
   id="g516">
		<defs
   id="defs518">
			<path
   id="SVGID_75_"
   d="M184.909,126.639c-1.565,0.385-2.414,2.294-1.997,3.851c0.417,1.555,1.803,2.703,3.313,3.261     c1.512,0.558,3.153,0.62,4.764,0.677l0.717-5.602c-1.118,0.034-2.147-0.548-3.161-1.131c-0.986-0.567-1.959-1.134-2.988-1.134     C185.343,126.561,185.127,126.585,184.909,126.639" />
		</defs>
		<clipPath
   id="SVGID_76_">
			<use
   xlink:href="#SVGID_75_"
   overflow="visible"
   id="use522" />
		</clipPath>
		<path
   clip-path="url(#SVGID_76_)"
   fill="#5E3F25"
   d="M189.418,133.021c-0.091,0.032-0.183,0.064-0.273,0.095    c0.692-0.833,0.541-2.15-0.13-3.001s-1.739-1.299-2.802-1.508c-0.644-0.126-1.445-0.11-1.788,0.449    c-0.132,0.216-0.167,0.479-0.155,0.732c0.06,1.308,1.234,2.296,2.439,2.805c-0.391-0.309-0.627-0.804-0.621-1.3    c0.003-0.196,0.048-0.405,0.189-0.54c0.141-0.132,0.346-0.165,0.536-0.164C188.081,130.596,188.988,131.828,189.418,133.021"
   id="path524" />
	</g>
	<g
   clip-path="url(#SVGID_2_)"
   id="g526">
		<defs
   id="defs528">
			<rect
   id="SVGID_77_"
   width="300"
   height="180" />
		</defs>
		<clipPath
   id="SVGID_78_">
			<use
   xlink:href="#SVGID_77_"
   overflow="visible"
   id="use532" />
		</clipPath>
		<path
   clip-path="url(#SVGID_78_)"
   fill="#E5B47F"
   d="M124.164,124.568c-2.64-5.988-7.536-10.95-13.489-13.669    c-5.953-2.719-12.908-3.172-19.163-1.247c-2.195,0.676-4.386,1.695-5.818,3.49c-1.517,1.902-1.989,4.422-2.23,6.844    c-0.666,6.683,0.117,13.679,3.379,19.55c2.467,4.442,6.505,8.133,11.226,9.863c-0.206,0.25-0.41,0.502-0.584,0.774    c-0.448,0.698-0.691,1.64-0.253,2.346c0.218,0.352,0.581,0.597,0.968,0.742c1.071,0.4,2.32,0.067,3.218-0.64    c0.724-0.569,1.241-1.354,1.632-2.195c4.453,0.234,8.859-1.283,12.744-3.482c4.316-2.443,8.334-6.018,9.677-10.791    C126.545,132.336,125.763,128.196,124.164,124.568"
   id="path534" />
	</g>
	<g
   clip-path="url(#SVGID_2_)"
   id="g536">
		<defs
   id="defs538">
			<path
   id="SVGID_79_"
   d="M91.512,109.652c-2.195,0.676-4.386,1.694-5.818,3.49c-1.517,1.902-1.989,4.422-2.23,6.844     c-0.666,6.684,0.117,13.679,3.379,19.551c2.468,4.44,6.505,8.132,11.225,9.862c-0.206,0.25-0.409,0.502-0.583,0.773     c-0.448,0.699-0.691,1.642-0.253,2.346c0.218,0.353,0.581,0.598,0.969,0.742c1.07,0.401,2.319,0.068,3.217-0.638     c0.725-0.571,1.241-1.355,1.632-2.196c4.453,0.234,8.859-1.284,12.744-3.482c4.315-2.443,8.334-6.019,9.677-10.791     c1.074-3.816,0.292-7.957-1.307-11.585c-2.64-5.988-7.536-10.949-13.488-13.669c-3.52-1.608-7.391-2.424-11.26-2.424     C96.742,108.476,94.069,108.866,91.512,109.652" />
		</defs>
		<clipPath
   id="SVGID_80_">
			<use
   xlink:href="#SVGID_79_"
   overflow="visible"
   id="use542" />
		</clipPath>
		<path
   clip-path="url(#SVGID_80_)"
   fill="#DCA776"
   d="M80.919,122.128c-2.647,11.177,5.771,22.573,14.775,28.186v-4.092    c-0.248,0.141-0.495,0.279-0.743,0.419c-2.651,1.497-0.309,5.433,2.374,4.062c0.253-0.129,0.507-0.259,0.76-0.389    c1.619-0.827,1.461-3.224,0-4.092c-9.436-5.605-12.382-14.169-15.388-24.094C82.443,121.289,81.136,121.213,80.919,122.128"
   id="path544" />
		<path
   clip-path="url(#SVGID_80_)"
   fill="#DCA776"
   d="M103.189,154.906c2.289-0.537,1.52-1.548,3.208-2.634    c0.735-0.475,3.54-0.623,4.442-0.866c1.461-0.395,2.885-0.896,4.291-1.451c5.04-1.992,9.638-4.933,13.427-8.814    c1.853-1.896-0.947-4.654-2.894-2.895c-4.88,4.411-10.25,7.666-16.72,9.12c-4.152,0.933-7.627,1.264-7.04,6.561    C101.977,154.592,102.492,155.07,103.189,154.906"
   id="path546" />
		<path
   clip-path="url(#SVGID_80_)"
   fill="#DCA776"
   d="M103.181,151.218c0.261-0.688,0.541-1.308,0.65-2.045    c0.099-0.67,0.13-1.343,0.164-2.02c-0.427,0.116-0.853,0.231-1.28,0.348c0.352,0.76,0.606,1.444,0.586,2.295h1.684    c-0.084-0.868-0.247-1.702-0.541-2.523c-0.456,0.266-0.911,0.53-1.367,0.796c0.382,0.467,0.683,0.979,1.001,1.489    c0.52-0.304,1.039-0.607,1.558-0.911c-0.426-0.584-0.831-1.185-1.234-1.785c-0.4,0.399-0.799,0.798-1.198,1.197    c0.959,0.663,1.718,1.55,2.472,2.427c0.83,0.968,2.123-0.411,1.375-1.375c-0.813-1.047-1.874-1.828-2.963-2.563    c-0.751-0.507-1.612,0.472-1.198,1.196c0.36,0.632,0.76,1.228,1.188,1.813c0.67,0.917,2.185,0.096,1.558-0.911    c-0.394-0.633-0.887-1.198-1.402-1.735c-0.575-0.598-1.572,0.021-1.367,0.797c0.201,0.763,0.357,1.529,0.464,2.311    c0.128,0.943,1.692,0.715,1.654-0.223c-0.046-1.141-0.375-2.295-1.191-3.127c-0.527-0.538-1.238,0.038-1.148,0.668    c0.163,1.145,0.073,2.557-0.166,3.688C102.383,151.487,103.016,151.651,103.181,151.218"
   id="path548" />
		<path
   clip-path="url(#SVGID_80_)"
   fill="#DCA776"
   d="M101.448,148.397c-0.067-0.544,0.271-0.956,0.821-0.979    c0.493-0.021,0.928,0.396,1.246,0.715c0.651,0.651,1.109,1.466,1.74,2.139c0.88,0.936,2.173-0.431,1.387-1.388    c-1.097-1.336-2.174-3.144-4.174-2.974c-1.232,0.104-2.343,1.363-1.849,2.599C100.778,148.906,101.512,148.912,101.448,148.397"
   id="path550" />
		<path
   clip-path="url(#SVGID_80_)"
   fill="#DCA776"
   d="M102.687,147.116c3.294,2.304,7.527,2.397,11.234,1.076    c1.206-0.429,0.7-2.353-0.533-1.936c-3.508,1.188-6.857,0.986-10.433,0.224C102.561,146.396,102.362,146.89,102.687,147.116"
   id="path552" />
		<path
   clip-path="url(#SVGID_80_)"
   fill="#E5B47F"
   d="M98.946,151.472c3.309-2.109,1.348-6.851-0.353-9.339    c-1.367-2.002-4.577-0.202-3.292,1.924c0.66,1.091,1.346,2.128,1.685,3.372c0.312,1.142,0.314,2.287,0.491,3.444    C97.574,151.509,98.449,151.788,98.946,151.472"
   id="path554" />
		<path
   clip-path="url(#SVGID_80_)"
   fill="#E5B47F"
   d="M89.663,140.051c0.684,3.851,4.633,6.486,7.348,8.92    c2.043,1.831,4.722-0.917,2.983-2.982c-2.363-2.808-5.957-4.586-8.816-6.819C90.459,138.606,89.497,139.117,89.663,140.051"
   id="path556" />
		<path
   clip-path="url(#SVGID_80_)"
   fill="#DCA776"
   d="M103.177,148.127c-0.576,4.466-5.161,5.1-8.42,3.056    c-1.172-0.735-2.12,1.027-1.061,1.814c2.122,1.575,5.234,2.136,7.626,0.81c2.022-1.12,3.197-3.52,2.584-5.778    C103.788,147.594,103.227,147.737,103.177,148.127"
   id="path558" />
		<path
   clip-path="url(#SVGID_80_)"
   fill="#DCA776"
   d="M128.1,130.444c-2.244,0.629-3.535,0.052-3.689,2.846    c-0.254,4.6-1.85,7.607-4.9,11.035c-0.926,1.041,0.563,2.562,1.541,1.541c2.311-2.412,4.352-5.229,5.153-8.525    c0.169-0.694,0.294-1.445,0.337-2.158c0.038-0.626-0.373-2.141-0.03-2.582c0.077-0.1,0.936-0.299,1.096-0.4    c0.597-0.378,0.593-0.431,0.964-1.143C128.737,130.742,128.464,130.342,128.1,130.444"
   id="path560" />
		<path
   clip-path="url(#SVGID_80_)"
   fill="#E5B47F"
   d="M100.602,146.778c0.937-0.047,1.747-0.302,2.652,0.422    c0.328,0.263,0.481,0.706,0.825,0.973c0.802,0.62,1.806,0.703,2.773,0.54c2.537-0.429,5.268-1.688,7.075-3.516    c1.849-1.867-0.886-4.473-2.839-2.839c-1.091,0.912-2.574,1.814-3.981,2.105c-1.231,0.254-0.803-0.182-1.905-0.976    c-1.876-1.351-4.06-0.675-5.666,0.715C98.557,145.051,99.333,146.843,100.602,146.778"
   id="path562" />
		<path
   clip-path="url(#SVGID_80_)"
   fill="#E5B47F"
   d="M107.487,145.937c-0.073-0.054-0.146-0.107-0.219-0.163    c-0.895-0.953-2.515,0.037-2.169,1.264c0.576,2.043,2.829,1.588,4.403,1.119c2.603-0.773,5.223-1.894,7.565-3.266    c2.094-1.226,0.26-4.175-1.869-3.197c-1.5,0.689-2.973,1.43-4.48,2.104c-0.717,0.321-1.437,0.63-2.159,0.939    c-0.428,0.185-1.435,0.871-1.864,0.704c0.302,0.532,0.604,1.064,0.907,1.597c-0.039,0.088-0.077,0.175-0.115,0.263    C108.036,147.026,107.964,146.228,107.487,145.937"
   id="path564" />
		<path
   clip-path="url(#SVGID_80_)"
   fill="#DCA776"
   d="M111.965,133.732c2.69,0.695,2.51-4.198,2.151-5.685    c-0.646-2.681-2.655-5.146-5.565-5.336c-6.567-0.428-8.57,7.629-4.597,11.828c1.037,1.098,2.53-0.499,1.624-1.624    c-2.057-2.554-1.957-6.958,1.784-7.847c1.726-0.41,3.234,0.466,4.104,1.934c0.44,0.744,0.709,1.581,0.852,2.432    c0.079,0.471,0.407,3.127-0.353,3.251C111.42,132.774,111.476,133.606,111.965,133.732"
   id="path566" />
		<path
   clip-path="url(#SVGID_80_)"
   fill="#DCA776"
   d="M92.582,139.315c3.018-2.989,2.409-8.938-1.194-11.241    c-1.635-1.044-3.791-1.25-5.484-0.192c-1.901,1.187-2.313,3.511-2.317,5.58c-0.003,1.546,2.288,1.52,2.383,0    c0.087-1.403,0.13-2.841,1.426-3.629c1.467-0.895,3.214,0.116,4.052,1.389c1.45,2.201,0.982,5.176,0.168,7.532    C91.421,139.315,92.19,139.705,92.582,139.315"
   id="path568" />
		<path
   clip-path="url(#SVGID_80_)"
   fill="#DCA776"
   d="M121.627,138.49c-0.135,1.805-0.776,3.358-1.845,4.809    c-0.437,0.594,0.567,1.379,1.031,0.795c1.277-1.604,1.932-3.552,1.869-5.604C122.661,137.805,121.677,137.817,121.627,138.49"
   id="path570" />
	</g>
	<g
   clip-path="url(#SVGID_2_)"
   id="g572">
		<defs
   id="defs574">
			<rect
   id="SVGID_81_"
   width="300"
   height="180" />
		</defs>
		<clipPath
   id="SVGID_82_">
			<use
   xlink:href="#SVGID_81_"
   overflow="visible"
   id="use578" />
		</clipPath>
		<path
   clip-path="url(#SVGID_82_)"
   fill="#3B2C27"
   d="M119.312,141.965c-0.896,1.166-2.585,1.224-4.026,1.514    c-1.748,0.354-3.392,1.206-4.688,2.432c3.58-3.81,7.307-7.889,8.395-13.001c0.681,2.102,1.011,4.317,0.97,6.527    C119.947,140.323,119.851,141.263,119.312,141.965"
   id="path580" />
		<path
   clip-path="url(#SVGID_82_)"
   fill="#FFFFFF"
   d="M105.137,125.294c-2.082,1.514-3.324,4.186-2.931,6.729    c0.392,2.544,2.512,4.78,5.063,5.116c1.33,0.175,2.72-0.15,3.834-0.897c1.644-1.101,2.606-3.054,2.77-5.026    c0.156-1.887-0.4-3.864-1.686-5.253c-1.286-1.389-3.331-2.101-5.159-1.606C106.345,124.539,105.709,124.878,105.137,125.294"
   id="path582" />
		<path
   clip-path="url(#SVGID_82_)"
   fill="#FFFFFF"
   d="M89.364,140.963c1.4,0.108,2.691-0.646,3.487-1.492    c1.235-1.315,1.519-3.295,1.237-5.076c-0.3-1.893-1.228-3.739-2.782-4.859c-1.555-1.12-3.771-1.387-5.413-0.399    c-2.531,1.521-2.775,5.197-1.761,7.973c0.632,1.729,2.325,3.64,3.616,3.76"
   id="path584" />
	</g>
	<g
   clip-path="url(#SVGID_2_)"
   id="g586">
		<defs
   id="defs588">
			<path
   id="SVGID_83_"
   d="M110.813,105.527c-3.824-4.237-7.777-8.357-11.852-12.354c1.479,2.949,2.495,6.127,3.001,9.386     c-2.587-3.232-6.288-5.558-10.325-6.482c2.334,2.188,4.011,5.065,4.767,8.174c-6.456-1.783-13.632-0.783-19.355,2.695     c4.033-0.256,6.04,0.021,9.839,1.396c-4.518-0.642-7.2,0.932-10.803,3.733c2.072-0.135,4.145-0.271,6.216-0.407     c-5.802,1.987-10.414,7.125-11.765,13.106c2.994-3.232,5.971-5.238,10.216-6.42c-3.015,2.62-4.182,5.907-4.913,9.835     c0.534-0.782,1.515-1.232,2.456-1.127c-0.531,2.297-2.07,4.342-4.129,5.489c3.37-0.095,6.245-2.452,8.432-5.017     s4.028-5.498,6.75-7.488c-0.569,1.202-1.139,2.403-1.708,3.604c2.239-3.11,5.465-5.5,9.093-6.735     c-1.091,2.823-2.612,5.478-4.495,7.848c5.473-3.595,11.409-6.486,17.613-8.58c-1.54,1.663-3.08,3.327-4.619,4.99     c2.954-1.198,5.91-2.396,8.866-3.595c-0.14,1.918,0.187,3.869,0.942,5.637c0.436-1.239,0.873-2.477,1.309-3.717     c1.869,3.656,1.115,7.576,6.066,10.59c-0.155-2.058,0.97-0.862,2.369-2.153c1.517-1.4,1.171-6.027,2.663-4.603     c0.914-3.189,0.956-6.624,0.122-9.834c-0.326,1.148-0.652,2.297-0.978,3.445c0.212-1.744-0.03-3.542-0.695-5.169     c-0.485,0.502-0.822,1.144-0.957,1.829c-0.696-4.188-3.093-8.064-6.526-10.56c0.425,1.218,0.85,2.437,1.274,3.653     c-1.207-1.729-2.665-3.284-4.312-4.6c0.181,1.322,0.364,2.646,0.547,3.969c-3.981-4.73-6.77-10.456-8.04-16.505     C106.162,94.835,108.509,100.482,110.813,105.527" />
		</defs>
		<clipPath
   id="SVGID_84_">
			<use
   xlink:href="#SVGID_83_"
   overflow="visible"
   id="use592" />
		</clipPath>
		
			<linearGradient
   id="SVGID_85_"
   gradientUnits="userSpaceOnUse"
   x1="0"
   y1="180"
   x2="1"
   y2="180"
   gradientTransform="matrix(57.6289 0 0 -57.6289 70.5402 10484.2607)">
			<stop
   offset="0"
   style="stop-color:#DA8D00"
   id="stop595" />
			<stop
   offset="3.786670e-004"
   style="stop-color:#DA8D00"
   id="stop597" />
			<stop
   offset="1"
   style="stop-color:#D16A18"
   id="stop599" />
		</linearGradient>
		<rect
   x="70.536"
   y="89.563"
   clip-path="url(#SVGID_84_)"
   fill="url(#SVGID_85_)"
   width="57.867"
   height="42.99"
   id="rect601" />
	</g>
	<g
   clip-path="url(#SVGID_2_)"
   id="g603">
		<defs
   id="defs605">
			<rect
   id="SVGID_86_"
   width="300"
   height="180" />
		</defs>
		<clipPath
   id="SVGID_87_">
			<use
   xlink:href="#SVGID_86_"
   overflow="visible"
   id="use609" />
		</clipPath>
		<path
   clip-path="url(#SVGID_87_)"
   fill="#E5B47F"
   d="M121.799,127.806c-0.305-1.976-0.59-4.1,0.305-5.886    c0.894-1.787,3.484-2.834,4.952-1.478c0.507,0.467,0.791,1.127,0.987,1.788c0.651,2.191,0.459,4.623-0.527,6.686    c-0.86,1.797-2.875,3.441-4.702,2.648"
   id="path611" />
		<path
   clip-path="url(#SVGID_87_)"
   fill="#C7BAA3"
   d="M43.85,118.831c1.756,1.43,4.538,0.382,5.917-1.413    c0.413-0.538,0.756-1.145,0.904-1.807c0.456-2.04-1.194-4.166-3.231-4.633c-2.037-0.468-4.213,0.466-5.659,1.975    c-1.203-1.697-3.045-3.112-5.127-3.146c-2.081-0.034-4.207,1.771-3.955,3.837c0.26,2.126,2.655,3.444,3.097,5.54    c-1.427,0.179-2.56,1.451-2.869,2.855c-0.31,1.405,0.087,2.89,0.781,4.149c1.241,2.252,3.562,3.977,6.128,4.134    c2.567,0.158,5.241-1.473,5.949-3.944C46.52,123.811,45.163,121.157,43.85,118.831"
   id="path613" />
	</g>
	
	<g
   clip-path="url(#SVGID_2_)"
   id="g947">
		<defs
   id="defs949">
			<rect
   id="SVGID_90_"
   width="300"
   height="180" />
		</defs>
		<clipPath
   id="SVGID_91_">
			<use
   xlink:href="#SVGID_90_"
   overflow="visible"
   id="use953" />
		</clipPath>
		<path
   clip-path="url(#SVGID_91_)"
   fill="#C7BAA3"
   d="M47.712,55.213c2.278,0.917,4.421,2.315,5.853,4.31    c1.432,1.996,2.071,4.641,1.321,6.979c2.046-1.459,4.948-1.328,7.144-0.107c2.196,1.22,3.754,3.366,4.777,5.661    c0.688,1.544,1.17,3.255,0.87,4.92c-0.3,1.664-1.553,3.241-3.226,3.482c-1.674,0.241-3.493-1.298-3.176-2.959    c-2.388,4.753-7.511,8.006-12.829,8.146c-2.097,0.056-4.368-0.431-5.749-2.011c-1.382-1.579-1.322-4.45,0.515-5.465    c-3.24-1.797-5.98-4.482-7.842-7.684c-1.718-2.955-2.665-6.688-1.204-9.778s6.047-4.637,8.469-2.226    c-1.127-0.926-0.48-2.951,0.839-3.572C44.794,54.289,46.359,54.669,47.712,55.213"
   id="path955" />
	</g>
	
	<g
   clip-path="url(#SVGID_2_)"
   id="g1289">
		<defs
   id="defs1291">
			<rect
   id="SVGID_94_"
   width="300"
   height="180" />
		</defs>
		<clipPath
   id="SVGID_95_">
			<use
   xlink:href="#SVGID_94_"
   overflow="visible"
   id="use1295" />
		</clipPath>
		<path
   clip-path="url(#SVGID_95_)"
   fill="#C7BAA3"
   d="M246.887,33.98c0.112-1.56-0.94-2.961-2.089-4.023    c-1.542-1.428-3.363-2.554-5.329-3.296c1.509,0.485,3.087,0.918,4.66,0.725c1.573-0.192,3.151-1.153,3.621-2.667    c0.538-1.738-0.487-3.564-1.663-4.952c-2.446-2.892-5.746-5.053-9.375-6.14c-1.394-0.418-3.118-0.596-4.104,0.474    c-0.998,1.084-0.659,2.793-0.259,4.21c-0.914-0.738-1.863-1.494-2.996-1.804c-1.133-0.311-2.508-0.056-3.174,0.912    c-0.677,0.982-0.422,2.331,0.067,3.419c0.555,1.229,1.374,2.338,2.39,3.226c-2.322-0.121-4.647,1.328-5.56,3.467    s-0.349,4.82,1.347,6.412c0.754,0.707,1.783,1.218,2.802,1.042c0.975-0.168,1.795-1.007,1.941-1.985    c0.147-0.978-0.392-2.021-1.274-2.468c1.968,2.026,4.027,4.007,6.466,5.43c2.439,1.424,5.314,2.259,8.103,1.821    C244.538,37.458,246.734,36.076,246.887,33.98"
   id="path1297" />
	</g>
	
	<g
   clip-path="url(#SVGID_2_)"
   id="g1469">
		<defs
   id="defs1471">
			<rect
   id="SVGID_98_"
   width="300"
   height="180" />
		</defs>
		<clipPath
   id="SVGID_99_">
			<use
   xlink:href="#SVGID_98_"
   overflow="visible"
   id="use1475" />
		</clipPath>
		<path
   clip-path="url(#SVGID_99_)"
   fill="#C7BAA3"
   d="M271.529,74.833c1.511,0.867,2.399,2.55,2.754,4.256    c0.705,3.403-0.565,7.145-3.196,9.416c1.471-1.87,4.819-1.195,5.971,0.887c1.151,2.082,0.434,4.808-1.127,6.604    c-1.838,2.118-5.494,3.055-7.369,0.97c0.756,0.84-4.348,3.225-4.855,3.339c-2.254,0.512-4.555,0.037-6.451-1.268    c-3.544-2.439-6.038-8.147-3.97-11.825c1.98-3.523,7.795-0.616,7.795-0.616s-3.876-4.522-2.672-8.702    c0.622-2.16,1.432-4.707,4.003-5.35c2.084-0.521,4.178,0.723,4.467,2.909C268.113,74.238,270.004,73.958,271.529,74.833"
   id="path1477" />
	</g>
	
	<g
   clip-path="url(#SVGID_2_)"
   id="g1649">
		<defs
   id="defs1651">
			<rect
   id="SVGID_102_"
   width="300"
   height="180" />
		</defs>
		<clipPath
   id="SVGID_103_">
			<use
   xlink:href="#SVGID_102_"
   overflow="visible"
   id="use1655" />
		</clipPath>
		<path
   clip-path="url(#SVGID_103_)"
   fill="#BF844A"
   d="M126.66,126.449c0.727-1.701-0.111-3.905-1.785-4.694    c-0.464-0.219-1.046-0.326-1.469-0.036c-0.445,0.307-0.537,0.914-0.581,1.452c-0.072,0.9-0.11,1.852,0.301,2.654    c0.277,0.542,0.738,0.969,1.04,1.498c0.302,0.528,0.407,1.261-0.014,1.7c1.059-0.584,1.579-1.989,1.156-3.122    c-0.098-0.265-0.242-0.521-0.245-0.803s0.214-0.594,0.493-0.559c0.121,0.015,0.225,0.09,0.317,0.17    c0.496,0.431,0.797,1.079,0.807,1.736"
   id="path1657" />
		<path
   clip-path="url(#SVGID_103_)"
   fill="#658398"
   d="M163.063,69.516c0.208,0.122,0.185,0.426,0.134,0.662    c-0.281,1.303-0.562,2.606-0.842,3.909c-2.048-0.359-4.144-0.278-6.218-0.152c-7.168,0.438-14.362,1.417-21.507,0.683    c8.134,0.416,16.351-0.859,23.975-3.721c1.332-0.5,2.65-1.049,4.031-1.389C162.777,69.473,162.937,69.442,163.063,69.516"
   id="path1659" />
		<path
   clip-path="url(#SVGID_103_)"
   fill="#DB9824"
   d="M107.29,111.981c-4.802-1.688-10.002-3.697-12.528-8.117    c3.455,2.945,7.864,4.751,12.392,5.077c-1.007-2.193-1.808-4.481-2.387-6.823c2.198,2.131,4.176,4.488,5.894,7.021    c0.118-0.139,0.115-0.34,0.105-0.521c-0.1-1.968-0.2-3.938-0.3-5.905c2.321,2.902,2.707,7.211,0.939,10.479    c1.058-2.039,3.206-3.472,5.495-3.661c-1.632,1.142-2.929,2.757-3.692,4.597"
   id="path1661" />
		<path
   clip-path="url(#SVGID_103_)"
   d="M200.173,112.608c0,0.908-0.996,1.645-2.225,1.645c-1.228,0-2.224-0.736-2.224-1.645    c0-0.907,0.996-1.644,2.224-1.644C199.177,110.965,200.173,111.701,200.173,112.608"
   id="path1663" />
		<path
   clip-path="url(#SVGID_103_)"
   d="M216.804,102.166c0,0.908-0.996,1.645-2.225,1.645c-1.228,0-2.224-0.736-2.224-1.645    s0.996-1.644,2.224-1.644C215.808,100.522,216.804,101.258,216.804,102.166"
   id="path1665" />
		<path
   clip-path="url(#SVGID_103_)"
   d="M94.182,134.51c0,1.192-0.966,2.158-2.158,2.158s-2.158-0.966-2.158-2.158    c0-1.191,0.966-2.158,2.158-2.158S94.182,133.318,94.182,134.51"
   id="path1667" />
		<path
   clip-path="url(#SVGID_103_)"
   d="M114.148,129.724c0,1.191-0.966,2.157-2.158,2.157c-1.192,0-2.158-0.966-2.158-2.157    c0-1.192,0.966-2.158,2.158-2.158C113.182,127.565,114.148,128.531,114.148,129.724"
   id="path1669" />
		<path
   clip-path="url(#SVGID_103_)"
   d="M140.224,45.602c0,1.388-0.952,2.514-2.127,2.514c-1.175,0-2.127-1.126-2.127-2.514    c0-1.388,0.952-2.514,2.127-2.514C139.272,43.088,140.224,44.214,140.224,45.602"
   id="path1671" />
	</g>
</g>
</svg>